M48
; DRILL file {KiCad (5.1.8)-1} date 03/16/21 20:17:22
; FORMAT={-:-/ absolute / inch / decimal}
; #@! TF.CreationDate,2021-03-16T20:17:22-07:00
; #@! TF.GenerationSoftware,Kicad,Pcbnew,(5.1.8)-1
; #@! TF.FileFunction,Plated,1,2,PTH
FMAT,2
INCH
T1C0.0157
T2C0.0197
T3C0.0256
T4C0.0394
T5C0.0591
T6C0.0787
T7C0.0984
%
G90
G05
T1
X1.5Y-4.98
X1.51Y-1.4
X1.51Y-1.81
X1.524Y-1.856
X1.5358Y-1.92
X1.54Y-4.08
X1.5458Y-3.84
X1.55Y-2.28
X1.56Y-1.85
X1.56Y-3.23
X1.56Y-3.74
X1.57Y-3.64
X1.57Y-3.89
X1.5917Y-4.1083
X1.6Y-3.76
X1.6004Y-1.8602
X1.62Y-2.54
X1.68Y-1.93
X1.69Y-3.99
X1.69Y-4.04
X1.69Y-4.19
X1.69Y-1.99
X1.7Y-4.08
X1.71Y-1.46
X1.729Y-1.9845
X1.73Y-1.24
X1.74Y-1.15
X1.78Y-1.95
X1.78Y-2.08
X1.78Y-4.07
X1.7855Y-4.2412
X1.8Y-3.39
X1.8Y-3.52
X1.81Y-1.67
X1.84Y-2.89
X1.87Y-3.49
X1.8774Y-4.0225
X1.88Y-2.16
X1.88Y-2.34
X1.8805Y-4.2279
X1.89Y-3.42
X1.9047Y-4.1782
X1.9162Y-4.058
X1.9326Y-3.6816
X1.9417Y-3.7252
X1.9448Y-4.0807
X1.9537Y-3.7624
X1.96Y-1.57
X1.9657Y-3.8264
X1.9657Y-3.8945
X1.97Y-3.37
X1.97Y-4.19
X1.974Y-4.1445
X1.9858Y-3.0484
X1.99Y-1.66
X1.9941Y-3.8494
X2.0023Y-3.6141
X2.0027Y-4.2468
X2.013Y-3.649
X2.0155Y-4.1984
X2.0186Y-4.0629
X2.02Y-2.36
X2.02Y-2.42
X2.02Y-2.62
X2.0299Y-3.8562
X2.03Y-1.23
X2.0304Y-3.9491
X2.0363Y-3.6786
X2.04Y-2.88
X2.0484Y-3.9174
X2.06Y-1.2
X2.06Y-2.06
X2.0602Y-3.7502
X2.07Y-4.09
X2.0725Y-3.8715
X2.0748Y-3.6952
X2.09Y-4.21
X2.0902Y-4.0596
X2.0955Y-1.1741
X2.1Y-3.84
X2.1105Y-4.0293
X2.1155Y-3.7359
X2.12Y-1.29
X2.1224Y-3.4692
X2.1291Y-3.5051
X2.13Y-3.89
X2.1378Y-3.5583
X2.14Y-3.93
X2.14Y-4.08
X2.1752Y-2.1717
X2.1775Y-3.7898
X2.1783Y-2.1323
X2.18Y-4.29
X2.18Y-4.5235
X2.18Y-4.6035
X2.18Y-4.65
X2.1821Y-2.0921
X2.1826Y-4.566
X2.1885Y-4.4246
X2.19Y-4.03
X2.19Y-4.47
X2.1935Y-3.8258
X2.1938Y-3.7389
X2.2Y-4.39
X2.2043Y-4.35
X2.2171Y-1.7283
X2.23Y-3.94
X2.25Y-2.17
X2.26Y-3.26
X2.2795Y-3.3132
X2.2892Y-3.3513
X2.3124Y-1.8631
X2.38Y-2.14
X2.38Y-3.74
X2.3917Y-4.4783
X2.43Y-3.79
X2.57Y-4.96
X2.58Y-4.3
X2.5802Y-2.1502
X2.59Y-2.91
X2.59Y-3.71
X2.5917Y-2.0783
X2.6Y-3.49
X2.6098Y-2.9502
X2.6398Y-2.8498
X2.72Y-4.53
X2.7633Y-2.1899
X2.77Y-4.63
X2.78Y-1.39
X2.78Y-4.45
X2.85Y-3.7815
X2.8715Y-3.024
X2.89Y-4.49
X2.9Y-1.32
X2.9Y-2.12
X2.9Y-2.92
X2.9Y-3.72
X2.9Y-4.07
X2.95Y-4.45
X2.97Y-1.746
X3.16Y-3.62
X3.16Y-4.03
X3.18Y-4.38
X3.1902Y-3.7502
X3.21Y-1.28
X3.21Y-2.08
X3.21Y-2.88
X3.21Y-3.68
X3.21Y-4.35
X3.2116Y-4.3135
X3.23Y-4.4142
X3.24Y-4.29
X3.32Y-4.07
X3.33Y-3.51
X3.34Y-4.11
X3.38Y-1.28
X3.39Y-2.08
X3.39Y-2.88
X3.39Y-3.68
X3.4056Y-4.2775
X3.4181Y-4.3118
X3.42Y-4.39
X3.4263Y-4.3474
X3.4331Y-4.4241
X3.45Y-4.61
X3.45Y-4.99
X3.7Y-1.32
X3.7Y-2.12
X3.7Y-2.92
X3.7Y-3.72
X3.7Y-4.04
X3.78Y-1.7637
X4.0Y-4.62
X4.01Y-1.28
X4.01Y-2.08
X4.01Y-2.88
X4.01Y-3.68
X4.16Y-3.51
X4.1883Y-1.2783
X4.19Y-2.08
X4.19Y-2.88
X4.19Y-3.68
X4.25Y-4.98
X4.43Y-4.67
X4.5Y-1.32
X4.5Y-2.12
X4.5Y-2.92
X4.5Y-3.72
X4.5Y-4.2558
X4.55Y-1.79
X4.64Y-4.3342
X4.68Y-4.31
X4.8Y-1.28
X4.81Y-2.08
X4.81Y-2.88
X4.81Y-3.68
X4.92Y-3.5
X4.94Y-4.3
X4.95Y-1.18
X4.99Y-1.28
X4.99Y-2.08
X4.99Y-2.88
X4.99Y-3.68
X5.0396Y-4.4802
X5.04Y-4.61
X5.05Y-1.18
X5.07Y-4.97
X5.08Y-4.46
X5.24Y-1.28
X5.3Y-2.12
X5.3Y-2.92
X5.3Y-3.72
X5.3Y-4.26
X5.35Y-1.83
X5.36Y-1.28
X5.54Y-4.46
X5.55Y-1.17
X5.5502Y-2.8498
X5.61Y-1.28
X5.61Y-2.08
X5.61Y-2.88
X5.61Y-3.68
X5.62Y-1.33
X5.71Y-3.5
X5.78Y-4.3
X5.79Y-1.28
X5.79Y-2.08
X5.79Y-2.88
X5.79Y-3.68
X5.8227Y-4.4527
X5.9Y-5.01
X5.94Y-2.96
X5.96Y-1.23
X5.96Y-2.11
X5.96Y-2.36
X5.97Y-1.38
X5.99Y-2.25
X5.9997Y-2.3593
X6.0Y-1.46
X6.03Y-1.31
T2
X2.8262Y-2.27
X2.8478Y-2.2178
X2.8478Y-2.3222
X2.9Y-2.1962
X2.9Y-2.3438
X2.9522Y-2.2178
X2.9522Y-2.3222
X2.9738Y-2.27
X5.2262Y-2.27
X5.2478Y-2.2178
X5.2478Y-2.3222
X5.3Y-2.1962
X5.3Y-2.3438
X5.3522Y-2.2178
X5.3522Y-2.3222
X5.3738Y-2.27
X2.8262Y-4.68
X2.8478Y-4.6278
X2.8478Y-4.7322
X2.9Y-4.6062
X2.9Y-4.7538
X2.9522Y-4.6278
X2.9522Y-4.7322
X2.9738Y-4.68
X5.2262Y-4.68
X5.2478Y-4.6278
X5.2478Y-4.7322
X5.3Y-4.6062
X5.3Y-4.7538
X5.3522Y-4.6278
X5.3522Y-4.7322
X5.3738Y-4.68
X1.7462Y-4.7
X1.7678Y-4.6478
X1.7678Y-4.7522
X1.82Y-4.6262
X1.82Y-4.7738
X1.8722Y-4.6478
X1.8722Y-4.7522
X1.8938Y-4.7
X4.4262Y-3.08
X4.4478Y-3.0278
X4.4478Y-3.1322
X4.5Y-3.0062
X4.5Y-3.1538
X4.5522Y-3.0278
X4.5522Y-3.1322
X4.5738Y-3.08
T4
X1.7216Y-2.44
X1.7216Y-3.0109
X1.82Y-2.44
X1.9184Y-2.44
X1.9184Y-3.0109
T5
X4.0Y-2.5
X4.25Y-2.4
X3.2Y-1.7
X3.45Y-1.6
X4.0Y-4.9
X4.25Y-4.8
X5.6Y-3.3
X5.85Y-3.2
X5.6Y-4.9
X5.85Y-4.8
X2.4Y-4.1
X2.65Y-4.0
X2.4Y-2.5
X2.65Y-2.4
X2.4Y-4.9
X2.65Y-4.8
X4.0Y-4.1
X4.25Y-4.0
X3.2Y-2.5
X3.45Y-2.4
X4.8Y-4.9
X5.05Y-4.8
X3.2Y-3.3
X3.45Y-3.2
X5.6Y-4.1
X5.85Y-4.0
X4.0Y-1.7
X4.25Y-1.6
X5.6Y-1.7
X5.85Y-1.6
X3.2Y-4.9
X3.45Y-4.8
X2.4Y-3.3
X2.65Y-3.2
X5.6Y-2.5
X5.85Y-2.4
X4.8Y-4.1
X5.05Y-4.0
X3.2Y-4.1
X3.45Y-4.0
X4.8Y-2.5
X5.05Y-2.4
X4.8Y-3.3
X5.05Y-3.2
X4.0Y-3.3
X4.25Y-3.2
X2.4Y-1.7
X2.65Y-1.6
X4.8Y-1.7
X5.05Y-1.6
T7
X4.5Y-3.08
X2.9Y-2.27
X5.3Y-2.27
X2.9Y-4.68
X5.3Y-4.68
X1.82Y-4.7
T3
G00X5.1299Y-1.1324
M15
G01X5.1299Y-1.1835
M16
G05
G00X5.1299Y-1.2889
M15
G01X5.1299Y-1.3282
M16
G05
G00X5.4701Y-1.1324
M15
G01X5.4701Y-1.1835
M16
G05
G00X5.4701Y-1.2889
M15
G01X5.4701Y-1.3282
M16
G05
T6
G00X1.5995Y-2.7254
M15
G01X1.5995Y-2.7451
M16
G05
G00X2.0405Y-2.7254
M15
G01X2.0405Y-2.7451
M16
G05
T0
M30
