M48
; DRILL file {KiCad (5.1.8)-1} date 12/21/20 14:13:37
; FORMAT={-:-/ absolute / inch / decimal}
; #@! TF.CreationDate,2020-12-21T14:13:37-08:00
; #@! TF.GenerationSoftware,Kicad,Pcbnew,(5.1.8)-1
; #@! TF.FileFunction,NonPlated,1,2,NPTH
FMAT,2
INCH
T1C0.0236
T2C0.0248
T3C0.0669
T4C0.1575
%
G90
G05
T1
X5.4181Y-1.28
T2
X5.1819Y-1.28
X5.4181Y-1.28
T3
X2.3Y-3.1
X2.7Y-3.1
X3.9Y-4.7
X4.3Y-4.7
X4.7Y-4.7
X5.1Y-4.7
X3.1Y-2.3
X3.5Y-2.3
X5.5Y-3.1
X5.9Y-3.1
X4.7Y-3.1
X5.1Y-3.1
X5.5Y-2.3
X5.9Y-2.3
X2.3Y-2.3
X2.7Y-2.3
X5.5Y-3.9
X5.9Y-3.9
X2.3Y-1.5
X2.7Y-1.5
X3.1Y-3.9
X3.5Y-3.9
X5.5Y-4.7
X5.9Y-4.7
X2.3Y-4.7
X2.7Y-4.7
X2.3Y-3.9
X2.7Y-3.9
X3.9Y-3.1
X4.3Y-3.1
X4.7Y-2.3
X5.1Y-2.3
X5.5Y-1.5
X5.9Y-1.5
X4.7Y-1.5
X5.1Y-1.5
X3.1Y-4.7
X3.5Y-4.7
X3.9Y-2.3
X4.3Y-2.3
X3.1Y-3.1
X3.5Y-3.1
X4.7Y-3.9
X5.1Y-3.9
X3.9Y-1.5
X4.3Y-1.5
X3.9Y-3.9
X4.3Y-3.9
X3.1Y-1.5
X3.5Y-1.5
T4
X2.5Y-3.1
X4.1Y-4.7
X4.9Y-4.7
X3.3Y-2.3
X5.7Y-3.1
X4.9Y-3.1
X5.7Y-2.3
X2.5Y-2.3
X5.7Y-3.9
X2.5Y-1.5
X3.3Y-3.9
X5.7Y-4.7
X2.5Y-4.7
X2.5Y-3.9
X4.1Y-3.1
X4.9Y-2.3
X5.7Y-1.5
X4.9Y-1.5
X3.3Y-4.7
X4.1Y-2.3
X3.3Y-3.1
X4.9Y-3.9
X4.1Y-1.5
X4.1Y-3.9
X3.3Y-1.5
T0
M30
