%TF.GenerationSoftware,KiCad,Pcbnew,(5.1.8)-1*%
%TF.CreationDate,2020-12-04T18:20:35-08:00*%
%TF.ProjectId,DeskTopVolKnob_Keypad,4465736b-546f-4705-966f-6c4b6e6f625f,rev?*%
%TF.SameCoordinates,Original*%
%TF.FileFunction,Legend,Top*%
%TF.FilePolarity,Positive*%
%FSLAX46Y46*%
G04 Gerber Fmt 4.6, Leading zero omitted, Abs format (unit mm)*
G04 Created by KiCad (PCBNEW (5.1.8)-1) date 2020-12-04 18:20:35*
%MOMM*%
%LPD*%
G01*
G04 APERTURE LIST*
%ADD10C,0.120000*%
%ADD11C,0.150000*%
%ADD12C,0.100000*%
G04 APERTURE END LIST*
D10*
%TO.C,SW11*%
X131445000Y-31115000D02*
X131445000Y-45085000D01*
X117475000Y-31115000D02*
X131445000Y-31115000D01*
X117475000Y-45085000D02*
X117475000Y-31115000D01*
X131445000Y-45085000D02*
X117475000Y-45085000D01*
%TO.C,R11*%
X38339500Y-38845258D02*
X38339500Y-38370742D01*
X39384500Y-38845258D02*
X39384500Y-38370742D01*
%TO.C,SW27*%
X43028000Y-90018000D02*
X42778000Y-90018000D01*
X42778000Y-90018000D02*
X42778000Y-83718000D01*
X42778000Y-83718000D02*
X43028000Y-83718000D01*
X47528000Y-90018000D02*
X44928000Y-90018000D01*
X49428000Y-83718000D02*
X49678000Y-83718000D01*
X49678000Y-83718000D02*
X49678000Y-90018000D01*
X49678000Y-90018000D02*
X49428000Y-90018000D01*
X44928000Y-83718000D02*
X47528000Y-83718000D01*
%TO.C,R10*%
X49917758Y-79516500D02*
X49443242Y-79516500D01*
X49917758Y-78471500D02*
X49443242Y-78471500D01*
%TO.C,R9*%
X42909258Y-58942500D02*
X42434742Y-58942500D01*
X42909258Y-57897500D02*
X42434742Y-57897500D01*
%TO.C,R8*%
X49917758Y-58942500D02*
X49443242Y-58942500D01*
X49917758Y-57897500D02*
X49443242Y-57897500D01*
%TO.C,R7*%
X42909258Y-79516500D02*
X42434742Y-79516500D01*
X42909258Y-78471500D02*
X42434742Y-78471500D01*
%TO.C,R6*%
X45705500Y-57641258D02*
X45705500Y-57166742D01*
X46750500Y-57641258D02*
X46750500Y-57166742D01*
%TO.C,R5*%
X52053258Y-49798500D02*
X51578742Y-49798500D01*
X52053258Y-48753500D02*
X51578742Y-48753500D01*
%TO.C,R4*%
X49007500Y-30717258D02*
X49007500Y-30242742D01*
X50052500Y-30717258D02*
X50052500Y-30242742D01*
%TO.C,R3*%
X48528500Y-30242742D02*
X48528500Y-30717258D01*
X47483500Y-30242742D02*
X47483500Y-30717258D01*
%TO.C,Y1*%
X39800777Y-54226676D02*
X41780676Y-52246777D01*
X41780676Y-52246777D02*
X39447223Y-49913324D01*
%TO.C,C8*%
X46376000Y-33127836D02*
X46376000Y-32912164D01*
X47096000Y-33127836D02*
X47096000Y-32912164D01*
%TO.C,C7*%
X37921693Y-53924810D02*
X37769190Y-53772307D01*
X38430810Y-53415693D02*
X38278307Y-53263190D01*
%TO.C,C6*%
X41732810Y-53772307D02*
X41580307Y-53924810D01*
X41223693Y-53263190D02*
X41071190Y-53415693D01*
%TO.C,C4*%
X39772000Y-32873836D02*
X39772000Y-32658164D01*
X40492000Y-32873836D02*
X40492000Y-32658164D01*
%TO.C,C3*%
X40788000Y-32873836D02*
X40788000Y-32658164D01*
X41508000Y-32873836D02*
X41508000Y-32658164D01*
%TO.C,C2*%
X41804000Y-32873836D02*
X41804000Y-32658164D01*
X42524000Y-32873836D02*
X42524000Y-32658164D01*
%TO.C,C1*%
X49678000Y-33127836D02*
X49678000Y-32912164D01*
X50398000Y-33127836D02*
X50398000Y-32912164D01*
D11*
%TO.C,U1*%
X51336000Y-35719000D02*
X51336000Y-34444000D01*
X51911000Y-46069000D02*
X51911000Y-45394000D01*
X41561000Y-46069000D02*
X41561000Y-45394000D01*
X41561000Y-35719000D02*
X41561000Y-36394000D01*
X51911000Y-35719000D02*
X51911000Y-36394000D01*
X41561000Y-35719000D02*
X42236000Y-35719000D01*
X41561000Y-46069000D02*
X42236000Y-46069000D01*
X51911000Y-46069000D02*
X51236000Y-46069000D01*
X51911000Y-35719000D02*
X51336000Y-35719000D01*
D10*
%TO.C,SW26*%
X70485000Y-31115000D02*
X70485000Y-45085000D01*
X56515000Y-31115000D02*
X70485000Y-31115000D01*
X56515000Y-45085000D02*
X56515000Y-31115000D01*
X70485000Y-45085000D02*
X56515000Y-45085000D01*
%TO.C,SW25*%
X70485000Y-51435000D02*
X70485000Y-65405000D01*
X56515000Y-51435000D02*
X70485000Y-51435000D01*
X56515000Y-65405000D02*
X56515000Y-51435000D01*
X70485000Y-65405000D02*
X56515000Y-65405000D01*
%TO.C,SW24*%
X70485000Y-71755000D02*
X70485000Y-85725000D01*
X56515000Y-71755000D02*
X70485000Y-71755000D01*
X56515000Y-85725000D02*
X56515000Y-71755000D01*
X70485000Y-85725000D02*
X56515000Y-85725000D01*
%TO.C,SW23*%
X70485000Y-92075000D02*
X70485000Y-106045000D01*
X56515000Y-92075000D02*
X70485000Y-92075000D01*
X56515000Y-106045000D02*
X56515000Y-92075000D01*
X70485000Y-106045000D02*
X56515000Y-106045000D01*
%TO.C,SW22*%
X70485000Y-112395000D02*
X70485000Y-126365000D01*
X56515000Y-112395000D02*
X70485000Y-112395000D01*
X56515000Y-126365000D02*
X56515000Y-112395000D01*
X70485000Y-126365000D02*
X56515000Y-126365000D01*
%TO.C,SW21*%
X90805000Y-31115000D02*
X90805000Y-45085000D01*
X76835000Y-31115000D02*
X90805000Y-31115000D01*
X76835000Y-45085000D02*
X76835000Y-31115000D01*
X90805000Y-45085000D02*
X76835000Y-45085000D01*
%TO.C,SW20*%
X90805000Y-51435000D02*
X90805000Y-65405000D01*
X76835000Y-51435000D02*
X90805000Y-51435000D01*
X76835000Y-65405000D02*
X76835000Y-51435000D01*
X90805000Y-65405000D02*
X76835000Y-65405000D01*
%TO.C,SW19*%
X90805000Y-71755000D02*
X90805000Y-85725000D01*
X76835000Y-71755000D02*
X90805000Y-71755000D01*
X76835000Y-85725000D02*
X76835000Y-71755000D01*
X90805000Y-85725000D02*
X76835000Y-85725000D01*
%TO.C,SW18*%
X90805000Y-92075000D02*
X90805000Y-106045000D01*
X76835000Y-92075000D02*
X90805000Y-92075000D01*
X76835000Y-106045000D02*
X76835000Y-92075000D01*
X90805000Y-106045000D02*
X76835000Y-106045000D01*
%TO.C,SW17*%
X90805000Y-112395000D02*
X90805000Y-126365000D01*
X76835000Y-112395000D02*
X90805000Y-112395000D01*
X76835000Y-126365000D02*
X76835000Y-112395000D01*
X90805000Y-126365000D02*
X76835000Y-126365000D01*
%TO.C,SW16*%
X111125000Y-31115000D02*
X111125000Y-45085000D01*
X97155000Y-31115000D02*
X111125000Y-31115000D01*
X97155000Y-45085000D02*
X97155000Y-31115000D01*
X111125000Y-45085000D02*
X97155000Y-45085000D01*
%TO.C,SW15*%
X111125000Y-51435000D02*
X111125000Y-65405000D01*
X97155000Y-51435000D02*
X111125000Y-51435000D01*
X97155000Y-65405000D02*
X97155000Y-51435000D01*
X111125000Y-65405000D02*
X97155000Y-65405000D01*
%TO.C,SW14*%
X111125000Y-71755000D02*
X111125000Y-85725000D01*
X97155000Y-71755000D02*
X111125000Y-71755000D01*
X97155000Y-85725000D02*
X97155000Y-71755000D01*
X111125000Y-85725000D02*
X97155000Y-85725000D01*
%TO.C,SW13*%
X111125000Y-92075000D02*
X111125000Y-106045000D01*
X97155000Y-92075000D02*
X111125000Y-92075000D01*
X97155000Y-106045000D02*
X97155000Y-92075000D01*
X111125000Y-106045000D02*
X97155000Y-106045000D01*
%TO.C,SW12*%
X111125000Y-112395000D02*
X111125000Y-126365000D01*
X97155000Y-112395000D02*
X111125000Y-112395000D01*
X97155000Y-126365000D02*
X97155000Y-112395000D01*
X111125000Y-126365000D02*
X97155000Y-126365000D01*
%TO.C,SW10*%
X131445000Y-51435000D02*
X131445000Y-65405000D01*
X117475000Y-51435000D02*
X131445000Y-51435000D01*
X117475000Y-65405000D02*
X117475000Y-51435000D01*
X131445000Y-65405000D02*
X117475000Y-65405000D01*
%TO.C,SW9*%
X131445000Y-71755000D02*
X131445000Y-85725000D01*
X117475000Y-71755000D02*
X131445000Y-71755000D01*
X117475000Y-85725000D02*
X117475000Y-71755000D01*
X131445000Y-85725000D02*
X117475000Y-85725000D01*
%TO.C,SW8*%
X131445000Y-92075000D02*
X131445000Y-106045000D01*
X117475000Y-92075000D02*
X131445000Y-92075000D01*
X117475000Y-106045000D02*
X117475000Y-92075000D01*
X131445000Y-106045000D02*
X117475000Y-106045000D01*
%TO.C,SW7*%
X131445000Y-112395000D02*
X131445000Y-126365000D01*
X117475000Y-112395000D02*
X131445000Y-112395000D01*
X117475000Y-126365000D02*
X117475000Y-112395000D01*
X131445000Y-126365000D02*
X117475000Y-126365000D01*
%TO.C,SW6*%
X151765000Y-31115000D02*
X151765000Y-45085000D01*
X137795000Y-31115000D02*
X151765000Y-31115000D01*
X137795000Y-45085000D02*
X137795000Y-31115000D01*
X151765000Y-45085000D02*
X137795000Y-45085000D01*
%TO.C,SW5*%
X151765000Y-51435000D02*
X151765000Y-65405000D01*
X137795000Y-51435000D02*
X151765000Y-51435000D01*
X137795000Y-65405000D02*
X137795000Y-51435000D01*
X151765000Y-65405000D02*
X137795000Y-65405000D01*
%TO.C,SW4*%
X151765000Y-71755000D02*
X151765000Y-85725000D01*
X137795000Y-71755000D02*
X151765000Y-71755000D01*
X137795000Y-85725000D02*
X137795000Y-71755000D01*
X151765000Y-85725000D02*
X137795000Y-85725000D01*
%TO.C,SW3*%
X151765000Y-92075000D02*
X151765000Y-106045000D01*
X137795000Y-92075000D02*
X151765000Y-92075000D01*
X137795000Y-106045000D02*
X137795000Y-92075000D01*
X151765000Y-106045000D02*
X137795000Y-106045000D01*
%TO.C,SW2*%
X151765000Y-112395000D02*
X151765000Y-126365000D01*
X137795000Y-112395000D02*
X151765000Y-112395000D01*
X137795000Y-126365000D02*
X137795000Y-112395000D01*
X151765000Y-126365000D02*
X137795000Y-126365000D01*
%TO.C,SW1*%
X49228000Y-69476000D02*
G75*
G03*
X49228000Y-69476000I-3000000J0D01*
G01*
X52528000Y-71276000D02*
X52528000Y-76176000D01*
X39928000Y-76176000D02*
X39928000Y-71276000D01*
X39928000Y-67676000D02*
X39928000Y-62776000D01*
X39928000Y-62776000D02*
X42728000Y-62776000D01*
X52528000Y-67576000D02*
X52528000Y-62776000D01*
X52528000Y-62776000D02*
X50028000Y-62776000D01*
X50028000Y-61976000D02*
X50328000Y-61676000D01*
X50328000Y-61676000D02*
X50328000Y-62276000D01*
X50328000Y-62276000D02*
X50028000Y-61976000D01*
X52528000Y-76176000D02*
X49928000Y-76176000D01*
X47528000Y-76176000D02*
X44928000Y-76176000D01*
X42528000Y-76176000D02*
X39928000Y-76176000D01*
X46728000Y-69476000D02*
X45728000Y-69476000D01*
X46228000Y-68976000D02*
X46228000Y-69976000D01*
%TO.C,D50*%
X64700000Y-111966000D02*
X64000000Y-111966000D01*
%TO.C,D49*%
X85020000Y-111966000D02*
X84320000Y-111966000D01*
%TO.C,D48*%
X105340000Y-111966000D02*
X104640000Y-111966000D01*
%TO.C,D47*%
X125660000Y-111966000D02*
X124960000Y-111966000D01*
%TO.C,D46*%
X145980000Y-111966000D02*
X145280000Y-111966000D01*
%TO.C,D45*%
X145980000Y-91564000D02*
X145280000Y-91564000D01*
%TO.C,D44*%
X125660000Y-91646000D02*
X124960000Y-91646000D01*
%TO.C,D43*%
X105340000Y-91646000D02*
X104640000Y-91646000D01*
%TO.C,D42*%
X85020000Y-91646000D02*
X84320000Y-91646000D01*
%TO.C,D41*%
X64700000Y-91564000D02*
X64000000Y-91564000D01*
%TO.C,D40*%
X145980000Y-71326000D02*
X145280000Y-71326000D01*
%TO.C,D39*%
X125660000Y-71326000D02*
X124960000Y-71326000D01*
%TO.C,D38*%
X105340000Y-71326000D02*
X104640000Y-71326000D01*
%TO.C,D37*%
X85020000Y-71326000D02*
X84320000Y-71326000D01*
%TO.C,D36*%
X64700000Y-71326000D02*
X64000000Y-71326000D01*
%TO.C,D35*%
X64700000Y-30686000D02*
X64000000Y-30686000D01*
%TO.C,D34*%
X85020000Y-30686000D02*
X84320000Y-30686000D01*
%TO.C,D33*%
X105340000Y-30604000D02*
X104640000Y-30604000D01*
%TO.C,D32*%
X125660000Y-30686000D02*
X124960000Y-30686000D01*
%TO.C,D31*%
X145980000Y-30686000D02*
X145280000Y-30686000D01*
%TO.C,D30*%
X64700000Y-51006000D02*
X64000000Y-51006000D01*
%TO.C,D29*%
X85020000Y-51006000D02*
X84320000Y-51006000D01*
%TO.C,D28*%
X105340000Y-51006000D02*
X104640000Y-51006000D01*
%TO.C,D27*%
X125660000Y-51006000D02*
X124960000Y-51006000D01*
%TO.C,D26*%
X145980000Y-51006000D02*
X145280000Y-51006000D01*
%TO.C,C5*%
X39343000Y-32519252D02*
X39343000Y-31996748D01*
X37873000Y-32519252D02*
X37873000Y-31996748D01*
%TO.C,REF\u002A\u002A*%
D11*
X44894666Y-116332380D02*
X44561333Y-115856190D01*
X44323238Y-116332380D02*
X44323238Y-115332380D01*
X44704190Y-115332380D01*
X44799428Y-115380000D01*
X44847047Y-115427619D01*
X44894666Y-115522857D01*
X44894666Y-115665714D01*
X44847047Y-115760952D01*
X44799428Y-115808571D01*
X44704190Y-115856190D01*
X44323238Y-115856190D01*
X45323238Y-115808571D02*
X45656571Y-115808571D01*
X45799428Y-116332380D02*
X45323238Y-116332380D01*
X45323238Y-115332380D01*
X45799428Y-115332380D01*
X46561333Y-115808571D02*
X46228000Y-115808571D01*
X46228000Y-116332380D02*
X46228000Y-115332380D01*
X46704190Y-115332380D01*
X47228000Y-115332380D02*
X47228000Y-115570476D01*
X46989904Y-115475238D02*
X47228000Y-115570476D01*
X47466095Y-115475238D01*
X47085142Y-115760952D02*
X47228000Y-115570476D01*
X47370857Y-115760952D01*
X47989904Y-115332380D02*
X47989904Y-115570476D01*
X47751809Y-115475238D02*
X47989904Y-115570476D01*
X48228000Y-115475238D01*
X47847047Y-115760952D02*
X47989904Y-115570476D01*
X48132761Y-115760952D01*
X112966666Y-75184380D02*
X112633333Y-74708190D01*
X112395238Y-75184380D02*
X112395238Y-74184380D01*
X112776190Y-74184380D01*
X112871428Y-74232000D01*
X112919047Y-74279619D01*
X112966666Y-74374857D01*
X112966666Y-74517714D01*
X112919047Y-74612952D01*
X112871428Y-74660571D01*
X112776190Y-74708190D01*
X112395238Y-74708190D01*
X113395238Y-74660571D02*
X113728571Y-74660571D01*
X113871428Y-75184380D02*
X113395238Y-75184380D01*
X113395238Y-74184380D01*
X113871428Y-74184380D01*
X114633333Y-74660571D02*
X114300000Y-74660571D01*
X114300000Y-75184380D02*
X114300000Y-74184380D01*
X114776190Y-74184380D01*
X115300000Y-74184380D02*
X115300000Y-74422476D01*
X115061904Y-74327238D02*
X115300000Y-74422476D01*
X115538095Y-74327238D01*
X115157142Y-74612952D02*
X115300000Y-74422476D01*
X115442857Y-74612952D01*
X116061904Y-74184380D02*
X116061904Y-74422476D01*
X115823809Y-74327238D02*
X116061904Y-74422476D01*
X116300000Y-74327238D01*
X115919047Y-74612952D02*
X116061904Y-74422476D01*
X116204761Y-74612952D01*
X72326666Y-115824380D02*
X71993333Y-115348190D01*
X71755238Y-115824380D02*
X71755238Y-114824380D01*
X72136190Y-114824380D01*
X72231428Y-114872000D01*
X72279047Y-114919619D01*
X72326666Y-115014857D01*
X72326666Y-115157714D01*
X72279047Y-115252952D01*
X72231428Y-115300571D01*
X72136190Y-115348190D01*
X71755238Y-115348190D01*
X72755238Y-115300571D02*
X73088571Y-115300571D01*
X73231428Y-115824380D02*
X72755238Y-115824380D01*
X72755238Y-114824380D01*
X73231428Y-114824380D01*
X73993333Y-115300571D02*
X73660000Y-115300571D01*
X73660000Y-115824380D02*
X73660000Y-114824380D01*
X74136190Y-114824380D01*
X74660000Y-114824380D02*
X74660000Y-115062476D01*
X74421904Y-114967238D02*
X74660000Y-115062476D01*
X74898095Y-114967238D01*
X74517142Y-115252952D02*
X74660000Y-115062476D01*
X74802857Y-115252952D01*
X75421904Y-114824380D02*
X75421904Y-115062476D01*
X75183809Y-114967238D02*
X75421904Y-115062476D01*
X75660000Y-114967238D01*
X75279047Y-115252952D02*
X75421904Y-115062476D01*
X75564761Y-115252952D01*
X133286666Y-115824380D02*
X132953333Y-115348190D01*
X132715238Y-115824380D02*
X132715238Y-114824380D01*
X133096190Y-114824380D01*
X133191428Y-114872000D01*
X133239047Y-114919619D01*
X133286666Y-115014857D01*
X133286666Y-115157714D01*
X133239047Y-115252952D01*
X133191428Y-115300571D01*
X133096190Y-115348190D01*
X132715238Y-115348190D01*
X133715238Y-115300571D02*
X134048571Y-115300571D01*
X134191428Y-115824380D02*
X133715238Y-115824380D01*
X133715238Y-114824380D01*
X134191428Y-114824380D01*
X134953333Y-115300571D02*
X134620000Y-115300571D01*
X134620000Y-115824380D02*
X134620000Y-114824380D01*
X135096190Y-114824380D01*
X135620000Y-114824380D02*
X135620000Y-115062476D01*
X135381904Y-114967238D02*
X135620000Y-115062476D01*
X135858095Y-114967238D01*
X135477142Y-115252952D02*
X135620000Y-115062476D01*
X135762857Y-115252952D01*
X136381904Y-114824380D02*
X136381904Y-115062476D01*
X136143809Y-114967238D02*
X136381904Y-115062476D01*
X136620000Y-114967238D01*
X136239047Y-115252952D02*
X136381904Y-115062476D01*
X136524761Y-115252952D01*
X133286666Y-54610380D02*
X132953333Y-54134190D01*
X132715238Y-54610380D02*
X132715238Y-53610380D01*
X133096190Y-53610380D01*
X133191428Y-53658000D01*
X133239047Y-53705619D01*
X133286666Y-53800857D01*
X133286666Y-53943714D01*
X133239047Y-54038952D01*
X133191428Y-54086571D01*
X133096190Y-54134190D01*
X132715238Y-54134190D01*
X133715238Y-54086571D02*
X134048571Y-54086571D01*
X134191428Y-54610380D02*
X133715238Y-54610380D01*
X133715238Y-53610380D01*
X134191428Y-53610380D01*
X134953333Y-54086571D02*
X134620000Y-54086571D01*
X134620000Y-54610380D02*
X134620000Y-53610380D01*
X135096190Y-53610380D01*
X135620000Y-53610380D02*
X135620000Y-53848476D01*
X135381904Y-53753238D02*
X135620000Y-53848476D01*
X135858095Y-53753238D01*
X135477142Y-54038952D02*
X135620000Y-53848476D01*
X135762857Y-54038952D01*
X136381904Y-53610380D02*
X136381904Y-53848476D01*
X136143809Y-53753238D02*
X136381904Y-53848476D01*
X136620000Y-53753238D01*
X136239047Y-54038952D02*
X136381904Y-53848476D01*
X136524761Y-54038952D01*
X72326666Y-54610380D02*
X71993333Y-54134190D01*
X71755238Y-54610380D02*
X71755238Y-53610380D01*
X72136190Y-53610380D01*
X72231428Y-53658000D01*
X72279047Y-53705619D01*
X72326666Y-53800857D01*
X72326666Y-53943714D01*
X72279047Y-54038952D01*
X72231428Y-54086571D01*
X72136190Y-54134190D01*
X71755238Y-54134190D01*
X72755238Y-54086571D02*
X73088571Y-54086571D01*
X73231428Y-54610380D02*
X72755238Y-54610380D01*
X72755238Y-53610380D01*
X73231428Y-53610380D01*
X73993333Y-54086571D02*
X73660000Y-54086571D01*
X73660000Y-54610380D02*
X73660000Y-53610380D01*
X74136190Y-53610380D01*
X74660000Y-53610380D02*
X74660000Y-53848476D01*
X74421904Y-53753238D02*
X74660000Y-53848476D01*
X74898095Y-53753238D01*
X74517142Y-54038952D02*
X74660000Y-53848476D01*
X74802857Y-54038952D01*
X75421904Y-53610380D02*
X75421904Y-53848476D01*
X75183809Y-53753238D02*
X75421904Y-53848476D01*
X75660000Y-53753238D01*
X75279047Y-54038952D02*
X75421904Y-53848476D01*
X75564761Y-54038952D01*
%TO.C,SW11*%
X122650476Y-46378761D02*
X122793333Y-46426380D01*
X123031428Y-46426380D01*
X123126666Y-46378761D01*
X123174285Y-46331142D01*
X123221904Y-46235904D01*
X123221904Y-46140666D01*
X123174285Y-46045428D01*
X123126666Y-45997809D01*
X123031428Y-45950190D01*
X122840952Y-45902571D01*
X122745714Y-45854952D01*
X122698095Y-45807333D01*
X122650476Y-45712095D01*
X122650476Y-45616857D01*
X122698095Y-45521619D01*
X122745714Y-45474000D01*
X122840952Y-45426380D01*
X123079047Y-45426380D01*
X123221904Y-45474000D01*
X123555238Y-45426380D02*
X123793333Y-46426380D01*
X123983809Y-45712095D01*
X124174285Y-46426380D01*
X124412380Y-45426380D01*
X125317142Y-46426380D02*
X124745714Y-46426380D01*
X125031428Y-46426380D02*
X125031428Y-45426380D01*
X124936190Y-45569238D01*
X124840952Y-45664476D01*
X124745714Y-45712095D01*
X126269523Y-46426380D02*
X125698095Y-46426380D01*
X125983809Y-46426380D02*
X125983809Y-45426380D01*
X125888571Y-45569238D01*
X125793333Y-45664476D01*
X125698095Y-45712095D01*
%TO.C,R11*%
X37884380Y-39250857D02*
X37408190Y-39584190D01*
X37884380Y-39822285D02*
X36884380Y-39822285D01*
X36884380Y-39441333D01*
X36932000Y-39346095D01*
X36979619Y-39298476D01*
X37074857Y-39250857D01*
X37217714Y-39250857D01*
X37312952Y-39298476D01*
X37360571Y-39346095D01*
X37408190Y-39441333D01*
X37408190Y-39822285D01*
X37884380Y-38298476D02*
X37884380Y-38869904D01*
X37884380Y-38584190D02*
X36884380Y-38584190D01*
X37027238Y-38679428D01*
X37122476Y-38774666D01*
X37170095Y-38869904D01*
X37884380Y-37346095D02*
X37884380Y-37917523D01*
X37884380Y-37631809D02*
X36884380Y-37631809D01*
X37027238Y-37727047D01*
X37122476Y-37822285D01*
X37170095Y-37917523D01*
%TO.C,SW27*%
X42132761Y-88677523D02*
X42180380Y-88534666D01*
X42180380Y-88296571D01*
X42132761Y-88201333D01*
X42085142Y-88153714D01*
X41989904Y-88106095D01*
X41894666Y-88106095D01*
X41799428Y-88153714D01*
X41751809Y-88201333D01*
X41704190Y-88296571D01*
X41656571Y-88487047D01*
X41608952Y-88582285D01*
X41561333Y-88629904D01*
X41466095Y-88677523D01*
X41370857Y-88677523D01*
X41275619Y-88629904D01*
X41228000Y-88582285D01*
X41180380Y-88487047D01*
X41180380Y-88248952D01*
X41228000Y-88106095D01*
X41180380Y-87772761D02*
X42180380Y-87534666D01*
X41466095Y-87344190D01*
X42180380Y-87153714D01*
X41180380Y-86915619D01*
X41275619Y-86582285D02*
X41228000Y-86534666D01*
X41180380Y-86439428D01*
X41180380Y-86201333D01*
X41228000Y-86106095D01*
X41275619Y-86058476D01*
X41370857Y-86010857D01*
X41466095Y-86010857D01*
X41608952Y-86058476D01*
X42180380Y-86629904D01*
X42180380Y-86010857D01*
X41180380Y-85677523D02*
X41180380Y-85010857D01*
X42180380Y-85439428D01*
%TO.C,R10*%
X49037642Y-80876380D02*
X48704309Y-80400190D01*
X48466214Y-80876380D02*
X48466214Y-79876380D01*
X48847166Y-79876380D01*
X48942404Y-79924000D01*
X48990023Y-79971619D01*
X49037642Y-80066857D01*
X49037642Y-80209714D01*
X48990023Y-80304952D01*
X48942404Y-80352571D01*
X48847166Y-80400190D01*
X48466214Y-80400190D01*
X49990023Y-80876380D02*
X49418595Y-80876380D01*
X49704309Y-80876380D02*
X49704309Y-79876380D01*
X49609071Y-80019238D01*
X49513833Y-80114476D01*
X49418595Y-80162095D01*
X50609071Y-79876380D02*
X50704309Y-79876380D01*
X50799547Y-79924000D01*
X50847166Y-79971619D01*
X50894785Y-80066857D01*
X50942404Y-80257333D01*
X50942404Y-80495428D01*
X50894785Y-80685904D01*
X50847166Y-80781142D01*
X50799547Y-80828761D01*
X50704309Y-80876380D01*
X50609071Y-80876380D01*
X50513833Y-80828761D01*
X50466214Y-80781142D01*
X50418595Y-80685904D01*
X50370976Y-80495428D01*
X50370976Y-80257333D01*
X50418595Y-80066857D01*
X50466214Y-79971619D01*
X50513833Y-79924000D01*
X50609071Y-79876380D01*
%TO.C,R9*%
X42505333Y-60302380D02*
X42172000Y-59826190D01*
X41933904Y-60302380D02*
X41933904Y-59302380D01*
X42314857Y-59302380D01*
X42410095Y-59350000D01*
X42457714Y-59397619D01*
X42505333Y-59492857D01*
X42505333Y-59635714D01*
X42457714Y-59730952D01*
X42410095Y-59778571D01*
X42314857Y-59826190D01*
X41933904Y-59826190D01*
X42981523Y-60302380D02*
X43172000Y-60302380D01*
X43267238Y-60254761D01*
X43314857Y-60207142D01*
X43410095Y-60064285D01*
X43457714Y-59873809D01*
X43457714Y-59492857D01*
X43410095Y-59397619D01*
X43362476Y-59350000D01*
X43267238Y-59302380D01*
X43076761Y-59302380D01*
X42981523Y-59350000D01*
X42933904Y-59397619D01*
X42886285Y-59492857D01*
X42886285Y-59730952D01*
X42933904Y-59826190D01*
X42981523Y-59873809D01*
X43076761Y-59921428D01*
X43267238Y-59921428D01*
X43362476Y-59873809D01*
X43410095Y-59826190D01*
X43457714Y-59730952D01*
%TO.C,R8*%
X49513833Y-60302380D02*
X49180500Y-59826190D01*
X48942404Y-60302380D02*
X48942404Y-59302380D01*
X49323357Y-59302380D01*
X49418595Y-59350000D01*
X49466214Y-59397619D01*
X49513833Y-59492857D01*
X49513833Y-59635714D01*
X49466214Y-59730952D01*
X49418595Y-59778571D01*
X49323357Y-59826190D01*
X48942404Y-59826190D01*
X50085261Y-59730952D02*
X49990023Y-59683333D01*
X49942404Y-59635714D01*
X49894785Y-59540476D01*
X49894785Y-59492857D01*
X49942404Y-59397619D01*
X49990023Y-59350000D01*
X50085261Y-59302380D01*
X50275738Y-59302380D01*
X50370976Y-59350000D01*
X50418595Y-59397619D01*
X50466214Y-59492857D01*
X50466214Y-59540476D01*
X50418595Y-59635714D01*
X50370976Y-59683333D01*
X50275738Y-59730952D01*
X50085261Y-59730952D01*
X49990023Y-59778571D01*
X49942404Y-59826190D01*
X49894785Y-59921428D01*
X49894785Y-60111904D01*
X49942404Y-60207142D01*
X49990023Y-60254761D01*
X50085261Y-60302380D01*
X50275738Y-60302380D01*
X50370976Y-60254761D01*
X50418595Y-60207142D01*
X50466214Y-60111904D01*
X50466214Y-59921428D01*
X50418595Y-59826190D01*
X50370976Y-59778571D01*
X50275738Y-59730952D01*
%TO.C,R7*%
X42505333Y-80876380D02*
X42172000Y-80400190D01*
X41933904Y-80876380D02*
X41933904Y-79876380D01*
X42314857Y-79876380D01*
X42410095Y-79924000D01*
X42457714Y-79971619D01*
X42505333Y-80066857D01*
X42505333Y-80209714D01*
X42457714Y-80304952D01*
X42410095Y-80352571D01*
X42314857Y-80400190D01*
X41933904Y-80400190D01*
X42838666Y-79876380D02*
X43505333Y-79876380D01*
X43076761Y-80876380D01*
%TO.C,R6*%
X45250380Y-57570666D02*
X44774190Y-57904000D01*
X45250380Y-58142095D02*
X44250380Y-58142095D01*
X44250380Y-57761142D01*
X44298000Y-57665904D01*
X44345619Y-57618285D01*
X44440857Y-57570666D01*
X44583714Y-57570666D01*
X44678952Y-57618285D01*
X44726571Y-57665904D01*
X44774190Y-57761142D01*
X44774190Y-58142095D01*
X44250380Y-56713523D02*
X44250380Y-56904000D01*
X44298000Y-56999238D01*
X44345619Y-57046857D01*
X44488476Y-57142095D01*
X44678952Y-57189714D01*
X45059904Y-57189714D01*
X45155142Y-57142095D01*
X45202761Y-57094476D01*
X45250380Y-56999238D01*
X45250380Y-56808761D01*
X45202761Y-56713523D01*
X45155142Y-56665904D01*
X45059904Y-56618285D01*
X44821809Y-56618285D01*
X44726571Y-56665904D01*
X44678952Y-56713523D01*
X44631333Y-56808761D01*
X44631333Y-56999238D01*
X44678952Y-57094476D01*
X44726571Y-57142095D01*
X44821809Y-57189714D01*
%TO.C,R5*%
X51649333Y-51158380D02*
X51316000Y-50682190D01*
X51077904Y-51158380D02*
X51077904Y-50158380D01*
X51458857Y-50158380D01*
X51554095Y-50206000D01*
X51601714Y-50253619D01*
X51649333Y-50348857D01*
X51649333Y-50491714D01*
X51601714Y-50586952D01*
X51554095Y-50634571D01*
X51458857Y-50682190D01*
X51077904Y-50682190D01*
X52554095Y-50158380D02*
X52077904Y-50158380D01*
X52030285Y-50634571D01*
X52077904Y-50586952D01*
X52173142Y-50539333D01*
X52411238Y-50539333D01*
X52506476Y-50586952D01*
X52554095Y-50634571D01*
X52601714Y-50729809D01*
X52601714Y-50967904D01*
X52554095Y-51063142D01*
X52506476Y-51110761D01*
X52411238Y-51158380D01*
X52173142Y-51158380D01*
X52077904Y-51110761D01*
X52030285Y-51063142D01*
%TO.C,R4*%
X51506380Y-30646666D02*
X51030190Y-30980000D01*
X51506380Y-31218095D02*
X50506380Y-31218095D01*
X50506380Y-30837142D01*
X50554000Y-30741904D01*
X50601619Y-30694285D01*
X50696857Y-30646666D01*
X50839714Y-30646666D01*
X50934952Y-30694285D01*
X50982571Y-30741904D01*
X51030190Y-30837142D01*
X51030190Y-31218095D01*
X50839714Y-29789523D02*
X51506380Y-29789523D01*
X50458761Y-30027619D02*
X51173047Y-30265714D01*
X51173047Y-29646666D01*
%TO.C,R3*%
X46934380Y-30646666D02*
X46458190Y-30980000D01*
X46934380Y-31218095D02*
X45934380Y-31218095D01*
X45934380Y-30837142D01*
X45982000Y-30741904D01*
X46029619Y-30694285D01*
X46124857Y-30646666D01*
X46267714Y-30646666D01*
X46362952Y-30694285D01*
X46410571Y-30741904D01*
X46458190Y-30837142D01*
X46458190Y-31218095D01*
X45934380Y-30313333D02*
X45934380Y-29694285D01*
X46315333Y-30027619D01*
X46315333Y-29884761D01*
X46362952Y-29789523D01*
X46410571Y-29741904D01*
X46505809Y-29694285D01*
X46743904Y-29694285D01*
X46839142Y-29741904D01*
X46886761Y-29789523D01*
X46934380Y-29884761D01*
X46934380Y-30170476D01*
X46886761Y-30265714D01*
X46839142Y-30313333D01*
%TO.C,Y1*%
X40828118Y-50192446D02*
X40491400Y-50529164D01*
X40962805Y-49586355D02*
X40828118Y-50192446D01*
X41434209Y-50057759D01*
X41333194Y-51370957D02*
X40929133Y-50966896D01*
X41131164Y-51168927D02*
X41838270Y-50461820D01*
X41669912Y-50495492D01*
X41535225Y-50495492D01*
X41434209Y-50461820D01*
%TO.C,C8*%
X45933142Y-33186666D02*
X45980761Y-33234285D01*
X46028380Y-33377142D01*
X46028380Y-33472380D01*
X45980761Y-33615238D01*
X45885523Y-33710476D01*
X45790285Y-33758095D01*
X45599809Y-33805714D01*
X45456952Y-33805714D01*
X45266476Y-33758095D01*
X45171238Y-33710476D01*
X45076000Y-33615238D01*
X45028380Y-33472380D01*
X45028380Y-33377142D01*
X45076000Y-33234285D01*
X45123619Y-33186666D01*
X45456952Y-32615238D02*
X45409333Y-32710476D01*
X45361714Y-32758095D01*
X45266476Y-32805714D01*
X45218857Y-32805714D01*
X45123619Y-32758095D01*
X45076000Y-32710476D01*
X45028380Y-32615238D01*
X45028380Y-32424761D01*
X45076000Y-32329523D01*
X45123619Y-32281904D01*
X45218857Y-32234285D01*
X45266476Y-32234285D01*
X45361714Y-32281904D01*
X45409333Y-32329523D01*
X45456952Y-32424761D01*
X45456952Y-32615238D01*
X45504571Y-32710476D01*
X45552190Y-32758095D01*
X45647428Y-32805714D01*
X45837904Y-32805714D01*
X45933142Y-32758095D01*
X45980761Y-32710476D01*
X46028380Y-32615238D01*
X46028380Y-32424761D01*
X45980761Y-32329523D01*
X45933142Y-32281904D01*
X45837904Y-32234285D01*
X45647428Y-32234285D01*
X45552190Y-32281904D01*
X45504571Y-32329523D01*
X45456952Y-32424761D01*
%TO.C,C7*%
X36967610Y-54490687D02*
X36900267Y-54490687D01*
X36765580Y-54423343D01*
X36698236Y-54356000D01*
X36630893Y-54221312D01*
X36630893Y-54086625D01*
X36664564Y-53985610D01*
X36765580Y-53817251D01*
X36866595Y-53716236D01*
X37034954Y-53615221D01*
X37135969Y-53581549D01*
X37270656Y-53581549D01*
X37405343Y-53648893D01*
X37472687Y-53716236D01*
X37540030Y-53850923D01*
X37540030Y-53918267D01*
X37843076Y-54086625D02*
X38314480Y-54558030D01*
X37304328Y-54962091D01*
%TO.C,C6*%
X42298687Y-54726389D02*
X42298687Y-54793732D01*
X42231343Y-54928419D01*
X42164000Y-54995763D01*
X42029312Y-55063106D01*
X41894625Y-55063106D01*
X41793610Y-55029435D01*
X41625251Y-54928419D01*
X41524236Y-54827404D01*
X41423221Y-54659045D01*
X41389549Y-54558030D01*
X41389549Y-54423343D01*
X41456893Y-54288656D01*
X41524236Y-54221312D01*
X41658923Y-54153969D01*
X41726267Y-54153969D01*
X42265015Y-53480534D02*
X42130328Y-53615221D01*
X42096656Y-53716236D01*
X42096656Y-53783580D01*
X42130328Y-53951938D01*
X42231343Y-54120297D01*
X42500717Y-54389671D01*
X42601732Y-54423343D01*
X42669076Y-54423343D01*
X42770091Y-54389671D01*
X42904778Y-54254984D01*
X42938450Y-54153969D01*
X42938450Y-54086625D01*
X42904778Y-53985610D01*
X42736419Y-53817251D01*
X42635404Y-53783580D01*
X42568061Y-53783580D01*
X42467045Y-53817251D01*
X42332358Y-53951938D01*
X42298687Y-54052954D01*
X42298687Y-54120297D01*
X42332358Y-54221312D01*
%TO.C,C4*%
X40489142Y-30900666D02*
X40536761Y-30948285D01*
X40584380Y-31091142D01*
X40584380Y-31186380D01*
X40536761Y-31329238D01*
X40441523Y-31424476D01*
X40346285Y-31472095D01*
X40155809Y-31519714D01*
X40012952Y-31519714D01*
X39822476Y-31472095D01*
X39727238Y-31424476D01*
X39632000Y-31329238D01*
X39584380Y-31186380D01*
X39584380Y-31091142D01*
X39632000Y-30948285D01*
X39679619Y-30900666D01*
X39917714Y-30043523D02*
X40584380Y-30043523D01*
X39536761Y-30281619D02*
X40251047Y-30519714D01*
X40251047Y-29900666D01*
%TO.C,C3*%
X41505142Y-30900666D02*
X41552761Y-30948285D01*
X41600380Y-31091142D01*
X41600380Y-31186380D01*
X41552761Y-31329238D01*
X41457523Y-31424476D01*
X41362285Y-31472095D01*
X41171809Y-31519714D01*
X41028952Y-31519714D01*
X40838476Y-31472095D01*
X40743238Y-31424476D01*
X40648000Y-31329238D01*
X40600380Y-31186380D01*
X40600380Y-31091142D01*
X40648000Y-30948285D01*
X40695619Y-30900666D01*
X40600380Y-30567333D02*
X40600380Y-29948285D01*
X40981333Y-30281619D01*
X40981333Y-30138761D01*
X41028952Y-30043523D01*
X41076571Y-29995904D01*
X41171809Y-29948285D01*
X41409904Y-29948285D01*
X41505142Y-29995904D01*
X41552761Y-30043523D01*
X41600380Y-30138761D01*
X41600380Y-30424476D01*
X41552761Y-30519714D01*
X41505142Y-30567333D01*
%TO.C,C2*%
X42521142Y-30900666D02*
X42568761Y-30948285D01*
X42616380Y-31091142D01*
X42616380Y-31186380D01*
X42568761Y-31329238D01*
X42473523Y-31424476D01*
X42378285Y-31472095D01*
X42187809Y-31519714D01*
X42044952Y-31519714D01*
X41854476Y-31472095D01*
X41759238Y-31424476D01*
X41664000Y-31329238D01*
X41616380Y-31186380D01*
X41616380Y-31091142D01*
X41664000Y-30948285D01*
X41711619Y-30900666D01*
X41711619Y-30519714D02*
X41664000Y-30472095D01*
X41616380Y-30376857D01*
X41616380Y-30138761D01*
X41664000Y-30043523D01*
X41711619Y-29995904D01*
X41806857Y-29948285D01*
X41902095Y-29948285D01*
X42044952Y-29995904D01*
X42616380Y-30567333D01*
X42616380Y-29948285D01*
%TO.C,C1*%
X49235142Y-33186666D02*
X49282761Y-33234285D01*
X49330380Y-33377142D01*
X49330380Y-33472380D01*
X49282761Y-33615238D01*
X49187523Y-33710476D01*
X49092285Y-33758095D01*
X48901809Y-33805714D01*
X48758952Y-33805714D01*
X48568476Y-33758095D01*
X48473238Y-33710476D01*
X48378000Y-33615238D01*
X48330380Y-33472380D01*
X48330380Y-33377142D01*
X48378000Y-33234285D01*
X48425619Y-33186666D01*
X49330380Y-32234285D02*
X49330380Y-32805714D01*
X49330380Y-32520000D02*
X48330380Y-32520000D01*
X48473238Y-32615238D01*
X48568476Y-32710476D01*
X48616095Y-32805714D01*
%TO.C,U1*%
X53638380Y-41655904D02*
X54447904Y-41655904D01*
X54543142Y-41608285D01*
X54590761Y-41560666D01*
X54638380Y-41465428D01*
X54638380Y-41274952D01*
X54590761Y-41179714D01*
X54543142Y-41132095D01*
X54447904Y-41084476D01*
X53638380Y-41084476D01*
X54638380Y-40084476D02*
X54638380Y-40655904D01*
X54638380Y-40370190D02*
X53638380Y-40370190D01*
X53781238Y-40465428D01*
X53876476Y-40560666D01*
X53924095Y-40655904D01*
%TO.C,SW26*%
X61690476Y-46378761D02*
X61833333Y-46426380D01*
X62071428Y-46426380D01*
X62166666Y-46378761D01*
X62214285Y-46331142D01*
X62261904Y-46235904D01*
X62261904Y-46140666D01*
X62214285Y-46045428D01*
X62166666Y-45997809D01*
X62071428Y-45950190D01*
X61880952Y-45902571D01*
X61785714Y-45854952D01*
X61738095Y-45807333D01*
X61690476Y-45712095D01*
X61690476Y-45616857D01*
X61738095Y-45521619D01*
X61785714Y-45474000D01*
X61880952Y-45426380D01*
X62119047Y-45426380D01*
X62261904Y-45474000D01*
X62595238Y-45426380D02*
X62833333Y-46426380D01*
X63023809Y-45712095D01*
X63214285Y-46426380D01*
X63452380Y-45426380D01*
X63785714Y-45521619D02*
X63833333Y-45474000D01*
X63928571Y-45426380D01*
X64166666Y-45426380D01*
X64261904Y-45474000D01*
X64309523Y-45521619D01*
X64357142Y-45616857D01*
X64357142Y-45712095D01*
X64309523Y-45854952D01*
X63738095Y-46426380D01*
X64357142Y-46426380D01*
X65214285Y-45426380D02*
X65023809Y-45426380D01*
X64928571Y-45474000D01*
X64880952Y-45521619D01*
X64785714Y-45664476D01*
X64738095Y-45854952D01*
X64738095Y-46235904D01*
X64785714Y-46331142D01*
X64833333Y-46378761D01*
X64928571Y-46426380D01*
X65119047Y-46426380D01*
X65214285Y-46378761D01*
X65261904Y-46331142D01*
X65309523Y-46235904D01*
X65309523Y-45997809D01*
X65261904Y-45902571D01*
X65214285Y-45854952D01*
X65119047Y-45807333D01*
X64928571Y-45807333D01*
X64833333Y-45854952D01*
X64785714Y-45902571D01*
X64738095Y-45997809D01*
%TO.C,SW25*%
X61690476Y-66698761D02*
X61833333Y-66746380D01*
X62071428Y-66746380D01*
X62166666Y-66698761D01*
X62214285Y-66651142D01*
X62261904Y-66555904D01*
X62261904Y-66460666D01*
X62214285Y-66365428D01*
X62166666Y-66317809D01*
X62071428Y-66270190D01*
X61880952Y-66222571D01*
X61785714Y-66174952D01*
X61738095Y-66127333D01*
X61690476Y-66032095D01*
X61690476Y-65936857D01*
X61738095Y-65841619D01*
X61785714Y-65794000D01*
X61880952Y-65746380D01*
X62119047Y-65746380D01*
X62261904Y-65794000D01*
X62595238Y-65746380D02*
X62833333Y-66746380D01*
X63023809Y-66032095D01*
X63214285Y-66746380D01*
X63452380Y-65746380D01*
X63785714Y-65841619D02*
X63833333Y-65794000D01*
X63928571Y-65746380D01*
X64166666Y-65746380D01*
X64261904Y-65794000D01*
X64309523Y-65841619D01*
X64357142Y-65936857D01*
X64357142Y-66032095D01*
X64309523Y-66174952D01*
X63738095Y-66746380D01*
X64357142Y-66746380D01*
X65261904Y-65746380D02*
X64785714Y-65746380D01*
X64738095Y-66222571D01*
X64785714Y-66174952D01*
X64880952Y-66127333D01*
X65119047Y-66127333D01*
X65214285Y-66174952D01*
X65261904Y-66222571D01*
X65309523Y-66317809D01*
X65309523Y-66555904D01*
X65261904Y-66651142D01*
X65214285Y-66698761D01*
X65119047Y-66746380D01*
X64880952Y-66746380D01*
X64785714Y-66698761D01*
X64738095Y-66651142D01*
%TO.C,SW24*%
X61690476Y-87018761D02*
X61833333Y-87066380D01*
X62071428Y-87066380D01*
X62166666Y-87018761D01*
X62214285Y-86971142D01*
X62261904Y-86875904D01*
X62261904Y-86780666D01*
X62214285Y-86685428D01*
X62166666Y-86637809D01*
X62071428Y-86590190D01*
X61880952Y-86542571D01*
X61785714Y-86494952D01*
X61738095Y-86447333D01*
X61690476Y-86352095D01*
X61690476Y-86256857D01*
X61738095Y-86161619D01*
X61785714Y-86114000D01*
X61880952Y-86066380D01*
X62119047Y-86066380D01*
X62261904Y-86114000D01*
X62595238Y-86066380D02*
X62833333Y-87066380D01*
X63023809Y-86352095D01*
X63214285Y-87066380D01*
X63452380Y-86066380D01*
X63785714Y-86161619D02*
X63833333Y-86114000D01*
X63928571Y-86066380D01*
X64166666Y-86066380D01*
X64261904Y-86114000D01*
X64309523Y-86161619D01*
X64357142Y-86256857D01*
X64357142Y-86352095D01*
X64309523Y-86494952D01*
X63738095Y-87066380D01*
X64357142Y-87066380D01*
X65214285Y-86399714D02*
X65214285Y-87066380D01*
X64976190Y-86018761D02*
X64738095Y-86733047D01*
X65357142Y-86733047D01*
%TO.C,SW23*%
X61690476Y-107338761D02*
X61833333Y-107386380D01*
X62071428Y-107386380D01*
X62166666Y-107338761D01*
X62214285Y-107291142D01*
X62261904Y-107195904D01*
X62261904Y-107100666D01*
X62214285Y-107005428D01*
X62166666Y-106957809D01*
X62071428Y-106910190D01*
X61880952Y-106862571D01*
X61785714Y-106814952D01*
X61738095Y-106767333D01*
X61690476Y-106672095D01*
X61690476Y-106576857D01*
X61738095Y-106481619D01*
X61785714Y-106434000D01*
X61880952Y-106386380D01*
X62119047Y-106386380D01*
X62261904Y-106434000D01*
X62595238Y-106386380D02*
X62833333Y-107386380D01*
X63023809Y-106672095D01*
X63214285Y-107386380D01*
X63452380Y-106386380D01*
X63785714Y-106481619D02*
X63833333Y-106434000D01*
X63928571Y-106386380D01*
X64166666Y-106386380D01*
X64261904Y-106434000D01*
X64309523Y-106481619D01*
X64357142Y-106576857D01*
X64357142Y-106672095D01*
X64309523Y-106814952D01*
X63738095Y-107386380D01*
X64357142Y-107386380D01*
X64690476Y-106386380D02*
X65309523Y-106386380D01*
X64976190Y-106767333D01*
X65119047Y-106767333D01*
X65214285Y-106814952D01*
X65261904Y-106862571D01*
X65309523Y-106957809D01*
X65309523Y-107195904D01*
X65261904Y-107291142D01*
X65214285Y-107338761D01*
X65119047Y-107386380D01*
X64833333Y-107386380D01*
X64738095Y-107338761D01*
X64690476Y-107291142D01*
%TO.C,SW22*%
X61690476Y-127658761D02*
X61833333Y-127706380D01*
X62071428Y-127706380D01*
X62166666Y-127658761D01*
X62214285Y-127611142D01*
X62261904Y-127515904D01*
X62261904Y-127420666D01*
X62214285Y-127325428D01*
X62166666Y-127277809D01*
X62071428Y-127230190D01*
X61880952Y-127182571D01*
X61785714Y-127134952D01*
X61738095Y-127087333D01*
X61690476Y-126992095D01*
X61690476Y-126896857D01*
X61738095Y-126801619D01*
X61785714Y-126754000D01*
X61880952Y-126706380D01*
X62119047Y-126706380D01*
X62261904Y-126754000D01*
X62595238Y-126706380D02*
X62833333Y-127706380D01*
X63023809Y-126992095D01*
X63214285Y-127706380D01*
X63452380Y-126706380D01*
X63785714Y-126801619D02*
X63833333Y-126754000D01*
X63928571Y-126706380D01*
X64166666Y-126706380D01*
X64261904Y-126754000D01*
X64309523Y-126801619D01*
X64357142Y-126896857D01*
X64357142Y-126992095D01*
X64309523Y-127134952D01*
X63738095Y-127706380D01*
X64357142Y-127706380D01*
X64738095Y-126801619D02*
X64785714Y-126754000D01*
X64880952Y-126706380D01*
X65119047Y-126706380D01*
X65214285Y-126754000D01*
X65261904Y-126801619D01*
X65309523Y-126896857D01*
X65309523Y-126992095D01*
X65261904Y-127134952D01*
X64690476Y-127706380D01*
X65309523Y-127706380D01*
%TO.C,SW21*%
X82010476Y-46378761D02*
X82153333Y-46426380D01*
X82391428Y-46426380D01*
X82486666Y-46378761D01*
X82534285Y-46331142D01*
X82581904Y-46235904D01*
X82581904Y-46140666D01*
X82534285Y-46045428D01*
X82486666Y-45997809D01*
X82391428Y-45950190D01*
X82200952Y-45902571D01*
X82105714Y-45854952D01*
X82058095Y-45807333D01*
X82010476Y-45712095D01*
X82010476Y-45616857D01*
X82058095Y-45521619D01*
X82105714Y-45474000D01*
X82200952Y-45426380D01*
X82439047Y-45426380D01*
X82581904Y-45474000D01*
X82915238Y-45426380D02*
X83153333Y-46426380D01*
X83343809Y-45712095D01*
X83534285Y-46426380D01*
X83772380Y-45426380D01*
X84105714Y-45521619D02*
X84153333Y-45474000D01*
X84248571Y-45426380D01*
X84486666Y-45426380D01*
X84581904Y-45474000D01*
X84629523Y-45521619D01*
X84677142Y-45616857D01*
X84677142Y-45712095D01*
X84629523Y-45854952D01*
X84058095Y-46426380D01*
X84677142Y-46426380D01*
X85629523Y-46426380D02*
X85058095Y-46426380D01*
X85343809Y-46426380D02*
X85343809Y-45426380D01*
X85248571Y-45569238D01*
X85153333Y-45664476D01*
X85058095Y-45712095D01*
%TO.C,SW20*%
X82010476Y-66698761D02*
X82153333Y-66746380D01*
X82391428Y-66746380D01*
X82486666Y-66698761D01*
X82534285Y-66651142D01*
X82581904Y-66555904D01*
X82581904Y-66460666D01*
X82534285Y-66365428D01*
X82486666Y-66317809D01*
X82391428Y-66270190D01*
X82200952Y-66222571D01*
X82105714Y-66174952D01*
X82058095Y-66127333D01*
X82010476Y-66032095D01*
X82010476Y-65936857D01*
X82058095Y-65841619D01*
X82105714Y-65794000D01*
X82200952Y-65746380D01*
X82439047Y-65746380D01*
X82581904Y-65794000D01*
X82915238Y-65746380D02*
X83153333Y-66746380D01*
X83343809Y-66032095D01*
X83534285Y-66746380D01*
X83772380Y-65746380D01*
X84105714Y-65841619D02*
X84153333Y-65794000D01*
X84248571Y-65746380D01*
X84486666Y-65746380D01*
X84581904Y-65794000D01*
X84629523Y-65841619D01*
X84677142Y-65936857D01*
X84677142Y-66032095D01*
X84629523Y-66174952D01*
X84058095Y-66746380D01*
X84677142Y-66746380D01*
X85296190Y-65746380D02*
X85391428Y-65746380D01*
X85486666Y-65794000D01*
X85534285Y-65841619D01*
X85581904Y-65936857D01*
X85629523Y-66127333D01*
X85629523Y-66365428D01*
X85581904Y-66555904D01*
X85534285Y-66651142D01*
X85486666Y-66698761D01*
X85391428Y-66746380D01*
X85296190Y-66746380D01*
X85200952Y-66698761D01*
X85153333Y-66651142D01*
X85105714Y-66555904D01*
X85058095Y-66365428D01*
X85058095Y-66127333D01*
X85105714Y-65936857D01*
X85153333Y-65841619D01*
X85200952Y-65794000D01*
X85296190Y-65746380D01*
%TO.C,SW19*%
X82010476Y-87018761D02*
X82153333Y-87066380D01*
X82391428Y-87066380D01*
X82486666Y-87018761D01*
X82534285Y-86971142D01*
X82581904Y-86875904D01*
X82581904Y-86780666D01*
X82534285Y-86685428D01*
X82486666Y-86637809D01*
X82391428Y-86590190D01*
X82200952Y-86542571D01*
X82105714Y-86494952D01*
X82058095Y-86447333D01*
X82010476Y-86352095D01*
X82010476Y-86256857D01*
X82058095Y-86161619D01*
X82105714Y-86114000D01*
X82200952Y-86066380D01*
X82439047Y-86066380D01*
X82581904Y-86114000D01*
X82915238Y-86066380D02*
X83153333Y-87066380D01*
X83343809Y-86352095D01*
X83534285Y-87066380D01*
X83772380Y-86066380D01*
X84677142Y-87066380D02*
X84105714Y-87066380D01*
X84391428Y-87066380D02*
X84391428Y-86066380D01*
X84296190Y-86209238D01*
X84200952Y-86304476D01*
X84105714Y-86352095D01*
X85153333Y-87066380D02*
X85343809Y-87066380D01*
X85439047Y-87018761D01*
X85486666Y-86971142D01*
X85581904Y-86828285D01*
X85629523Y-86637809D01*
X85629523Y-86256857D01*
X85581904Y-86161619D01*
X85534285Y-86114000D01*
X85439047Y-86066380D01*
X85248571Y-86066380D01*
X85153333Y-86114000D01*
X85105714Y-86161619D01*
X85058095Y-86256857D01*
X85058095Y-86494952D01*
X85105714Y-86590190D01*
X85153333Y-86637809D01*
X85248571Y-86685428D01*
X85439047Y-86685428D01*
X85534285Y-86637809D01*
X85581904Y-86590190D01*
X85629523Y-86494952D01*
%TO.C,SW18*%
X82010476Y-107338761D02*
X82153333Y-107386380D01*
X82391428Y-107386380D01*
X82486666Y-107338761D01*
X82534285Y-107291142D01*
X82581904Y-107195904D01*
X82581904Y-107100666D01*
X82534285Y-107005428D01*
X82486666Y-106957809D01*
X82391428Y-106910190D01*
X82200952Y-106862571D01*
X82105714Y-106814952D01*
X82058095Y-106767333D01*
X82010476Y-106672095D01*
X82010476Y-106576857D01*
X82058095Y-106481619D01*
X82105714Y-106434000D01*
X82200952Y-106386380D01*
X82439047Y-106386380D01*
X82581904Y-106434000D01*
X82915238Y-106386380D02*
X83153333Y-107386380D01*
X83343809Y-106672095D01*
X83534285Y-107386380D01*
X83772380Y-106386380D01*
X84677142Y-107386380D02*
X84105714Y-107386380D01*
X84391428Y-107386380D02*
X84391428Y-106386380D01*
X84296190Y-106529238D01*
X84200952Y-106624476D01*
X84105714Y-106672095D01*
X85248571Y-106814952D02*
X85153333Y-106767333D01*
X85105714Y-106719714D01*
X85058095Y-106624476D01*
X85058095Y-106576857D01*
X85105714Y-106481619D01*
X85153333Y-106434000D01*
X85248571Y-106386380D01*
X85439047Y-106386380D01*
X85534285Y-106434000D01*
X85581904Y-106481619D01*
X85629523Y-106576857D01*
X85629523Y-106624476D01*
X85581904Y-106719714D01*
X85534285Y-106767333D01*
X85439047Y-106814952D01*
X85248571Y-106814952D01*
X85153333Y-106862571D01*
X85105714Y-106910190D01*
X85058095Y-107005428D01*
X85058095Y-107195904D01*
X85105714Y-107291142D01*
X85153333Y-107338761D01*
X85248571Y-107386380D01*
X85439047Y-107386380D01*
X85534285Y-107338761D01*
X85581904Y-107291142D01*
X85629523Y-107195904D01*
X85629523Y-107005428D01*
X85581904Y-106910190D01*
X85534285Y-106862571D01*
X85439047Y-106814952D01*
%TO.C,SW17*%
X82010476Y-127658761D02*
X82153333Y-127706380D01*
X82391428Y-127706380D01*
X82486666Y-127658761D01*
X82534285Y-127611142D01*
X82581904Y-127515904D01*
X82581904Y-127420666D01*
X82534285Y-127325428D01*
X82486666Y-127277809D01*
X82391428Y-127230190D01*
X82200952Y-127182571D01*
X82105714Y-127134952D01*
X82058095Y-127087333D01*
X82010476Y-126992095D01*
X82010476Y-126896857D01*
X82058095Y-126801619D01*
X82105714Y-126754000D01*
X82200952Y-126706380D01*
X82439047Y-126706380D01*
X82581904Y-126754000D01*
X82915238Y-126706380D02*
X83153333Y-127706380D01*
X83343809Y-126992095D01*
X83534285Y-127706380D01*
X83772380Y-126706380D01*
X84677142Y-127706380D02*
X84105714Y-127706380D01*
X84391428Y-127706380D02*
X84391428Y-126706380D01*
X84296190Y-126849238D01*
X84200952Y-126944476D01*
X84105714Y-126992095D01*
X85010476Y-126706380D02*
X85677142Y-126706380D01*
X85248571Y-127706380D01*
%TO.C,SW16*%
X102330476Y-46378761D02*
X102473333Y-46426380D01*
X102711428Y-46426380D01*
X102806666Y-46378761D01*
X102854285Y-46331142D01*
X102901904Y-46235904D01*
X102901904Y-46140666D01*
X102854285Y-46045428D01*
X102806666Y-45997809D01*
X102711428Y-45950190D01*
X102520952Y-45902571D01*
X102425714Y-45854952D01*
X102378095Y-45807333D01*
X102330476Y-45712095D01*
X102330476Y-45616857D01*
X102378095Y-45521619D01*
X102425714Y-45474000D01*
X102520952Y-45426380D01*
X102759047Y-45426380D01*
X102901904Y-45474000D01*
X103235238Y-45426380D02*
X103473333Y-46426380D01*
X103663809Y-45712095D01*
X103854285Y-46426380D01*
X104092380Y-45426380D01*
X104997142Y-46426380D02*
X104425714Y-46426380D01*
X104711428Y-46426380D02*
X104711428Y-45426380D01*
X104616190Y-45569238D01*
X104520952Y-45664476D01*
X104425714Y-45712095D01*
X105854285Y-45426380D02*
X105663809Y-45426380D01*
X105568571Y-45474000D01*
X105520952Y-45521619D01*
X105425714Y-45664476D01*
X105378095Y-45854952D01*
X105378095Y-46235904D01*
X105425714Y-46331142D01*
X105473333Y-46378761D01*
X105568571Y-46426380D01*
X105759047Y-46426380D01*
X105854285Y-46378761D01*
X105901904Y-46331142D01*
X105949523Y-46235904D01*
X105949523Y-45997809D01*
X105901904Y-45902571D01*
X105854285Y-45854952D01*
X105759047Y-45807333D01*
X105568571Y-45807333D01*
X105473333Y-45854952D01*
X105425714Y-45902571D01*
X105378095Y-45997809D01*
%TO.C,SW15*%
X102330476Y-66698761D02*
X102473333Y-66746380D01*
X102711428Y-66746380D01*
X102806666Y-66698761D01*
X102854285Y-66651142D01*
X102901904Y-66555904D01*
X102901904Y-66460666D01*
X102854285Y-66365428D01*
X102806666Y-66317809D01*
X102711428Y-66270190D01*
X102520952Y-66222571D01*
X102425714Y-66174952D01*
X102378095Y-66127333D01*
X102330476Y-66032095D01*
X102330476Y-65936857D01*
X102378095Y-65841619D01*
X102425714Y-65794000D01*
X102520952Y-65746380D01*
X102759047Y-65746380D01*
X102901904Y-65794000D01*
X103235238Y-65746380D02*
X103473333Y-66746380D01*
X103663809Y-66032095D01*
X103854285Y-66746380D01*
X104092380Y-65746380D01*
X104997142Y-66746380D02*
X104425714Y-66746380D01*
X104711428Y-66746380D02*
X104711428Y-65746380D01*
X104616190Y-65889238D01*
X104520952Y-65984476D01*
X104425714Y-66032095D01*
X105901904Y-65746380D02*
X105425714Y-65746380D01*
X105378095Y-66222571D01*
X105425714Y-66174952D01*
X105520952Y-66127333D01*
X105759047Y-66127333D01*
X105854285Y-66174952D01*
X105901904Y-66222571D01*
X105949523Y-66317809D01*
X105949523Y-66555904D01*
X105901904Y-66651142D01*
X105854285Y-66698761D01*
X105759047Y-66746380D01*
X105520952Y-66746380D01*
X105425714Y-66698761D01*
X105378095Y-66651142D01*
%TO.C,SW14*%
X102330476Y-87018761D02*
X102473333Y-87066380D01*
X102711428Y-87066380D01*
X102806666Y-87018761D01*
X102854285Y-86971142D01*
X102901904Y-86875904D01*
X102901904Y-86780666D01*
X102854285Y-86685428D01*
X102806666Y-86637809D01*
X102711428Y-86590190D01*
X102520952Y-86542571D01*
X102425714Y-86494952D01*
X102378095Y-86447333D01*
X102330476Y-86352095D01*
X102330476Y-86256857D01*
X102378095Y-86161619D01*
X102425714Y-86114000D01*
X102520952Y-86066380D01*
X102759047Y-86066380D01*
X102901904Y-86114000D01*
X103235238Y-86066380D02*
X103473333Y-87066380D01*
X103663809Y-86352095D01*
X103854285Y-87066380D01*
X104092380Y-86066380D01*
X104997142Y-87066380D02*
X104425714Y-87066380D01*
X104711428Y-87066380D02*
X104711428Y-86066380D01*
X104616190Y-86209238D01*
X104520952Y-86304476D01*
X104425714Y-86352095D01*
X105854285Y-86399714D02*
X105854285Y-87066380D01*
X105616190Y-86018761D02*
X105378095Y-86733047D01*
X105997142Y-86733047D01*
%TO.C,SW13*%
X102330476Y-107338761D02*
X102473333Y-107386380D01*
X102711428Y-107386380D01*
X102806666Y-107338761D01*
X102854285Y-107291142D01*
X102901904Y-107195904D01*
X102901904Y-107100666D01*
X102854285Y-107005428D01*
X102806666Y-106957809D01*
X102711428Y-106910190D01*
X102520952Y-106862571D01*
X102425714Y-106814952D01*
X102378095Y-106767333D01*
X102330476Y-106672095D01*
X102330476Y-106576857D01*
X102378095Y-106481619D01*
X102425714Y-106434000D01*
X102520952Y-106386380D01*
X102759047Y-106386380D01*
X102901904Y-106434000D01*
X103235238Y-106386380D02*
X103473333Y-107386380D01*
X103663809Y-106672095D01*
X103854285Y-107386380D01*
X104092380Y-106386380D01*
X104997142Y-107386380D02*
X104425714Y-107386380D01*
X104711428Y-107386380D02*
X104711428Y-106386380D01*
X104616190Y-106529238D01*
X104520952Y-106624476D01*
X104425714Y-106672095D01*
X105330476Y-106386380D02*
X105949523Y-106386380D01*
X105616190Y-106767333D01*
X105759047Y-106767333D01*
X105854285Y-106814952D01*
X105901904Y-106862571D01*
X105949523Y-106957809D01*
X105949523Y-107195904D01*
X105901904Y-107291142D01*
X105854285Y-107338761D01*
X105759047Y-107386380D01*
X105473333Y-107386380D01*
X105378095Y-107338761D01*
X105330476Y-107291142D01*
%TO.C,SW12*%
X102330476Y-127658761D02*
X102473333Y-127706380D01*
X102711428Y-127706380D01*
X102806666Y-127658761D01*
X102854285Y-127611142D01*
X102901904Y-127515904D01*
X102901904Y-127420666D01*
X102854285Y-127325428D01*
X102806666Y-127277809D01*
X102711428Y-127230190D01*
X102520952Y-127182571D01*
X102425714Y-127134952D01*
X102378095Y-127087333D01*
X102330476Y-126992095D01*
X102330476Y-126896857D01*
X102378095Y-126801619D01*
X102425714Y-126754000D01*
X102520952Y-126706380D01*
X102759047Y-126706380D01*
X102901904Y-126754000D01*
X103235238Y-126706380D02*
X103473333Y-127706380D01*
X103663809Y-126992095D01*
X103854285Y-127706380D01*
X104092380Y-126706380D01*
X104997142Y-127706380D02*
X104425714Y-127706380D01*
X104711428Y-127706380D02*
X104711428Y-126706380D01*
X104616190Y-126849238D01*
X104520952Y-126944476D01*
X104425714Y-126992095D01*
X105378095Y-126801619D02*
X105425714Y-126754000D01*
X105520952Y-126706380D01*
X105759047Y-126706380D01*
X105854285Y-126754000D01*
X105901904Y-126801619D01*
X105949523Y-126896857D01*
X105949523Y-126992095D01*
X105901904Y-127134952D01*
X105330476Y-127706380D01*
X105949523Y-127706380D01*
%TO.C,SW10*%
X122650476Y-66698761D02*
X122793333Y-66746380D01*
X123031428Y-66746380D01*
X123126666Y-66698761D01*
X123174285Y-66651142D01*
X123221904Y-66555904D01*
X123221904Y-66460666D01*
X123174285Y-66365428D01*
X123126666Y-66317809D01*
X123031428Y-66270190D01*
X122840952Y-66222571D01*
X122745714Y-66174952D01*
X122698095Y-66127333D01*
X122650476Y-66032095D01*
X122650476Y-65936857D01*
X122698095Y-65841619D01*
X122745714Y-65794000D01*
X122840952Y-65746380D01*
X123079047Y-65746380D01*
X123221904Y-65794000D01*
X123555238Y-65746380D02*
X123793333Y-66746380D01*
X123983809Y-66032095D01*
X124174285Y-66746380D01*
X124412380Y-65746380D01*
X125317142Y-66746380D02*
X124745714Y-66746380D01*
X125031428Y-66746380D02*
X125031428Y-65746380D01*
X124936190Y-65889238D01*
X124840952Y-65984476D01*
X124745714Y-66032095D01*
X125936190Y-65746380D02*
X126031428Y-65746380D01*
X126126666Y-65794000D01*
X126174285Y-65841619D01*
X126221904Y-65936857D01*
X126269523Y-66127333D01*
X126269523Y-66365428D01*
X126221904Y-66555904D01*
X126174285Y-66651142D01*
X126126666Y-66698761D01*
X126031428Y-66746380D01*
X125936190Y-66746380D01*
X125840952Y-66698761D01*
X125793333Y-66651142D01*
X125745714Y-66555904D01*
X125698095Y-66365428D01*
X125698095Y-66127333D01*
X125745714Y-65936857D01*
X125793333Y-65841619D01*
X125840952Y-65794000D01*
X125936190Y-65746380D01*
%TO.C,SW9*%
X123126666Y-87018761D02*
X123269523Y-87066380D01*
X123507619Y-87066380D01*
X123602857Y-87018761D01*
X123650476Y-86971142D01*
X123698095Y-86875904D01*
X123698095Y-86780666D01*
X123650476Y-86685428D01*
X123602857Y-86637809D01*
X123507619Y-86590190D01*
X123317142Y-86542571D01*
X123221904Y-86494952D01*
X123174285Y-86447333D01*
X123126666Y-86352095D01*
X123126666Y-86256857D01*
X123174285Y-86161619D01*
X123221904Y-86114000D01*
X123317142Y-86066380D01*
X123555238Y-86066380D01*
X123698095Y-86114000D01*
X124031428Y-86066380D02*
X124269523Y-87066380D01*
X124460000Y-86352095D01*
X124650476Y-87066380D01*
X124888571Y-86066380D01*
X125317142Y-87066380D02*
X125507619Y-87066380D01*
X125602857Y-87018761D01*
X125650476Y-86971142D01*
X125745714Y-86828285D01*
X125793333Y-86637809D01*
X125793333Y-86256857D01*
X125745714Y-86161619D01*
X125698095Y-86114000D01*
X125602857Y-86066380D01*
X125412380Y-86066380D01*
X125317142Y-86114000D01*
X125269523Y-86161619D01*
X125221904Y-86256857D01*
X125221904Y-86494952D01*
X125269523Y-86590190D01*
X125317142Y-86637809D01*
X125412380Y-86685428D01*
X125602857Y-86685428D01*
X125698095Y-86637809D01*
X125745714Y-86590190D01*
X125793333Y-86494952D01*
%TO.C,SW8*%
X123126666Y-107338761D02*
X123269523Y-107386380D01*
X123507619Y-107386380D01*
X123602857Y-107338761D01*
X123650476Y-107291142D01*
X123698095Y-107195904D01*
X123698095Y-107100666D01*
X123650476Y-107005428D01*
X123602857Y-106957809D01*
X123507619Y-106910190D01*
X123317142Y-106862571D01*
X123221904Y-106814952D01*
X123174285Y-106767333D01*
X123126666Y-106672095D01*
X123126666Y-106576857D01*
X123174285Y-106481619D01*
X123221904Y-106434000D01*
X123317142Y-106386380D01*
X123555238Y-106386380D01*
X123698095Y-106434000D01*
X124031428Y-106386380D02*
X124269523Y-107386380D01*
X124460000Y-106672095D01*
X124650476Y-107386380D01*
X124888571Y-106386380D01*
X125412380Y-106814952D02*
X125317142Y-106767333D01*
X125269523Y-106719714D01*
X125221904Y-106624476D01*
X125221904Y-106576857D01*
X125269523Y-106481619D01*
X125317142Y-106434000D01*
X125412380Y-106386380D01*
X125602857Y-106386380D01*
X125698095Y-106434000D01*
X125745714Y-106481619D01*
X125793333Y-106576857D01*
X125793333Y-106624476D01*
X125745714Y-106719714D01*
X125698095Y-106767333D01*
X125602857Y-106814952D01*
X125412380Y-106814952D01*
X125317142Y-106862571D01*
X125269523Y-106910190D01*
X125221904Y-107005428D01*
X125221904Y-107195904D01*
X125269523Y-107291142D01*
X125317142Y-107338761D01*
X125412380Y-107386380D01*
X125602857Y-107386380D01*
X125698095Y-107338761D01*
X125745714Y-107291142D01*
X125793333Y-107195904D01*
X125793333Y-107005428D01*
X125745714Y-106910190D01*
X125698095Y-106862571D01*
X125602857Y-106814952D01*
%TO.C,SW7*%
X123126666Y-127658761D02*
X123269523Y-127706380D01*
X123507619Y-127706380D01*
X123602857Y-127658761D01*
X123650476Y-127611142D01*
X123698095Y-127515904D01*
X123698095Y-127420666D01*
X123650476Y-127325428D01*
X123602857Y-127277809D01*
X123507619Y-127230190D01*
X123317142Y-127182571D01*
X123221904Y-127134952D01*
X123174285Y-127087333D01*
X123126666Y-126992095D01*
X123126666Y-126896857D01*
X123174285Y-126801619D01*
X123221904Y-126754000D01*
X123317142Y-126706380D01*
X123555238Y-126706380D01*
X123698095Y-126754000D01*
X124031428Y-126706380D02*
X124269523Y-127706380D01*
X124460000Y-126992095D01*
X124650476Y-127706380D01*
X124888571Y-126706380D01*
X125174285Y-126706380D02*
X125840952Y-126706380D01*
X125412380Y-127706380D01*
%TO.C,SW6*%
X143446666Y-46378761D02*
X143589523Y-46426380D01*
X143827619Y-46426380D01*
X143922857Y-46378761D01*
X143970476Y-46331142D01*
X144018095Y-46235904D01*
X144018095Y-46140666D01*
X143970476Y-46045428D01*
X143922857Y-45997809D01*
X143827619Y-45950190D01*
X143637142Y-45902571D01*
X143541904Y-45854952D01*
X143494285Y-45807333D01*
X143446666Y-45712095D01*
X143446666Y-45616857D01*
X143494285Y-45521619D01*
X143541904Y-45474000D01*
X143637142Y-45426380D01*
X143875238Y-45426380D01*
X144018095Y-45474000D01*
X144351428Y-45426380D02*
X144589523Y-46426380D01*
X144780000Y-45712095D01*
X144970476Y-46426380D01*
X145208571Y-45426380D01*
X146018095Y-45426380D02*
X145827619Y-45426380D01*
X145732380Y-45474000D01*
X145684761Y-45521619D01*
X145589523Y-45664476D01*
X145541904Y-45854952D01*
X145541904Y-46235904D01*
X145589523Y-46331142D01*
X145637142Y-46378761D01*
X145732380Y-46426380D01*
X145922857Y-46426380D01*
X146018095Y-46378761D01*
X146065714Y-46331142D01*
X146113333Y-46235904D01*
X146113333Y-45997809D01*
X146065714Y-45902571D01*
X146018095Y-45854952D01*
X145922857Y-45807333D01*
X145732380Y-45807333D01*
X145637142Y-45854952D01*
X145589523Y-45902571D01*
X145541904Y-45997809D01*
%TO.C,SW5*%
X143446666Y-66698761D02*
X143589523Y-66746380D01*
X143827619Y-66746380D01*
X143922857Y-66698761D01*
X143970476Y-66651142D01*
X144018095Y-66555904D01*
X144018095Y-66460666D01*
X143970476Y-66365428D01*
X143922857Y-66317809D01*
X143827619Y-66270190D01*
X143637142Y-66222571D01*
X143541904Y-66174952D01*
X143494285Y-66127333D01*
X143446666Y-66032095D01*
X143446666Y-65936857D01*
X143494285Y-65841619D01*
X143541904Y-65794000D01*
X143637142Y-65746380D01*
X143875238Y-65746380D01*
X144018095Y-65794000D01*
X144351428Y-65746380D02*
X144589523Y-66746380D01*
X144780000Y-66032095D01*
X144970476Y-66746380D01*
X145208571Y-65746380D01*
X146065714Y-65746380D02*
X145589523Y-65746380D01*
X145541904Y-66222571D01*
X145589523Y-66174952D01*
X145684761Y-66127333D01*
X145922857Y-66127333D01*
X146018095Y-66174952D01*
X146065714Y-66222571D01*
X146113333Y-66317809D01*
X146113333Y-66555904D01*
X146065714Y-66651142D01*
X146018095Y-66698761D01*
X145922857Y-66746380D01*
X145684761Y-66746380D01*
X145589523Y-66698761D01*
X145541904Y-66651142D01*
%TO.C,SW4*%
X143446666Y-87018761D02*
X143589523Y-87066380D01*
X143827619Y-87066380D01*
X143922857Y-87018761D01*
X143970476Y-86971142D01*
X144018095Y-86875904D01*
X144018095Y-86780666D01*
X143970476Y-86685428D01*
X143922857Y-86637809D01*
X143827619Y-86590190D01*
X143637142Y-86542571D01*
X143541904Y-86494952D01*
X143494285Y-86447333D01*
X143446666Y-86352095D01*
X143446666Y-86256857D01*
X143494285Y-86161619D01*
X143541904Y-86114000D01*
X143637142Y-86066380D01*
X143875238Y-86066380D01*
X144018095Y-86114000D01*
X144351428Y-86066380D02*
X144589523Y-87066380D01*
X144780000Y-86352095D01*
X144970476Y-87066380D01*
X145208571Y-86066380D01*
X146018095Y-86399714D02*
X146018095Y-87066380D01*
X145780000Y-86018761D02*
X145541904Y-86733047D01*
X146160952Y-86733047D01*
%TO.C,SW3*%
X143446666Y-107338761D02*
X143589523Y-107386380D01*
X143827619Y-107386380D01*
X143922857Y-107338761D01*
X143970476Y-107291142D01*
X144018095Y-107195904D01*
X144018095Y-107100666D01*
X143970476Y-107005428D01*
X143922857Y-106957809D01*
X143827619Y-106910190D01*
X143637142Y-106862571D01*
X143541904Y-106814952D01*
X143494285Y-106767333D01*
X143446666Y-106672095D01*
X143446666Y-106576857D01*
X143494285Y-106481619D01*
X143541904Y-106434000D01*
X143637142Y-106386380D01*
X143875238Y-106386380D01*
X144018095Y-106434000D01*
X144351428Y-106386380D02*
X144589523Y-107386380D01*
X144780000Y-106672095D01*
X144970476Y-107386380D01*
X145208571Y-106386380D01*
X145494285Y-106386380D02*
X146113333Y-106386380D01*
X145780000Y-106767333D01*
X145922857Y-106767333D01*
X146018095Y-106814952D01*
X146065714Y-106862571D01*
X146113333Y-106957809D01*
X146113333Y-107195904D01*
X146065714Y-107291142D01*
X146018095Y-107338761D01*
X145922857Y-107386380D01*
X145637142Y-107386380D01*
X145541904Y-107338761D01*
X145494285Y-107291142D01*
%TO.C,SW2*%
X143446666Y-127658761D02*
X143589523Y-127706380D01*
X143827619Y-127706380D01*
X143922857Y-127658761D01*
X143970476Y-127611142D01*
X144018095Y-127515904D01*
X144018095Y-127420666D01*
X143970476Y-127325428D01*
X143922857Y-127277809D01*
X143827619Y-127230190D01*
X143637142Y-127182571D01*
X143541904Y-127134952D01*
X143494285Y-127087333D01*
X143446666Y-126992095D01*
X143446666Y-126896857D01*
X143494285Y-126801619D01*
X143541904Y-126754000D01*
X143637142Y-126706380D01*
X143875238Y-126706380D01*
X144018095Y-126754000D01*
X144351428Y-126706380D02*
X144589523Y-127706380D01*
X144780000Y-126992095D01*
X144970476Y-127706380D01*
X145208571Y-126706380D01*
X145541904Y-126801619D02*
X145589523Y-126754000D01*
X145684761Y-126706380D01*
X145922857Y-126706380D01*
X146018095Y-126754000D01*
X146065714Y-126801619D01*
X146113333Y-126896857D01*
X146113333Y-126992095D01*
X146065714Y-127134952D01*
X145494285Y-127706380D01*
X146113333Y-127706380D01*
%TO.C,SW1*%
X53832761Y-66109333D02*
X53880380Y-65966476D01*
X53880380Y-65728380D01*
X53832761Y-65633142D01*
X53785142Y-65585523D01*
X53689904Y-65537904D01*
X53594666Y-65537904D01*
X53499428Y-65585523D01*
X53451809Y-65633142D01*
X53404190Y-65728380D01*
X53356571Y-65918857D01*
X53308952Y-66014095D01*
X53261333Y-66061714D01*
X53166095Y-66109333D01*
X53070857Y-66109333D01*
X52975619Y-66061714D01*
X52928000Y-66014095D01*
X52880380Y-65918857D01*
X52880380Y-65680761D01*
X52928000Y-65537904D01*
X52880380Y-65204571D02*
X53880380Y-64966476D01*
X53166095Y-64776000D01*
X53880380Y-64585523D01*
X52880380Y-64347428D01*
X53880380Y-63442666D02*
X53880380Y-64014095D01*
X53880380Y-63728380D02*
X52880380Y-63728380D01*
X53023238Y-63823619D01*
X53118476Y-63918857D01*
X53166095Y-64014095D01*
%TO.C,D50*%
X62285714Y-111708380D02*
X62285714Y-110708380D01*
X62523809Y-110708380D01*
X62666666Y-110756000D01*
X62761904Y-110851238D01*
X62809523Y-110946476D01*
X62857142Y-111136952D01*
X62857142Y-111279809D01*
X62809523Y-111470285D01*
X62761904Y-111565523D01*
X62666666Y-111660761D01*
X62523809Y-111708380D01*
X62285714Y-111708380D01*
X63761904Y-110708380D02*
X63285714Y-110708380D01*
X63238095Y-111184571D01*
X63285714Y-111136952D01*
X63380952Y-111089333D01*
X63619047Y-111089333D01*
X63714285Y-111136952D01*
X63761904Y-111184571D01*
X63809523Y-111279809D01*
X63809523Y-111517904D01*
X63761904Y-111613142D01*
X63714285Y-111660761D01*
X63619047Y-111708380D01*
X63380952Y-111708380D01*
X63285714Y-111660761D01*
X63238095Y-111613142D01*
X64428571Y-110708380D02*
X64523809Y-110708380D01*
X64619047Y-110756000D01*
X64666666Y-110803619D01*
X64714285Y-110898857D01*
X64761904Y-111089333D01*
X64761904Y-111327428D01*
X64714285Y-111517904D01*
X64666666Y-111613142D01*
X64619047Y-111660761D01*
X64523809Y-111708380D01*
X64428571Y-111708380D01*
X64333333Y-111660761D01*
X64285714Y-111613142D01*
X64238095Y-111517904D01*
X64190476Y-111327428D01*
X64190476Y-111089333D01*
X64238095Y-110898857D01*
X64285714Y-110803619D01*
X64333333Y-110756000D01*
X64428571Y-110708380D01*
D12*
X65371428Y-114537428D02*
X65028571Y-114537428D01*
X65200000Y-114537428D02*
X65200000Y-113937428D01*
X65142857Y-114023142D01*
X65085714Y-114080285D01*
X65028571Y-114108857D01*
%TO.C,D49*%
D11*
X82605714Y-111708380D02*
X82605714Y-110708380D01*
X82843809Y-110708380D01*
X82986666Y-110756000D01*
X83081904Y-110851238D01*
X83129523Y-110946476D01*
X83177142Y-111136952D01*
X83177142Y-111279809D01*
X83129523Y-111470285D01*
X83081904Y-111565523D01*
X82986666Y-111660761D01*
X82843809Y-111708380D01*
X82605714Y-111708380D01*
X84034285Y-111041714D02*
X84034285Y-111708380D01*
X83796190Y-110660761D02*
X83558095Y-111375047D01*
X84177142Y-111375047D01*
X84605714Y-111708380D02*
X84796190Y-111708380D01*
X84891428Y-111660761D01*
X84939047Y-111613142D01*
X85034285Y-111470285D01*
X85081904Y-111279809D01*
X85081904Y-110898857D01*
X85034285Y-110803619D01*
X84986666Y-110756000D01*
X84891428Y-110708380D01*
X84700952Y-110708380D01*
X84605714Y-110756000D01*
X84558095Y-110803619D01*
X84510476Y-110898857D01*
X84510476Y-111136952D01*
X84558095Y-111232190D01*
X84605714Y-111279809D01*
X84700952Y-111327428D01*
X84891428Y-111327428D01*
X84986666Y-111279809D01*
X85034285Y-111232190D01*
X85081904Y-111136952D01*
D12*
X85691428Y-114537428D02*
X85348571Y-114537428D01*
X85520000Y-114537428D02*
X85520000Y-113937428D01*
X85462857Y-114023142D01*
X85405714Y-114080285D01*
X85348571Y-114108857D01*
%TO.C,D48*%
D11*
X102925714Y-111708380D02*
X102925714Y-110708380D01*
X103163809Y-110708380D01*
X103306666Y-110756000D01*
X103401904Y-110851238D01*
X103449523Y-110946476D01*
X103497142Y-111136952D01*
X103497142Y-111279809D01*
X103449523Y-111470285D01*
X103401904Y-111565523D01*
X103306666Y-111660761D01*
X103163809Y-111708380D01*
X102925714Y-111708380D01*
X104354285Y-111041714D02*
X104354285Y-111708380D01*
X104116190Y-110660761D02*
X103878095Y-111375047D01*
X104497142Y-111375047D01*
X105020952Y-111136952D02*
X104925714Y-111089333D01*
X104878095Y-111041714D01*
X104830476Y-110946476D01*
X104830476Y-110898857D01*
X104878095Y-110803619D01*
X104925714Y-110756000D01*
X105020952Y-110708380D01*
X105211428Y-110708380D01*
X105306666Y-110756000D01*
X105354285Y-110803619D01*
X105401904Y-110898857D01*
X105401904Y-110946476D01*
X105354285Y-111041714D01*
X105306666Y-111089333D01*
X105211428Y-111136952D01*
X105020952Y-111136952D01*
X104925714Y-111184571D01*
X104878095Y-111232190D01*
X104830476Y-111327428D01*
X104830476Y-111517904D01*
X104878095Y-111613142D01*
X104925714Y-111660761D01*
X105020952Y-111708380D01*
X105211428Y-111708380D01*
X105306666Y-111660761D01*
X105354285Y-111613142D01*
X105401904Y-111517904D01*
X105401904Y-111327428D01*
X105354285Y-111232190D01*
X105306666Y-111184571D01*
X105211428Y-111136952D01*
D12*
X106011428Y-114537428D02*
X105668571Y-114537428D01*
X105840000Y-114537428D02*
X105840000Y-113937428D01*
X105782857Y-114023142D01*
X105725714Y-114080285D01*
X105668571Y-114108857D01*
%TO.C,D47*%
D11*
X123245714Y-111708380D02*
X123245714Y-110708380D01*
X123483809Y-110708380D01*
X123626666Y-110756000D01*
X123721904Y-110851238D01*
X123769523Y-110946476D01*
X123817142Y-111136952D01*
X123817142Y-111279809D01*
X123769523Y-111470285D01*
X123721904Y-111565523D01*
X123626666Y-111660761D01*
X123483809Y-111708380D01*
X123245714Y-111708380D01*
X124674285Y-111041714D02*
X124674285Y-111708380D01*
X124436190Y-110660761D02*
X124198095Y-111375047D01*
X124817142Y-111375047D01*
X125102857Y-110708380D02*
X125769523Y-110708380D01*
X125340952Y-111708380D01*
D12*
X126331428Y-114537428D02*
X125988571Y-114537428D01*
X126160000Y-114537428D02*
X126160000Y-113937428D01*
X126102857Y-114023142D01*
X126045714Y-114080285D01*
X125988571Y-114108857D01*
%TO.C,D46*%
D11*
X143565714Y-111708380D02*
X143565714Y-110708380D01*
X143803809Y-110708380D01*
X143946666Y-110756000D01*
X144041904Y-110851238D01*
X144089523Y-110946476D01*
X144137142Y-111136952D01*
X144137142Y-111279809D01*
X144089523Y-111470285D01*
X144041904Y-111565523D01*
X143946666Y-111660761D01*
X143803809Y-111708380D01*
X143565714Y-111708380D01*
X144994285Y-111041714D02*
X144994285Y-111708380D01*
X144756190Y-110660761D02*
X144518095Y-111375047D01*
X145137142Y-111375047D01*
X145946666Y-110708380D02*
X145756190Y-110708380D01*
X145660952Y-110756000D01*
X145613333Y-110803619D01*
X145518095Y-110946476D01*
X145470476Y-111136952D01*
X145470476Y-111517904D01*
X145518095Y-111613142D01*
X145565714Y-111660761D01*
X145660952Y-111708380D01*
X145851428Y-111708380D01*
X145946666Y-111660761D01*
X145994285Y-111613142D01*
X146041904Y-111517904D01*
X146041904Y-111279809D01*
X145994285Y-111184571D01*
X145946666Y-111136952D01*
X145851428Y-111089333D01*
X145660952Y-111089333D01*
X145565714Y-111136952D01*
X145518095Y-111184571D01*
X145470476Y-111279809D01*
D12*
X146651428Y-114537428D02*
X146308571Y-114537428D01*
X146480000Y-114537428D02*
X146480000Y-113937428D01*
X146422857Y-114023142D01*
X146365714Y-114080285D01*
X146308571Y-114108857D01*
%TO.C,D45*%
D11*
X143565714Y-91306380D02*
X143565714Y-90306380D01*
X143803809Y-90306380D01*
X143946666Y-90354000D01*
X144041904Y-90449238D01*
X144089523Y-90544476D01*
X144137142Y-90734952D01*
X144137142Y-90877809D01*
X144089523Y-91068285D01*
X144041904Y-91163523D01*
X143946666Y-91258761D01*
X143803809Y-91306380D01*
X143565714Y-91306380D01*
X144994285Y-90639714D02*
X144994285Y-91306380D01*
X144756190Y-90258761D02*
X144518095Y-90973047D01*
X145137142Y-90973047D01*
X145994285Y-90306380D02*
X145518095Y-90306380D01*
X145470476Y-90782571D01*
X145518095Y-90734952D01*
X145613333Y-90687333D01*
X145851428Y-90687333D01*
X145946666Y-90734952D01*
X145994285Y-90782571D01*
X146041904Y-90877809D01*
X146041904Y-91115904D01*
X145994285Y-91211142D01*
X145946666Y-91258761D01*
X145851428Y-91306380D01*
X145613333Y-91306380D01*
X145518095Y-91258761D01*
X145470476Y-91211142D01*
D12*
X146651428Y-94135428D02*
X146308571Y-94135428D01*
X146480000Y-94135428D02*
X146480000Y-93535428D01*
X146422857Y-93621142D01*
X146365714Y-93678285D01*
X146308571Y-93706857D01*
%TO.C,D44*%
D11*
X123245714Y-91388380D02*
X123245714Y-90388380D01*
X123483809Y-90388380D01*
X123626666Y-90436000D01*
X123721904Y-90531238D01*
X123769523Y-90626476D01*
X123817142Y-90816952D01*
X123817142Y-90959809D01*
X123769523Y-91150285D01*
X123721904Y-91245523D01*
X123626666Y-91340761D01*
X123483809Y-91388380D01*
X123245714Y-91388380D01*
X124674285Y-90721714D02*
X124674285Y-91388380D01*
X124436190Y-90340761D02*
X124198095Y-91055047D01*
X124817142Y-91055047D01*
X125626666Y-90721714D02*
X125626666Y-91388380D01*
X125388571Y-90340761D02*
X125150476Y-91055047D01*
X125769523Y-91055047D01*
D12*
X126331428Y-94217428D02*
X125988571Y-94217428D01*
X126160000Y-94217428D02*
X126160000Y-93617428D01*
X126102857Y-93703142D01*
X126045714Y-93760285D01*
X125988571Y-93788857D01*
%TO.C,D43*%
D11*
X102925714Y-91388380D02*
X102925714Y-90388380D01*
X103163809Y-90388380D01*
X103306666Y-90436000D01*
X103401904Y-90531238D01*
X103449523Y-90626476D01*
X103497142Y-90816952D01*
X103497142Y-90959809D01*
X103449523Y-91150285D01*
X103401904Y-91245523D01*
X103306666Y-91340761D01*
X103163809Y-91388380D01*
X102925714Y-91388380D01*
X104354285Y-90721714D02*
X104354285Y-91388380D01*
X104116190Y-90340761D02*
X103878095Y-91055047D01*
X104497142Y-91055047D01*
X104782857Y-90388380D02*
X105401904Y-90388380D01*
X105068571Y-90769333D01*
X105211428Y-90769333D01*
X105306666Y-90816952D01*
X105354285Y-90864571D01*
X105401904Y-90959809D01*
X105401904Y-91197904D01*
X105354285Y-91293142D01*
X105306666Y-91340761D01*
X105211428Y-91388380D01*
X104925714Y-91388380D01*
X104830476Y-91340761D01*
X104782857Y-91293142D01*
D12*
X106011428Y-94217428D02*
X105668571Y-94217428D01*
X105840000Y-94217428D02*
X105840000Y-93617428D01*
X105782857Y-93703142D01*
X105725714Y-93760285D01*
X105668571Y-93788857D01*
%TO.C,D42*%
D11*
X82605714Y-91388380D02*
X82605714Y-90388380D01*
X82843809Y-90388380D01*
X82986666Y-90436000D01*
X83081904Y-90531238D01*
X83129523Y-90626476D01*
X83177142Y-90816952D01*
X83177142Y-90959809D01*
X83129523Y-91150285D01*
X83081904Y-91245523D01*
X82986666Y-91340761D01*
X82843809Y-91388380D01*
X82605714Y-91388380D01*
X84034285Y-90721714D02*
X84034285Y-91388380D01*
X83796190Y-90340761D02*
X83558095Y-91055047D01*
X84177142Y-91055047D01*
X84510476Y-90483619D02*
X84558095Y-90436000D01*
X84653333Y-90388380D01*
X84891428Y-90388380D01*
X84986666Y-90436000D01*
X85034285Y-90483619D01*
X85081904Y-90578857D01*
X85081904Y-90674095D01*
X85034285Y-90816952D01*
X84462857Y-91388380D01*
X85081904Y-91388380D01*
D12*
X85691428Y-94217428D02*
X85348571Y-94217428D01*
X85520000Y-94217428D02*
X85520000Y-93617428D01*
X85462857Y-93703142D01*
X85405714Y-93760285D01*
X85348571Y-93788857D01*
%TO.C,D41*%
D11*
X62285714Y-91306380D02*
X62285714Y-90306380D01*
X62523809Y-90306380D01*
X62666666Y-90354000D01*
X62761904Y-90449238D01*
X62809523Y-90544476D01*
X62857142Y-90734952D01*
X62857142Y-90877809D01*
X62809523Y-91068285D01*
X62761904Y-91163523D01*
X62666666Y-91258761D01*
X62523809Y-91306380D01*
X62285714Y-91306380D01*
X63714285Y-90639714D02*
X63714285Y-91306380D01*
X63476190Y-90258761D02*
X63238095Y-90973047D01*
X63857142Y-90973047D01*
X64761904Y-91306380D02*
X64190476Y-91306380D01*
X64476190Y-91306380D02*
X64476190Y-90306380D01*
X64380952Y-90449238D01*
X64285714Y-90544476D01*
X64190476Y-90592095D01*
D12*
X65371428Y-94135428D02*
X65028571Y-94135428D01*
X65200000Y-94135428D02*
X65200000Y-93535428D01*
X65142857Y-93621142D01*
X65085714Y-93678285D01*
X65028571Y-93706857D01*
%TO.C,D40*%
D11*
X143565714Y-71068380D02*
X143565714Y-70068380D01*
X143803809Y-70068380D01*
X143946666Y-70116000D01*
X144041904Y-70211238D01*
X144089523Y-70306476D01*
X144137142Y-70496952D01*
X144137142Y-70639809D01*
X144089523Y-70830285D01*
X144041904Y-70925523D01*
X143946666Y-71020761D01*
X143803809Y-71068380D01*
X143565714Y-71068380D01*
X144994285Y-70401714D02*
X144994285Y-71068380D01*
X144756190Y-70020761D02*
X144518095Y-70735047D01*
X145137142Y-70735047D01*
X145708571Y-70068380D02*
X145803809Y-70068380D01*
X145899047Y-70116000D01*
X145946666Y-70163619D01*
X145994285Y-70258857D01*
X146041904Y-70449333D01*
X146041904Y-70687428D01*
X145994285Y-70877904D01*
X145946666Y-70973142D01*
X145899047Y-71020761D01*
X145803809Y-71068380D01*
X145708571Y-71068380D01*
X145613333Y-71020761D01*
X145565714Y-70973142D01*
X145518095Y-70877904D01*
X145470476Y-70687428D01*
X145470476Y-70449333D01*
X145518095Y-70258857D01*
X145565714Y-70163619D01*
X145613333Y-70116000D01*
X145708571Y-70068380D01*
D12*
X146651428Y-73897428D02*
X146308571Y-73897428D01*
X146480000Y-73897428D02*
X146480000Y-73297428D01*
X146422857Y-73383142D01*
X146365714Y-73440285D01*
X146308571Y-73468857D01*
%TO.C,D39*%
D11*
X123245714Y-71068380D02*
X123245714Y-70068380D01*
X123483809Y-70068380D01*
X123626666Y-70116000D01*
X123721904Y-70211238D01*
X123769523Y-70306476D01*
X123817142Y-70496952D01*
X123817142Y-70639809D01*
X123769523Y-70830285D01*
X123721904Y-70925523D01*
X123626666Y-71020761D01*
X123483809Y-71068380D01*
X123245714Y-71068380D01*
X124150476Y-70068380D02*
X124769523Y-70068380D01*
X124436190Y-70449333D01*
X124579047Y-70449333D01*
X124674285Y-70496952D01*
X124721904Y-70544571D01*
X124769523Y-70639809D01*
X124769523Y-70877904D01*
X124721904Y-70973142D01*
X124674285Y-71020761D01*
X124579047Y-71068380D01*
X124293333Y-71068380D01*
X124198095Y-71020761D01*
X124150476Y-70973142D01*
X125245714Y-71068380D02*
X125436190Y-71068380D01*
X125531428Y-71020761D01*
X125579047Y-70973142D01*
X125674285Y-70830285D01*
X125721904Y-70639809D01*
X125721904Y-70258857D01*
X125674285Y-70163619D01*
X125626666Y-70116000D01*
X125531428Y-70068380D01*
X125340952Y-70068380D01*
X125245714Y-70116000D01*
X125198095Y-70163619D01*
X125150476Y-70258857D01*
X125150476Y-70496952D01*
X125198095Y-70592190D01*
X125245714Y-70639809D01*
X125340952Y-70687428D01*
X125531428Y-70687428D01*
X125626666Y-70639809D01*
X125674285Y-70592190D01*
X125721904Y-70496952D01*
D12*
X126331428Y-73897428D02*
X125988571Y-73897428D01*
X126160000Y-73897428D02*
X126160000Y-73297428D01*
X126102857Y-73383142D01*
X126045714Y-73440285D01*
X125988571Y-73468857D01*
%TO.C,D38*%
D11*
X102925714Y-71068380D02*
X102925714Y-70068380D01*
X103163809Y-70068380D01*
X103306666Y-70116000D01*
X103401904Y-70211238D01*
X103449523Y-70306476D01*
X103497142Y-70496952D01*
X103497142Y-70639809D01*
X103449523Y-70830285D01*
X103401904Y-70925523D01*
X103306666Y-71020761D01*
X103163809Y-71068380D01*
X102925714Y-71068380D01*
X103830476Y-70068380D02*
X104449523Y-70068380D01*
X104116190Y-70449333D01*
X104259047Y-70449333D01*
X104354285Y-70496952D01*
X104401904Y-70544571D01*
X104449523Y-70639809D01*
X104449523Y-70877904D01*
X104401904Y-70973142D01*
X104354285Y-71020761D01*
X104259047Y-71068380D01*
X103973333Y-71068380D01*
X103878095Y-71020761D01*
X103830476Y-70973142D01*
X105020952Y-70496952D02*
X104925714Y-70449333D01*
X104878095Y-70401714D01*
X104830476Y-70306476D01*
X104830476Y-70258857D01*
X104878095Y-70163619D01*
X104925714Y-70116000D01*
X105020952Y-70068380D01*
X105211428Y-70068380D01*
X105306666Y-70116000D01*
X105354285Y-70163619D01*
X105401904Y-70258857D01*
X105401904Y-70306476D01*
X105354285Y-70401714D01*
X105306666Y-70449333D01*
X105211428Y-70496952D01*
X105020952Y-70496952D01*
X104925714Y-70544571D01*
X104878095Y-70592190D01*
X104830476Y-70687428D01*
X104830476Y-70877904D01*
X104878095Y-70973142D01*
X104925714Y-71020761D01*
X105020952Y-71068380D01*
X105211428Y-71068380D01*
X105306666Y-71020761D01*
X105354285Y-70973142D01*
X105401904Y-70877904D01*
X105401904Y-70687428D01*
X105354285Y-70592190D01*
X105306666Y-70544571D01*
X105211428Y-70496952D01*
D12*
X106011428Y-73897428D02*
X105668571Y-73897428D01*
X105840000Y-73897428D02*
X105840000Y-73297428D01*
X105782857Y-73383142D01*
X105725714Y-73440285D01*
X105668571Y-73468857D01*
%TO.C,D37*%
D11*
X82605714Y-71068380D02*
X82605714Y-70068380D01*
X82843809Y-70068380D01*
X82986666Y-70116000D01*
X83081904Y-70211238D01*
X83129523Y-70306476D01*
X83177142Y-70496952D01*
X83177142Y-70639809D01*
X83129523Y-70830285D01*
X83081904Y-70925523D01*
X82986666Y-71020761D01*
X82843809Y-71068380D01*
X82605714Y-71068380D01*
X83510476Y-70068380D02*
X84129523Y-70068380D01*
X83796190Y-70449333D01*
X83939047Y-70449333D01*
X84034285Y-70496952D01*
X84081904Y-70544571D01*
X84129523Y-70639809D01*
X84129523Y-70877904D01*
X84081904Y-70973142D01*
X84034285Y-71020761D01*
X83939047Y-71068380D01*
X83653333Y-71068380D01*
X83558095Y-71020761D01*
X83510476Y-70973142D01*
X84462857Y-70068380D02*
X85129523Y-70068380D01*
X84700952Y-71068380D01*
D12*
X85691428Y-73897428D02*
X85348571Y-73897428D01*
X85520000Y-73897428D02*
X85520000Y-73297428D01*
X85462857Y-73383142D01*
X85405714Y-73440285D01*
X85348571Y-73468857D01*
%TO.C,D36*%
D11*
X62285714Y-71068380D02*
X62285714Y-70068380D01*
X62523809Y-70068380D01*
X62666666Y-70116000D01*
X62761904Y-70211238D01*
X62809523Y-70306476D01*
X62857142Y-70496952D01*
X62857142Y-70639809D01*
X62809523Y-70830285D01*
X62761904Y-70925523D01*
X62666666Y-71020761D01*
X62523809Y-71068380D01*
X62285714Y-71068380D01*
X63190476Y-70068380D02*
X63809523Y-70068380D01*
X63476190Y-70449333D01*
X63619047Y-70449333D01*
X63714285Y-70496952D01*
X63761904Y-70544571D01*
X63809523Y-70639809D01*
X63809523Y-70877904D01*
X63761904Y-70973142D01*
X63714285Y-71020761D01*
X63619047Y-71068380D01*
X63333333Y-71068380D01*
X63238095Y-71020761D01*
X63190476Y-70973142D01*
X64666666Y-70068380D02*
X64476190Y-70068380D01*
X64380952Y-70116000D01*
X64333333Y-70163619D01*
X64238095Y-70306476D01*
X64190476Y-70496952D01*
X64190476Y-70877904D01*
X64238095Y-70973142D01*
X64285714Y-71020761D01*
X64380952Y-71068380D01*
X64571428Y-71068380D01*
X64666666Y-71020761D01*
X64714285Y-70973142D01*
X64761904Y-70877904D01*
X64761904Y-70639809D01*
X64714285Y-70544571D01*
X64666666Y-70496952D01*
X64571428Y-70449333D01*
X64380952Y-70449333D01*
X64285714Y-70496952D01*
X64238095Y-70544571D01*
X64190476Y-70639809D01*
D12*
X65371428Y-73897428D02*
X65028571Y-73897428D01*
X65200000Y-73897428D02*
X65200000Y-73297428D01*
X65142857Y-73383142D01*
X65085714Y-73440285D01*
X65028571Y-73468857D01*
%TO.C,D35*%
D11*
X62285714Y-30428380D02*
X62285714Y-29428380D01*
X62523809Y-29428380D01*
X62666666Y-29476000D01*
X62761904Y-29571238D01*
X62809523Y-29666476D01*
X62857142Y-29856952D01*
X62857142Y-29999809D01*
X62809523Y-30190285D01*
X62761904Y-30285523D01*
X62666666Y-30380761D01*
X62523809Y-30428380D01*
X62285714Y-30428380D01*
X63190476Y-29428380D02*
X63809523Y-29428380D01*
X63476190Y-29809333D01*
X63619047Y-29809333D01*
X63714285Y-29856952D01*
X63761904Y-29904571D01*
X63809523Y-29999809D01*
X63809523Y-30237904D01*
X63761904Y-30333142D01*
X63714285Y-30380761D01*
X63619047Y-30428380D01*
X63333333Y-30428380D01*
X63238095Y-30380761D01*
X63190476Y-30333142D01*
X64714285Y-29428380D02*
X64238095Y-29428380D01*
X64190476Y-29904571D01*
X64238095Y-29856952D01*
X64333333Y-29809333D01*
X64571428Y-29809333D01*
X64666666Y-29856952D01*
X64714285Y-29904571D01*
X64761904Y-29999809D01*
X64761904Y-30237904D01*
X64714285Y-30333142D01*
X64666666Y-30380761D01*
X64571428Y-30428380D01*
X64333333Y-30428380D01*
X64238095Y-30380761D01*
X64190476Y-30333142D01*
D12*
X65371428Y-33257428D02*
X65028571Y-33257428D01*
X65200000Y-33257428D02*
X65200000Y-32657428D01*
X65142857Y-32743142D01*
X65085714Y-32800285D01*
X65028571Y-32828857D01*
%TO.C,D34*%
D11*
X82605714Y-30428380D02*
X82605714Y-29428380D01*
X82843809Y-29428380D01*
X82986666Y-29476000D01*
X83081904Y-29571238D01*
X83129523Y-29666476D01*
X83177142Y-29856952D01*
X83177142Y-29999809D01*
X83129523Y-30190285D01*
X83081904Y-30285523D01*
X82986666Y-30380761D01*
X82843809Y-30428380D01*
X82605714Y-30428380D01*
X83510476Y-29428380D02*
X84129523Y-29428380D01*
X83796190Y-29809333D01*
X83939047Y-29809333D01*
X84034285Y-29856952D01*
X84081904Y-29904571D01*
X84129523Y-29999809D01*
X84129523Y-30237904D01*
X84081904Y-30333142D01*
X84034285Y-30380761D01*
X83939047Y-30428380D01*
X83653333Y-30428380D01*
X83558095Y-30380761D01*
X83510476Y-30333142D01*
X84986666Y-29761714D02*
X84986666Y-30428380D01*
X84748571Y-29380761D02*
X84510476Y-30095047D01*
X85129523Y-30095047D01*
D12*
X85691428Y-33257428D02*
X85348571Y-33257428D01*
X85520000Y-33257428D02*
X85520000Y-32657428D01*
X85462857Y-32743142D01*
X85405714Y-32800285D01*
X85348571Y-32828857D01*
%TO.C,D33*%
D11*
X102925714Y-30346380D02*
X102925714Y-29346380D01*
X103163809Y-29346380D01*
X103306666Y-29394000D01*
X103401904Y-29489238D01*
X103449523Y-29584476D01*
X103497142Y-29774952D01*
X103497142Y-29917809D01*
X103449523Y-30108285D01*
X103401904Y-30203523D01*
X103306666Y-30298761D01*
X103163809Y-30346380D01*
X102925714Y-30346380D01*
X103830476Y-29346380D02*
X104449523Y-29346380D01*
X104116190Y-29727333D01*
X104259047Y-29727333D01*
X104354285Y-29774952D01*
X104401904Y-29822571D01*
X104449523Y-29917809D01*
X104449523Y-30155904D01*
X104401904Y-30251142D01*
X104354285Y-30298761D01*
X104259047Y-30346380D01*
X103973333Y-30346380D01*
X103878095Y-30298761D01*
X103830476Y-30251142D01*
X104782857Y-29346380D02*
X105401904Y-29346380D01*
X105068571Y-29727333D01*
X105211428Y-29727333D01*
X105306666Y-29774952D01*
X105354285Y-29822571D01*
X105401904Y-29917809D01*
X105401904Y-30155904D01*
X105354285Y-30251142D01*
X105306666Y-30298761D01*
X105211428Y-30346380D01*
X104925714Y-30346380D01*
X104830476Y-30298761D01*
X104782857Y-30251142D01*
D12*
X106011428Y-33175428D02*
X105668571Y-33175428D01*
X105840000Y-33175428D02*
X105840000Y-32575428D01*
X105782857Y-32661142D01*
X105725714Y-32718285D01*
X105668571Y-32746857D01*
%TO.C,D32*%
D11*
X123245714Y-30428380D02*
X123245714Y-29428380D01*
X123483809Y-29428380D01*
X123626666Y-29476000D01*
X123721904Y-29571238D01*
X123769523Y-29666476D01*
X123817142Y-29856952D01*
X123817142Y-29999809D01*
X123769523Y-30190285D01*
X123721904Y-30285523D01*
X123626666Y-30380761D01*
X123483809Y-30428380D01*
X123245714Y-30428380D01*
X124150476Y-29428380D02*
X124769523Y-29428380D01*
X124436190Y-29809333D01*
X124579047Y-29809333D01*
X124674285Y-29856952D01*
X124721904Y-29904571D01*
X124769523Y-29999809D01*
X124769523Y-30237904D01*
X124721904Y-30333142D01*
X124674285Y-30380761D01*
X124579047Y-30428380D01*
X124293333Y-30428380D01*
X124198095Y-30380761D01*
X124150476Y-30333142D01*
X125150476Y-29523619D02*
X125198095Y-29476000D01*
X125293333Y-29428380D01*
X125531428Y-29428380D01*
X125626666Y-29476000D01*
X125674285Y-29523619D01*
X125721904Y-29618857D01*
X125721904Y-29714095D01*
X125674285Y-29856952D01*
X125102857Y-30428380D01*
X125721904Y-30428380D01*
D12*
X126331428Y-33257428D02*
X125988571Y-33257428D01*
X126160000Y-33257428D02*
X126160000Y-32657428D01*
X126102857Y-32743142D01*
X126045714Y-32800285D01*
X125988571Y-32828857D01*
%TO.C,D31*%
D11*
X143565714Y-30428380D02*
X143565714Y-29428380D01*
X143803809Y-29428380D01*
X143946666Y-29476000D01*
X144041904Y-29571238D01*
X144089523Y-29666476D01*
X144137142Y-29856952D01*
X144137142Y-29999809D01*
X144089523Y-30190285D01*
X144041904Y-30285523D01*
X143946666Y-30380761D01*
X143803809Y-30428380D01*
X143565714Y-30428380D01*
X144470476Y-29428380D02*
X145089523Y-29428380D01*
X144756190Y-29809333D01*
X144899047Y-29809333D01*
X144994285Y-29856952D01*
X145041904Y-29904571D01*
X145089523Y-29999809D01*
X145089523Y-30237904D01*
X145041904Y-30333142D01*
X144994285Y-30380761D01*
X144899047Y-30428380D01*
X144613333Y-30428380D01*
X144518095Y-30380761D01*
X144470476Y-30333142D01*
X146041904Y-30428380D02*
X145470476Y-30428380D01*
X145756190Y-30428380D02*
X145756190Y-29428380D01*
X145660952Y-29571238D01*
X145565714Y-29666476D01*
X145470476Y-29714095D01*
D12*
X146651428Y-33257428D02*
X146308571Y-33257428D01*
X146480000Y-33257428D02*
X146480000Y-32657428D01*
X146422857Y-32743142D01*
X146365714Y-32800285D01*
X146308571Y-32828857D01*
%TO.C,D30*%
D11*
X62285714Y-50748380D02*
X62285714Y-49748380D01*
X62523809Y-49748380D01*
X62666666Y-49796000D01*
X62761904Y-49891238D01*
X62809523Y-49986476D01*
X62857142Y-50176952D01*
X62857142Y-50319809D01*
X62809523Y-50510285D01*
X62761904Y-50605523D01*
X62666666Y-50700761D01*
X62523809Y-50748380D01*
X62285714Y-50748380D01*
X63190476Y-49748380D02*
X63809523Y-49748380D01*
X63476190Y-50129333D01*
X63619047Y-50129333D01*
X63714285Y-50176952D01*
X63761904Y-50224571D01*
X63809523Y-50319809D01*
X63809523Y-50557904D01*
X63761904Y-50653142D01*
X63714285Y-50700761D01*
X63619047Y-50748380D01*
X63333333Y-50748380D01*
X63238095Y-50700761D01*
X63190476Y-50653142D01*
X64428571Y-49748380D02*
X64523809Y-49748380D01*
X64619047Y-49796000D01*
X64666666Y-49843619D01*
X64714285Y-49938857D01*
X64761904Y-50129333D01*
X64761904Y-50367428D01*
X64714285Y-50557904D01*
X64666666Y-50653142D01*
X64619047Y-50700761D01*
X64523809Y-50748380D01*
X64428571Y-50748380D01*
X64333333Y-50700761D01*
X64285714Y-50653142D01*
X64238095Y-50557904D01*
X64190476Y-50367428D01*
X64190476Y-50129333D01*
X64238095Y-49938857D01*
X64285714Y-49843619D01*
X64333333Y-49796000D01*
X64428571Y-49748380D01*
D12*
X65371428Y-53577428D02*
X65028571Y-53577428D01*
X65200000Y-53577428D02*
X65200000Y-52977428D01*
X65142857Y-53063142D01*
X65085714Y-53120285D01*
X65028571Y-53148857D01*
%TO.C,D29*%
D11*
X82605714Y-50748380D02*
X82605714Y-49748380D01*
X82843809Y-49748380D01*
X82986666Y-49796000D01*
X83081904Y-49891238D01*
X83129523Y-49986476D01*
X83177142Y-50176952D01*
X83177142Y-50319809D01*
X83129523Y-50510285D01*
X83081904Y-50605523D01*
X82986666Y-50700761D01*
X82843809Y-50748380D01*
X82605714Y-50748380D01*
X83558095Y-49843619D02*
X83605714Y-49796000D01*
X83700952Y-49748380D01*
X83939047Y-49748380D01*
X84034285Y-49796000D01*
X84081904Y-49843619D01*
X84129523Y-49938857D01*
X84129523Y-50034095D01*
X84081904Y-50176952D01*
X83510476Y-50748380D01*
X84129523Y-50748380D01*
X84605714Y-50748380D02*
X84796190Y-50748380D01*
X84891428Y-50700761D01*
X84939047Y-50653142D01*
X85034285Y-50510285D01*
X85081904Y-50319809D01*
X85081904Y-49938857D01*
X85034285Y-49843619D01*
X84986666Y-49796000D01*
X84891428Y-49748380D01*
X84700952Y-49748380D01*
X84605714Y-49796000D01*
X84558095Y-49843619D01*
X84510476Y-49938857D01*
X84510476Y-50176952D01*
X84558095Y-50272190D01*
X84605714Y-50319809D01*
X84700952Y-50367428D01*
X84891428Y-50367428D01*
X84986666Y-50319809D01*
X85034285Y-50272190D01*
X85081904Y-50176952D01*
D12*
X85691428Y-53577428D02*
X85348571Y-53577428D01*
X85520000Y-53577428D02*
X85520000Y-52977428D01*
X85462857Y-53063142D01*
X85405714Y-53120285D01*
X85348571Y-53148857D01*
%TO.C,D28*%
D11*
X102925714Y-50748380D02*
X102925714Y-49748380D01*
X103163809Y-49748380D01*
X103306666Y-49796000D01*
X103401904Y-49891238D01*
X103449523Y-49986476D01*
X103497142Y-50176952D01*
X103497142Y-50319809D01*
X103449523Y-50510285D01*
X103401904Y-50605523D01*
X103306666Y-50700761D01*
X103163809Y-50748380D01*
X102925714Y-50748380D01*
X103878095Y-49843619D02*
X103925714Y-49796000D01*
X104020952Y-49748380D01*
X104259047Y-49748380D01*
X104354285Y-49796000D01*
X104401904Y-49843619D01*
X104449523Y-49938857D01*
X104449523Y-50034095D01*
X104401904Y-50176952D01*
X103830476Y-50748380D01*
X104449523Y-50748380D01*
X105020952Y-50176952D02*
X104925714Y-50129333D01*
X104878095Y-50081714D01*
X104830476Y-49986476D01*
X104830476Y-49938857D01*
X104878095Y-49843619D01*
X104925714Y-49796000D01*
X105020952Y-49748380D01*
X105211428Y-49748380D01*
X105306666Y-49796000D01*
X105354285Y-49843619D01*
X105401904Y-49938857D01*
X105401904Y-49986476D01*
X105354285Y-50081714D01*
X105306666Y-50129333D01*
X105211428Y-50176952D01*
X105020952Y-50176952D01*
X104925714Y-50224571D01*
X104878095Y-50272190D01*
X104830476Y-50367428D01*
X104830476Y-50557904D01*
X104878095Y-50653142D01*
X104925714Y-50700761D01*
X105020952Y-50748380D01*
X105211428Y-50748380D01*
X105306666Y-50700761D01*
X105354285Y-50653142D01*
X105401904Y-50557904D01*
X105401904Y-50367428D01*
X105354285Y-50272190D01*
X105306666Y-50224571D01*
X105211428Y-50176952D01*
D12*
X106011428Y-53577428D02*
X105668571Y-53577428D01*
X105840000Y-53577428D02*
X105840000Y-52977428D01*
X105782857Y-53063142D01*
X105725714Y-53120285D01*
X105668571Y-53148857D01*
%TO.C,D27*%
D11*
X123245714Y-50748380D02*
X123245714Y-49748380D01*
X123483809Y-49748380D01*
X123626666Y-49796000D01*
X123721904Y-49891238D01*
X123769523Y-49986476D01*
X123817142Y-50176952D01*
X123817142Y-50319809D01*
X123769523Y-50510285D01*
X123721904Y-50605523D01*
X123626666Y-50700761D01*
X123483809Y-50748380D01*
X123245714Y-50748380D01*
X124198095Y-49843619D02*
X124245714Y-49796000D01*
X124340952Y-49748380D01*
X124579047Y-49748380D01*
X124674285Y-49796000D01*
X124721904Y-49843619D01*
X124769523Y-49938857D01*
X124769523Y-50034095D01*
X124721904Y-50176952D01*
X124150476Y-50748380D01*
X124769523Y-50748380D01*
X125102857Y-49748380D02*
X125769523Y-49748380D01*
X125340952Y-50748380D01*
D12*
X126331428Y-53577428D02*
X125988571Y-53577428D01*
X126160000Y-53577428D02*
X126160000Y-52977428D01*
X126102857Y-53063142D01*
X126045714Y-53120285D01*
X125988571Y-53148857D01*
%TO.C,D26*%
D11*
X143565714Y-50748380D02*
X143565714Y-49748380D01*
X143803809Y-49748380D01*
X143946666Y-49796000D01*
X144041904Y-49891238D01*
X144089523Y-49986476D01*
X144137142Y-50176952D01*
X144137142Y-50319809D01*
X144089523Y-50510285D01*
X144041904Y-50605523D01*
X143946666Y-50700761D01*
X143803809Y-50748380D01*
X143565714Y-50748380D01*
X144518095Y-49843619D02*
X144565714Y-49796000D01*
X144660952Y-49748380D01*
X144899047Y-49748380D01*
X144994285Y-49796000D01*
X145041904Y-49843619D01*
X145089523Y-49938857D01*
X145089523Y-50034095D01*
X145041904Y-50176952D01*
X144470476Y-50748380D01*
X145089523Y-50748380D01*
X145946666Y-49748380D02*
X145756190Y-49748380D01*
X145660952Y-49796000D01*
X145613333Y-49843619D01*
X145518095Y-49986476D01*
X145470476Y-50176952D01*
X145470476Y-50557904D01*
X145518095Y-50653142D01*
X145565714Y-50700761D01*
X145660952Y-50748380D01*
X145851428Y-50748380D01*
X145946666Y-50700761D01*
X145994285Y-50653142D01*
X146041904Y-50557904D01*
X146041904Y-50319809D01*
X145994285Y-50224571D01*
X145946666Y-50176952D01*
X145851428Y-50129333D01*
X145660952Y-50129333D01*
X145565714Y-50176952D01*
X145518095Y-50224571D01*
X145470476Y-50319809D01*
D12*
X146651428Y-53577428D02*
X146308571Y-53577428D01*
X146480000Y-53577428D02*
X146480000Y-52977428D01*
X146422857Y-53063142D01*
X146365714Y-53120285D01*
X146308571Y-53148857D01*
%TO.C,C5*%
D11*
X38965142Y-29630666D02*
X39012761Y-29678285D01*
X39060380Y-29821142D01*
X39060380Y-29916380D01*
X39012761Y-30059238D01*
X38917523Y-30154476D01*
X38822285Y-30202095D01*
X38631809Y-30249714D01*
X38488952Y-30249714D01*
X38298476Y-30202095D01*
X38203238Y-30154476D01*
X38108000Y-30059238D01*
X38060380Y-29916380D01*
X38060380Y-29821142D01*
X38108000Y-29678285D01*
X38155619Y-29630666D01*
X38060380Y-28725904D02*
X38060380Y-29202095D01*
X38536571Y-29249714D01*
X38488952Y-29202095D01*
X38441333Y-29106857D01*
X38441333Y-28868761D01*
X38488952Y-28773523D01*
X38536571Y-28725904D01*
X38631809Y-28678285D01*
X38869904Y-28678285D01*
X38965142Y-28725904D01*
X39012761Y-28773523D01*
X39060380Y-28868761D01*
X39060380Y-29106857D01*
X39012761Y-29202095D01*
X38965142Y-29249714D01*
%TD*%
M02*
