%TF.GenerationSoftware,KiCad,Pcbnew,(5.1.8)-1*%
%TF.CreationDate,2020-12-21T14:13:34-08:00*%
%TF.ProjectId,DeskTopVolKnob_Keypad,4465736b-546f-4705-966f-6c4b6e6f625f,rev?*%
%TF.SameCoordinates,Original*%
%TF.FileFunction,Soldermask,Top*%
%TF.FilePolarity,Negative*%
%FSLAX46Y46*%
G04 Gerber Fmt 4.6, Leading zero omitted, Abs format (unit mm)*
G04 Created by KiCad (PCBNEW (5.1.8)-1) date 2020-12-21 14:13:34*
%MOMM*%
%LPD*%
G01*
G04 APERTURE LIST*
%ADD10C,0.100000*%
%ADD11C,1.700000*%
%ADD12C,4.000000*%
%ADD13C,2.200000*%
%ADD14C,0.800000*%
%ADD15C,5.000000*%
%ADD16O,1.200000X2.400000*%
%ADD17O,1.158000X2.316000*%
%ADD18C,0.630000*%
%ADD19C,0.600000*%
%ADD20R,1.300000X1.550000*%
%ADD21R,1.500000X0.550000*%
%ADD22R,0.550000X1.500000*%
%ADD23R,2.000000X2.000000*%
%ADD24C,2.000000*%
%ADD25R,2.500000X3.000000*%
G04 APERTURE END LIST*
D10*
%TO.C,D51*%
G36*
X45048249Y-100210909D02*
G01*
X44659340Y-99822000D01*
X45048249Y-99433091D01*
X45437158Y-99822000D01*
X45048249Y-100210909D01*
G37*
G36*
X45720000Y-99539158D02*
G01*
X45331091Y-99150249D01*
X45720000Y-98761340D01*
X46108909Y-99150249D01*
X45720000Y-99539158D01*
G37*
G36*
X46391751Y-100210909D02*
G01*
X46002842Y-99822000D01*
X46391751Y-99433091D01*
X46780660Y-99822000D01*
X46391751Y-100210909D01*
G37*
G36*
X45720000Y-100882660D02*
G01*
X45331091Y-100493751D01*
X45720000Y-100104842D01*
X46108909Y-100493751D01*
X45720000Y-100882660D01*
G37*
%TD*%
%TO.C,D52*%
G36*
X45048249Y-104274909D02*
G01*
X44659340Y-103886000D01*
X45048249Y-103497091D01*
X45437158Y-103886000D01*
X45048249Y-104274909D01*
G37*
G36*
X45720000Y-103603158D02*
G01*
X45331091Y-103214249D01*
X45720000Y-102825340D01*
X46108909Y-103214249D01*
X45720000Y-103603158D01*
G37*
G36*
X46391751Y-104274909D02*
G01*
X46002842Y-103886000D01*
X46391751Y-103497091D01*
X46780660Y-103886000D01*
X46391751Y-104274909D01*
G37*
G36*
X45720000Y-104946660D02*
G01*
X45331091Y-104557751D01*
X45720000Y-104168842D01*
X46108909Y-104557751D01*
X45720000Y-104946660D01*
G37*
%TD*%
%TO.C,D53*%
G36*
X45048249Y-108338909D02*
G01*
X44659340Y-107950000D01*
X45048249Y-107561091D01*
X45437158Y-107950000D01*
X45048249Y-108338909D01*
G37*
G36*
X45720000Y-107667158D02*
G01*
X45331091Y-107278249D01*
X45720000Y-106889340D01*
X46108909Y-107278249D01*
X45720000Y-107667158D01*
G37*
G36*
X46391751Y-108338909D02*
G01*
X46002842Y-107950000D01*
X46391751Y-107561091D01*
X46780660Y-107950000D01*
X46391751Y-108338909D01*
G37*
G36*
X45720000Y-109010660D02*
G01*
X45331091Y-108621751D01*
X45720000Y-108232842D01*
X46108909Y-108621751D01*
X45720000Y-109010660D01*
G37*
%TD*%
D11*
%TO.C,SW26*%
X58420000Y-38100000D03*
X68580000Y-38100000D03*
D12*
X63500000Y-38100000D03*
D13*
X67310000Y-40640000D03*
X60960000Y-43180000D03*
%TD*%
D11*
%TO.C,SW25*%
X58420000Y-58420000D03*
X68580000Y-58420000D03*
D12*
X63500000Y-58420000D03*
D13*
X67310000Y-60960000D03*
X60960000Y-63500000D03*
%TD*%
D11*
%TO.C,SW24*%
X58420000Y-78740000D03*
X68580000Y-78740000D03*
D12*
X63500000Y-78740000D03*
D13*
X67310000Y-81280000D03*
X60960000Y-83820000D03*
%TD*%
D11*
%TO.C,SW23*%
X58420000Y-99060000D03*
X68580000Y-99060000D03*
D12*
X63500000Y-99060000D03*
D13*
X67310000Y-101600000D03*
X60960000Y-104140000D03*
%TD*%
D11*
%TO.C,SW22*%
X58420000Y-119380000D03*
X68580000Y-119380000D03*
D12*
X63500000Y-119380000D03*
D13*
X67310000Y-121920000D03*
X60960000Y-124460000D03*
%TD*%
D11*
%TO.C,SW21*%
X78740000Y-38100000D03*
X88900000Y-38100000D03*
D12*
X83820000Y-38100000D03*
D13*
X87630000Y-40640000D03*
X81280000Y-43180000D03*
%TD*%
D11*
%TO.C,SW20*%
X78740000Y-58420000D03*
X88900000Y-58420000D03*
D12*
X83820000Y-58420000D03*
D13*
X87630000Y-60960000D03*
X81280000Y-63500000D03*
%TD*%
D11*
%TO.C,SW19*%
X78740000Y-78740000D03*
X88900000Y-78740000D03*
D12*
X83820000Y-78740000D03*
D13*
X87630000Y-81280000D03*
X81280000Y-83820000D03*
%TD*%
D11*
%TO.C,SW18*%
X78740000Y-99060000D03*
X88900000Y-99060000D03*
D12*
X83820000Y-99060000D03*
D13*
X87630000Y-101600000D03*
X81280000Y-104140000D03*
%TD*%
D11*
%TO.C,SW17*%
X78740000Y-119380000D03*
X88900000Y-119380000D03*
D12*
X83820000Y-119380000D03*
D13*
X87630000Y-121920000D03*
X81280000Y-124460000D03*
%TD*%
D11*
%TO.C,SW16*%
X99060000Y-38100000D03*
X109220000Y-38100000D03*
D12*
X104140000Y-38100000D03*
D13*
X107950000Y-40640000D03*
X101600000Y-43180000D03*
%TD*%
D11*
%TO.C,SW15*%
X99060000Y-58420000D03*
X109220000Y-58420000D03*
D12*
X104140000Y-58420000D03*
D13*
X107950000Y-60960000D03*
X101600000Y-63500000D03*
%TD*%
D11*
%TO.C,SW14*%
X99060000Y-78740000D03*
X109220000Y-78740000D03*
D12*
X104140000Y-78740000D03*
D13*
X107950000Y-81280000D03*
X101600000Y-83820000D03*
%TD*%
D11*
%TO.C,SW13*%
X99060000Y-99060000D03*
X109220000Y-99060000D03*
D12*
X104140000Y-99060000D03*
D13*
X107950000Y-101600000D03*
X101600000Y-104140000D03*
%TD*%
D11*
%TO.C,SW12*%
X99060000Y-119380000D03*
X109220000Y-119380000D03*
D12*
X104140000Y-119380000D03*
D13*
X107950000Y-121920000D03*
X101600000Y-124460000D03*
%TD*%
D11*
%TO.C,SW11*%
X119380000Y-38100000D03*
X129540000Y-38100000D03*
D12*
X124460000Y-38100000D03*
D13*
X128270000Y-40640000D03*
X121920000Y-43180000D03*
%TD*%
D11*
%TO.C,SW10*%
X119380000Y-58420000D03*
X129540000Y-58420000D03*
D12*
X124460000Y-58420000D03*
D13*
X128270000Y-60960000D03*
X121920000Y-63500000D03*
%TD*%
D11*
%TO.C,SW9*%
X119380000Y-78740000D03*
X129540000Y-78740000D03*
D12*
X124460000Y-78740000D03*
D13*
X128270000Y-81280000D03*
X121920000Y-83820000D03*
%TD*%
D11*
%TO.C,SW8*%
X119380000Y-99060000D03*
X129540000Y-99060000D03*
D12*
X124460000Y-99060000D03*
D13*
X128270000Y-101600000D03*
X121920000Y-104140000D03*
%TD*%
D11*
%TO.C,SW7*%
X119380000Y-119380000D03*
X129540000Y-119380000D03*
D12*
X124460000Y-119380000D03*
D13*
X128270000Y-121920000D03*
X121920000Y-124460000D03*
%TD*%
D11*
%TO.C,SW6*%
X139700000Y-38100000D03*
X149860000Y-38100000D03*
D12*
X144780000Y-38100000D03*
D13*
X148590000Y-40640000D03*
X142240000Y-43180000D03*
%TD*%
D11*
%TO.C,SW5*%
X139700000Y-58420000D03*
X149860000Y-58420000D03*
D12*
X144780000Y-58420000D03*
D13*
X148590000Y-60960000D03*
X142240000Y-63500000D03*
%TD*%
D11*
%TO.C,SW4*%
X139700000Y-78740000D03*
X149860000Y-78740000D03*
D12*
X144780000Y-78740000D03*
D13*
X148590000Y-81280000D03*
X142240000Y-83820000D03*
%TD*%
D11*
%TO.C,SW3*%
X139700000Y-99060000D03*
X149860000Y-99060000D03*
D12*
X144780000Y-99060000D03*
D13*
X148590000Y-101600000D03*
X142240000Y-104140000D03*
%TD*%
D11*
%TO.C,SW2*%
X139700000Y-119380000D03*
X149860000Y-119380000D03*
D12*
X144780000Y-119380000D03*
D13*
X148590000Y-121920000D03*
X142240000Y-124460000D03*
%TD*%
D10*
%TO.C,D50*%
G36*
X63111091Y-113120249D02*
G01*
X63500000Y-112731340D01*
X63888909Y-113120249D01*
X63500000Y-113509158D01*
X63111091Y-113120249D01*
G37*
G36*
X63782842Y-113792000D02*
G01*
X64171751Y-113403091D01*
X64560660Y-113792000D01*
X64171751Y-114180909D01*
X63782842Y-113792000D01*
G37*
G36*
X63111091Y-114463751D02*
G01*
X63500000Y-114074842D01*
X63888909Y-114463751D01*
X63500000Y-114852660D01*
X63111091Y-114463751D01*
G37*
G36*
X62439340Y-113792000D02*
G01*
X62828249Y-113403091D01*
X63217158Y-113792000D01*
X62828249Y-114180909D01*
X62439340Y-113792000D01*
G37*
%TD*%
%TO.C,D49*%
G36*
X83431091Y-113120249D02*
G01*
X83820000Y-112731340D01*
X84208909Y-113120249D01*
X83820000Y-113509158D01*
X83431091Y-113120249D01*
G37*
G36*
X84102842Y-113792000D02*
G01*
X84491751Y-113403091D01*
X84880660Y-113792000D01*
X84491751Y-114180909D01*
X84102842Y-113792000D01*
G37*
G36*
X83431091Y-114463751D02*
G01*
X83820000Y-114074842D01*
X84208909Y-114463751D01*
X83820000Y-114852660D01*
X83431091Y-114463751D01*
G37*
G36*
X82759340Y-113792000D02*
G01*
X83148249Y-113403091D01*
X83537158Y-113792000D01*
X83148249Y-114180909D01*
X82759340Y-113792000D01*
G37*
%TD*%
%TO.C,D48*%
G36*
X103751091Y-113120249D02*
G01*
X104140000Y-112731340D01*
X104528909Y-113120249D01*
X104140000Y-113509158D01*
X103751091Y-113120249D01*
G37*
G36*
X104422842Y-113792000D02*
G01*
X104811751Y-113403091D01*
X105200660Y-113792000D01*
X104811751Y-114180909D01*
X104422842Y-113792000D01*
G37*
G36*
X103751091Y-114463751D02*
G01*
X104140000Y-114074842D01*
X104528909Y-114463751D01*
X104140000Y-114852660D01*
X103751091Y-114463751D01*
G37*
G36*
X103079340Y-113792000D02*
G01*
X103468249Y-113403091D01*
X103857158Y-113792000D01*
X103468249Y-114180909D01*
X103079340Y-113792000D01*
G37*
%TD*%
%TO.C,D47*%
G36*
X124071091Y-113120249D02*
G01*
X124460000Y-112731340D01*
X124848909Y-113120249D01*
X124460000Y-113509158D01*
X124071091Y-113120249D01*
G37*
G36*
X124742842Y-113792000D02*
G01*
X125131751Y-113403091D01*
X125520660Y-113792000D01*
X125131751Y-114180909D01*
X124742842Y-113792000D01*
G37*
G36*
X124071091Y-114463751D02*
G01*
X124460000Y-114074842D01*
X124848909Y-114463751D01*
X124460000Y-114852660D01*
X124071091Y-114463751D01*
G37*
G36*
X123399340Y-113792000D02*
G01*
X123788249Y-113403091D01*
X124177158Y-113792000D01*
X123788249Y-114180909D01*
X123399340Y-113792000D01*
G37*
%TD*%
%TO.C,D46*%
G36*
X144391091Y-113120249D02*
G01*
X144780000Y-112731340D01*
X145168909Y-113120249D01*
X144780000Y-113509158D01*
X144391091Y-113120249D01*
G37*
G36*
X145062842Y-113792000D02*
G01*
X145451751Y-113403091D01*
X145840660Y-113792000D01*
X145451751Y-114180909D01*
X145062842Y-113792000D01*
G37*
G36*
X144391091Y-114463751D02*
G01*
X144780000Y-114074842D01*
X145168909Y-114463751D01*
X144780000Y-114852660D01*
X144391091Y-114463751D01*
G37*
G36*
X143719340Y-113792000D02*
G01*
X144108249Y-113403091D01*
X144497158Y-113792000D01*
X144108249Y-114180909D01*
X143719340Y-113792000D01*
G37*
%TD*%
%TO.C,D45*%
G36*
X145168909Y-94143751D02*
G01*
X144780000Y-94532660D01*
X144391091Y-94143751D01*
X144780000Y-93754842D01*
X145168909Y-94143751D01*
G37*
G36*
X144497158Y-93472000D02*
G01*
X144108249Y-93860909D01*
X143719340Y-93472000D01*
X144108249Y-93083091D01*
X144497158Y-93472000D01*
G37*
G36*
X145168909Y-92800249D02*
G01*
X144780000Y-93189158D01*
X144391091Y-92800249D01*
X144780000Y-92411340D01*
X145168909Y-92800249D01*
G37*
G36*
X145840660Y-93472000D02*
G01*
X145451751Y-93860909D01*
X145062842Y-93472000D01*
X145451751Y-93083091D01*
X145840660Y-93472000D01*
G37*
%TD*%
%TO.C,D44*%
G36*
X124848909Y-94143751D02*
G01*
X124460000Y-94532660D01*
X124071091Y-94143751D01*
X124460000Y-93754842D01*
X124848909Y-94143751D01*
G37*
G36*
X124177158Y-93472000D02*
G01*
X123788249Y-93860909D01*
X123399340Y-93472000D01*
X123788249Y-93083091D01*
X124177158Y-93472000D01*
G37*
G36*
X124848909Y-92800249D02*
G01*
X124460000Y-93189158D01*
X124071091Y-92800249D01*
X124460000Y-92411340D01*
X124848909Y-92800249D01*
G37*
G36*
X125520660Y-93472000D02*
G01*
X125131751Y-93860909D01*
X124742842Y-93472000D01*
X125131751Y-93083091D01*
X125520660Y-93472000D01*
G37*
%TD*%
%TO.C,D43*%
G36*
X104528909Y-94143751D02*
G01*
X104140000Y-94532660D01*
X103751091Y-94143751D01*
X104140000Y-93754842D01*
X104528909Y-94143751D01*
G37*
G36*
X103857158Y-93472000D02*
G01*
X103468249Y-93860909D01*
X103079340Y-93472000D01*
X103468249Y-93083091D01*
X103857158Y-93472000D01*
G37*
G36*
X104528909Y-92800249D02*
G01*
X104140000Y-93189158D01*
X103751091Y-92800249D01*
X104140000Y-92411340D01*
X104528909Y-92800249D01*
G37*
G36*
X105200660Y-93472000D02*
G01*
X104811751Y-93860909D01*
X104422842Y-93472000D01*
X104811751Y-93083091D01*
X105200660Y-93472000D01*
G37*
%TD*%
%TO.C,D42*%
G36*
X84208909Y-94143751D02*
G01*
X83820000Y-94532660D01*
X83431091Y-94143751D01*
X83820000Y-93754842D01*
X84208909Y-94143751D01*
G37*
G36*
X83537158Y-93472000D02*
G01*
X83148249Y-93860909D01*
X82759340Y-93472000D01*
X83148249Y-93083091D01*
X83537158Y-93472000D01*
G37*
G36*
X84208909Y-92800249D02*
G01*
X83820000Y-93189158D01*
X83431091Y-92800249D01*
X83820000Y-92411340D01*
X84208909Y-92800249D01*
G37*
G36*
X84880660Y-93472000D02*
G01*
X84491751Y-93860909D01*
X84102842Y-93472000D01*
X84491751Y-93083091D01*
X84880660Y-93472000D01*
G37*
%TD*%
%TO.C,D41*%
G36*
X63888909Y-94143751D02*
G01*
X63500000Y-94532660D01*
X63111091Y-94143751D01*
X63500000Y-93754842D01*
X63888909Y-94143751D01*
G37*
G36*
X63217158Y-93472000D02*
G01*
X62828249Y-93860909D01*
X62439340Y-93472000D01*
X62828249Y-93083091D01*
X63217158Y-93472000D01*
G37*
G36*
X63888909Y-92800249D02*
G01*
X63500000Y-93189158D01*
X63111091Y-92800249D01*
X63500000Y-92411340D01*
X63888909Y-92800249D01*
G37*
G36*
X64560660Y-93472000D02*
G01*
X64171751Y-93860909D01*
X63782842Y-93472000D01*
X64171751Y-93083091D01*
X64560660Y-93472000D01*
G37*
%TD*%
%TO.C,D40*%
G36*
X63111091Y-72480249D02*
G01*
X63500000Y-72091340D01*
X63888909Y-72480249D01*
X63500000Y-72869158D01*
X63111091Y-72480249D01*
G37*
G36*
X63782842Y-73152000D02*
G01*
X64171751Y-72763091D01*
X64560660Y-73152000D01*
X64171751Y-73540909D01*
X63782842Y-73152000D01*
G37*
G36*
X63111091Y-73823751D02*
G01*
X63500000Y-73434842D01*
X63888909Y-73823751D01*
X63500000Y-74212660D01*
X63111091Y-73823751D01*
G37*
G36*
X62439340Y-73152000D02*
G01*
X62828249Y-72763091D01*
X63217158Y-73152000D01*
X62828249Y-73540909D01*
X62439340Y-73152000D01*
G37*
%TD*%
%TO.C,D39*%
G36*
X83431091Y-72480249D02*
G01*
X83820000Y-72091340D01*
X84208909Y-72480249D01*
X83820000Y-72869158D01*
X83431091Y-72480249D01*
G37*
G36*
X84102842Y-73152000D02*
G01*
X84491751Y-72763091D01*
X84880660Y-73152000D01*
X84491751Y-73540909D01*
X84102842Y-73152000D01*
G37*
G36*
X83431091Y-73823751D02*
G01*
X83820000Y-73434842D01*
X84208909Y-73823751D01*
X83820000Y-74212660D01*
X83431091Y-73823751D01*
G37*
G36*
X82759340Y-73152000D02*
G01*
X83148249Y-72763091D01*
X83537158Y-73152000D01*
X83148249Y-73540909D01*
X82759340Y-73152000D01*
G37*
%TD*%
%TO.C,D38*%
G36*
X103751091Y-72480249D02*
G01*
X104140000Y-72091340D01*
X104528909Y-72480249D01*
X104140000Y-72869158D01*
X103751091Y-72480249D01*
G37*
G36*
X104422842Y-73152000D02*
G01*
X104811751Y-72763091D01*
X105200660Y-73152000D01*
X104811751Y-73540909D01*
X104422842Y-73152000D01*
G37*
G36*
X103751091Y-73823751D02*
G01*
X104140000Y-73434842D01*
X104528909Y-73823751D01*
X104140000Y-74212660D01*
X103751091Y-73823751D01*
G37*
G36*
X103079340Y-73152000D02*
G01*
X103468249Y-72763091D01*
X103857158Y-73152000D01*
X103468249Y-73540909D01*
X103079340Y-73152000D01*
G37*
%TD*%
%TO.C,D37*%
G36*
X124071091Y-72480249D02*
G01*
X124460000Y-72091340D01*
X124848909Y-72480249D01*
X124460000Y-72869158D01*
X124071091Y-72480249D01*
G37*
G36*
X124742842Y-73152000D02*
G01*
X125131751Y-72763091D01*
X125520660Y-73152000D01*
X125131751Y-73540909D01*
X124742842Y-73152000D01*
G37*
G36*
X124071091Y-73823751D02*
G01*
X124460000Y-73434842D01*
X124848909Y-73823751D01*
X124460000Y-74212660D01*
X124071091Y-73823751D01*
G37*
G36*
X123399340Y-73152000D02*
G01*
X123788249Y-72763091D01*
X124177158Y-73152000D01*
X123788249Y-73540909D01*
X123399340Y-73152000D01*
G37*
%TD*%
%TO.C,D36*%
G36*
X144391091Y-72480249D02*
G01*
X144780000Y-72091340D01*
X145168909Y-72480249D01*
X144780000Y-72869158D01*
X144391091Y-72480249D01*
G37*
G36*
X145062842Y-73152000D02*
G01*
X145451751Y-72763091D01*
X145840660Y-73152000D01*
X145451751Y-73540909D01*
X145062842Y-73152000D01*
G37*
G36*
X144391091Y-73823751D02*
G01*
X144780000Y-73434842D01*
X145168909Y-73823751D01*
X144780000Y-74212660D01*
X144391091Y-73823751D01*
G37*
G36*
X143719340Y-73152000D02*
G01*
X144108249Y-72763091D01*
X144497158Y-73152000D01*
X144108249Y-73540909D01*
X143719340Y-73152000D01*
G37*
%TD*%
%TO.C,D35*%
G36*
X145201909Y-53503751D02*
G01*
X144813000Y-53892660D01*
X144424091Y-53503751D01*
X144813000Y-53114842D01*
X145201909Y-53503751D01*
G37*
G36*
X144530158Y-52832000D02*
G01*
X144141249Y-53220909D01*
X143752340Y-52832000D01*
X144141249Y-52443091D01*
X144530158Y-52832000D01*
G37*
G36*
X145201909Y-52160249D02*
G01*
X144813000Y-52549158D01*
X144424091Y-52160249D01*
X144813000Y-51771340D01*
X145201909Y-52160249D01*
G37*
G36*
X145873660Y-52832000D02*
G01*
X145484751Y-53220909D01*
X145095842Y-52832000D01*
X145484751Y-52443091D01*
X145873660Y-52832000D01*
G37*
%TD*%
%TO.C,D34*%
G36*
X124848909Y-53503751D02*
G01*
X124460000Y-53892660D01*
X124071091Y-53503751D01*
X124460000Y-53114842D01*
X124848909Y-53503751D01*
G37*
G36*
X124177158Y-52832000D02*
G01*
X123788249Y-53220909D01*
X123399340Y-52832000D01*
X123788249Y-52443091D01*
X124177158Y-52832000D01*
G37*
G36*
X124848909Y-52160249D02*
G01*
X124460000Y-52549158D01*
X124071091Y-52160249D01*
X124460000Y-51771340D01*
X124848909Y-52160249D01*
G37*
G36*
X125520660Y-52832000D02*
G01*
X125131751Y-53220909D01*
X124742842Y-52832000D01*
X125131751Y-52443091D01*
X125520660Y-52832000D01*
G37*
%TD*%
%TO.C,D33*%
G36*
X104528909Y-53503751D02*
G01*
X104140000Y-53892660D01*
X103751091Y-53503751D01*
X104140000Y-53114842D01*
X104528909Y-53503751D01*
G37*
G36*
X103857158Y-52832000D02*
G01*
X103468249Y-53220909D01*
X103079340Y-52832000D01*
X103468249Y-52443091D01*
X103857158Y-52832000D01*
G37*
G36*
X104528909Y-52160249D02*
G01*
X104140000Y-52549158D01*
X103751091Y-52160249D01*
X104140000Y-51771340D01*
X104528909Y-52160249D01*
G37*
G36*
X105200660Y-52832000D02*
G01*
X104811751Y-53220909D01*
X104422842Y-52832000D01*
X104811751Y-52443091D01*
X105200660Y-52832000D01*
G37*
%TD*%
%TO.C,D32*%
G36*
X84208909Y-53503751D02*
G01*
X83820000Y-53892660D01*
X83431091Y-53503751D01*
X83820000Y-53114842D01*
X84208909Y-53503751D01*
G37*
G36*
X83537158Y-52832000D02*
G01*
X83148249Y-53220909D01*
X82759340Y-52832000D01*
X83148249Y-52443091D01*
X83537158Y-52832000D01*
G37*
G36*
X84208909Y-52160249D02*
G01*
X83820000Y-52549158D01*
X83431091Y-52160249D01*
X83820000Y-51771340D01*
X84208909Y-52160249D01*
G37*
G36*
X84880660Y-52832000D02*
G01*
X84491751Y-53220909D01*
X84102842Y-52832000D01*
X84491751Y-52443091D01*
X84880660Y-52832000D01*
G37*
%TD*%
%TO.C,D31*%
G36*
X63888909Y-53503751D02*
G01*
X63500000Y-53892660D01*
X63111091Y-53503751D01*
X63500000Y-53114842D01*
X63888909Y-53503751D01*
G37*
G36*
X63217158Y-52832000D02*
G01*
X62828249Y-53220909D01*
X62439340Y-52832000D01*
X62828249Y-52443091D01*
X63217158Y-52832000D01*
G37*
G36*
X63888909Y-52160249D02*
G01*
X63500000Y-52549158D01*
X63111091Y-52160249D01*
X63500000Y-51771340D01*
X63888909Y-52160249D01*
G37*
G36*
X64560660Y-52832000D02*
G01*
X64171751Y-53220909D01*
X63782842Y-52832000D01*
X64171751Y-52443091D01*
X64560660Y-52832000D01*
G37*
%TD*%
%TO.C,D30*%
G36*
X63365091Y-31840249D02*
G01*
X63754000Y-31451340D01*
X64142909Y-31840249D01*
X63754000Y-32229158D01*
X63365091Y-31840249D01*
G37*
G36*
X64036842Y-32512000D02*
G01*
X64425751Y-32123091D01*
X64814660Y-32512000D01*
X64425751Y-32900909D01*
X64036842Y-32512000D01*
G37*
G36*
X63365091Y-33183751D02*
G01*
X63754000Y-32794842D01*
X64142909Y-33183751D01*
X63754000Y-33572660D01*
X63365091Y-33183751D01*
G37*
G36*
X62693340Y-32512000D02*
G01*
X63082249Y-32123091D01*
X63471158Y-32512000D01*
X63082249Y-32900909D01*
X62693340Y-32512000D01*
G37*
%TD*%
%TO.C,D29*%
G36*
X83431091Y-31840249D02*
G01*
X83820000Y-31451340D01*
X84208909Y-31840249D01*
X83820000Y-32229158D01*
X83431091Y-31840249D01*
G37*
G36*
X84102842Y-32512000D02*
G01*
X84491751Y-32123091D01*
X84880660Y-32512000D01*
X84491751Y-32900909D01*
X84102842Y-32512000D01*
G37*
G36*
X83431091Y-33183751D02*
G01*
X83820000Y-32794842D01*
X84208909Y-33183751D01*
X83820000Y-33572660D01*
X83431091Y-33183751D01*
G37*
G36*
X82759340Y-32512000D02*
G01*
X83148249Y-32123091D01*
X83537158Y-32512000D01*
X83148249Y-32900909D01*
X82759340Y-32512000D01*
G37*
%TD*%
%TO.C,D28*%
G36*
X103751091Y-31840249D02*
G01*
X104140000Y-31451340D01*
X104528909Y-31840249D01*
X104140000Y-32229158D01*
X103751091Y-31840249D01*
G37*
G36*
X104422842Y-32512000D02*
G01*
X104811751Y-32123091D01*
X105200660Y-32512000D01*
X104811751Y-32900909D01*
X104422842Y-32512000D01*
G37*
G36*
X103751091Y-33183751D02*
G01*
X104140000Y-32794842D01*
X104528909Y-33183751D01*
X104140000Y-33572660D01*
X103751091Y-33183751D01*
G37*
G36*
X103079340Y-32512000D02*
G01*
X103468249Y-32123091D01*
X103857158Y-32512000D01*
X103468249Y-32900909D01*
X103079340Y-32512000D01*
G37*
%TD*%
%TO.C,D27*%
G36*
X124071091Y-31840249D02*
G01*
X124460000Y-31451340D01*
X124848909Y-31840249D01*
X124460000Y-32229158D01*
X124071091Y-31840249D01*
G37*
G36*
X124742842Y-32512000D02*
G01*
X125131751Y-32123091D01*
X125520660Y-32512000D01*
X125131751Y-32900909D01*
X124742842Y-32512000D01*
G37*
G36*
X124071091Y-33183751D02*
G01*
X124460000Y-32794842D01*
X124848909Y-33183751D01*
X124460000Y-33572660D01*
X124071091Y-33183751D01*
G37*
G36*
X123399340Y-32512000D02*
G01*
X123788249Y-32123091D01*
X124177158Y-32512000D01*
X123788249Y-32900909D01*
X123399340Y-32512000D01*
G37*
%TD*%
%TO.C,D26*%
G36*
X144391091Y-31840249D02*
G01*
X144780000Y-31451340D01*
X145168909Y-31840249D01*
X144780000Y-32229158D01*
X144391091Y-31840249D01*
G37*
G36*
X145062842Y-32512000D02*
G01*
X145451751Y-32123091D01*
X145840660Y-32512000D01*
X145451751Y-32900909D01*
X145062842Y-32512000D01*
G37*
G36*
X144391091Y-33183751D02*
G01*
X144780000Y-32794842D01*
X145168909Y-33183751D01*
X144780000Y-33572660D01*
X144391091Y-33183751D01*
G37*
G36*
X143719340Y-32512000D02*
G01*
X144108249Y-32123091D01*
X144497158Y-32512000D01*
X144108249Y-32900909D01*
X143719340Y-32512000D01*
G37*
%TD*%
%TO.C,C7*%
G36*
G01*
X38554967Y-52425413D02*
X38201413Y-52778967D01*
G75*
G02*
X37883215Y-52778967I-159099J159099D01*
G01*
X37565017Y-52460769D01*
G75*
G02*
X37565017Y-52142571I159099J159099D01*
G01*
X37918571Y-51789017D01*
G75*
G02*
X38236769Y-51789017I159099J-159099D01*
G01*
X38554967Y-52107215D01*
G75*
G02*
X38554967Y-52425413I-159099J-159099D01*
G01*
G37*
G36*
G01*
X39650983Y-53521429D02*
X39297429Y-53874983D01*
G75*
G02*
X38979231Y-53874983I-159099J159099D01*
G01*
X38661033Y-53556785D01*
G75*
G02*
X38661033Y-53238587I159099J159099D01*
G01*
X39014587Y-52885033D01*
G75*
G02*
X39332785Y-52885033I159099J-159099D01*
G01*
X39650983Y-53203231D01*
G75*
G02*
X39650983Y-53521429I-159099J-159099D01*
G01*
G37*
%TD*%
%TO.C,C6*%
G36*
G01*
X41503413Y-52885033D02*
X41856967Y-53238587D01*
G75*
G02*
X41856967Y-53556785I-159099J-159099D01*
G01*
X41538769Y-53874983D01*
G75*
G02*
X41220571Y-53874983I-159099J159099D01*
G01*
X40867017Y-53521429D01*
G75*
G02*
X40867017Y-53203231I159099J159099D01*
G01*
X41185215Y-52885033D01*
G75*
G02*
X41503413Y-52885033I159099J-159099D01*
G01*
G37*
G36*
G01*
X42599429Y-51789017D02*
X42952983Y-52142571D01*
G75*
G02*
X42952983Y-52460769I-159099J-159099D01*
G01*
X42634785Y-52778967D01*
G75*
G02*
X42316587Y-52778967I-159099J159099D01*
G01*
X41963033Y-52425413D01*
G75*
G02*
X41963033Y-52107215I159099J159099D01*
G01*
X42281231Y-51789017D01*
G75*
G02*
X42599429Y-51789017I159099J-159099D01*
G01*
G37*
%TD*%
D14*
%TO.C,REF\u002A\u002A*%
X47553825Y-118054175D03*
X46228000Y-117505000D03*
X44902175Y-118054175D03*
X44353000Y-119380000D03*
X44902175Y-120705825D03*
X46228000Y-121255000D03*
X47553825Y-120705825D03*
X48103000Y-119380000D03*
D15*
X46228000Y-119380000D03*
%TD*%
D14*
%TO.C,REF\u002A\u002A*%
X115625825Y-76906175D03*
X114300000Y-76357000D03*
X112974175Y-76906175D03*
X112425000Y-78232000D03*
X112974175Y-79557825D03*
X114300000Y-80107000D03*
X115625825Y-79557825D03*
X116175000Y-78232000D03*
D15*
X114300000Y-78232000D03*
%TD*%
D14*
%TO.C,REF\u002A\u002A*%
X74985825Y-117546175D03*
X73660000Y-116997000D03*
X72334175Y-117546175D03*
X71785000Y-118872000D03*
X72334175Y-120197825D03*
X73660000Y-120747000D03*
X74985825Y-120197825D03*
X75535000Y-118872000D03*
D15*
X73660000Y-118872000D03*
%TD*%
D14*
%TO.C,REF\u002A\u002A*%
X135945825Y-117546175D03*
X134620000Y-116997000D03*
X133294175Y-117546175D03*
X132745000Y-118872000D03*
X133294175Y-120197825D03*
X134620000Y-120747000D03*
X135945825Y-120197825D03*
X136495000Y-118872000D03*
D15*
X134620000Y-118872000D03*
%TD*%
D14*
%TO.C,REF\u002A\u002A*%
X135945825Y-56332175D03*
X134620000Y-55783000D03*
X133294175Y-56332175D03*
X132745000Y-57658000D03*
X133294175Y-58983825D03*
X134620000Y-59533000D03*
X135945825Y-58983825D03*
X136495000Y-57658000D03*
D15*
X134620000Y-57658000D03*
%TD*%
D14*
%TO.C,REF\u002A\u002A*%
X74985825Y-56332175D03*
X73660000Y-55783000D03*
X72334175Y-56332175D03*
X71785000Y-57658000D03*
X72334175Y-58983825D03*
X73660000Y-59533000D03*
X74985825Y-58983825D03*
X75535000Y-57658000D03*
D15*
X73660000Y-57658000D03*
%TD*%
D16*
%TO.C,J1*%
X138940000Y-29412000D03*
X130300000Y-29412000D03*
D17*
X138940000Y-33237000D03*
X130300000Y-33237000D03*
D18*
X131620000Y-32512000D03*
X137620000Y-32512000D03*
D19*
X137620000Y-32512000D03*
%TD*%
%TO.C,R11*%
G36*
G01*
X39137000Y-38183000D02*
X38587000Y-38183000D01*
G75*
G02*
X38387000Y-37983000I0J200000D01*
G01*
X38387000Y-37583000D01*
G75*
G02*
X38587000Y-37383000I200000J0D01*
G01*
X39137000Y-37383000D01*
G75*
G02*
X39337000Y-37583000I0J-200000D01*
G01*
X39337000Y-37983000D01*
G75*
G02*
X39137000Y-38183000I-200000J0D01*
G01*
G37*
G36*
G01*
X39137000Y-39833000D02*
X38587000Y-39833000D01*
G75*
G02*
X38387000Y-39633000I0J200000D01*
G01*
X38387000Y-39233000D01*
G75*
G02*
X38587000Y-39033000I200000J0D01*
G01*
X39137000Y-39033000D01*
G75*
G02*
X39337000Y-39233000I0J-200000D01*
G01*
X39337000Y-39633000D01*
G75*
G02*
X39137000Y-39833000I-200000J0D01*
G01*
G37*
%TD*%
D20*
%TO.C,SW27*%
X48478000Y-82893000D03*
X48478000Y-90843000D03*
X43978000Y-82893000D03*
X43978000Y-90843000D03*
%TD*%
%TO.C,R10*%
G36*
G01*
X49255500Y-78719000D02*
X49255500Y-79269000D01*
G75*
G02*
X49055500Y-79469000I-200000J0D01*
G01*
X48655500Y-79469000D01*
G75*
G02*
X48455500Y-79269000I0J200000D01*
G01*
X48455500Y-78719000D01*
G75*
G02*
X48655500Y-78519000I200000J0D01*
G01*
X49055500Y-78519000D01*
G75*
G02*
X49255500Y-78719000I0J-200000D01*
G01*
G37*
G36*
G01*
X50905500Y-78719000D02*
X50905500Y-79269000D01*
G75*
G02*
X50705500Y-79469000I-200000J0D01*
G01*
X50305500Y-79469000D01*
G75*
G02*
X50105500Y-79269000I0J200000D01*
G01*
X50105500Y-78719000D01*
G75*
G02*
X50305500Y-78519000I200000J0D01*
G01*
X50705500Y-78519000D01*
G75*
G02*
X50905500Y-78719000I0J-200000D01*
G01*
G37*
%TD*%
%TO.C,R9*%
G36*
G01*
X42247000Y-58145000D02*
X42247000Y-58695000D01*
G75*
G02*
X42047000Y-58895000I-200000J0D01*
G01*
X41647000Y-58895000D01*
G75*
G02*
X41447000Y-58695000I0J200000D01*
G01*
X41447000Y-58145000D01*
G75*
G02*
X41647000Y-57945000I200000J0D01*
G01*
X42047000Y-57945000D01*
G75*
G02*
X42247000Y-58145000I0J-200000D01*
G01*
G37*
G36*
G01*
X43897000Y-58145000D02*
X43897000Y-58695000D01*
G75*
G02*
X43697000Y-58895000I-200000J0D01*
G01*
X43297000Y-58895000D01*
G75*
G02*
X43097000Y-58695000I0J200000D01*
G01*
X43097000Y-58145000D01*
G75*
G02*
X43297000Y-57945000I200000J0D01*
G01*
X43697000Y-57945000D01*
G75*
G02*
X43897000Y-58145000I0J-200000D01*
G01*
G37*
%TD*%
%TO.C,R8*%
G36*
G01*
X49255500Y-58145000D02*
X49255500Y-58695000D01*
G75*
G02*
X49055500Y-58895000I-200000J0D01*
G01*
X48655500Y-58895000D01*
G75*
G02*
X48455500Y-58695000I0J200000D01*
G01*
X48455500Y-58145000D01*
G75*
G02*
X48655500Y-57945000I200000J0D01*
G01*
X49055500Y-57945000D01*
G75*
G02*
X49255500Y-58145000I0J-200000D01*
G01*
G37*
G36*
G01*
X50905500Y-58145000D02*
X50905500Y-58695000D01*
G75*
G02*
X50705500Y-58895000I-200000J0D01*
G01*
X50305500Y-58895000D01*
G75*
G02*
X50105500Y-58695000I0J200000D01*
G01*
X50105500Y-58145000D01*
G75*
G02*
X50305500Y-57945000I200000J0D01*
G01*
X50705500Y-57945000D01*
G75*
G02*
X50905500Y-58145000I0J-200000D01*
G01*
G37*
%TD*%
%TO.C,R7*%
G36*
G01*
X42247000Y-78719000D02*
X42247000Y-79269000D01*
G75*
G02*
X42047000Y-79469000I-200000J0D01*
G01*
X41647000Y-79469000D01*
G75*
G02*
X41447000Y-79269000I0J200000D01*
G01*
X41447000Y-78719000D01*
G75*
G02*
X41647000Y-78519000I200000J0D01*
G01*
X42047000Y-78519000D01*
G75*
G02*
X42247000Y-78719000I0J-200000D01*
G01*
G37*
G36*
G01*
X43897000Y-78719000D02*
X43897000Y-79269000D01*
G75*
G02*
X43697000Y-79469000I-200000J0D01*
G01*
X43297000Y-79469000D01*
G75*
G02*
X43097000Y-79269000I0J200000D01*
G01*
X43097000Y-78719000D01*
G75*
G02*
X43297000Y-78519000I200000J0D01*
G01*
X43697000Y-78519000D01*
G75*
G02*
X43897000Y-78719000I0J-200000D01*
G01*
G37*
%TD*%
%TO.C,R6*%
G36*
G01*
X46503000Y-56979000D02*
X45953000Y-56979000D01*
G75*
G02*
X45753000Y-56779000I0J200000D01*
G01*
X45753000Y-56379000D01*
G75*
G02*
X45953000Y-56179000I200000J0D01*
G01*
X46503000Y-56179000D01*
G75*
G02*
X46703000Y-56379000I0J-200000D01*
G01*
X46703000Y-56779000D01*
G75*
G02*
X46503000Y-56979000I-200000J0D01*
G01*
G37*
G36*
G01*
X46503000Y-58629000D02*
X45953000Y-58629000D01*
G75*
G02*
X45753000Y-58429000I0J200000D01*
G01*
X45753000Y-58029000D01*
G75*
G02*
X45953000Y-57829000I200000J0D01*
G01*
X46503000Y-57829000D01*
G75*
G02*
X46703000Y-58029000I0J-200000D01*
G01*
X46703000Y-58429000D01*
G75*
G02*
X46503000Y-58629000I-200000J0D01*
G01*
G37*
%TD*%
%TO.C,R5*%
G36*
G01*
X51391000Y-49001000D02*
X51391000Y-49551000D01*
G75*
G02*
X51191000Y-49751000I-200000J0D01*
G01*
X50791000Y-49751000D01*
G75*
G02*
X50591000Y-49551000I0J200000D01*
G01*
X50591000Y-49001000D01*
G75*
G02*
X50791000Y-48801000I200000J0D01*
G01*
X51191000Y-48801000D01*
G75*
G02*
X51391000Y-49001000I0J-200000D01*
G01*
G37*
G36*
G01*
X53041000Y-49001000D02*
X53041000Y-49551000D01*
G75*
G02*
X52841000Y-49751000I-200000J0D01*
G01*
X52441000Y-49751000D01*
G75*
G02*
X52241000Y-49551000I0J200000D01*
G01*
X52241000Y-49001000D01*
G75*
G02*
X52441000Y-48801000I200000J0D01*
G01*
X52841000Y-48801000D01*
G75*
G02*
X53041000Y-49001000I0J-200000D01*
G01*
G37*
%TD*%
%TO.C,R4*%
G36*
G01*
X49805000Y-30055000D02*
X49255000Y-30055000D01*
G75*
G02*
X49055000Y-29855000I0J200000D01*
G01*
X49055000Y-29455000D01*
G75*
G02*
X49255000Y-29255000I200000J0D01*
G01*
X49805000Y-29255000D01*
G75*
G02*
X50005000Y-29455000I0J-200000D01*
G01*
X50005000Y-29855000D01*
G75*
G02*
X49805000Y-30055000I-200000J0D01*
G01*
G37*
G36*
G01*
X49805000Y-31705000D02*
X49255000Y-31705000D01*
G75*
G02*
X49055000Y-31505000I0J200000D01*
G01*
X49055000Y-31105000D01*
G75*
G02*
X49255000Y-30905000I200000J0D01*
G01*
X49805000Y-30905000D01*
G75*
G02*
X50005000Y-31105000I0J-200000D01*
G01*
X50005000Y-31505000D01*
G75*
G02*
X49805000Y-31705000I-200000J0D01*
G01*
G37*
%TD*%
%TO.C,R3*%
G36*
G01*
X47731000Y-30905000D02*
X48281000Y-30905000D01*
G75*
G02*
X48481000Y-31105000I0J-200000D01*
G01*
X48481000Y-31505000D01*
G75*
G02*
X48281000Y-31705000I-200000J0D01*
G01*
X47731000Y-31705000D01*
G75*
G02*
X47531000Y-31505000I0J200000D01*
G01*
X47531000Y-31105000D01*
G75*
G02*
X47731000Y-30905000I200000J0D01*
G01*
G37*
G36*
G01*
X47731000Y-29255000D02*
X48281000Y-29255000D01*
G75*
G02*
X48481000Y-29455000I0J-200000D01*
G01*
X48481000Y-29855000D01*
G75*
G02*
X48281000Y-30055000I-200000J0D01*
G01*
X47731000Y-30055000D01*
G75*
G02*
X47531000Y-29855000I0J200000D01*
G01*
X47531000Y-29455000D01*
G75*
G02*
X47731000Y-29255000I200000J0D01*
G01*
G37*
%TD*%
D10*
%TO.C,Y1*%
G36*
X41015884Y-52220726D02*
G01*
X40308777Y-52927833D01*
X39495604Y-52114660D01*
X40202711Y-51407553D01*
X41015884Y-52220726D01*
G37*
G36*
X39778447Y-50983289D02*
G01*
X39071340Y-51690396D01*
X38258167Y-50877223D01*
X38965274Y-50170116D01*
X39778447Y-50983289D01*
G37*
G36*
X40768396Y-49993340D02*
G01*
X40061289Y-50700447D01*
X39248116Y-49887274D01*
X39955223Y-49180167D01*
X40768396Y-49993340D01*
G37*
G36*
X42005833Y-51230777D02*
G01*
X41298726Y-51937884D01*
X40485553Y-51124711D01*
X41192660Y-50417604D01*
X42005833Y-51230777D01*
G37*
%TD*%
%TO.C,C8*%
G36*
G01*
X46906000Y-32820000D02*
X46566000Y-32820000D01*
G75*
G02*
X46426000Y-32680000I0J140000D01*
G01*
X46426000Y-32400000D01*
G75*
G02*
X46566000Y-32260000I140000J0D01*
G01*
X46906000Y-32260000D01*
G75*
G02*
X47046000Y-32400000I0J-140000D01*
G01*
X47046000Y-32680000D01*
G75*
G02*
X46906000Y-32820000I-140000J0D01*
G01*
G37*
G36*
G01*
X46906000Y-33780000D02*
X46566000Y-33780000D01*
G75*
G02*
X46426000Y-33640000I0J140000D01*
G01*
X46426000Y-33360000D01*
G75*
G02*
X46566000Y-33220000I140000J0D01*
G01*
X46906000Y-33220000D01*
G75*
G02*
X47046000Y-33360000I0J-140000D01*
G01*
X47046000Y-33640000D01*
G75*
G02*
X46906000Y-33780000I-140000J0D01*
G01*
G37*
%TD*%
%TO.C,C4*%
G36*
G01*
X40302000Y-32566000D02*
X39962000Y-32566000D01*
G75*
G02*
X39822000Y-32426000I0J140000D01*
G01*
X39822000Y-32146000D01*
G75*
G02*
X39962000Y-32006000I140000J0D01*
G01*
X40302000Y-32006000D01*
G75*
G02*
X40442000Y-32146000I0J-140000D01*
G01*
X40442000Y-32426000D01*
G75*
G02*
X40302000Y-32566000I-140000J0D01*
G01*
G37*
G36*
G01*
X40302000Y-33526000D02*
X39962000Y-33526000D01*
G75*
G02*
X39822000Y-33386000I0J140000D01*
G01*
X39822000Y-33106000D01*
G75*
G02*
X39962000Y-32966000I140000J0D01*
G01*
X40302000Y-32966000D01*
G75*
G02*
X40442000Y-33106000I0J-140000D01*
G01*
X40442000Y-33386000D01*
G75*
G02*
X40302000Y-33526000I-140000J0D01*
G01*
G37*
%TD*%
%TO.C,C3*%
G36*
G01*
X41318000Y-32566000D02*
X40978000Y-32566000D01*
G75*
G02*
X40838000Y-32426000I0J140000D01*
G01*
X40838000Y-32146000D01*
G75*
G02*
X40978000Y-32006000I140000J0D01*
G01*
X41318000Y-32006000D01*
G75*
G02*
X41458000Y-32146000I0J-140000D01*
G01*
X41458000Y-32426000D01*
G75*
G02*
X41318000Y-32566000I-140000J0D01*
G01*
G37*
G36*
G01*
X41318000Y-33526000D02*
X40978000Y-33526000D01*
G75*
G02*
X40838000Y-33386000I0J140000D01*
G01*
X40838000Y-33106000D01*
G75*
G02*
X40978000Y-32966000I140000J0D01*
G01*
X41318000Y-32966000D01*
G75*
G02*
X41458000Y-33106000I0J-140000D01*
G01*
X41458000Y-33386000D01*
G75*
G02*
X41318000Y-33526000I-140000J0D01*
G01*
G37*
%TD*%
%TO.C,C2*%
G36*
G01*
X42334000Y-32566000D02*
X41994000Y-32566000D01*
G75*
G02*
X41854000Y-32426000I0J140000D01*
G01*
X41854000Y-32146000D01*
G75*
G02*
X41994000Y-32006000I140000J0D01*
G01*
X42334000Y-32006000D01*
G75*
G02*
X42474000Y-32146000I0J-140000D01*
G01*
X42474000Y-32426000D01*
G75*
G02*
X42334000Y-32566000I-140000J0D01*
G01*
G37*
G36*
G01*
X42334000Y-33526000D02*
X41994000Y-33526000D01*
G75*
G02*
X41854000Y-33386000I0J140000D01*
G01*
X41854000Y-33106000D01*
G75*
G02*
X41994000Y-32966000I140000J0D01*
G01*
X42334000Y-32966000D01*
G75*
G02*
X42474000Y-33106000I0J-140000D01*
G01*
X42474000Y-33386000D01*
G75*
G02*
X42334000Y-33526000I-140000J0D01*
G01*
G37*
%TD*%
%TO.C,C1*%
G36*
G01*
X50208000Y-32820000D02*
X49868000Y-32820000D01*
G75*
G02*
X49728000Y-32680000I0J140000D01*
G01*
X49728000Y-32400000D01*
G75*
G02*
X49868000Y-32260000I140000J0D01*
G01*
X50208000Y-32260000D01*
G75*
G02*
X50348000Y-32400000I0J-140000D01*
G01*
X50348000Y-32680000D01*
G75*
G02*
X50208000Y-32820000I-140000J0D01*
G01*
G37*
G36*
G01*
X50208000Y-33780000D02*
X49868000Y-33780000D01*
G75*
G02*
X49728000Y-33640000I0J140000D01*
G01*
X49728000Y-33360000D01*
G75*
G02*
X49868000Y-33220000I140000J0D01*
G01*
X50208000Y-33220000D01*
G75*
G02*
X50348000Y-33360000I0J-140000D01*
G01*
X50348000Y-33640000D01*
G75*
G02*
X50208000Y-33780000I-140000J0D01*
G01*
G37*
%TD*%
D21*
%TO.C,U1*%
X52436000Y-36894000D03*
X52436000Y-37694000D03*
X52436000Y-38494000D03*
X52436000Y-39294000D03*
X52436000Y-40094000D03*
X52436000Y-40894000D03*
X52436000Y-41694000D03*
X52436000Y-42494000D03*
X52436000Y-43294000D03*
X52436000Y-44094000D03*
X52436000Y-44894000D03*
D22*
X50736000Y-46594000D03*
X49936000Y-46594000D03*
X49136000Y-46594000D03*
X48336000Y-46594000D03*
X47536000Y-46594000D03*
X46736000Y-46594000D03*
X45936000Y-46594000D03*
X45136000Y-46594000D03*
X44336000Y-46594000D03*
X43536000Y-46594000D03*
X42736000Y-46594000D03*
D21*
X41036000Y-44894000D03*
X41036000Y-44094000D03*
X41036000Y-43294000D03*
X41036000Y-42494000D03*
X41036000Y-41694000D03*
X41036000Y-40894000D03*
X41036000Y-40094000D03*
X41036000Y-39294000D03*
X41036000Y-38494000D03*
X41036000Y-37694000D03*
X41036000Y-36894000D03*
D22*
X42736000Y-35194000D03*
X43536000Y-35194000D03*
X44336000Y-35194000D03*
X45136000Y-35194000D03*
X45936000Y-35194000D03*
X46736000Y-35194000D03*
X47536000Y-35194000D03*
X48336000Y-35194000D03*
X49136000Y-35194000D03*
X49936000Y-35194000D03*
X50736000Y-35194000D03*
%TD*%
D23*
%TO.C,SW1*%
X48728000Y-61976000D03*
D24*
X46228000Y-61976000D03*
X43728000Y-61976000D03*
D25*
X51828000Y-69476000D03*
X40628000Y-69476000D03*
D24*
X48728000Y-76476000D03*
X43728000Y-76476000D03*
%TD*%
%TO.C,C5*%
G36*
G01*
X39083000Y-31808000D02*
X38133000Y-31808000D01*
G75*
G02*
X37883000Y-31558000I0J250000D01*
G01*
X37883000Y-31058000D01*
G75*
G02*
X38133000Y-30808000I250000J0D01*
G01*
X39083000Y-30808000D01*
G75*
G02*
X39333000Y-31058000I0J-250000D01*
G01*
X39333000Y-31558000D01*
G75*
G02*
X39083000Y-31808000I-250000J0D01*
G01*
G37*
G36*
G01*
X39083000Y-33708000D02*
X38133000Y-33708000D01*
G75*
G02*
X37883000Y-33458000I0J250000D01*
G01*
X37883000Y-32958000D01*
G75*
G02*
X38133000Y-32708000I250000J0D01*
G01*
X39083000Y-32708000D01*
G75*
G02*
X39333000Y-32958000I0J-250000D01*
G01*
X39333000Y-33458000D01*
G75*
G02*
X39083000Y-33708000I-250000J0D01*
G01*
G37*
%TD*%
M02*
