G04 #@! TF.GenerationSoftware,KiCad,Pcbnew,(5.1.8)-1*
G04 #@! TF.CreationDate,2021-03-16T20:17:20-07:00*
G04 #@! TF.ProjectId,DeskTopVolKnob_Keypad,4465736b-546f-4705-966f-6c4b6e6f625f,rev?*
G04 #@! TF.SameCoordinates,Original*
G04 #@! TF.FileFunction,Paste,Top*
G04 #@! TF.FilePolarity,Positive*
%FSLAX46Y46*%
G04 Gerber Fmt 4.6, Leading zero omitted, Abs format (unit mm)*
G04 Created by KiCad (PCBNEW (5.1.8)-1) date 2021-03-16 20:17:20*
%MOMM*%
%LPD*%
G01*
G04 APERTURE LIST*
%ADD10C,0.020000*%
%ADD11R,1.000000X0.800000*%
%ADD12R,1.300000X1.550000*%
%ADD13R,1.500000X0.550000*%
%ADD14R,0.550000X1.500000*%
G04 APERTURE END LIST*
D10*
G36*
X44164365Y-105705868D02*
G01*
X44730050Y-105140183D01*
X45437157Y-105847290D01*
X44871472Y-106412975D01*
X44164365Y-105705868D01*
G37*
G36*
X45225025Y-106766528D02*
G01*
X45790710Y-106200843D01*
X46497817Y-106907950D01*
X45932132Y-107473635D01*
X45225025Y-106766528D01*
G37*
G36*
X46002843Y-105988710D02*
G01*
X46568528Y-105423025D01*
X47275635Y-106130132D01*
X46709950Y-106695817D01*
X46002843Y-105988710D01*
G37*
G36*
X44942183Y-104928050D02*
G01*
X45507868Y-104362365D01*
X46214975Y-105069472D01*
X45649290Y-105635157D01*
X44942183Y-104928050D01*
G37*
G36*
X43910365Y-95799868D02*
G01*
X44476050Y-95234183D01*
X45183157Y-95941290D01*
X44617472Y-96506975D01*
X43910365Y-95799868D01*
G37*
G36*
X44971025Y-96860528D02*
G01*
X45536710Y-96294843D01*
X46243817Y-97001950D01*
X45678132Y-97567635D01*
X44971025Y-96860528D01*
G37*
G36*
X45748843Y-96082710D02*
G01*
X46314528Y-95517025D01*
X47021635Y-96224132D01*
X46455950Y-96789817D01*
X45748843Y-96082710D01*
G37*
G36*
X44688183Y-95022050D02*
G01*
X45253868Y-94456365D01*
X45960975Y-95163472D01*
X45395290Y-95729157D01*
X44688183Y-95022050D01*
G37*
G36*
X44164365Y-100879868D02*
G01*
X44730050Y-100314183D01*
X45437157Y-101021290D01*
X44871472Y-101586975D01*
X44164365Y-100879868D01*
G37*
G36*
X45225025Y-101940528D02*
G01*
X45790710Y-101374843D01*
X46497817Y-102081950D01*
X45932132Y-102647635D01*
X45225025Y-101940528D01*
G37*
G36*
X46002843Y-101162710D02*
G01*
X46568528Y-100597025D01*
X47275635Y-101304132D01*
X46709950Y-101869817D01*
X46002843Y-101162710D01*
G37*
G36*
X44942183Y-100102050D02*
G01*
X45507868Y-99536365D01*
X46214975Y-100243472D01*
X45649290Y-100809157D01*
X44942183Y-100102050D01*
G37*
D11*
X62750000Y-114850000D03*
X64250000Y-114850000D03*
X64250000Y-113750000D03*
X62750000Y-113750000D03*
X83070000Y-114850000D03*
X84570000Y-114850000D03*
X84570000Y-113750000D03*
X83070000Y-113750000D03*
X103390000Y-114850000D03*
X104890000Y-114850000D03*
X104890000Y-113750000D03*
X103390000Y-113750000D03*
X123710000Y-114850000D03*
X125210000Y-114850000D03*
X125210000Y-113750000D03*
X123710000Y-113750000D03*
X144030000Y-114850000D03*
X145530000Y-114850000D03*
X145530000Y-113750000D03*
X144030000Y-113750000D03*
X144030000Y-94530000D03*
X145530000Y-94530000D03*
X145530000Y-93430000D03*
X144030000Y-93430000D03*
X144030000Y-74210000D03*
X145530000Y-74210000D03*
X145530000Y-73110000D03*
X144030000Y-73110000D03*
X144030000Y-53890000D03*
X145530000Y-53890000D03*
X145530000Y-52790000D03*
X144030000Y-52790000D03*
X144030000Y-33570000D03*
X145530000Y-33570000D03*
X145530000Y-32470000D03*
X144030000Y-32470000D03*
X123710000Y-94530000D03*
X125210000Y-94530000D03*
X125210000Y-93430000D03*
X123710000Y-93430000D03*
X123710000Y-74210000D03*
X125210000Y-74210000D03*
X125210000Y-73110000D03*
X123710000Y-73110000D03*
X123710000Y-53890000D03*
X125210000Y-53890000D03*
X125210000Y-52790000D03*
X123710000Y-52790000D03*
X123710000Y-33570000D03*
X125210000Y-33570000D03*
X125210000Y-32470000D03*
X123710000Y-32470000D03*
X103390000Y-94530000D03*
X104890000Y-94530000D03*
X104890000Y-93430000D03*
X103390000Y-93430000D03*
X103390000Y-74210000D03*
X104890000Y-74210000D03*
X104890000Y-73110000D03*
X103390000Y-73110000D03*
X103390000Y-53890000D03*
X104890000Y-53890000D03*
X104890000Y-52790000D03*
X103390000Y-52790000D03*
X103390000Y-33570000D03*
X104890000Y-33570000D03*
X104890000Y-32470000D03*
X103390000Y-32470000D03*
X83070000Y-94530000D03*
X84570000Y-94530000D03*
X84570000Y-93430000D03*
X83070000Y-93430000D03*
X83070000Y-74210000D03*
X84570000Y-74210000D03*
X84570000Y-73110000D03*
X83070000Y-73110000D03*
X83070000Y-53890000D03*
X84570000Y-53890000D03*
X84570000Y-52790000D03*
X83070000Y-52790000D03*
X83070000Y-33570000D03*
X84570000Y-33570000D03*
X84570000Y-32470000D03*
X83070000Y-32470000D03*
X62750000Y-94530000D03*
X64250000Y-94530000D03*
X64250000Y-93430000D03*
X62750000Y-93430000D03*
X62750000Y-74210000D03*
X64250000Y-74210000D03*
X64250000Y-73110000D03*
X62750000Y-73110000D03*
X62750000Y-53890000D03*
X64250000Y-53890000D03*
X64250000Y-52790000D03*
X62750000Y-52790000D03*
X62750000Y-32470000D03*
X64250000Y-32470000D03*
X64250000Y-33570000D03*
X62750000Y-33570000D03*
G36*
G01*
X38554967Y-52425413D02*
X38201413Y-52778967D01*
G75*
G02*
X37883215Y-52778967I-159099J159099D01*
G01*
X37565017Y-52460769D01*
G75*
G02*
X37565017Y-52142571I159099J159099D01*
G01*
X37918571Y-51789017D01*
G75*
G02*
X38236769Y-51789017I159099J-159099D01*
G01*
X38554967Y-52107215D01*
G75*
G02*
X38554967Y-52425413I-159099J-159099D01*
G01*
G37*
G36*
G01*
X39650983Y-53521429D02*
X39297429Y-53874983D01*
G75*
G02*
X38979231Y-53874983I-159099J159099D01*
G01*
X38661033Y-53556785D01*
G75*
G02*
X38661033Y-53238587I159099J159099D01*
G01*
X39014587Y-52885033D01*
G75*
G02*
X39332785Y-52885033I159099J-159099D01*
G01*
X39650983Y-53203231D01*
G75*
G02*
X39650983Y-53521429I-159099J-159099D01*
G01*
G37*
G36*
G01*
X41503413Y-52885033D02*
X41856967Y-53238587D01*
G75*
G02*
X41856967Y-53556785I-159099J-159099D01*
G01*
X41538769Y-53874983D01*
G75*
G02*
X41220571Y-53874983I-159099J159099D01*
G01*
X40867017Y-53521429D01*
G75*
G02*
X40867017Y-53203231I159099J159099D01*
G01*
X41185215Y-52885033D01*
G75*
G02*
X41503413Y-52885033I159099J-159099D01*
G01*
G37*
G36*
G01*
X42599429Y-51789017D02*
X42952983Y-52142571D01*
G75*
G02*
X42952983Y-52460769I-159099J-159099D01*
G01*
X42634785Y-52778967D01*
G75*
G02*
X42316587Y-52778967I-159099J159099D01*
G01*
X41963033Y-52425413D01*
G75*
G02*
X41963033Y-52107215I159099J159099D01*
G01*
X42281231Y-51789017D01*
G75*
G02*
X42599429Y-51789017I159099J-159099D01*
G01*
G37*
G36*
G01*
X39137000Y-38183000D02*
X38587000Y-38183000D01*
G75*
G02*
X38387000Y-37983000I0J200000D01*
G01*
X38387000Y-37583000D01*
G75*
G02*
X38587000Y-37383000I200000J0D01*
G01*
X39137000Y-37383000D01*
G75*
G02*
X39337000Y-37583000I0J-200000D01*
G01*
X39337000Y-37983000D01*
G75*
G02*
X39137000Y-38183000I-200000J0D01*
G01*
G37*
G36*
G01*
X39137000Y-39833000D02*
X38587000Y-39833000D01*
G75*
G02*
X38387000Y-39633000I0J200000D01*
G01*
X38387000Y-39233000D01*
G75*
G02*
X38587000Y-39033000I200000J0D01*
G01*
X39137000Y-39033000D01*
G75*
G02*
X39337000Y-39233000I0J-200000D01*
G01*
X39337000Y-39633000D01*
G75*
G02*
X39137000Y-39833000I-200000J0D01*
G01*
G37*
D12*
X48478000Y-82893000D03*
X48478000Y-90843000D03*
X43978000Y-82893000D03*
X43978000Y-90843000D03*
G36*
G01*
X49255500Y-78719000D02*
X49255500Y-79269000D01*
G75*
G02*
X49055500Y-79469000I-200000J0D01*
G01*
X48655500Y-79469000D01*
G75*
G02*
X48455500Y-79269000I0J200000D01*
G01*
X48455500Y-78719000D01*
G75*
G02*
X48655500Y-78519000I200000J0D01*
G01*
X49055500Y-78519000D01*
G75*
G02*
X49255500Y-78719000I0J-200000D01*
G01*
G37*
G36*
G01*
X50905500Y-78719000D02*
X50905500Y-79269000D01*
G75*
G02*
X50705500Y-79469000I-200000J0D01*
G01*
X50305500Y-79469000D01*
G75*
G02*
X50105500Y-79269000I0J200000D01*
G01*
X50105500Y-78719000D01*
G75*
G02*
X50305500Y-78519000I200000J0D01*
G01*
X50705500Y-78519000D01*
G75*
G02*
X50905500Y-78719000I0J-200000D01*
G01*
G37*
G36*
G01*
X42247000Y-58145000D02*
X42247000Y-58695000D01*
G75*
G02*
X42047000Y-58895000I-200000J0D01*
G01*
X41647000Y-58895000D01*
G75*
G02*
X41447000Y-58695000I0J200000D01*
G01*
X41447000Y-58145000D01*
G75*
G02*
X41647000Y-57945000I200000J0D01*
G01*
X42047000Y-57945000D01*
G75*
G02*
X42247000Y-58145000I0J-200000D01*
G01*
G37*
G36*
G01*
X43897000Y-58145000D02*
X43897000Y-58695000D01*
G75*
G02*
X43697000Y-58895000I-200000J0D01*
G01*
X43297000Y-58895000D01*
G75*
G02*
X43097000Y-58695000I0J200000D01*
G01*
X43097000Y-58145000D01*
G75*
G02*
X43297000Y-57945000I200000J0D01*
G01*
X43697000Y-57945000D01*
G75*
G02*
X43897000Y-58145000I0J-200000D01*
G01*
G37*
G36*
G01*
X49255500Y-58145000D02*
X49255500Y-58695000D01*
G75*
G02*
X49055500Y-58895000I-200000J0D01*
G01*
X48655500Y-58895000D01*
G75*
G02*
X48455500Y-58695000I0J200000D01*
G01*
X48455500Y-58145000D01*
G75*
G02*
X48655500Y-57945000I200000J0D01*
G01*
X49055500Y-57945000D01*
G75*
G02*
X49255500Y-58145000I0J-200000D01*
G01*
G37*
G36*
G01*
X50905500Y-58145000D02*
X50905500Y-58695000D01*
G75*
G02*
X50705500Y-58895000I-200000J0D01*
G01*
X50305500Y-58895000D01*
G75*
G02*
X50105500Y-58695000I0J200000D01*
G01*
X50105500Y-58145000D01*
G75*
G02*
X50305500Y-57945000I200000J0D01*
G01*
X50705500Y-57945000D01*
G75*
G02*
X50905500Y-58145000I0J-200000D01*
G01*
G37*
G36*
G01*
X42247000Y-78719000D02*
X42247000Y-79269000D01*
G75*
G02*
X42047000Y-79469000I-200000J0D01*
G01*
X41647000Y-79469000D01*
G75*
G02*
X41447000Y-79269000I0J200000D01*
G01*
X41447000Y-78719000D01*
G75*
G02*
X41647000Y-78519000I200000J0D01*
G01*
X42047000Y-78519000D01*
G75*
G02*
X42247000Y-78719000I0J-200000D01*
G01*
G37*
G36*
G01*
X43897000Y-78719000D02*
X43897000Y-79269000D01*
G75*
G02*
X43697000Y-79469000I-200000J0D01*
G01*
X43297000Y-79469000D01*
G75*
G02*
X43097000Y-79269000I0J200000D01*
G01*
X43097000Y-78719000D01*
G75*
G02*
X43297000Y-78519000I200000J0D01*
G01*
X43697000Y-78519000D01*
G75*
G02*
X43897000Y-78719000I0J-200000D01*
G01*
G37*
G36*
G01*
X46503000Y-56979000D02*
X45953000Y-56979000D01*
G75*
G02*
X45753000Y-56779000I0J200000D01*
G01*
X45753000Y-56379000D01*
G75*
G02*
X45953000Y-56179000I200000J0D01*
G01*
X46503000Y-56179000D01*
G75*
G02*
X46703000Y-56379000I0J-200000D01*
G01*
X46703000Y-56779000D01*
G75*
G02*
X46503000Y-56979000I-200000J0D01*
G01*
G37*
G36*
G01*
X46503000Y-58629000D02*
X45953000Y-58629000D01*
G75*
G02*
X45753000Y-58429000I0J200000D01*
G01*
X45753000Y-58029000D01*
G75*
G02*
X45953000Y-57829000I200000J0D01*
G01*
X46503000Y-57829000D01*
G75*
G02*
X46703000Y-58029000I0J-200000D01*
G01*
X46703000Y-58429000D01*
G75*
G02*
X46503000Y-58629000I-200000J0D01*
G01*
G37*
G36*
G01*
X51391000Y-49001000D02*
X51391000Y-49551000D01*
G75*
G02*
X51191000Y-49751000I-200000J0D01*
G01*
X50791000Y-49751000D01*
G75*
G02*
X50591000Y-49551000I0J200000D01*
G01*
X50591000Y-49001000D01*
G75*
G02*
X50791000Y-48801000I200000J0D01*
G01*
X51191000Y-48801000D01*
G75*
G02*
X51391000Y-49001000I0J-200000D01*
G01*
G37*
G36*
G01*
X53041000Y-49001000D02*
X53041000Y-49551000D01*
G75*
G02*
X52841000Y-49751000I-200000J0D01*
G01*
X52441000Y-49751000D01*
G75*
G02*
X52241000Y-49551000I0J200000D01*
G01*
X52241000Y-49001000D01*
G75*
G02*
X52441000Y-48801000I200000J0D01*
G01*
X52841000Y-48801000D01*
G75*
G02*
X53041000Y-49001000I0J-200000D01*
G01*
G37*
G36*
G01*
X49805000Y-30055000D02*
X49255000Y-30055000D01*
G75*
G02*
X49055000Y-29855000I0J200000D01*
G01*
X49055000Y-29455000D01*
G75*
G02*
X49255000Y-29255000I200000J0D01*
G01*
X49805000Y-29255000D01*
G75*
G02*
X50005000Y-29455000I0J-200000D01*
G01*
X50005000Y-29855000D01*
G75*
G02*
X49805000Y-30055000I-200000J0D01*
G01*
G37*
G36*
G01*
X49805000Y-31705000D02*
X49255000Y-31705000D01*
G75*
G02*
X49055000Y-31505000I0J200000D01*
G01*
X49055000Y-31105000D01*
G75*
G02*
X49255000Y-30905000I200000J0D01*
G01*
X49805000Y-30905000D01*
G75*
G02*
X50005000Y-31105000I0J-200000D01*
G01*
X50005000Y-31505000D01*
G75*
G02*
X49805000Y-31705000I-200000J0D01*
G01*
G37*
G36*
G01*
X47731000Y-30905000D02*
X48281000Y-30905000D01*
G75*
G02*
X48481000Y-31105000I0J-200000D01*
G01*
X48481000Y-31505000D01*
G75*
G02*
X48281000Y-31705000I-200000J0D01*
G01*
X47731000Y-31705000D01*
G75*
G02*
X47531000Y-31505000I0J200000D01*
G01*
X47531000Y-31105000D01*
G75*
G02*
X47731000Y-30905000I200000J0D01*
G01*
G37*
G36*
G01*
X47731000Y-29255000D02*
X48281000Y-29255000D01*
G75*
G02*
X48481000Y-29455000I0J-200000D01*
G01*
X48481000Y-29855000D01*
G75*
G02*
X48281000Y-30055000I-200000J0D01*
G01*
X47731000Y-30055000D01*
G75*
G02*
X47531000Y-29855000I0J200000D01*
G01*
X47531000Y-29455000D01*
G75*
G02*
X47731000Y-29255000I200000J0D01*
G01*
G37*
D10*
G36*
X41015884Y-52220726D02*
G01*
X40308777Y-52927833D01*
X39495604Y-52114660D01*
X40202711Y-51407553D01*
X41015884Y-52220726D01*
G37*
G36*
X39778447Y-50983289D02*
G01*
X39071340Y-51690396D01*
X38258167Y-50877223D01*
X38965274Y-50170116D01*
X39778447Y-50983289D01*
G37*
G36*
X40768396Y-49993340D02*
G01*
X40061289Y-50700447D01*
X39248116Y-49887274D01*
X39955223Y-49180167D01*
X40768396Y-49993340D01*
G37*
G36*
X42005833Y-51230777D02*
G01*
X41298726Y-51937884D01*
X40485553Y-51124711D01*
X41192660Y-50417604D01*
X42005833Y-51230777D01*
G37*
G36*
G01*
X46906000Y-32820000D02*
X46566000Y-32820000D01*
G75*
G02*
X46426000Y-32680000I0J140000D01*
G01*
X46426000Y-32400000D01*
G75*
G02*
X46566000Y-32260000I140000J0D01*
G01*
X46906000Y-32260000D01*
G75*
G02*
X47046000Y-32400000I0J-140000D01*
G01*
X47046000Y-32680000D01*
G75*
G02*
X46906000Y-32820000I-140000J0D01*
G01*
G37*
G36*
G01*
X46906000Y-33780000D02*
X46566000Y-33780000D01*
G75*
G02*
X46426000Y-33640000I0J140000D01*
G01*
X46426000Y-33360000D01*
G75*
G02*
X46566000Y-33220000I140000J0D01*
G01*
X46906000Y-33220000D01*
G75*
G02*
X47046000Y-33360000I0J-140000D01*
G01*
X47046000Y-33640000D01*
G75*
G02*
X46906000Y-33780000I-140000J0D01*
G01*
G37*
G36*
G01*
X40302000Y-32566000D02*
X39962000Y-32566000D01*
G75*
G02*
X39822000Y-32426000I0J140000D01*
G01*
X39822000Y-32146000D01*
G75*
G02*
X39962000Y-32006000I140000J0D01*
G01*
X40302000Y-32006000D01*
G75*
G02*
X40442000Y-32146000I0J-140000D01*
G01*
X40442000Y-32426000D01*
G75*
G02*
X40302000Y-32566000I-140000J0D01*
G01*
G37*
G36*
G01*
X40302000Y-33526000D02*
X39962000Y-33526000D01*
G75*
G02*
X39822000Y-33386000I0J140000D01*
G01*
X39822000Y-33106000D01*
G75*
G02*
X39962000Y-32966000I140000J0D01*
G01*
X40302000Y-32966000D01*
G75*
G02*
X40442000Y-33106000I0J-140000D01*
G01*
X40442000Y-33386000D01*
G75*
G02*
X40302000Y-33526000I-140000J0D01*
G01*
G37*
G36*
G01*
X41318000Y-32566000D02*
X40978000Y-32566000D01*
G75*
G02*
X40838000Y-32426000I0J140000D01*
G01*
X40838000Y-32146000D01*
G75*
G02*
X40978000Y-32006000I140000J0D01*
G01*
X41318000Y-32006000D01*
G75*
G02*
X41458000Y-32146000I0J-140000D01*
G01*
X41458000Y-32426000D01*
G75*
G02*
X41318000Y-32566000I-140000J0D01*
G01*
G37*
G36*
G01*
X41318000Y-33526000D02*
X40978000Y-33526000D01*
G75*
G02*
X40838000Y-33386000I0J140000D01*
G01*
X40838000Y-33106000D01*
G75*
G02*
X40978000Y-32966000I140000J0D01*
G01*
X41318000Y-32966000D01*
G75*
G02*
X41458000Y-33106000I0J-140000D01*
G01*
X41458000Y-33386000D01*
G75*
G02*
X41318000Y-33526000I-140000J0D01*
G01*
G37*
G36*
G01*
X42334000Y-32566000D02*
X41994000Y-32566000D01*
G75*
G02*
X41854000Y-32426000I0J140000D01*
G01*
X41854000Y-32146000D01*
G75*
G02*
X41994000Y-32006000I140000J0D01*
G01*
X42334000Y-32006000D01*
G75*
G02*
X42474000Y-32146000I0J-140000D01*
G01*
X42474000Y-32426000D01*
G75*
G02*
X42334000Y-32566000I-140000J0D01*
G01*
G37*
G36*
G01*
X42334000Y-33526000D02*
X41994000Y-33526000D01*
G75*
G02*
X41854000Y-33386000I0J140000D01*
G01*
X41854000Y-33106000D01*
G75*
G02*
X41994000Y-32966000I140000J0D01*
G01*
X42334000Y-32966000D01*
G75*
G02*
X42474000Y-33106000I0J-140000D01*
G01*
X42474000Y-33386000D01*
G75*
G02*
X42334000Y-33526000I-140000J0D01*
G01*
G37*
G36*
G01*
X50208000Y-32820000D02*
X49868000Y-32820000D01*
G75*
G02*
X49728000Y-32680000I0J140000D01*
G01*
X49728000Y-32400000D01*
G75*
G02*
X49868000Y-32260000I140000J0D01*
G01*
X50208000Y-32260000D01*
G75*
G02*
X50348000Y-32400000I0J-140000D01*
G01*
X50348000Y-32680000D01*
G75*
G02*
X50208000Y-32820000I-140000J0D01*
G01*
G37*
G36*
G01*
X50208000Y-33780000D02*
X49868000Y-33780000D01*
G75*
G02*
X49728000Y-33640000I0J140000D01*
G01*
X49728000Y-33360000D01*
G75*
G02*
X49868000Y-33220000I140000J0D01*
G01*
X50208000Y-33220000D01*
G75*
G02*
X50348000Y-33360000I0J-140000D01*
G01*
X50348000Y-33640000D01*
G75*
G02*
X50208000Y-33780000I-140000J0D01*
G01*
G37*
D13*
X52436000Y-36894000D03*
X52436000Y-37694000D03*
X52436000Y-38494000D03*
X52436000Y-39294000D03*
X52436000Y-40094000D03*
X52436000Y-40894000D03*
X52436000Y-41694000D03*
X52436000Y-42494000D03*
X52436000Y-43294000D03*
X52436000Y-44094000D03*
X52436000Y-44894000D03*
D14*
X50736000Y-46594000D03*
X49936000Y-46594000D03*
X49136000Y-46594000D03*
X48336000Y-46594000D03*
X47536000Y-46594000D03*
X46736000Y-46594000D03*
X45936000Y-46594000D03*
X45136000Y-46594000D03*
X44336000Y-46594000D03*
X43536000Y-46594000D03*
X42736000Y-46594000D03*
D13*
X41036000Y-44894000D03*
X41036000Y-44094000D03*
X41036000Y-43294000D03*
X41036000Y-42494000D03*
X41036000Y-41694000D03*
X41036000Y-40894000D03*
X41036000Y-40094000D03*
X41036000Y-39294000D03*
X41036000Y-38494000D03*
X41036000Y-37694000D03*
X41036000Y-36894000D03*
D14*
X42736000Y-35194000D03*
X43536000Y-35194000D03*
X44336000Y-35194000D03*
X45136000Y-35194000D03*
X45936000Y-35194000D03*
X46736000Y-35194000D03*
X47536000Y-35194000D03*
X48336000Y-35194000D03*
X49136000Y-35194000D03*
X49936000Y-35194000D03*
X50736000Y-35194000D03*
G36*
G01*
X39083000Y-31808000D02*
X38133000Y-31808000D01*
G75*
G02*
X37883000Y-31558000I0J250000D01*
G01*
X37883000Y-31058000D01*
G75*
G02*
X38133000Y-30808000I250000J0D01*
G01*
X39083000Y-30808000D01*
G75*
G02*
X39333000Y-31058000I0J-250000D01*
G01*
X39333000Y-31558000D01*
G75*
G02*
X39083000Y-31808000I-250000J0D01*
G01*
G37*
G36*
G01*
X39083000Y-33708000D02*
X38133000Y-33708000D01*
G75*
G02*
X37883000Y-33458000I0J250000D01*
G01*
X37883000Y-32958000D01*
G75*
G02*
X38133000Y-32708000I250000J0D01*
G01*
X39083000Y-32708000D01*
G75*
G02*
X39333000Y-32958000I0J-250000D01*
G01*
X39333000Y-33458000D01*
G75*
G02*
X39083000Y-33708000I-250000J0D01*
G01*
G37*
M02*
