G04 #@! TF.GenerationSoftware,KiCad,Pcbnew,(5.1.8)-1*
G04 #@! TF.CreationDate,2021-03-16T20:17:20-07:00*
G04 #@! TF.ProjectId,DeskTopVolKnob_Keypad,4465736b-546f-4705-966f-6c4b6e6f625f,rev?*
G04 #@! TF.SameCoordinates,Original*
G04 #@! TF.FileFunction,Paste,Bot*
G04 #@! TF.FilePolarity,Positive*
%FSLAX46Y46*%
G04 Gerber Fmt 4.6, Leading zero omitted, Abs format (unit mm)*
G04 Created by KiCad (PCBNEW (5.1.8)-1) date 2021-03-16 20:17:20*
%MOMM*%
%LPD*%
G01*
G04 APERTURE LIST*
%ADD10R,1.000000X2.000000*%
%ADD11R,0.270000X1.000000*%
%ADD12R,0.520000X1.000000*%
%ADD13R,0.600000X0.700000*%
G04 APERTURE END LIST*
G36*
G01*
X43436000Y-103879999D02*
X43436000Y-104400001D01*
G75*
G02*
X43186001Y-104650000I-249999J0D01*
G01*
X42665999Y-104650000D01*
G75*
G02*
X42416000Y-104400001I0J249999D01*
G01*
X42416000Y-103879999D01*
G75*
G02*
X42665999Y-103630000I249999J0D01*
G01*
X43186001Y-103630000D01*
G75*
G02*
X43436000Y-103879999I0J-249999D01*
G01*
G37*
G36*
G01*
X43436000Y-102609999D02*
X43436000Y-103130001D01*
G75*
G02*
X43186001Y-103380000I-249999J0D01*
G01*
X42665999Y-103380000D01*
G75*
G02*
X42416000Y-103130001I0J249999D01*
G01*
X42416000Y-102609999D01*
G75*
G02*
X42665999Y-102360000I249999J0D01*
G01*
X43186001Y-102360000D01*
G75*
G02*
X43436000Y-102609999I0J-249999D01*
G01*
G37*
G36*
G01*
X43436000Y-101339999D02*
X43436000Y-101860001D01*
G75*
G02*
X43186001Y-102110000I-249999J0D01*
G01*
X42665999Y-102110000D01*
G75*
G02*
X42416000Y-101860001I0J249999D01*
G01*
X42416000Y-101339999D01*
G75*
G02*
X42665999Y-101090000I249999J0D01*
G01*
X43186001Y-101090000D01*
G75*
G02*
X43436000Y-101339999I0J-249999D01*
G01*
G37*
G36*
G01*
X44706000Y-103879999D02*
X44706000Y-104400001D01*
G75*
G02*
X44456001Y-104650000I-249999J0D01*
G01*
X43935999Y-104650000D01*
G75*
G02*
X43686000Y-104400001I0J249999D01*
G01*
X43686000Y-103879999D01*
G75*
G02*
X43935999Y-103630000I249999J0D01*
G01*
X44456001Y-103630000D01*
G75*
G02*
X44706000Y-103879999I0J-249999D01*
G01*
G37*
G36*
G01*
X44706000Y-102609999D02*
X44706000Y-103130001D01*
G75*
G02*
X44456001Y-103380000I-249999J0D01*
G01*
X43935999Y-103380000D01*
G75*
G02*
X43686000Y-103130001I0J249999D01*
G01*
X43686000Y-102609999D01*
G75*
G02*
X43935999Y-102360000I249999J0D01*
G01*
X44456001Y-102360000D01*
G75*
G02*
X44706000Y-102609999I0J-249999D01*
G01*
G37*
G36*
G01*
X44706000Y-101339999D02*
X44706000Y-101860001D01*
G75*
G02*
X44456001Y-102110000I-249999J0D01*
G01*
X43935999Y-102110000D01*
G75*
G02*
X43686000Y-101860001I0J249999D01*
G01*
X43686000Y-101339999D01*
G75*
G02*
X43935999Y-101090000I249999J0D01*
G01*
X44456001Y-101090000D01*
G75*
G02*
X44706000Y-101339999I0J-249999D01*
G01*
G37*
G36*
G01*
X45976000Y-103879999D02*
X45976000Y-104400001D01*
G75*
G02*
X45726001Y-104650000I-249999J0D01*
G01*
X45205999Y-104650000D01*
G75*
G02*
X44956000Y-104400001I0J249999D01*
G01*
X44956000Y-103879999D01*
G75*
G02*
X45205999Y-103630000I249999J0D01*
G01*
X45726001Y-103630000D01*
G75*
G02*
X45976000Y-103879999I0J-249999D01*
G01*
G37*
G36*
G01*
X45976000Y-102609999D02*
X45976000Y-103130001D01*
G75*
G02*
X45726001Y-103380000I-249999J0D01*
G01*
X45205999Y-103380000D01*
G75*
G02*
X44956000Y-103130001I0J249999D01*
G01*
X44956000Y-102609999D01*
G75*
G02*
X45205999Y-102360000I249999J0D01*
G01*
X45726001Y-102360000D01*
G75*
G02*
X45976000Y-102609999I0J-249999D01*
G01*
G37*
G36*
G01*
X45976000Y-101339999D02*
X45976000Y-101860001D01*
G75*
G02*
X45726001Y-102110000I-249999J0D01*
G01*
X45205999Y-102110000D01*
G75*
G02*
X44956000Y-101860001I0J249999D01*
G01*
X44956000Y-101339999D01*
G75*
G02*
X45205999Y-101090000I249999J0D01*
G01*
X45726001Y-101090000D01*
G75*
G02*
X45976000Y-101339999I0J-249999D01*
G01*
G37*
G36*
G01*
X46096000Y-100045000D02*
X46096000Y-100720000D01*
G75*
G02*
X46046000Y-100770000I-50000J0D01*
G01*
X45946000Y-100770000D01*
G75*
G02*
X45896000Y-100720000I0J50000D01*
G01*
X45896000Y-100045000D01*
G75*
G02*
X45946000Y-99995000I50000J0D01*
G01*
X46046000Y-99995000D01*
G75*
G02*
X46096000Y-100045000I0J-50000D01*
G01*
G37*
G36*
G01*
X45696000Y-100045000D02*
X45696000Y-100720000D01*
G75*
G02*
X45646000Y-100770000I-50000J0D01*
G01*
X45546000Y-100770000D01*
G75*
G02*
X45496000Y-100720000I0J50000D01*
G01*
X45496000Y-100045000D01*
G75*
G02*
X45546000Y-99995000I50000J0D01*
G01*
X45646000Y-99995000D01*
G75*
G02*
X45696000Y-100045000I0J-50000D01*
G01*
G37*
G36*
G01*
X45296000Y-100045000D02*
X45296000Y-100720000D01*
G75*
G02*
X45246000Y-100770000I-50000J0D01*
G01*
X45146000Y-100770000D01*
G75*
G02*
X45096000Y-100720000I0J50000D01*
G01*
X45096000Y-100045000D01*
G75*
G02*
X45146000Y-99995000I50000J0D01*
G01*
X45246000Y-99995000D01*
G75*
G02*
X45296000Y-100045000I0J-50000D01*
G01*
G37*
G36*
G01*
X44896000Y-100045000D02*
X44896000Y-100720000D01*
G75*
G02*
X44846000Y-100770000I-50000J0D01*
G01*
X44746000Y-100770000D01*
G75*
G02*
X44696000Y-100720000I0J50000D01*
G01*
X44696000Y-100045000D01*
G75*
G02*
X44746000Y-99995000I50000J0D01*
G01*
X44846000Y-99995000D01*
G75*
G02*
X44896000Y-100045000I0J-50000D01*
G01*
G37*
G36*
G01*
X44496000Y-100045000D02*
X44496000Y-100720000D01*
G75*
G02*
X44446000Y-100770000I-50000J0D01*
G01*
X44346000Y-100770000D01*
G75*
G02*
X44296000Y-100720000I0J50000D01*
G01*
X44296000Y-100045000D01*
G75*
G02*
X44346000Y-99995000I50000J0D01*
G01*
X44446000Y-99995000D01*
G75*
G02*
X44496000Y-100045000I0J-50000D01*
G01*
G37*
G36*
G01*
X44096000Y-100045000D02*
X44096000Y-100720000D01*
G75*
G02*
X44046000Y-100770000I-50000J0D01*
G01*
X43946000Y-100770000D01*
G75*
G02*
X43896000Y-100720000I0J50000D01*
G01*
X43896000Y-100045000D01*
G75*
G02*
X43946000Y-99995000I50000J0D01*
G01*
X44046000Y-99995000D01*
G75*
G02*
X44096000Y-100045000I0J-50000D01*
G01*
G37*
G36*
G01*
X43696000Y-100045000D02*
X43696000Y-100720000D01*
G75*
G02*
X43646000Y-100770000I-50000J0D01*
G01*
X43546000Y-100770000D01*
G75*
G02*
X43496000Y-100720000I0J50000D01*
G01*
X43496000Y-100045000D01*
G75*
G02*
X43546000Y-99995000I50000J0D01*
G01*
X43646000Y-99995000D01*
G75*
G02*
X43696000Y-100045000I0J-50000D01*
G01*
G37*
G36*
G01*
X43296000Y-100045000D02*
X43296000Y-100720000D01*
G75*
G02*
X43246000Y-100770000I-50000J0D01*
G01*
X43146000Y-100770000D01*
G75*
G02*
X43096000Y-100720000I0J50000D01*
G01*
X43096000Y-100045000D01*
G75*
G02*
X43146000Y-99995000I50000J0D01*
G01*
X43246000Y-99995000D01*
G75*
G02*
X43296000Y-100045000I0J-50000D01*
G01*
G37*
G36*
G01*
X42896000Y-100045000D02*
X42896000Y-100720000D01*
G75*
G02*
X42846000Y-100770000I-50000J0D01*
G01*
X42746000Y-100770000D01*
G75*
G02*
X42696000Y-100720000I0J50000D01*
G01*
X42696000Y-100045000D01*
G75*
G02*
X42746000Y-99995000I50000J0D01*
G01*
X42846000Y-99995000D01*
G75*
G02*
X42896000Y-100045000I0J-50000D01*
G01*
G37*
G36*
G01*
X42496000Y-100045000D02*
X42496000Y-100720000D01*
G75*
G02*
X42446000Y-100770000I-50000J0D01*
G01*
X42346000Y-100770000D01*
G75*
G02*
X42296000Y-100720000I0J50000D01*
G01*
X42296000Y-100045000D01*
G75*
G02*
X42346000Y-99995000I50000J0D01*
G01*
X42446000Y-99995000D01*
G75*
G02*
X42496000Y-100045000I0J-50000D01*
G01*
G37*
G36*
G01*
X42096000Y-101020000D02*
X42096000Y-101120000D01*
G75*
G02*
X42046000Y-101170000I-50000J0D01*
G01*
X41371000Y-101170000D01*
G75*
G02*
X41321000Y-101120000I0J50000D01*
G01*
X41321000Y-101020000D01*
G75*
G02*
X41371000Y-100970000I50000J0D01*
G01*
X42046000Y-100970000D01*
G75*
G02*
X42096000Y-101020000I0J-50000D01*
G01*
G37*
G36*
G01*
X42096000Y-101420000D02*
X42096000Y-101520000D01*
G75*
G02*
X42046000Y-101570000I-50000J0D01*
G01*
X41371000Y-101570000D01*
G75*
G02*
X41321000Y-101520000I0J50000D01*
G01*
X41321000Y-101420000D01*
G75*
G02*
X41371000Y-101370000I50000J0D01*
G01*
X42046000Y-101370000D01*
G75*
G02*
X42096000Y-101420000I0J-50000D01*
G01*
G37*
G36*
G01*
X42096000Y-101820000D02*
X42096000Y-101920000D01*
G75*
G02*
X42046000Y-101970000I-50000J0D01*
G01*
X41371000Y-101970000D01*
G75*
G02*
X41321000Y-101920000I0J50000D01*
G01*
X41321000Y-101820000D01*
G75*
G02*
X41371000Y-101770000I50000J0D01*
G01*
X42046000Y-101770000D01*
G75*
G02*
X42096000Y-101820000I0J-50000D01*
G01*
G37*
G36*
G01*
X42096000Y-102220000D02*
X42096000Y-102320000D01*
G75*
G02*
X42046000Y-102370000I-50000J0D01*
G01*
X41371000Y-102370000D01*
G75*
G02*
X41321000Y-102320000I0J50000D01*
G01*
X41321000Y-102220000D01*
G75*
G02*
X41371000Y-102170000I50000J0D01*
G01*
X42046000Y-102170000D01*
G75*
G02*
X42096000Y-102220000I0J-50000D01*
G01*
G37*
G36*
G01*
X42096000Y-102620000D02*
X42096000Y-102720000D01*
G75*
G02*
X42046000Y-102770000I-50000J0D01*
G01*
X41371000Y-102770000D01*
G75*
G02*
X41321000Y-102720000I0J50000D01*
G01*
X41321000Y-102620000D01*
G75*
G02*
X41371000Y-102570000I50000J0D01*
G01*
X42046000Y-102570000D01*
G75*
G02*
X42096000Y-102620000I0J-50000D01*
G01*
G37*
G36*
G01*
X42096000Y-103020000D02*
X42096000Y-103120000D01*
G75*
G02*
X42046000Y-103170000I-50000J0D01*
G01*
X41371000Y-103170000D01*
G75*
G02*
X41321000Y-103120000I0J50000D01*
G01*
X41321000Y-103020000D01*
G75*
G02*
X41371000Y-102970000I50000J0D01*
G01*
X42046000Y-102970000D01*
G75*
G02*
X42096000Y-103020000I0J-50000D01*
G01*
G37*
G36*
G01*
X42096000Y-103420000D02*
X42096000Y-103520000D01*
G75*
G02*
X42046000Y-103570000I-50000J0D01*
G01*
X41371000Y-103570000D01*
G75*
G02*
X41321000Y-103520000I0J50000D01*
G01*
X41321000Y-103420000D01*
G75*
G02*
X41371000Y-103370000I50000J0D01*
G01*
X42046000Y-103370000D01*
G75*
G02*
X42096000Y-103420000I0J-50000D01*
G01*
G37*
G36*
G01*
X42096000Y-103820000D02*
X42096000Y-103920000D01*
G75*
G02*
X42046000Y-103970000I-50000J0D01*
G01*
X41371000Y-103970000D01*
G75*
G02*
X41321000Y-103920000I0J50000D01*
G01*
X41321000Y-103820000D01*
G75*
G02*
X41371000Y-103770000I50000J0D01*
G01*
X42046000Y-103770000D01*
G75*
G02*
X42096000Y-103820000I0J-50000D01*
G01*
G37*
G36*
G01*
X42096000Y-104220000D02*
X42096000Y-104320000D01*
G75*
G02*
X42046000Y-104370000I-50000J0D01*
G01*
X41371000Y-104370000D01*
G75*
G02*
X41321000Y-104320000I0J50000D01*
G01*
X41321000Y-104220000D01*
G75*
G02*
X41371000Y-104170000I50000J0D01*
G01*
X42046000Y-104170000D01*
G75*
G02*
X42096000Y-104220000I0J-50000D01*
G01*
G37*
G36*
G01*
X42096000Y-104620000D02*
X42096000Y-104720000D01*
G75*
G02*
X42046000Y-104770000I-50000J0D01*
G01*
X41371000Y-104770000D01*
G75*
G02*
X41321000Y-104720000I0J50000D01*
G01*
X41321000Y-104620000D01*
G75*
G02*
X41371000Y-104570000I50000J0D01*
G01*
X42046000Y-104570000D01*
G75*
G02*
X42096000Y-104620000I0J-50000D01*
G01*
G37*
G36*
G01*
X42496000Y-105020000D02*
X42496000Y-105695000D01*
G75*
G02*
X42446000Y-105745000I-50000J0D01*
G01*
X42346000Y-105745000D01*
G75*
G02*
X42296000Y-105695000I0J50000D01*
G01*
X42296000Y-105020000D01*
G75*
G02*
X42346000Y-104970000I50000J0D01*
G01*
X42446000Y-104970000D01*
G75*
G02*
X42496000Y-105020000I0J-50000D01*
G01*
G37*
G36*
G01*
X42896000Y-105020000D02*
X42896000Y-105695000D01*
G75*
G02*
X42846000Y-105745000I-50000J0D01*
G01*
X42746000Y-105745000D01*
G75*
G02*
X42696000Y-105695000I0J50000D01*
G01*
X42696000Y-105020000D01*
G75*
G02*
X42746000Y-104970000I50000J0D01*
G01*
X42846000Y-104970000D01*
G75*
G02*
X42896000Y-105020000I0J-50000D01*
G01*
G37*
G36*
G01*
X43296000Y-105020000D02*
X43296000Y-105695000D01*
G75*
G02*
X43246000Y-105745000I-50000J0D01*
G01*
X43146000Y-105745000D01*
G75*
G02*
X43096000Y-105695000I0J50000D01*
G01*
X43096000Y-105020000D01*
G75*
G02*
X43146000Y-104970000I50000J0D01*
G01*
X43246000Y-104970000D01*
G75*
G02*
X43296000Y-105020000I0J-50000D01*
G01*
G37*
G36*
G01*
X43696000Y-105020000D02*
X43696000Y-105695000D01*
G75*
G02*
X43646000Y-105745000I-50000J0D01*
G01*
X43546000Y-105745000D01*
G75*
G02*
X43496000Y-105695000I0J50000D01*
G01*
X43496000Y-105020000D01*
G75*
G02*
X43546000Y-104970000I50000J0D01*
G01*
X43646000Y-104970000D01*
G75*
G02*
X43696000Y-105020000I0J-50000D01*
G01*
G37*
G36*
G01*
X44096000Y-105020000D02*
X44096000Y-105695000D01*
G75*
G02*
X44046000Y-105745000I-50000J0D01*
G01*
X43946000Y-105745000D01*
G75*
G02*
X43896000Y-105695000I0J50000D01*
G01*
X43896000Y-105020000D01*
G75*
G02*
X43946000Y-104970000I50000J0D01*
G01*
X44046000Y-104970000D01*
G75*
G02*
X44096000Y-105020000I0J-50000D01*
G01*
G37*
G36*
G01*
X44496000Y-105020000D02*
X44496000Y-105695000D01*
G75*
G02*
X44446000Y-105745000I-50000J0D01*
G01*
X44346000Y-105745000D01*
G75*
G02*
X44296000Y-105695000I0J50000D01*
G01*
X44296000Y-105020000D01*
G75*
G02*
X44346000Y-104970000I50000J0D01*
G01*
X44446000Y-104970000D01*
G75*
G02*
X44496000Y-105020000I0J-50000D01*
G01*
G37*
G36*
G01*
X44896000Y-105020000D02*
X44896000Y-105695000D01*
G75*
G02*
X44846000Y-105745000I-50000J0D01*
G01*
X44746000Y-105745000D01*
G75*
G02*
X44696000Y-105695000I0J50000D01*
G01*
X44696000Y-105020000D01*
G75*
G02*
X44746000Y-104970000I50000J0D01*
G01*
X44846000Y-104970000D01*
G75*
G02*
X44896000Y-105020000I0J-50000D01*
G01*
G37*
G36*
G01*
X45296000Y-105020000D02*
X45296000Y-105695000D01*
G75*
G02*
X45246000Y-105745000I-50000J0D01*
G01*
X45146000Y-105745000D01*
G75*
G02*
X45096000Y-105695000I0J50000D01*
G01*
X45096000Y-105020000D01*
G75*
G02*
X45146000Y-104970000I50000J0D01*
G01*
X45246000Y-104970000D01*
G75*
G02*
X45296000Y-105020000I0J-50000D01*
G01*
G37*
G36*
G01*
X45696000Y-105020000D02*
X45696000Y-105695000D01*
G75*
G02*
X45646000Y-105745000I-50000J0D01*
G01*
X45546000Y-105745000D01*
G75*
G02*
X45496000Y-105695000I0J50000D01*
G01*
X45496000Y-105020000D01*
G75*
G02*
X45546000Y-104970000I50000J0D01*
G01*
X45646000Y-104970000D01*
G75*
G02*
X45696000Y-105020000I0J-50000D01*
G01*
G37*
G36*
G01*
X46096000Y-105020000D02*
X46096000Y-105695000D01*
G75*
G02*
X46046000Y-105745000I-50000J0D01*
G01*
X45946000Y-105745000D01*
G75*
G02*
X45896000Y-105695000I0J50000D01*
G01*
X45896000Y-105020000D01*
G75*
G02*
X45946000Y-104970000I50000J0D01*
G01*
X46046000Y-104970000D01*
G75*
G02*
X46096000Y-105020000I0J-50000D01*
G01*
G37*
G36*
G01*
X47071000Y-104620000D02*
X47071000Y-104720000D01*
G75*
G02*
X47021000Y-104770000I-50000J0D01*
G01*
X46346000Y-104770000D01*
G75*
G02*
X46296000Y-104720000I0J50000D01*
G01*
X46296000Y-104620000D01*
G75*
G02*
X46346000Y-104570000I50000J0D01*
G01*
X47021000Y-104570000D01*
G75*
G02*
X47071000Y-104620000I0J-50000D01*
G01*
G37*
G36*
G01*
X47071000Y-104220000D02*
X47071000Y-104320000D01*
G75*
G02*
X47021000Y-104370000I-50000J0D01*
G01*
X46346000Y-104370000D01*
G75*
G02*
X46296000Y-104320000I0J50000D01*
G01*
X46296000Y-104220000D01*
G75*
G02*
X46346000Y-104170000I50000J0D01*
G01*
X47021000Y-104170000D01*
G75*
G02*
X47071000Y-104220000I0J-50000D01*
G01*
G37*
G36*
G01*
X47071000Y-103820000D02*
X47071000Y-103920000D01*
G75*
G02*
X47021000Y-103970000I-50000J0D01*
G01*
X46346000Y-103970000D01*
G75*
G02*
X46296000Y-103920000I0J50000D01*
G01*
X46296000Y-103820000D01*
G75*
G02*
X46346000Y-103770000I50000J0D01*
G01*
X47021000Y-103770000D01*
G75*
G02*
X47071000Y-103820000I0J-50000D01*
G01*
G37*
G36*
G01*
X47071000Y-103420000D02*
X47071000Y-103520000D01*
G75*
G02*
X47021000Y-103570000I-50000J0D01*
G01*
X46346000Y-103570000D01*
G75*
G02*
X46296000Y-103520000I0J50000D01*
G01*
X46296000Y-103420000D01*
G75*
G02*
X46346000Y-103370000I50000J0D01*
G01*
X47021000Y-103370000D01*
G75*
G02*
X47071000Y-103420000I0J-50000D01*
G01*
G37*
G36*
G01*
X47071000Y-103020000D02*
X47071000Y-103120000D01*
G75*
G02*
X47021000Y-103170000I-50000J0D01*
G01*
X46346000Y-103170000D01*
G75*
G02*
X46296000Y-103120000I0J50000D01*
G01*
X46296000Y-103020000D01*
G75*
G02*
X46346000Y-102970000I50000J0D01*
G01*
X47021000Y-102970000D01*
G75*
G02*
X47071000Y-103020000I0J-50000D01*
G01*
G37*
G36*
G01*
X47071000Y-102620000D02*
X47071000Y-102720000D01*
G75*
G02*
X47021000Y-102770000I-50000J0D01*
G01*
X46346000Y-102770000D01*
G75*
G02*
X46296000Y-102720000I0J50000D01*
G01*
X46296000Y-102620000D01*
G75*
G02*
X46346000Y-102570000I50000J0D01*
G01*
X47021000Y-102570000D01*
G75*
G02*
X47071000Y-102620000I0J-50000D01*
G01*
G37*
G36*
G01*
X47071000Y-102220000D02*
X47071000Y-102320000D01*
G75*
G02*
X47021000Y-102370000I-50000J0D01*
G01*
X46346000Y-102370000D01*
G75*
G02*
X46296000Y-102320000I0J50000D01*
G01*
X46296000Y-102220000D01*
G75*
G02*
X46346000Y-102170000I50000J0D01*
G01*
X47021000Y-102170000D01*
G75*
G02*
X47071000Y-102220000I0J-50000D01*
G01*
G37*
G36*
G01*
X47071000Y-101820000D02*
X47071000Y-101920000D01*
G75*
G02*
X47021000Y-101970000I-50000J0D01*
G01*
X46346000Y-101970000D01*
G75*
G02*
X46296000Y-101920000I0J50000D01*
G01*
X46296000Y-101820000D01*
G75*
G02*
X46346000Y-101770000I50000J0D01*
G01*
X47021000Y-101770000D01*
G75*
G02*
X47071000Y-101820000I0J-50000D01*
G01*
G37*
G36*
G01*
X47071000Y-101420000D02*
X47071000Y-101520000D01*
G75*
G02*
X47021000Y-101570000I-50000J0D01*
G01*
X46346000Y-101570000D01*
G75*
G02*
X46296000Y-101520000I0J50000D01*
G01*
X46296000Y-101420000D01*
G75*
G02*
X46346000Y-101370000I50000J0D01*
G01*
X47021000Y-101370000D01*
G75*
G02*
X47071000Y-101420000I0J-50000D01*
G01*
G37*
G36*
G01*
X47071000Y-101020000D02*
X47071000Y-101120000D01*
G75*
G02*
X47021000Y-101170000I-50000J0D01*
G01*
X46346000Y-101170000D01*
G75*
G02*
X46296000Y-101120000I0J50000D01*
G01*
X46296000Y-101020000D01*
G75*
G02*
X46346000Y-100970000I50000J0D01*
G01*
X47021000Y-100970000D01*
G75*
G02*
X47071000Y-101020000I0J-50000D01*
G01*
G37*
G36*
G01*
X39857000Y-101517000D02*
X40407000Y-101517000D01*
G75*
G02*
X40607000Y-101717000I0J-200000D01*
G01*
X40607000Y-102117000D01*
G75*
G02*
X40407000Y-102317000I-200000J0D01*
G01*
X39857000Y-102317000D01*
G75*
G02*
X39657000Y-102117000I0J200000D01*
G01*
X39657000Y-101717000D01*
G75*
G02*
X39857000Y-101517000I200000J0D01*
G01*
G37*
G36*
G01*
X39857000Y-99867000D02*
X40407000Y-99867000D01*
G75*
G02*
X40607000Y-100067000I0J-200000D01*
G01*
X40607000Y-100467000D01*
G75*
G02*
X40407000Y-100667000I-200000J0D01*
G01*
X39857000Y-100667000D01*
G75*
G02*
X39657000Y-100467000I0J200000D01*
G01*
X39657000Y-100067000D01*
G75*
G02*
X39857000Y-99867000I200000J0D01*
G01*
G37*
G36*
G01*
X44471000Y-97111000D02*
X43921000Y-97111000D01*
G75*
G02*
X43721000Y-96911000I0J200000D01*
G01*
X43721000Y-96511000D01*
G75*
G02*
X43921000Y-96311000I200000J0D01*
G01*
X44471000Y-96311000D01*
G75*
G02*
X44671000Y-96511000I0J-200000D01*
G01*
X44671000Y-96911000D01*
G75*
G02*
X44471000Y-97111000I-200000J0D01*
G01*
G37*
G36*
G01*
X44471000Y-98761000D02*
X43921000Y-98761000D01*
G75*
G02*
X43721000Y-98561000I0J200000D01*
G01*
X43721000Y-98161000D01*
G75*
G02*
X43921000Y-97961000I200000J0D01*
G01*
X44471000Y-97961000D01*
G75*
G02*
X44671000Y-98161000I0J-200000D01*
G01*
X44671000Y-98561000D01*
G75*
G02*
X44471000Y-98761000I-200000J0D01*
G01*
G37*
G36*
G01*
X42947000Y-97111000D02*
X42397000Y-97111000D01*
G75*
G02*
X42197000Y-96911000I0J200000D01*
G01*
X42197000Y-96511000D01*
G75*
G02*
X42397000Y-96311000I200000J0D01*
G01*
X42947000Y-96311000D01*
G75*
G02*
X43147000Y-96511000I0J-200000D01*
G01*
X43147000Y-96911000D01*
G75*
G02*
X42947000Y-97111000I-200000J0D01*
G01*
G37*
G36*
G01*
X42947000Y-98761000D02*
X42397000Y-98761000D01*
G75*
G02*
X42197000Y-98561000I0J200000D01*
G01*
X42197000Y-98161000D01*
G75*
G02*
X42397000Y-97961000I200000J0D01*
G01*
X42947000Y-97961000D01*
G75*
G02*
X43147000Y-98161000I0J-200000D01*
G01*
X43147000Y-98561000D01*
G75*
G02*
X42947000Y-98761000I-200000J0D01*
G01*
G37*
G36*
G01*
X46969000Y-97961000D02*
X47519000Y-97961000D01*
G75*
G02*
X47719000Y-98161000I0J-200000D01*
G01*
X47719000Y-98561000D01*
G75*
G02*
X47519000Y-98761000I-200000J0D01*
G01*
X46969000Y-98761000D01*
G75*
G02*
X46769000Y-98561000I0J200000D01*
G01*
X46769000Y-98161000D01*
G75*
G02*
X46969000Y-97961000I200000J0D01*
G01*
G37*
G36*
G01*
X46969000Y-96311000D02*
X47519000Y-96311000D01*
G75*
G02*
X47719000Y-96511000I0J-200000D01*
G01*
X47719000Y-96911000D01*
G75*
G02*
X47519000Y-97111000I-200000J0D01*
G01*
X46969000Y-97111000D01*
G75*
G02*
X46769000Y-96911000I0J200000D01*
G01*
X46769000Y-96511000D01*
G75*
G02*
X46969000Y-96311000I200000J0D01*
G01*
G37*
G36*
G01*
X45445000Y-97961000D02*
X45995000Y-97961000D01*
G75*
G02*
X46195000Y-98161000I0J-200000D01*
G01*
X46195000Y-98561000D01*
G75*
G02*
X45995000Y-98761000I-200000J0D01*
G01*
X45445000Y-98761000D01*
G75*
G02*
X45245000Y-98561000I0J200000D01*
G01*
X45245000Y-98161000D01*
G75*
G02*
X45445000Y-97961000I200000J0D01*
G01*
G37*
G36*
G01*
X45445000Y-96311000D02*
X45995000Y-96311000D01*
G75*
G02*
X46195000Y-96511000I0J-200000D01*
G01*
X46195000Y-96911000D01*
G75*
G02*
X45995000Y-97111000I-200000J0D01*
G01*
X45445000Y-97111000D01*
G75*
G02*
X45245000Y-96911000I0J200000D01*
G01*
X45245000Y-96511000D01*
G75*
G02*
X45445000Y-96311000I200000J0D01*
G01*
G37*
G36*
G01*
X41423000Y-97111000D02*
X40873000Y-97111000D01*
G75*
G02*
X40673000Y-96911000I0J200000D01*
G01*
X40673000Y-96511000D01*
G75*
G02*
X40873000Y-96311000I200000J0D01*
G01*
X41423000Y-96311000D01*
G75*
G02*
X41623000Y-96511000I0J-200000D01*
G01*
X41623000Y-96911000D01*
G75*
G02*
X41423000Y-97111000I-200000J0D01*
G01*
G37*
G36*
G01*
X41423000Y-98761000D02*
X40873000Y-98761000D01*
G75*
G02*
X40673000Y-98561000I0J200000D01*
G01*
X40673000Y-98161000D01*
G75*
G02*
X40873000Y-97961000I200000J0D01*
G01*
X41423000Y-97961000D01*
G75*
G02*
X41623000Y-98161000I0J-200000D01*
G01*
X41623000Y-98561000D01*
G75*
G02*
X41423000Y-98761000I-200000J0D01*
G01*
G37*
G36*
G01*
X42160000Y-126929000D02*
X41660000Y-126929000D01*
G75*
G02*
X41435000Y-126704000I0J225000D01*
G01*
X41435000Y-126254000D01*
G75*
G02*
X41660000Y-126029000I225000J0D01*
G01*
X42160000Y-126029000D01*
G75*
G02*
X42385000Y-126254000I0J-225000D01*
G01*
X42385000Y-126704000D01*
G75*
G02*
X42160000Y-126929000I-225000J0D01*
G01*
G37*
G36*
G01*
X42160000Y-128479000D02*
X41660000Y-128479000D01*
G75*
G02*
X41435000Y-128254000I0J225000D01*
G01*
X41435000Y-127804000D01*
G75*
G02*
X41660000Y-127579000I225000J0D01*
G01*
X42160000Y-127579000D01*
G75*
G02*
X42385000Y-127804000I0J-225000D01*
G01*
X42385000Y-128254000D01*
G75*
G02*
X42160000Y-128479000I-225000J0D01*
G01*
G37*
G36*
G01*
X45890000Y-127054000D02*
X45550000Y-127054000D01*
G75*
G02*
X45410000Y-126914000I0J140000D01*
G01*
X45410000Y-126634000D01*
G75*
G02*
X45550000Y-126494000I140000J0D01*
G01*
X45890000Y-126494000D01*
G75*
G02*
X46030000Y-126634000I0J-140000D01*
G01*
X46030000Y-126914000D01*
G75*
G02*
X45890000Y-127054000I-140000J0D01*
G01*
G37*
G36*
G01*
X45890000Y-128014000D02*
X45550000Y-128014000D01*
G75*
G02*
X45410000Y-127874000I0J140000D01*
G01*
X45410000Y-127594000D01*
G75*
G02*
X45550000Y-127454000I140000J0D01*
G01*
X45890000Y-127454000D01*
G75*
G02*
X46030000Y-127594000I0J-140000D01*
G01*
X46030000Y-127874000D01*
G75*
G02*
X45890000Y-128014000I-140000J0D01*
G01*
G37*
G36*
G01*
X47240000Y-126929000D02*
X46740000Y-126929000D01*
G75*
G02*
X46515000Y-126704000I0J225000D01*
G01*
X46515000Y-126254000D01*
G75*
G02*
X46740000Y-126029000I225000J0D01*
G01*
X47240000Y-126029000D01*
G75*
G02*
X47465000Y-126254000I0J-225000D01*
G01*
X47465000Y-126704000D01*
G75*
G02*
X47240000Y-126929000I-225000J0D01*
G01*
G37*
G36*
G01*
X47240000Y-128479000D02*
X46740000Y-128479000D01*
G75*
G02*
X46515000Y-128254000I0J225000D01*
G01*
X46515000Y-127804000D01*
G75*
G02*
X46740000Y-127579000I225000J0D01*
G01*
X47240000Y-127579000D01*
G75*
G02*
X47465000Y-127804000I0J-225000D01*
G01*
X47465000Y-128254000D01*
G75*
G02*
X47240000Y-128479000I-225000J0D01*
G01*
G37*
G36*
G01*
X40810001Y-127054000D02*
X40470001Y-127054000D01*
G75*
G02*
X40330001Y-126914000I0J140000D01*
G01*
X40330001Y-126634000D01*
G75*
G02*
X40470001Y-126494000I140000J0D01*
G01*
X40810001Y-126494000D01*
G75*
G02*
X40950001Y-126634000I0J-140000D01*
G01*
X40950001Y-126914000D01*
G75*
G02*
X40810001Y-127054000I-140000J0D01*
G01*
G37*
G36*
G01*
X40810001Y-128014000D02*
X40470001Y-128014000D01*
G75*
G02*
X40330001Y-127874000I0J140000D01*
G01*
X40330001Y-127594000D01*
G75*
G02*
X40470001Y-127454000I140000J0D01*
G01*
X40810001Y-127454000D01*
G75*
G02*
X40950001Y-127594000I0J-140000D01*
G01*
X40950001Y-127874000D01*
G75*
G02*
X40810001Y-128014000I-140000J0D01*
G01*
G37*
G36*
G01*
X44700000Y-126928999D02*
X44200000Y-126928999D01*
G75*
G02*
X43975000Y-126703999I0J225000D01*
G01*
X43975000Y-126253999D01*
G75*
G02*
X44200000Y-126028999I225000J0D01*
G01*
X44700000Y-126028999D01*
G75*
G02*
X44925000Y-126253999I0J-225000D01*
G01*
X44925000Y-126703999D01*
G75*
G02*
X44700000Y-126928999I-225000J0D01*
G01*
G37*
G36*
G01*
X44700000Y-128478999D02*
X44200000Y-128478999D01*
G75*
G02*
X43975000Y-128253999I0J225000D01*
G01*
X43975000Y-127803999D01*
G75*
G02*
X44200000Y-127578999I225000J0D01*
G01*
X44700000Y-127578999D01*
G75*
G02*
X44925000Y-127803999I0J-225000D01*
G01*
X44925000Y-128253999D01*
G75*
G02*
X44700000Y-128478999I-225000J0D01*
G01*
G37*
G36*
G01*
X43350000Y-127054000D02*
X43010000Y-127054000D01*
G75*
G02*
X42870000Y-126914000I0J140000D01*
G01*
X42870000Y-126634000D01*
G75*
G02*
X43010000Y-126494000I140000J0D01*
G01*
X43350000Y-126494000D01*
G75*
G02*
X43490000Y-126634000I0J-140000D01*
G01*
X43490000Y-126914000D01*
G75*
G02*
X43350000Y-127054000I-140000J0D01*
G01*
G37*
G36*
G01*
X43350000Y-128014000D02*
X43010000Y-128014000D01*
G75*
G02*
X42870000Y-127874000I0J140000D01*
G01*
X42870000Y-127594000D01*
G75*
G02*
X43010000Y-127454000I140000J0D01*
G01*
X43350000Y-127454000D01*
G75*
G02*
X43490000Y-127594000I0J-140000D01*
G01*
X43490000Y-127874000D01*
G75*
G02*
X43350000Y-128014000I-140000J0D01*
G01*
G37*
G36*
G01*
X39620000Y-126929000D02*
X39120000Y-126929000D01*
G75*
G02*
X38895000Y-126704000I0J225000D01*
G01*
X38895000Y-126254000D01*
G75*
G02*
X39120000Y-126029000I225000J0D01*
G01*
X39620000Y-126029000D01*
G75*
G02*
X39845000Y-126254000I0J-225000D01*
G01*
X39845000Y-126704000D01*
G75*
G02*
X39620000Y-126929000I-225000J0D01*
G01*
G37*
G36*
G01*
X39620000Y-128479000D02*
X39120000Y-128479000D01*
G75*
G02*
X38895000Y-128254000I0J225000D01*
G01*
X38895000Y-127804000D01*
G75*
G02*
X39120000Y-127579000I225000J0D01*
G01*
X39620000Y-127579000D01*
G75*
G02*
X39845000Y-127804000I0J-225000D01*
G01*
X39845000Y-128254000D01*
G75*
G02*
X39620000Y-128479000I-225000J0D01*
G01*
G37*
D10*
X136020000Y-29412000D03*
X133220000Y-29412000D03*
D11*
X135870000Y-33612000D03*
X135370000Y-33612000D03*
X134870000Y-33612000D03*
X134370000Y-33612000D03*
X133870000Y-33612000D03*
X133370000Y-33612000D03*
X136370000Y-33612000D03*
X132870000Y-33612000D03*
D12*
X136970000Y-33612000D03*
X132270000Y-33612000D03*
X137720000Y-33612000D03*
X131520000Y-33612000D03*
G36*
G01*
X133117000Y-36151000D02*
X132567000Y-36151000D01*
G75*
G02*
X132367000Y-35951000I0J200000D01*
G01*
X132367000Y-35551000D01*
G75*
G02*
X132567000Y-35351000I200000J0D01*
G01*
X133117000Y-35351000D01*
G75*
G02*
X133317000Y-35551000I0J-200000D01*
G01*
X133317000Y-35951000D01*
G75*
G02*
X133117000Y-36151000I-200000J0D01*
G01*
G37*
G36*
G01*
X133117000Y-37801000D02*
X132567000Y-37801000D01*
G75*
G02*
X132367000Y-37601000I0J200000D01*
G01*
X132367000Y-37201000D01*
G75*
G02*
X132567000Y-37001000I200000J0D01*
G01*
X133117000Y-37001000D01*
G75*
G02*
X133317000Y-37201000I0J-200000D01*
G01*
X133317000Y-37601000D01*
G75*
G02*
X133117000Y-37801000I-200000J0D01*
G01*
G37*
G36*
G01*
X136673000Y-36151000D02*
X136123000Y-36151000D01*
G75*
G02*
X135923000Y-35951000I0J200000D01*
G01*
X135923000Y-35551000D01*
G75*
G02*
X136123000Y-35351000I200000J0D01*
G01*
X136673000Y-35351000D01*
G75*
G02*
X136873000Y-35551000I0J-200000D01*
G01*
X136873000Y-35951000D01*
G75*
G02*
X136673000Y-36151000I-200000J0D01*
G01*
G37*
G36*
G01*
X136673000Y-37801000D02*
X136123000Y-37801000D01*
G75*
G02*
X135923000Y-37601000I0J200000D01*
G01*
X135923000Y-37201000D01*
G75*
G02*
X136123000Y-37001000I200000J0D01*
G01*
X136673000Y-37001000D01*
G75*
G02*
X136873000Y-37201000I0J-200000D01*
G01*
X136873000Y-37601000D01*
G75*
G02*
X136673000Y-37801000I-200000J0D01*
G01*
G37*
D13*
X55815000Y-46355000D03*
X57215000Y-46355000D03*
X55815000Y-66675000D03*
X57215000Y-66675000D03*
X55815000Y-86995000D03*
X57215000Y-86995000D03*
X55815000Y-107315000D03*
X57215000Y-107315000D03*
X55815000Y-127635000D03*
X57215000Y-127635000D03*
X76135000Y-46355000D03*
X77535000Y-46355000D03*
X76135000Y-66675000D03*
X77535000Y-66675000D03*
X76135000Y-86995000D03*
X77535000Y-86995000D03*
X76135000Y-107315000D03*
X77535000Y-107315000D03*
X76135000Y-127635000D03*
X77535000Y-127635000D03*
X96455000Y-46355000D03*
X97855000Y-46355000D03*
X96455000Y-66675000D03*
X97855000Y-66675000D03*
X96455000Y-86995000D03*
X97855000Y-86995000D03*
X96455000Y-107315000D03*
X97855000Y-107315000D03*
X96455000Y-127635000D03*
X97855000Y-127635000D03*
X116775000Y-46355000D03*
X118175000Y-46355000D03*
X116775000Y-66675000D03*
X118175000Y-66675000D03*
X116775000Y-86995000D03*
X118175000Y-86995000D03*
X116775000Y-107315000D03*
X118175000Y-107315000D03*
X116775000Y-127635000D03*
X118175000Y-127635000D03*
X137095000Y-46355000D03*
X138495000Y-46355000D03*
X137095000Y-66675000D03*
X138495000Y-66675000D03*
X137095000Y-86995000D03*
X138495000Y-86995000D03*
X137095000Y-107315000D03*
X138495000Y-107315000D03*
X137095000Y-127635000D03*
X138495000Y-127635000D03*
M02*
