%TF.GenerationSoftware,KiCad,Pcbnew,(5.1.8)-1*%
%TF.CreationDate,2020-12-04T18:20:35-08:00*%
%TF.ProjectId,DeskTopVolKnob_Keypad,4465736b-546f-4705-966f-6c4b6e6f625f,rev?*%
%TF.SameCoordinates,Original*%
%TF.FileFunction,Paste,Bot*%
%TF.FilePolarity,Positive*%
%FSLAX46Y46*%
G04 Gerber Fmt 4.6, Leading zero omitted, Abs format (unit mm)*
G04 Created by KiCad (PCBNEW (5.1.8)-1) date 2020-12-04 18:20:35*
%MOMM*%
%LPD*%
G01*
G04 APERTURE LIST*
%ADD10R,1.000000X2.000000*%
%ADD11R,0.270000X1.000000*%
%ADD12R,0.520000X1.000000*%
%ADD13R,0.600000X0.700000*%
G04 APERTURE END LIST*
D10*
%TO.C,J1*%
X136020000Y-29412000D03*
X133220000Y-29412000D03*
D11*
X135870000Y-33612000D03*
X135370000Y-33612000D03*
X134870000Y-33612000D03*
X134370000Y-33612000D03*
X133870000Y-33612000D03*
X133370000Y-33612000D03*
X136370000Y-33612000D03*
X132870000Y-33612000D03*
D12*
X136970000Y-33612000D03*
X132270000Y-33612000D03*
X137720000Y-33612000D03*
X131520000Y-33612000D03*
%TD*%
%TO.C,R2*%
G36*
G01*
X133117000Y-36151000D02*
X132567000Y-36151000D01*
G75*
G02*
X132367000Y-35951000I0J200000D01*
G01*
X132367000Y-35551000D01*
G75*
G02*
X132567000Y-35351000I200000J0D01*
G01*
X133117000Y-35351000D01*
G75*
G02*
X133317000Y-35551000I0J-200000D01*
G01*
X133317000Y-35951000D01*
G75*
G02*
X133117000Y-36151000I-200000J0D01*
G01*
G37*
G36*
G01*
X133117000Y-37801000D02*
X132567000Y-37801000D01*
G75*
G02*
X132367000Y-37601000I0J200000D01*
G01*
X132367000Y-37201000D01*
G75*
G02*
X132567000Y-37001000I200000J0D01*
G01*
X133117000Y-37001000D01*
G75*
G02*
X133317000Y-37201000I0J-200000D01*
G01*
X133317000Y-37601000D01*
G75*
G02*
X133117000Y-37801000I-200000J0D01*
G01*
G37*
%TD*%
%TO.C,R1*%
G36*
G01*
X136673000Y-36151000D02*
X136123000Y-36151000D01*
G75*
G02*
X135923000Y-35951000I0J200000D01*
G01*
X135923000Y-35551000D01*
G75*
G02*
X136123000Y-35351000I200000J0D01*
G01*
X136673000Y-35351000D01*
G75*
G02*
X136873000Y-35551000I0J-200000D01*
G01*
X136873000Y-35951000D01*
G75*
G02*
X136673000Y-36151000I-200000J0D01*
G01*
G37*
G36*
G01*
X136673000Y-37801000D02*
X136123000Y-37801000D01*
G75*
G02*
X135923000Y-37601000I0J200000D01*
G01*
X135923000Y-37201000D01*
G75*
G02*
X136123000Y-37001000I200000J0D01*
G01*
X136673000Y-37001000D01*
G75*
G02*
X136873000Y-37201000I0J-200000D01*
G01*
X136873000Y-37601000D01*
G75*
G02*
X136673000Y-37801000I-200000J0D01*
G01*
G37*
%TD*%
D13*
%TO.C,D25*%
X55815000Y-46355000D03*
X57215000Y-46355000D03*
%TD*%
%TO.C,D24*%
X55815000Y-66675000D03*
X57215000Y-66675000D03*
%TD*%
%TO.C,D23*%
X55815000Y-86995000D03*
X57215000Y-86995000D03*
%TD*%
%TO.C,D22*%
X55815000Y-107315000D03*
X57215000Y-107315000D03*
%TD*%
%TO.C,D21*%
X55815000Y-127635000D03*
X57215000Y-127635000D03*
%TD*%
%TO.C,D20*%
X76135000Y-46355000D03*
X77535000Y-46355000D03*
%TD*%
%TO.C,D19*%
X76135000Y-66675000D03*
X77535000Y-66675000D03*
%TD*%
%TO.C,D18*%
X76135000Y-86995000D03*
X77535000Y-86995000D03*
%TD*%
%TO.C,D17*%
X76135000Y-107315000D03*
X77535000Y-107315000D03*
%TD*%
%TO.C,D16*%
X76135000Y-127635000D03*
X77535000Y-127635000D03*
%TD*%
%TO.C,D15*%
X96455000Y-46355000D03*
X97855000Y-46355000D03*
%TD*%
%TO.C,D14*%
X96455000Y-66675000D03*
X97855000Y-66675000D03*
%TD*%
%TO.C,D13*%
X96455000Y-86995000D03*
X97855000Y-86995000D03*
%TD*%
%TO.C,D12*%
X96455000Y-107315000D03*
X97855000Y-107315000D03*
%TD*%
%TO.C,D11*%
X96455000Y-127635000D03*
X97855000Y-127635000D03*
%TD*%
%TO.C,D10*%
X116775000Y-46355000D03*
X118175000Y-46355000D03*
%TD*%
%TO.C,D9*%
X116775000Y-66675000D03*
X118175000Y-66675000D03*
%TD*%
%TO.C,D8*%
X116775000Y-86995000D03*
X118175000Y-86995000D03*
%TD*%
%TO.C,D7*%
X116775000Y-107315000D03*
X118175000Y-107315000D03*
%TD*%
%TO.C,D6*%
X116775000Y-127635000D03*
X118175000Y-127635000D03*
%TD*%
%TO.C,D5*%
X137095000Y-46355000D03*
X138495000Y-46355000D03*
%TD*%
%TO.C,D4*%
X137095000Y-66675000D03*
X138495000Y-66675000D03*
%TD*%
%TO.C,D3*%
X137095000Y-86995000D03*
X138495000Y-86995000D03*
%TD*%
%TO.C,D2*%
X137095000Y-107315000D03*
X138495000Y-107315000D03*
%TD*%
%TO.C,D1*%
X137095000Y-127635000D03*
X138495000Y-127635000D03*
%TD*%
M02*
