M48
; DRILL file {KiCad (5.1.8)-1} date 12/04/20 18:20:38
; FORMAT={-:-/ absolute / inch / decimal}
; #@! TF.CreationDate,2020-12-04T18:20:38-08:00
; #@! TF.GenerationSoftware,Kicad,Pcbnew,(5.1.8)-1
; #@! TF.FileFunction,Plated,1,2,PTH
FMAT,2
INCH
T1C0.0157
T2C0.0197
T3C0.0256
T4C0.0394
T5C0.0591
T6C0.0787
T7C0.0984
%
G90
G05
T1
X1.49Y-1.8
X1.51Y-1.4
X1.55Y-2.28
X1.56Y-3.23
X1.57Y-1.96
X1.62Y-2.54
X1.68Y-1.93
X1.68Y-1.98
X1.71Y-1.46
X1.7252Y-1.9848
X1.73Y-1.24
X1.74Y-1.15
X1.76Y-1.54
X1.78Y-1.95
X1.78Y-2.08
X1.79Y-1.57
X1.81Y-1.67
X1.84Y-2.89
X1.88Y-2.16
X1.88Y-2.34
X1.96Y-1.57
X1.99Y-1.66
X2.02Y-2.36
X2.02Y-2.42
X2.02Y-2.62
X2.04Y-2.88
X2.05Y-3.39
X2.06Y-1.2
X2.06Y-2.06
X2.1Y-1.2937
X2.1Y-1.19
X2.13Y-1.9
X2.18Y-1.35
X2.2168Y-1.276
X2.2171Y-1.7283
X2.3124Y-1.8631
X2.42Y-1.3
X2.42Y-2.1
X2.42Y-2.88
X2.42Y-3.7
X2.42Y-4.5
X2.5Y-1.18
X2.52Y-1.98
X2.52Y-2.78
X2.52Y-4.38
X2.56Y-3.58
X2.67Y-4.96
X2.97Y-1.746
X3.22Y-1.3
X3.22Y-2.1
X3.22Y-2.9
X3.22Y-3.7
X3.22Y-4.5
X3.3Y-1.18
X3.3Y-1.98
X3.3Y-2.78
X3.3Y-3.58
X3.3Y-4.38
X3.56Y-4.97
X3.72Y-1.7637
X4.02Y-1.3
X4.02Y-2.1
X4.02Y-2.9
X4.02Y-3.7
X4.02Y-4.5
X4.1Y-1.18
X4.1Y-1.98
X4.1Y-2.78
X4.1Y-3.58
X4.1Y-4.38
X4.34Y-5.03
X4.58Y-1.78
X4.82Y-1.3
X4.82Y-2.1
X4.82Y-2.9
X4.82Y-3.7
X4.82Y-4.5
X4.9Y-1.18
X4.9Y-1.98
X4.9Y-2.78
X4.9Y-3.58
X4.9Y-4.38
X5.01Y-1.16
X5.11Y-5.0
X5.17Y-1.68
X5.24Y-1.28
X5.25Y-1.68
X5.29Y-1.806
X5.36Y-1.28
X5.37Y-1.65
X5.39Y-1.7
X5.55Y-1.17
X5.62Y-1.3
X5.62Y-2.1
X5.62Y-2.9
X5.62Y-3.7
X5.62Y-4.5
X5.7Y-1.18
X5.7Y-1.98
X5.7Y-2.78
X5.7Y-3.58
X5.7Y-4.38
X5.9Y-4.99
X5.95Y-2.76
X5.96Y-1.23
X5.96Y-3.53
X5.97Y-1.94
T2
X5.2262Y-4.68
X5.2478Y-4.6278
X5.2478Y-4.7322
X5.3Y-4.6062
X5.3Y-4.7538
X5.3522Y-4.6278
X5.3522Y-4.7322
X5.3738Y-4.68
X1.7462Y-4.7
X1.7678Y-4.6478
X1.7678Y-4.7522
X1.82Y-4.6262
X1.82Y-4.7738
X1.8722Y-4.6478
X1.8722Y-4.7522
X1.8938Y-4.7
X2.8262Y-4.68
X2.8478Y-4.6278
X2.8478Y-4.7322
X2.9Y-4.6062
X2.9Y-4.7538
X2.9522Y-4.6278
X2.9522Y-4.7322
X2.9738Y-4.68
X5.2262Y-2.27
X5.2478Y-2.2178
X5.2478Y-2.3222
X5.3Y-2.1962
X5.3Y-2.3438
X5.3522Y-2.2178
X5.3522Y-2.3222
X5.3738Y-2.27
X2.8262Y-2.27
X2.8478Y-2.2178
X2.8478Y-2.3222
X2.9Y-2.1962
X2.9Y-2.3438
X2.9522Y-2.2178
X2.9522Y-2.3222
X2.9738Y-2.27
X4.4262Y-3.08
X4.4478Y-3.0278
X4.4478Y-3.1322
X4.5Y-3.0062
X4.5Y-3.1538
X4.5522Y-3.0278
X4.5522Y-3.1322
X4.5738Y-3.08
T4
X1.7216Y-2.44
X1.7216Y-3.0109
X1.82Y-2.44
X1.9184Y-2.44
X1.9184Y-3.0109
T5
X4.8Y-3.3
X5.05Y-3.2
X3.2Y-4.1
X3.45Y-4.0
X2.4Y-3.3
X2.65Y-3.2
X3.2Y-4.9
X3.45Y-4.8
X3.2Y-3.3
X3.45Y-3.2
X2.4Y-1.7
X2.65Y-1.6
X5.6Y-4.1
X5.85Y-4.0
X5.6Y-2.5
X5.85Y-2.4
X4.8Y-2.5
X5.05Y-2.4
X3.2Y-2.5
X3.45Y-2.4
X5.6Y-3.3
X5.85Y-3.2
X4.0Y-2.5
X4.25Y-2.4
X4.8Y-1.7
X5.05Y-1.6
X2.4Y-4.1
X2.65Y-4.0
X5.6Y-1.7
X5.85Y-1.6
X3.2Y-1.7
X3.45Y-1.6
X4.8Y-4.9
X5.05Y-4.8
X4.0Y-4.9
X4.25Y-4.8
X5.6Y-4.9
X5.85Y-4.8
X4.0Y-4.1
X4.25Y-4.0
X4.0Y-3.3
X4.25Y-3.2
X4.8Y-4.1
X5.05Y-4.0
X4.0Y-1.7
X4.25Y-1.6
X2.4Y-4.9
X2.65Y-4.8
X2.4Y-2.5
X2.65Y-2.4
T7
X5.3Y-4.68
X1.82Y-4.7
X2.9Y-4.68
X5.3Y-2.27
X2.9Y-2.27
X4.5Y-3.08
T3
G00X5.1299Y-1.1324
M15
G01X5.1299Y-1.1835
M16
G05
G00X5.1299Y-1.2889
M15
G01X5.1299Y-1.3282
M16
G05
G00X5.4701Y-1.1324
M15
G01X5.4701Y-1.1835
M16
G05
G00X5.4701Y-1.2889
M15
G01X5.4701Y-1.3282
M16
G05
T6
G00X1.5995Y-2.7254
M15
G01X1.5995Y-2.7451
M16
G05
G00X2.0405Y-2.7254
M15
G01X2.0405Y-2.7451
M16
G05
T0
M30
