%TF.GenerationSoftware,KiCad,Pcbnew,(5.1.8)-1*%
%TF.CreationDate,2020-12-04T18:20:35-08:00*%
%TF.ProjectId,DeskTopVolKnob_Keypad,4465736b-546f-4705-966f-6c4b6e6f625f,rev?*%
%TF.SameCoordinates,Original*%
%TF.FileFunction,Soldermask,Top*%
%TF.FilePolarity,Negative*%
%FSLAX46Y46*%
G04 Gerber Fmt 4.6, Leading zero omitted, Abs format (unit mm)*
G04 Created by KiCad (PCBNEW (5.1.8)-1) date 2020-12-04 18:20:35*
%MOMM*%
%LPD*%
G01*
G04 APERTURE LIST*
%ADD10C,0.800000*%
%ADD11C,5.000000*%
%ADD12O,1.200000X2.400000*%
%ADD13O,1.158000X2.316000*%
%ADD14C,0.630000*%
%ADD15C,0.600000*%
%ADD16C,1.700000*%
%ADD17C,4.000000*%
%ADD18C,2.200000*%
%ADD19R,1.300000X1.550000*%
%ADD20C,0.100000*%
%ADD21R,1.500000X0.550000*%
%ADD22R,0.550000X1.500000*%
%ADD23R,2.000000X2.000000*%
%ADD24C,2.000000*%
%ADD25R,2.500000X3.000000*%
%ADD26R,0.500000X1.480000*%
%ADD27R,0.500000X1.000000*%
%ADD28R,0.800000X0.500000*%
%ADD29R,0.800000X0.300000*%
G04 APERTURE END LIST*
D10*
%TO.C,REF\u002A\u002A*%
X47553825Y-118054175D03*
X46228000Y-117505000D03*
X44902175Y-118054175D03*
X44353000Y-119380000D03*
X44902175Y-120705825D03*
X46228000Y-121255000D03*
X47553825Y-120705825D03*
X48103000Y-119380000D03*
D11*
X46228000Y-119380000D03*
%TD*%
D10*
%TO.C,REF\u002A\u002A*%
X115625825Y-76906175D03*
X114300000Y-76357000D03*
X112974175Y-76906175D03*
X112425000Y-78232000D03*
X112974175Y-79557825D03*
X114300000Y-80107000D03*
X115625825Y-79557825D03*
X116175000Y-78232000D03*
D11*
X114300000Y-78232000D03*
%TD*%
D10*
%TO.C,REF\u002A\u002A*%
X74985825Y-117546175D03*
X73660000Y-116997000D03*
X72334175Y-117546175D03*
X71785000Y-118872000D03*
X72334175Y-120197825D03*
X73660000Y-120747000D03*
X74985825Y-120197825D03*
X75535000Y-118872000D03*
D11*
X73660000Y-118872000D03*
%TD*%
D10*
%TO.C,REF\u002A\u002A*%
X135945825Y-117546175D03*
X134620000Y-116997000D03*
X133294175Y-117546175D03*
X132745000Y-118872000D03*
X133294175Y-120197825D03*
X134620000Y-120747000D03*
X135945825Y-120197825D03*
X136495000Y-118872000D03*
D11*
X134620000Y-118872000D03*
%TD*%
D10*
%TO.C,REF\u002A\u002A*%
X135945825Y-56332175D03*
X134620000Y-55783000D03*
X133294175Y-56332175D03*
X132745000Y-57658000D03*
X133294175Y-58983825D03*
X134620000Y-59533000D03*
X135945825Y-58983825D03*
X136495000Y-57658000D03*
D11*
X134620000Y-57658000D03*
%TD*%
D10*
%TO.C,REF\u002A\u002A*%
X74985825Y-56332175D03*
X73660000Y-55783000D03*
X72334175Y-56332175D03*
X71785000Y-57658000D03*
X72334175Y-58983825D03*
X73660000Y-59533000D03*
X74985825Y-58983825D03*
X75535000Y-57658000D03*
D11*
X73660000Y-57658000D03*
%TD*%
D12*
%TO.C,J1*%
X138940000Y-29412000D03*
X130300000Y-29412000D03*
D13*
X138940000Y-33237000D03*
X130300000Y-33237000D03*
D14*
X131620000Y-32512000D03*
X137620000Y-32512000D03*
D15*
X137620000Y-32512000D03*
%TD*%
D16*
%TO.C,SW11*%
X119380000Y-38100000D03*
X129540000Y-38100000D03*
D17*
X124460000Y-38100000D03*
D18*
X128270000Y-40640000D03*
X121920000Y-43180000D03*
%TD*%
%TO.C,R11*%
G36*
G01*
X39137000Y-38183000D02*
X38587000Y-38183000D01*
G75*
G02*
X38387000Y-37983000I0J200000D01*
G01*
X38387000Y-37583000D01*
G75*
G02*
X38587000Y-37383000I200000J0D01*
G01*
X39137000Y-37383000D01*
G75*
G02*
X39337000Y-37583000I0J-200000D01*
G01*
X39337000Y-37983000D01*
G75*
G02*
X39137000Y-38183000I-200000J0D01*
G01*
G37*
G36*
G01*
X39137000Y-39833000D02*
X38587000Y-39833000D01*
G75*
G02*
X38387000Y-39633000I0J200000D01*
G01*
X38387000Y-39233000D01*
G75*
G02*
X38587000Y-39033000I200000J0D01*
G01*
X39137000Y-39033000D01*
G75*
G02*
X39337000Y-39233000I0J-200000D01*
G01*
X39337000Y-39633000D01*
G75*
G02*
X39137000Y-39833000I-200000J0D01*
G01*
G37*
%TD*%
D19*
%TO.C,SW27*%
X48478000Y-82893000D03*
X48478000Y-90843000D03*
X43978000Y-82893000D03*
X43978000Y-90843000D03*
%TD*%
%TO.C,R10*%
G36*
G01*
X49255500Y-78719000D02*
X49255500Y-79269000D01*
G75*
G02*
X49055500Y-79469000I-200000J0D01*
G01*
X48655500Y-79469000D01*
G75*
G02*
X48455500Y-79269000I0J200000D01*
G01*
X48455500Y-78719000D01*
G75*
G02*
X48655500Y-78519000I200000J0D01*
G01*
X49055500Y-78519000D01*
G75*
G02*
X49255500Y-78719000I0J-200000D01*
G01*
G37*
G36*
G01*
X50905500Y-78719000D02*
X50905500Y-79269000D01*
G75*
G02*
X50705500Y-79469000I-200000J0D01*
G01*
X50305500Y-79469000D01*
G75*
G02*
X50105500Y-79269000I0J200000D01*
G01*
X50105500Y-78719000D01*
G75*
G02*
X50305500Y-78519000I200000J0D01*
G01*
X50705500Y-78519000D01*
G75*
G02*
X50905500Y-78719000I0J-200000D01*
G01*
G37*
%TD*%
%TO.C,R9*%
G36*
G01*
X42247000Y-58145000D02*
X42247000Y-58695000D01*
G75*
G02*
X42047000Y-58895000I-200000J0D01*
G01*
X41647000Y-58895000D01*
G75*
G02*
X41447000Y-58695000I0J200000D01*
G01*
X41447000Y-58145000D01*
G75*
G02*
X41647000Y-57945000I200000J0D01*
G01*
X42047000Y-57945000D01*
G75*
G02*
X42247000Y-58145000I0J-200000D01*
G01*
G37*
G36*
G01*
X43897000Y-58145000D02*
X43897000Y-58695000D01*
G75*
G02*
X43697000Y-58895000I-200000J0D01*
G01*
X43297000Y-58895000D01*
G75*
G02*
X43097000Y-58695000I0J200000D01*
G01*
X43097000Y-58145000D01*
G75*
G02*
X43297000Y-57945000I200000J0D01*
G01*
X43697000Y-57945000D01*
G75*
G02*
X43897000Y-58145000I0J-200000D01*
G01*
G37*
%TD*%
%TO.C,R8*%
G36*
G01*
X49255500Y-58145000D02*
X49255500Y-58695000D01*
G75*
G02*
X49055500Y-58895000I-200000J0D01*
G01*
X48655500Y-58895000D01*
G75*
G02*
X48455500Y-58695000I0J200000D01*
G01*
X48455500Y-58145000D01*
G75*
G02*
X48655500Y-57945000I200000J0D01*
G01*
X49055500Y-57945000D01*
G75*
G02*
X49255500Y-58145000I0J-200000D01*
G01*
G37*
G36*
G01*
X50905500Y-58145000D02*
X50905500Y-58695000D01*
G75*
G02*
X50705500Y-58895000I-200000J0D01*
G01*
X50305500Y-58895000D01*
G75*
G02*
X50105500Y-58695000I0J200000D01*
G01*
X50105500Y-58145000D01*
G75*
G02*
X50305500Y-57945000I200000J0D01*
G01*
X50705500Y-57945000D01*
G75*
G02*
X50905500Y-58145000I0J-200000D01*
G01*
G37*
%TD*%
%TO.C,R7*%
G36*
G01*
X42247000Y-78719000D02*
X42247000Y-79269000D01*
G75*
G02*
X42047000Y-79469000I-200000J0D01*
G01*
X41647000Y-79469000D01*
G75*
G02*
X41447000Y-79269000I0J200000D01*
G01*
X41447000Y-78719000D01*
G75*
G02*
X41647000Y-78519000I200000J0D01*
G01*
X42047000Y-78519000D01*
G75*
G02*
X42247000Y-78719000I0J-200000D01*
G01*
G37*
G36*
G01*
X43897000Y-78719000D02*
X43897000Y-79269000D01*
G75*
G02*
X43697000Y-79469000I-200000J0D01*
G01*
X43297000Y-79469000D01*
G75*
G02*
X43097000Y-79269000I0J200000D01*
G01*
X43097000Y-78719000D01*
G75*
G02*
X43297000Y-78519000I200000J0D01*
G01*
X43697000Y-78519000D01*
G75*
G02*
X43897000Y-78719000I0J-200000D01*
G01*
G37*
%TD*%
%TO.C,R6*%
G36*
G01*
X46503000Y-56979000D02*
X45953000Y-56979000D01*
G75*
G02*
X45753000Y-56779000I0J200000D01*
G01*
X45753000Y-56379000D01*
G75*
G02*
X45953000Y-56179000I200000J0D01*
G01*
X46503000Y-56179000D01*
G75*
G02*
X46703000Y-56379000I0J-200000D01*
G01*
X46703000Y-56779000D01*
G75*
G02*
X46503000Y-56979000I-200000J0D01*
G01*
G37*
G36*
G01*
X46503000Y-58629000D02*
X45953000Y-58629000D01*
G75*
G02*
X45753000Y-58429000I0J200000D01*
G01*
X45753000Y-58029000D01*
G75*
G02*
X45953000Y-57829000I200000J0D01*
G01*
X46503000Y-57829000D01*
G75*
G02*
X46703000Y-58029000I0J-200000D01*
G01*
X46703000Y-58429000D01*
G75*
G02*
X46503000Y-58629000I-200000J0D01*
G01*
G37*
%TD*%
%TO.C,R5*%
G36*
G01*
X51391000Y-49001000D02*
X51391000Y-49551000D01*
G75*
G02*
X51191000Y-49751000I-200000J0D01*
G01*
X50791000Y-49751000D01*
G75*
G02*
X50591000Y-49551000I0J200000D01*
G01*
X50591000Y-49001000D01*
G75*
G02*
X50791000Y-48801000I200000J0D01*
G01*
X51191000Y-48801000D01*
G75*
G02*
X51391000Y-49001000I0J-200000D01*
G01*
G37*
G36*
G01*
X53041000Y-49001000D02*
X53041000Y-49551000D01*
G75*
G02*
X52841000Y-49751000I-200000J0D01*
G01*
X52441000Y-49751000D01*
G75*
G02*
X52241000Y-49551000I0J200000D01*
G01*
X52241000Y-49001000D01*
G75*
G02*
X52441000Y-48801000I200000J0D01*
G01*
X52841000Y-48801000D01*
G75*
G02*
X53041000Y-49001000I0J-200000D01*
G01*
G37*
%TD*%
%TO.C,R4*%
G36*
G01*
X49805000Y-30055000D02*
X49255000Y-30055000D01*
G75*
G02*
X49055000Y-29855000I0J200000D01*
G01*
X49055000Y-29455000D01*
G75*
G02*
X49255000Y-29255000I200000J0D01*
G01*
X49805000Y-29255000D01*
G75*
G02*
X50005000Y-29455000I0J-200000D01*
G01*
X50005000Y-29855000D01*
G75*
G02*
X49805000Y-30055000I-200000J0D01*
G01*
G37*
G36*
G01*
X49805000Y-31705000D02*
X49255000Y-31705000D01*
G75*
G02*
X49055000Y-31505000I0J200000D01*
G01*
X49055000Y-31105000D01*
G75*
G02*
X49255000Y-30905000I200000J0D01*
G01*
X49805000Y-30905000D01*
G75*
G02*
X50005000Y-31105000I0J-200000D01*
G01*
X50005000Y-31505000D01*
G75*
G02*
X49805000Y-31705000I-200000J0D01*
G01*
G37*
%TD*%
%TO.C,R3*%
G36*
G01*
X47731000Y-30905000D02*
X48281000Y-30905000D01*
G75*
G02*
X48481000Y-31105000I0J-200000D01*
G01*
X48481000Y-31505000D01*
G75*
G02*
X48281000Y-31705000I-200000J0D01*
G01*
X47731000Y-31705000D01*
G75*
G02*
X47531000Y-31505000I0J200000D01*
G01*
X47531000Y-31105000D01*
G75*
G02*
X47731000Y-30905000I200000J0D01*
G01*
G37*
G36*
G01*
X47731000Y-29255000D02*
X48281000Y-29255000D01*
G75*
G02*
X48481000Y-29455000I0J-200000D01*
G01*
X48481000Y-29855000D01*
G75*
G02*
X48281000Y-30055000I-200000J0D01*
G01*
X47731000Y-30055000D01*
G75*
G02*
X47531000Y-29855000I0J200000D01*
G01*
X47531000Y-29455000D01*
G75*
G02*
X47731000Y-29255000I200000J0D01*
G01*
G37*
%TD*%
D20*
%TO.C,Y1*%
G36*
X40507884Y-53236726D02*
G01*
X39800777Y-53943833D01*
X38987604Y-53130660D01*
X39694711Y-52423553D01*
X40507884Y-53236726D01*
G37*
G36*
X39270447Y-51999289D02*
G01*
X38563340Y-52706396D01*
X37750167Y-51893223D01*
X38457274Y-51186116D01*
X39270447Y-51999289D01*
G37*
G36*
X40260396Y-51009340D02*
G01*
X39553289Y-51716447D01*
X38740116Y-50903274D01*
X39447223Y-50196167D01*
X40260396Y-51009340D01*
G37*
G36*
X41497833Y-52246777D02*
G01*
X40790726Y-52953884D01*
X39977553Y-52140711D01*
X40684660Y-51433604D01*
X41497833Y-52246777D01*
G37*
%TD*%
%TO.C,C8*%
G36*
G01*
X46906000Y-32820000D02*
X46566000Y-32820000D01*
G75*
G02*
X46426000Y-32680000I0J140000D01*
G01*
X46426000Y-32400000D01*
G75*
G02*
X46566000Y-32260000I140000J0D01*
G01*
X46906000Y-32260000D01*
G75*
G02*
X47046000Y-32400000I0J-140000D01*
G01*
X47046000Y-32680000D01*
G75*
G02*
X46906000Y-32820000I-140000J0D01*
G01*
G37*
G36*
G01*
X46906000Y-33780000D02*
X46566000Y-33780000D01*
G75*
G02*
X46426000Y-33640000I0J140000D01*
G01*
X46426000Y-33360000D01*
G75*
G02*
X46566000Y-33220000I140000J0D01*
G01*
X46906000Y-33220000D01*
G75*
G02*
X47046000Y-33360000I0J-140000D01*
G01*
X47046000Y-33640000D01*
G75*
G02*
X46906000Y-33780000I-140000J0D01*
G01*
G37*
%TD*%
%TO.C,C7*%
G36*
G01*
X38078787Y-53332371D02*
X37838371Y-53572787D01*
G75*
G02*
X37640381Y-53572787I-98995J98995D01*
G01*
X37442391Y-53374797D01*
G75*
G02*
X37442391Y-53176807I98995J98995D01*
G01*
X37682807Y-52936391D01*
G75*
G02*
X37880797Y-52936391I98995J-98995D01*
G01*
X38078787Y-53134381D01*
G75*
G02*
X38078787Y-53332371I-98995J-98995D01*
G01*
G37*
G36*
G01*
X38757609Y-54011193D02*
X38517193Y-54251609D01*
G75*
G02*
X38319203Y-54251609I-98995J98995D01*
G01*
X38121213Y-54053619D01*
G75*
G02*
X38121213Y-53855629I98995J98995D01*
G01*
X38361629Y-53615213D01*
G75*
G02*
X38559619Y-53615213I98995J-98995D01*
G01*
X38757609Y-53813203D01*
G75*
G02*
X38757609Y-54011193I-98995J-98995D01*
G01*
G37*
%TD*%
%TO.C,C6*%
G36*
G01*
X41140371Y-53615213D02*
X41380787Y-53855629D01*
G75*
G02*
X41380787Y-54053619I-98995J-98995D01*
G01*
X41182797Y-54251609D01*
G75*
G02*
X40984807Y-54251609I-98995J98995D01*
G01*
X40744391Y-54011193D01*
G75*
G02*
X40744391Y-53813203I98995J98995D01*
G01*
X40942381Y-53615213D01*
G75*
G02*
X41140371Y-53615213I98995J-98995D01*
G01*
G37*
G36*
G01*
X41819193Y-52936391D02*
X42059609Y-53176807D01*
G75*
G02*
X42059609Y-53374797I-98995J-98995D01*
G01*
X41861619Y-53572787D01*
G75*
G02*
X41663629Y-53572787I-98995J98995D01*
G01*
X41423213Y-53332371D01*
G75*
G02*
X41423213Y-53134381I98995J98995D01*
G01*
X41621203Y-52936391D01*
G75*
G02*
X41819193Y-52936391I98995J-98995D01*
G01*
G37*
%TD*%
%TO.C,C4*%
G36*
G01*
X40302000Y-32566000D02*
X39962000Y-32566000D01*
G75*
G02*
X39822000Y-32426000I0J140000D01*
G01*
X39822000Y-32146000D01*
G75*
G02*
X39962000Y-32006000I140000J0D01*
G01*
X40302000Y-32006000D01*
G75*
G02*
X40442000Y-32146000I0J-140000D01*
G01*
X40442000Y-32426000D01*
G75*
G02*
X40302000Y-32566000I-140000J0D01*
G01*
G37*
G36*
G01*
X40302000Y-33526000D02*
X39962000Y-33526000D01*
G75*
G02*
X39822000Y-33386000I0J140000D01*
G01*
X39822000Y-33106000D01*
G75*
G02*
X39962000Y-32966000I140000J0D01*
G01*
X40302000Y-32966000D01*
G75*
G02*
X40442000Y-33106000I0J-140000D01*
G01*
X40442000Y-33386000D01*
G75*
G02*
X40302000Y-33526000I-140000J0D01*
G01*
G37*
%TD*%
%TO.C,C3*%
G36*
G01*
X41318000Y-32566000D02*
X40978000Y-32566000D01*
G75*
G02*
X40838000Y-32426000I0J140000D01*
G01*
X40838000Y-32146000D01*
G75*
G02*
X40978000Y-32006000I140000J0D01*
G01*
X41318000Y-32006000D01*
G75*
G02*
X41458000Y-32146000I0J-140000D01*
G01*
X41458000Y-32426000D01*
G75*
G02*
X41318000Y-32566000I-140000J0D01*
G01*
G37*
G36*
G01*
X41318000Y-33526000D02*
X40978000Y-33526000D01*
G75*
G02*
X40838000Y-33386000I0J140000D01*
G01*
X40838000Y-33106000D01*
G75*
G02*
X40978000Y-32966000I140000J0D01*
G01*
X41318000Y-32966000D01*
G75*
G02*
X41458000Y-33106000I0J-140000D01*
G01*
X41458000Y-33386000D01*
G75*
G02*
X41318000Y-33526000I-140000J0D01*
G01*
G37*
%TD*%
%TO.C,C2*%
G36*
G01*
X42334000Y-32566000D02*
X41994000Y-32566000D01*
G75*
G02*
X41854000Y-32426000I0J140000D01*
G01*
X41854000Y-32146000D01*
G75*
G02*
X41994000Y-32006000I140000J0D01*
G01*
X42334000Y-32006000D01*
G75*
G02*
X42474000Y-32146000I0J-140000D01*
G01*
X42474000Y-32426000D01*
G75*
G02*
X42334000Y-32566000I-140000J0D01*
G01*
G37*
G36*
G01*
X42334000Y-33526000D02*
X41994000Y-33526000D01*
G75*
G02*
X41854000Y-33386000I0J140000D01*
G01*
X41854000Y-33106000D01*
G75*
G02*
X41994000Y-32966000I140000J0D01*
G01*
X42334000Y-32966000D01*
G75*
G02*
X42474000Y-33106000I0J-140000D01*
G01*
X42474000Y-33386000D01*
G75*
G02*
X42334000Y-33526000I-140000J0D01*
G01*
G37*
%TD*%
%TO.C,C1*%
G36*
G01*
X50208000Y-32820000D02*
X49868000Y-32820000D01*
G75*
G02*
X49728000Y-32680000I0J140000D01*
G01*
X49728000Y-32400000D01*
G75*
G02*
X49868000Y-32260000I140000J0D01*
G01*
X50208000Y-32260000D01*
G75*
G02*
X50348000Y-32400000I0J-140000D01*
G01*
X50348000Y-32680000D01*
G75*
G02*
X50208000Y-32820000I-140000J0D01*
G01*
G37*
G36*
G01*
X50208000Y-33780000D02*
X49868000Y-33780000D01*
G75*
G02*
X49728000Y-33640000I0J140000D01*
G01*
X49728000Y-33360000D01*
G75*
G02*
X49868000Y-33220000I140000J0D01*
G01*
X50208000Y-33220000D01*
G75*
G02*
X50348000Y-33360000I0J-140000D01*
G01*
X50348000Y-33640000D01*
G75*
G02*
X50208000Y-33780000I-140000J0D01*
G01*
G37*
%TD*%
D21*
%TO.C,U1*%
X52436000Y-36894000D03*
X52436000Y-37694000D03*
X52436000Y-38494000D03*
X52436000Y-39294000D03*
X52436000Y-40094000D03*
X52436000Y-40894000D03*
X52436000Y-41694000D03*
X52436000Y-42494000D03*
X52436000Y-43294000D03*
X52436000Y-44094000D03*
X52436000Y-44894000D03*
D22*
X50736000Y-46594000D03*
X49936000Y-46594000D03*
X49136000Y-46594000D03*
X48336000Y-46594000D03*
X47536000Y-46594000D03*
X46736000Y-46594000D03*
X45936000Y-46594000D03*
X45136000Y-46594000D03*
X44336000Y-46594000D03*
X43536000Y-46594000D03*
X42736000Y-46594000D03*
D21*
X41036000Y-44894000D03*
X41036000Y-44094000D03*
X41036000Y-43294000D03*
X41036000Y-42494000D03*
X41036000Y-41694000D03*
X41036000Y-40894000D03*
X41036000Y-40094000D03*
X41036000Y-39294000D03*
X41036000Y-38494000D03*
X41036000Y-37694000D03*
X41036000Y-36894000D03*
D22*
X42736000Y-35194000D03*
X43536000Y-35194000D03*
X44336000Y-35194000D03*
X45136000Y-35194000D03*
X45936000Y-35194000D03*
X46736000Y-35194000D03*
X47536000Y-35194000D03*
X48336000Y-35194000D03*
X49136000Y-35194000D03*
X49936000Y-35194000D03*
X50736000Y-35194000D03*
%TD*%
D16*
%TO.C,SW26*%
X58420000Y-38100000D03*
X68580000Y-38100000D03*
D17*
X63500000Y-38100000D03*
D18*
X67310000Y-40640000D03*
X60960000Y-43180000D03*
%TD*%
D16*
%TO.C,SW25*%
X58420000Y-58420000D03*
X68580000Y-58420000D03*
D17*
X63500000Y-58420000D03*
D18*
X67310000Y-60960000D03*
X60960000Y-63500000D03*
%TD*%
D16*
%TO.C,SW24*%
X58420000Y-78740000D03*
X68580000Y-78740000D03*
D17*
X63500000Y-78740000D03*
D18*
X67310000Y-81280000D03*
X60960000Y-83820000D03*
%TD*%
D16*
%TO.C,SW23*%
X58420000Y-99060000D03*
X68580000Y-99060000D03*
D17*
X63500000Y-99060000D03*
D18*
X67310000Y-101600000D03*
X60960000Y-104140000D03*
%TD*%
D16*
%TO.C,SW22*%
X58420000Y-119380000D03*
X68580000Y-119380000D03*
D17*
X63500000Y-119380000D03*
D18*
X67310000Y-121920000D03*
X60960000Y-124460000D03*
%TD*%
D16*
%TO.C,SW21*%
X78740000Y-38100000D03*
X88900000Y-38100000D03*
D17*
X83820000Y-38100000D03*
D18*
X87630000Y-40640000D03*
X81280000Y-43180000D03*
%TD*%
D16*
%TO.C,SW20*%
X78740000Y-58420000D03*
X88900000Y-58420000D03*
D17*
X83820000Y-58420000D03*
D18*
X87630000Y-60960000D03*
X81280000Y-63500000D03*
%TD*%
D16*
%TO.C,SW19*%
X78740000Y-78740000D03*
X88900000Y-78740000D03*
D17*
X83820000Y-78740000D03*
D18*
X87630000Y-81280000D03*
X81280000Y-83820000D03*
%TD*%
D16*
%TO.C,SW18*%
X78740000Y-99060000D03*
X88900000Y-99060000D03*
D17*
X83820000Y-99060000D03*
D18*
X87630000Y-101600000D03*
X81280000Y-104140000D03*
%TD*%
D16*
%TO.C,SW17*%
X78740000Y-119380000D03*
X88900000Y-119380000D03*
D17*
X83820000Y-119380000D03*
D18*
X87630000Y-121920000D03*
X81280000Y-124460000D03*
%TD*%
D16*
%TO.C,SW16*%
X99060000Y-38100000D03*
X109220000Y-38100000D03*
D17*
X104140000Y-38100000D03*
D18*
X107950000Y-40640000D03*
X101600000Y-43180000D03*
%TD*%
D16*
%TO.C,SW15*%
X99060000Y-58420000D03*
X109220000Y-58420000D03*
D17*
X104140000Y-58420000D03*
D18*
X107950000Y-60960000D03*
X101600000Y-63500000D03*
%TD*%
D16*
%TO.C,SW14*%
X99060000Y-78740000D03*
X109220000Y-78740000D03*
D17*
X104140000Y-78740000D03*
D18*
X107950000Y-81280000D03*
X101600000Y-83820000D03*
%TD*%
D16*
%TO.C,SW13*%
X99060000Y-99060000D03*
X109220000Y-99060000D03*
D17*
X104140000Y-99060000D03*
D18*
X107950000Y-101600000D03*
X101600000Y-104140000D03*
%TD*%
D16*
%TO.C,SW12*%
X99060000Y-119380000D03*
X109220000Y-119380000D03*
D17*
X104140000Y-119380000D03*
D18*
X107950000Y-121920000D03*
X101600000Y-124460000D03*
%TD*%
D16*
%TO.C,SW10*%
X119380000Y-58420000D03*
X129540000Y-58420000D03*
D17*
X124460000Y-58420000D03*
D18*
X128270000Y-60960000D03*
X121920000Y-63500000D03*
%TD*%
D16*
%TO.C,SW9*%
X119380000Y-78740000D03*
X129540000Y-78740000D03*
D17*
X124460000Y-78740000D03*
D18*
X128270000Y-81280000D03*
X121920000Y-83820000D03*
%TD*%
D16*
%TO.C,SW8*%
X119380000Y-99060000D03*
X129540000Y-99060000D03*
D17*
X124460000Y-99060000D03*
D18*
X128270000Y-101600000D03*
X121920000Y-104140000D03*
%TD*%
D16*
%TO.C,SW7*%
X119380000Y-119380000D03*
X129540000Y-119380000D03*
D17*
X124460000Y-119380000D03*
D18*
X128270000Y-121920000D03*
X121920000Y-124460000D03*
%TD*%
D16*
%TO.C,SW6*%
X139700000Y-38100000D03*
X149860000Y-38100000D03*
D17*
X144780000Y-38100000D03*
D18*
X148590000Y-40640000D03*
X142240000Y-43180000D03*
%TD*%
D16*
%TO.C,SW5*%
X139700000Y-58420000D03*
X149860000Y-58420000D03*
D17*
X144780000Y-58420000D03*
D18*
X148590000Y-60960000D03*
X142240000Y-63500000D03*
%TD*%
D16*
%TO.C,SW4*%
X139700000Y-78740000D03*
X149860000Y-78740000D03*
D17*
X144780000Y-78740000D03*
D18*
X148590000Y-81280000D03*
X142240000Y-83820000D03*
%TD*%
D16*
%TO.C,SW3*%
X139700000Y-99060000D03*
X149860000Y-99060000D03*
D17*
X144780000Y-99060000D03*
D18*
X148590000Y-101600000D03*
X142240000Y-104140000D03*
%TD*%
D16*
%TO.C,SW2*%
X139700000Y-119380000D03*
X149860000Y-119380000D03*
D17*
X144780000Y-119380000D03*
D18*
X148590000Y-121920000D03*
X142240000Y-124460000D03*
%TD*%
D23*
%TO.C,SW1*%
X48728000Y-61976000D03*
D24*
X46228000Y-61976000D03*
X43728000Y-61976000D03*
D25*
X51828000Y-69476000D03*
X40628000Y-69476000D03*
D24*
X48728000Y-76476000D03*
X43728000Y-76476000D03*
%TD*%
D26*
%TO.C,D50*%
X63500000Y-112776000D03*
D27*
X63500000Y-114196000D03*
D28*
X62650000Y-114266000D03*
X62650000Y-112466000D03*
D29*
X62650000Y-113366000D03*
D28*
X64350000Y-112466000D03*
D29*
X64350000Y-113366000D03*
D28*
X64350000Y-114266000D03*
%TD*%
D26*
%TO.C,D49*%
X83820000Y-112776000D03*
D27*
X83820000Y-114196000D03*
D28*
X82970000Y-114266000D03*
X82970000Y-112466000D03*
D29*
X82970000Y-113366000D03*
D28*
X84670000Y-112466000D03*
D29*
X84670000Y-113366000D03*
D28*
X84670000Y-114266000D03*
%TD*%
D26*
%TO.C,D48*%
X104140000Y-112776000D03*
D27*
X104140000Y-114196000D03*
D28*
X103290000Y-114266000D03*
X103290000Y-112466000D03*
D29*
X103290000Y-113366000D03*
D28*
X104990000Y-112466000D03*
D29*
X104990000Y-113366000D03*
D28*
X104990000Y-114266000D03*
%TD*%
D26*
%TO.C,D47*%
X124460000Y-112776000D03*
D27*
X124460000Y-114196000D03*
D28*
X123610000Y-114266000D03*
X123610000Y-112466000D03*
D29*
X123610000Y-113366000D03*
D28*
X125310000Y-112466000D03*
D29*
X125310000Y-113366000D03*
D28*
X125310000Y-114266000D03*
%TD*%
D26*
%TO.C,D46*%
X144780000Y-112776000D03*
D27*
X144780000Y-114196000D03*
D28*
X143930000Y-114266000D03*
X143930000Y-112466000D03*
D29*
X143930000Y-113366000D03*
D28*
X145630000Y-112466000D03*
D29*
X145630000Y-113366000D03*
D28*
X145630000Y-114266000D03*
%TD*%
D26*
%TO.C,D45*%
X144780000Y-92374000D03*
D27*
X144780000Y-93794000D03*
D28*
X143930000Y-93864000D03*
X143930000Y-92064000D03*
D29*
X143930000Y-92964000D03*
D28*
X145630000Y-92064000D03*
D29*
X145630000Y-92964000D03*
D28*
X145630000Y-93864000D03*
%TD*%
D26*
%TO.C,D44*%
X124460000Y-92456000D03*
D27*
X124460000Y-93876000D03*
D28*
X123610000Y-93946000D03*
X123610000Y-92146000D03*
D29*
X123610000Y-93046000D03*
D28*
X125310000Y-92146000D03*
D29*
X125310000Y-93046000D03*
D28*
X125310000Y-93946000D03*
%TD*%
D26*
%TO.C,D43*%
X104140000Y-92456000D03*
D27*
X104140000Y-93876000D03*
D28*
X103290000Y-93946000D03*
X103290000Y-92146000D03*
D29*
X103290000Y-93046000D03*
D28*
X104990000Y-92146000D03*
D29*
X104990000Y-93046000D03*
D28*
X104990000Y-93946000D03*
%TD*%
D26*
%TO.C,D42*%
X83820000Y-92456000D03*
D27*
X83820000Y-93876000D03*
D28*
X82970000Y-93946000D03*
X82970000Y-92146000D03*
D29*
X82970000Y-93046000D03*
D28*
X84670000Y-92146000D03*
D29*
X84670000Y-93046000D03*
D28*
X84670000Y-93946000D03*
%TD*%
D26*
%TO.C,D41*%
X63500000Y-92374000D03*
D27*
X63500000Y-93794000D03*
D28*
X62650000Y-93864000D03*
X62650000Y-92064000D03*
D29*
X62650000Y-92964000D03*
D28*
X64350000Y-92064000D03*
D29*
X64350000Y-92964000D03*
D28*
X64350000Y-93864000D03*
%TD*%
D26*
%TO.C,D40*%
X144780000Y-72136000D03*
D27*
X144780000Y-73556000D03*
D28*
X143930000Y-73626000D03*
X143930000Y-71826000D03*
D29*
X143930000Y-72726000D03*
D28*
X145630000Y-71826000D03*
D29*
X145630000Y-72726000D03*
D28*
X145630000Y-73626000D03*
%TD*%
D26*
%TO.C,D39*%
X124460000Y-72136000D03*
D27*
X124460000Y-73556000D03*
D28*
X123610000Y-73626000D03*
X123610000Y-71826000D03*
D29*
X123610000Y-72726000D03*
D28*
X125310000Y-71826000D03*
D29*
X125310000Y-72726000D03*
D28*
X125310000Y-73626000D03*
%TD*%
D26*
%TO.C,D38*%
X104140000Y-72136000D03*
D27*
X104140000Y-73556000D03*
D28*
X103290000Y-73626000D03*
X103290000Y-71826000D03*
D29*
X103290000Y-72726000D03*
D28*
X104990000Y-71826000D03*
D29*
X104990000Y-72726000D03*
D28*
X104990000Y-73626000D03*
%TD*%
D26*
%TO.C,D37*%
X83820000Y-72136000D03*
D27*
X83820000Y-73556000D03*
D28*
X82970000Y-73626000D03*
X82970000Y-71826000D03*
D29*
X82970000Y-72726000D03*
D28*
X84670000Y-71826000D03*
D29*
X84670000Y-72726000D03*
D28*
X84670000Y-73626000D03*
%TD*%
D26*
%TO.C,D36*%
X63500000Y-72136000D03*
D27*
X63500000Y-73556000D03*
D28*
X62650000Y-73626000D03*
X62650000Y-71826000D03*
D29*
X62650000Y-72726000D03*
D28*
X64350000Y-71826000D03*
D29*
X64350000Y-72726000D03*
D28*
X64350000Y-73626000D03*
%TD*%
D26*
%TO.C,D35*%
X63500000Y-31496000D03*
D27*
X63500000Y-32916000D03*
D28*
X62650000Y-32986000D03*
X62650000Y-31186000D03*
D29*
X62650000Y-32086000D03*
D28*
X64350000Y-31186000D03*
D29*
X64350000Y-32086000D03*
D28*
X64350000Y-32986000D03*
%TD*%
D26*
%TO.C,D34*%
X83820000Y-31496000D03*
D27*
X83820000Y-32916000D03*
D28*
X82970000Y-32986000D03*
X82970000Y-31186000D03*
D29*
X82970000Y-32086000D03*
D28*
X84670000Y-31186000D03*
D29*
X84670000Y-32086000D03*
D28*
X84670000Y-32986000D03*
%TD*%
D26*
%TO.C,D33*%
X104140000Y-31414000D03*
D27*
X104140000Y-32834000D03*
D28*
X103290000Y-32904000D03*
X103290000Y-31104000D03*
D29*
X103290000Y-32004000D03*
D28*
X104990000Y-31104000D03*
D29*
X104990000Y-32004000D03*
D28*
X104990000Y-32904000D03*
%TD*%
D26*
%TO.C,D32*%
X124460000Y-31496000D03*
D27*
X124460000Y-32916000D03*
D28*
X123610000Y-32986000D03*
X123610000Y-31186000D03*
D29*
X123610000Y-32086000D03*
D28*
X125310000Y-31186000D03*
D29*
X125310000Y-32086000D03*
D28*
X125310000Y-32986000D03*
%TD*%
D26*
%TO.C,D31*%
X144780000Y-31496000D03*
D27*
X144780000Y-32916000D03*
D28*
X143930000Y-32986000D03*
X143930000Y-31186000D03*
D29*
X143930000Y-32086000D03*
D28*
X145630000Y-31186000D03*
D29*
X145630000Y-32086000D03*
D28*
X145630000Y-32986000D03*
%TD*%
%TO.C,D30*%
X64350000Y-53306000D03*
D29*
X64350000Y-52406000D03*
D28*
X64350000Y-51506000D03*
D29*
X62650000Y-52406000D03*
D28*
X62650000Y-51506000D03*
X62650000Y-53306000D03*
D27*
X63500000Y-53236000D03*
D26*
X63500000Y-51816000D03*
%TD*%
%TO.C,D29*%
X83820000Y-51816000D03*
D27*
X83820000Y-53236000D03*
D28*
X82970000Y-53306000D03*
X82970000Y-51506000D03*
D29*
X82970000Y-52406000D03*
D28*
X84670000Y-51506000D03*
D29*
X84670000Y-52406000D03*
D28*
X84670000Y-53306000D03*
%TD*%
D26*
%TO.C,D28*%
X104140000Y-51816000D03*
D27*
X104140000Y-53236000D03*
D28*
X103290000Y-53306000D03*
X103290000Y-51506000D03*
D29*
X103290000Y-52406000D03*
D28*
X104990000Y-51506000D03*
D29*
X104990000Y-52406000D03*
D28*
X104990000Y-53306000D03*
%TD*%
D26*
%TO.C,D27*%
X124460000Y-51816000D03*
D27*
X124460000Y-53236000D03*
D28*
X123610000Y-53306000D03*
X123610000Y-51506000D03*
D29*
X123610000Y-52406000D03*
D28*
X125310000Y-51506000D03*
D29*
X125310000Y-52406000D03*
D28*
X125310000Y-53306000D03*
%TD*%
D26*
%TO.C,D26*%
X144780000Y-51816000D03*
D27*
X144780000Y-53236000D03*
D28*
X143930000Y-53306000D03*
X143930000Y-51506000D03*
D29*
X143930000Y-52406000D03*
D28*
X145630000Y-51506000D03*
D29*
X145630000Y-52406000D03*
D28*
X145630000Y-53306000D03*
%TD*%
%TO.C,C5*%
G36*
G01*
X39083000Y-31808000D02*
X38133000Y-31808000D01*
G75*
G02*
X37883000Y-31558000I0J250000D01*
G01*
X37883000Y-31058000D01*
G75*
G02*
X38133000Y-30808000I250000J0D01*
G01*
X39083000Y-30808000D01*
G75*
G02*
X39333000Y-31058000I0J-250000D01*
G01*
X39333000Y-31558000D01*
G75*
G02*
X39083000Y-31808000I-250000J0D01*
G01*
G37*
G36*
G01*
X39083000Y-33708000D02*
X38133000Y-33708000D01*
G75*
G02*
X37883000Y-33458000I0J250000D01*
G01*
X37883000Y-32958000D01*
G75*
G02*
X38133000Y-32708000I250000J0D01*
G01*
X39083000Y-32708000D01*
G75*
G02*
X39333000Y-32958000I0J-250000D01*
G01*
X39333000Y-33458000D01*
G75*
G02*
X39083000Y-33708000I-250000J0D01*
G01*
G37*
%TD*%
M02*
