%TF.GenerationSoftware,KiCad,Pcbnew,(5.1.8)-1*%
%TF.CreationDate,2020-12-21T14:13:34-08:00*%
%TF.ProjectId,DeskTopVolKnob_Keypad,4465736b-546f-4705-966f-6c4b6e6f625f,rev?*%
%TF.SameCoordinates,Original*%
%TF.FileFunction,Legend,Top*%
%TF.FilePolarity,Positive*%
%FSLAX46Y46*%
G04 Gerber Fmt 4.6, Leading zero omitted, Abs format (unit mm)*
G04 Created by KiCad (PCBNEW (5.1.8)-1) date 2020-12-21 14:13:34*
%MOMM*%
%LPD*%
G01*
G04 APERTURE LIST*
%ADD10C,0.300000*%
%ADD11C,0.120000*%
%ADD12C,0.100000*%
%ADD13C,0.150000*%
G04 APERTURE END LIST*
D10*
X49446571Y-113243142D02*
X47946571Y-113243142D01*
X49018000Y-112743142D01*
X47946571Y-112243142D01*
X49446571Y-112243142D01*
X49446571Y-111528857D02*
X47946571Y-111528857D01*
X49375142Y-110886000D02*
X49446571Y-110671714D01*
X49446571Y-110314571D01*
X49375142Y-110171714D01*
X49303714Y-110100285D01*
X49160857Y-110028857D01*
X49018000Y-110028857D01*
X48875142Y-110100285D01*
X48803714Y-110171714D01*
X48732285Y-110314571D01*
X48660857Y-110600285D01*
X48589428Y-110743142D01*
X48518000Y-110814571D01*
X48375142Y-110886000D01*
X48232285Y-110886000D01*
X48089428Y-110814571D01*
X48018000Y-110743142D01*
X47946571Y-110600285D01*
X47946571Y-110243142D01*
X48018000Y-110028857D01*
X49303714Y-108528857D02*
X49375142Y-108600285D01*
X49446571Y-108814571D01*
X49446571Y-108957428D01*
X49375142Y-109171714D01*
X49232285Y-109314571D01*
X49089428Y-109386000D01*
X48803714Y-109457428D01*
X48589428Y-109457428D01*
X48303714Y-109386000D01*
X48160857Y-109314571D01*
X48018000Y-109171714D01*
X47946571Y-108957428D01*
X47946571Y-108814571D01*
X48018000Y-108600285D01*
X48089428Y-108528857D01*
X49446571Y-106743142D02*
X47946571Y-106743142D01*
X49446571Y-106028857D02*
X47946571Y-106028857D01*
X49446571Y-105171714D01*
X47946571Y-105171714D01*
X49446571Y-104457428D02*
X47946571Y-104457428D01*
X47946571Y-104100285D01*
X48018000Y-103886000D01*
X48160857Y-103743142D01*
X48303714Y-103671714D01*
X48589428Y-103600285D01*
X48803714Y-103600285D01*
X49089428Y-103671714D01*
X49232285Y-103743142D01*
X49375142Y-103886000D01*
X49446571Y-104100285D01*
X49446571Y-104457428D01*
X49446571Y-102957428D02*
X47946571Y-102957428D01*
X49303714Y-101386000D02*
X49375142Y-101457428D01*
X49446571Y-101671714D01*
X49446571Y-101814571D01*
X49375142Y-102028857D01*
X49232285Y-102171714D01*
X49089428Y-102243142D01*
X48803714Y-102314571D01*
X48589428Y-102314571D01*
X48303714Y-102243142D01*
X48160857Y-102171714D01*
X48018000Y-102028857D01*
X47946571Y-101814571D01*
X47946571Y-101671714D01*
X48018000Y-101457428D01*
X48089428Y-101386000D01*
X49018000Y-100814571D02*
X49018000Y-100100285D01*
X49446571Y-100957428D02*
X47946571Y-100457428D01*
X49446571Y-99957428D01*
X47946571Y-99671714D02*
X47946571Y-98814571D01*
X49446571Y-99243142D02*
X47946571Y-99243142D01*
X47946571Y-98028857D02*
X47946571Y-97743142D01*
X48018000Y-97600285D01*
X48160857Y-97457428D01*
X48446571Y-97386000D01*
X48946571Y-97386000D01*
X49232285Y-97457428D01*
X49375142Y-97600285D01*
X49446571Y-97743142D01*
X49446571Y-98028857D01*
X49375142Y-98171714D01*
X49232285Y-98314571D01*
X48946571Y-98386000D01*
X48446571Y-98386000D01*
X48160857Y-98314571D01*
X48018000Y-98171714D01*
X47946571Y-98028857D01*
X49446571Y-95886000D02*
X48732285Y-96386000D01*
X49446571Y-96743142D02*
X47946571Y-96743142D01*
X47946571Y-96171714D01*
X48018000Y-96028857D01*
X48089428Y-95957428D01*
X48232285Y-95886000D01*
X48446571Y-95886000D01*
X48589428Y-95957428D01*
X48660857Y-96028857D01*
X48732285Y-96171714D01*
X48732285Y-96743142D01*
X49375142Y-95314571D02*
X49446571Y-95100285D01*
X49446571Y-94743142D01*
X49375142Y-94600285D01*
X49303714Y-94528857D01*
X49160857Y-94457428D01*
X49018000Y-94457428D01*
X48875142Y-94528857D01*
X48803714Y-94600285D01*
X48732285Y-94743142D01*
X48660857Y-95028857D01*
X48589428Y-95171714D01*
X48518000Y-95243142D01*
X48375142Y-95314571D01*
X48232285Y-95314571D01*
X48089428Y-95243142D01*
X48018000Y-95171714D01*
X47946571Y-95028857D01*
X47946571Y-94671714D01*
X48018000Y-94457428D01*
X45406571Y-93642571D02*
X44906571Y-92928285D01*
X44549428Y-93642571D02*
X44549428Y-92142571D01*
X45120857Y-92142571D01*
X45263714Y-92214000D01*
X45335142Y-92285428D01*
X45406571Y-92428285D01*
X45406571Y-92642571D01*
X45335142Y-92785428D01*
X45263714Y-92856857D01*
X45120857Y-92928285D01*
X44549428Y-92928285D01*
X45978000Y-93571142D02*
X46192285Y-93642571D01*
X46549428Y-93642571D01*
X46692285Y-93571142D01*
X46763714Y-93499714D01*
X46835142Y-93356857D01*
X46835142Y-93214000D01*
X46763714Y-93071142D01*
X46692285Y-92999714D01*
X46549428Y-92928285D01*
X46263714Y-92856857D01*
X46120857Y-92785428D01*
X46049428Y-92714000D01*
X45978000Y-92571142D01*
X45978000Y-92428285D01*
X46049428Y-92285428D01*
X46120857Y-92214000D01*
X46263714Y-92142571D01*
X46620857Y-92142571D01*
X46835142Y-92214000D01*
X47263714Y-92142571D02*
X48120857Y-92142571D01*
X47692285Y-93642571D02*
X47692285Y-92142571D01*
D11*
%TO.C,D51*%
X44305786Y-99822000D02*
X45578579Y-98549208D01*
X45861421Y-98549208D02*
X47134214Y-99822000D01*
X47134214Y-99822000D02*
X45720000Y-101236214D01*
X45720000Y-101236214D02*
X44305786Y-99822000D01*
X45820000Y-101519056D02*
G75*
G03*
X45820000Y-101519056I-100000J0D01*
G01*
D12*
G36*
X46144264Y-99539157D02*
G01*
X45861421Y-99539157D01*
X46144264Y-99256315D01*
X46144264Y-99539157D01*
G37*
X46144264Y-99539157D02*
X45861421Y-99539157D01*
X46144264Y-99256315D01*
X46144264Y-99539157D01*
D11*
X45578579Y-98549208D02*
X45861421Y-98549208D01*
%TO.C,D52*%
X44305786Y-103886000D02*
X45578579Y-102613208D01*
X45861421Y-102613208D02*
X47134214Y-103886000D01*
X47134214Y-103886000D02*
X45720000Y-105300214D01*
X45720000Y-105300214D02*
X44305786Y-103886000D01*
X45820000Y-105583056D02*
G75*
G03*
X45820000Y-105583056I-100000J0D01*
G01*
D12*
G36*
X46144264Y-103603157D02*
G01*
X45861421Y-103603157D01*
X46144264Y-103320315D01*
X46144264Y-103603157D01*
G37*
X46144264Y-103603157D02*
X45861421Y-103603157D01*
X46144264Y-103320315D01*
X46144264Y-103603157D01*
D11*
X45578579Y-102613208D02*
X45861421Y-102613208D01*
%TO.C,D53*%
X44305786Y-107950000D02*
X45578579Y-106677208D01*
X45861421Y-106677208D02*
X47134214Y-107950000D01*
X47134214Y-107950000D02*
X45720000Y-109364214D01*
X45720000Y-109364214D02*
X44305786Y-107950000D01*
X45820000Y-109647056D02*
G75*
G03*
X45820000Y-109647056I-100000J0D01*
G01*
D12*
G36*
X46144264Y-107667157D02*
G01*
X45861421Y-107667157D01*
X46144264Y-107384315D01*
X46144264Y-107667157D01*
G37*
X46144264Y-107667157D02*
X45861421Y-107667157D01*
X46144264Y-107384315D01*
X46144264Y-107667157D01*
D11*
X45578579Y-106677208D02*
X45861421Y-106677208D01*
%TO.C,SW26*%
X70485000Y-45085000D02*
X56515000Y-45085000D01*
X56515000Y-45085000D02*
X56515000Y-31115000D01*
X56515000Y-31115000D02*
X70485000Y-31115000D01*
X70485000Y-31115000D02*
X70485000Y-45085000D01*
%TO.C,SW25*%
X70485000Y-65405000D02*
X56515000Y-65405000D01*
X56515000Y-65405000D02*
X56515000Y-51435000D01*
X56515000Y-51435000D02*
X70485000Y-51435000D01*
X70485000Y-51435000D02*
X70485000Y-65405000D01*
%TO.C,SW24*%
X70485000Y-85725000D02*
X56515000Y-85725000D01*
X56515000Y-85725000D02*
X56515000Y-71755000D01*
X56515000Y-71755000D02*
X70485000Y-71755000D01*
X70485000Y-71755000D02*
X70485000Y-85725000D01*
%TO.C,SW23*%
X70485000Y-106045000D02*
X56515000Y-106045000D01*
X56515000Y-106045000D02*
X56515000Y-92075000D01*
X56515000Y-92075000D02*
X70485000Y-92075000D01*
X70485000Y-92075000D02*
X70485000Y-106045000D01*
%TO.C,SW22*%
X70485000Y-126365000D02*
X56515000Y-126365000D01*
X56515000Y-126365000D02*
X56515000Y-112395000D01*
X56515000Y-112395000D02*
X70485000Y-112395000D01*
X70485000Y-112395000D02*
X70485000Y-126365000D01*
%TO.C,SW21*%
X90805000Y-45085000D02*
X76835000Y-45085000D01*
X76835000Y-45085000D02*
X76835000Y-31115000D01*
X76835000Y-31115000D02*
X90805000Y-31115000D01*
X90805000Y-31115000D02*
X90805000Y-45085000D01*
%TO.C,SW20*%
X90805000Y-65405000D02*
X76835000Y-65405000D01*
X76835000Y-65405000D02*
X76835000Y-51435000D01*
X76835000Y-51435000D02*
X90805000Y-51435000D01*
X90805000Y-51435000D02*
X90805000Y-65405000D01*
%TO.C,SW19*%
X90805000Y-85725000D02*
X76835000Y-85725000D01*
X76835000Y-85725000D02*
X76835000Y-71755000D01*
X76835000Y-71755000D02*
X90805000Y-71755000D01*
X90805000Y-71755000D02*
X90805000Y-85725000D01*
%TO.C,SW18*%
X90805000Y-106045000D02*
X76835000Y-106045000D01*
X76835000Y-106045000D02*
X76835000Y-92075000D01*
X76835000Y-92075000D02*
X90805000Y-92075000D01*
X90805000Y-92075000D02*
X90805000Y-106045000D01*
%TO.C,SW17*%
X90805000Y-126365000D02*
X76835000Y-126365000D01*
X76835000Y-126365000D02*
X76835000Y-112395000D01*
X76835000Y-112395000D02*
X90805000Y-112395000D01*
X90805000Y-112395000D02*
X90805000Y-126365000D01*
%TO.C,SW16*%
X111125000Y-45085000D02*
X97155000Y-45085000D01*
X97155000Y-45085000D02*
X97155000Y-31115000D01*
X97155000Y-31115000D02*
X111125000Y-31115000D01*
X111125000Y-31115000D02*
X111125000Y-45085000D01*
%TO.C,SW15*%
X111125000Y-65405000D02*
X97155000Y-65405000D01*
X97155000Y-65405000D02*
X97155000Y-51435000D01*
X97155000Y-51435000D02*
X111125000Y-51435000D01*
X111125000Y-51435000D02*
X111125000Y-65405000D01*
%TO.C,SW14*%
X111125000Y-85725000D02*
X97155000Y-85725000D01*
X97155000Y-85725000D02*
X97155000Y-71755000D01*
X97155000Y-71755000D02*
X111125000Y-71755000D01*
X111125000Y-71755000D02*
X111125000Y-85725000D01*
%TO.C,SW13*%
X111125000Y-106045000D02*
X97155000Y-106045000D01*
X97155000Y-106045000D02*
X97155000Y-92075000D01*
X97155000Y-92075000D02*
X111125000Y-92075000D01*
X111125000Y-92075000D02*
X111125000Y-106045000D01*
%TO.C,SW12*%
X111125000Y-126365000D02*
X97155000Y-126365000D01*
X97155000Y-126365000D02*
X97155000Y-112395000D01*
X97155000Y-112395000D02*
X111125000Y-112395000D01*
X111125000Y-112395000D02*
X111125000Y-126365000D01*
%TO.C,SW11*%
X131445000Y-45085000D02*
X117475000Y-45085000D01*
X117475000Y-45085000D02*
X117475000Y-31115000D01*
X117475000Y-31115000D02*
X131445000Y-31115000D01*
X131445000Y-31115000D02*
X131445000Y-45085000D01*
%TO.C,SW10*%
X131445000Y-65405000D02*
X117475000Y-65405000D01*
X117475000Y-65405000D02*
X117475000Y-51435000D01*
X117475000Y-51435000D02*
X131445000Y-51435000D01*
X131445000Y-51435000D02*
X131445000Y-65405000D01*
%TO.C,SW9*%
X131445000Y-85725000D02*
X117475000Y-85725000D01*
X117475000Y-85725000D02*
X117475000Y-71755000D01*
X117475000Y-71755000D02*
X131445000Y-71755000D01*
X131445000Y-71755000D02*
X131445000Y-85725000D01*
%TO.C,SW8*%
X131445000Y-106045000D02*
X117475000Y-106045000D01*
X117475000Y-106045000D02*
X117475000Y-92075000D01*
X117475000Y-92075000D02*
X131445000Y-92075000D01*
X131445000Y-92075000D02*
X131445000Y-106045000D01*
%TO.C,SW7*%
X131445000Y-126365000D02*
X117475000Y-126365000D01*
X117475000Y-126365000D02*
X117475000Y-112395000D01*
X117475000Y-112395000D02*
X131445000Y-112395000D01*
X131445000Y-112395000D02*
X131445000Y-126365000D01*
%TO.C,SW6*%
X151765000Y-45085000D02*
X137795000Y-45085000D01*
X137795000Y-45085000D02*
X137795000Y-31115000D01*
X137795000Y-31115000D02*
X151765000Y-31115000D01*
X151765000Y-31115000D02*
X151765000Y-45085000D01*
%TO.C,SW5*%
X151765000Y-65405000D02*
X137795000Y-65405000D01*
X137795000Y-65405000D02*
X137795000Y-51435000D01*
X137795000Y-51435000D02*
X151765000Y-51435000D01*
X151765000Y-51435000D02*
X151765000Y-65405000D01*
%TO.C,SW4*%
X151765000Y-85725000D02*
X137795000Y-85725000D01*
X137795000Y-85725000D02*
X137795000Y-71755000D01*
X137795000Y-71755000D02*
X151765000Y-71755000D01*
X151765000Y-71755000D02*
X151765000Y-85725000D01*
%TO.C,SW3*%
X151765000Y-106045000D02*
X137795000Y-106045000D01*
X137795000Y-106045000D02*
X137795000Y-92075000D01*
X137795000Y-92075000D02*
X151765000Y-92075000D01*
X151765000Y-92075000D02*
X151765000Y-106045000D01*
%TO.C,SW2*%
X151765000Y-126365000D02*
X137795000Y-126365000D01*
X137795000Y-126365000D02*
X137795000Y-112395000D01*
X137795000Y-112395000D02*
X151765000Y-112395000D01*
X151765000Y-112395000D02*
X151765000Y-126365000D01*
%TO.C,D50*%
X63500000Y-112377786D02*
X64772792Y-113650579D01*
X64772792Y-113933421D02*
X63500000Y-115206214D01*
X63500000Y-115206214D02*
X62085786Y-113792000D01*
X62085786Y-113792000D02*
X63500000Y-112377786D01*
X61902944Y-113792000D02*
G75*
G03*
X61902944Y-113792000I-100000J0D01*
G01*
D12*
G36*
X63782843Y-114216264D02*
G01*
X63782843Y-113933421D01*
X64065685Y-114216264D01*
X63782843Y-114216264D01*
G37*
X63782843Y-114216264D02*
X63782843Y-113933421D01*
X64065685Y-114216264D01*
X63782843Y-114216264D01*
D11*
X64772792Y-113650579D02*
X64772792Y-113933421D01*
%TO.C,D49*%
X83820000Y-112377786D02*
X85092792Y-113650579D01*
X85092792Y-113933421D02*
X83820000Y-115206214D01*
X83820000Y-115206214D02*
X82405786Y-113792000D01*
X82405786Y-113792000D02*
X83820000Y-112377786D01*
X82222944Y-113792000D02*
G75*
G03*
X82222944Y-113792000I-100000J0D01*
G01*
D12*
G36*
X84102843Y-114216264D02*
G01*
X84102843Y-113933421D01*
X84385685Y-114216264D01*
X84102843Y-114216264D01*
G37*
X84102843Y-114216264D02*
X84102843Y-113933421D01*
X84385685Y-114216264D01*
X84102843Y-114216264D01*
D11*
X85092792Y-113650579D02*
X85092792Y-113933421D01*
%TO.C,D48*%
X104140000Y-112377786D02*
X105412792Y-113650579D01*
X105412792Y-113933421D02*
X104140000Y-115206214D01*
X104140000Y-115206214D02*
X102725786Y-113792000D01*
X102725786Y-113792000D02*
X104140000Y-112377786D01*
X102542944Y-113792000D02*
G75*
G03*
X102542944Y-113792000I-100000J0D01*
G01*
D12*
G36*
X104422843Y-114216264D02*
G01*
X104422843Y-113933421D01*
X104705685Y-114216264D01*
X104422843Y-114216264D01*
G37*
X104422843Y-114216264D02*
X104422843Y-113933421D01*
X104705685Y-114216264D01*
X104422843Y-114216264D01*
D11*
X105412792Y-113650579D02*
X105412792Y-113933421D01*
%TO.C,D47*%
X124460000Y-112377786D02*
X125732792Y-113650579D01*
X125732792Y-113933421D02*
X124460000Y-115206214D01*
X124460000Y-115206214D02*
X123045786Y-113792000D01*
X123045786Y-113792000D02*
X124460000Y-112377786D01*
X122862944Y-113792000D02*
G75*
G03*
X122862944Y-113792000I-100000J0D01*
G01*
D12*
G36*
X124742843Y-114216264D02*
G01*
X124742843Y-113933421D01*
X125025685Y-114216264D01*
X124742843Y-114216264D01*
G37*
X124742843Y-114216264D02*
X124742843Y-113933421D01*
X125025685Y-114216264D01*
X124742843Y-114216264D01*
D11*
X125732792Y-113650579D02*
X125732792Y-113933421D01*
%TO.C,D46*%
X144780000Y-112377786D02*
X146052792Y-113650579D01*
X146052792Y-113933421D02*
X144780000Y-115206214D01*
X144780000Y-115206214D02*
X143365786Y-113792000D01*
X143365786Y-113792000D02*
X144780000Y-112377786D01*
X143182944Y-113792000D02*
G75*
G03*
X143182944Y-113792000I-100000J0D01*
G01*
D12*
G36*
X145062843Y-114216264D02*
G01*
X145062843Y-113933421D01*
X145345685Y-114216264D01*
X145062843Y-114216264D01*
G37*
X145062843Y-114216264D02*
X145062843Y-113933421D01*
X145345685Y-114216264D01*
X145062843Y-114216264D01*
D11*
X146052792Y-113650579D02*
X146052792Y-113933421D01*
%TO.C,D45*%
X144780000Y-94886214D02*
X143507208Y-93613421D01*
X143507208Y-93330579D02*
X144780000Y-92057786D01*
X144780000Y-92057786D02*
X146194214Y-93472000D01*
X146194214Y-93472000D02*
X144780000Y-94886214D01*
X146577056Y-93472000D02*
G75*
G03*
X146577056Y-93472000I-100000J0D01*
G01*
D12*
G36*
X144497157Y-93047736D02*
G01*
X144497157Y-93330579D01*
X144214315Y-93047736D01*
X144497157Y-93047736D01*
G37*
X144497157Y-93047736D02*
X144497157Y-93330579D01*
X144214315Y-93047736D01*
X144497157Y-93047736D01*
D11*
X143507208Y-93613421D02*
X143507208Y-93330579D01*
%TO.C,D44*%
X124460000Y-94886214D02*
X123187208Y-93613421D01*
X123187208Y-93330579D02*
X124460000Y-92057786D01*
X124460000Y-92057786D02*
X125874214Y-93472000D01*
X125874214Y-93472000D02*
X124460000Y-94886214D01*
X126257056Y-93472000D02*
G75*
G03*
X126257056Y-93472000I-100000J0D01*
G01*
D12*
G36*
X124177157Y-93047736D02*
G01*
X124177157Y-93330579D01*
X123894315Y-93047736D01*
X124177157Y-93047736D01*
G37*
X124177157Y-93047736D02*
X124177157Y-93330579D01*
X123894315Y-93047736D01*
X124177157Y-93047736D01*
D11*
X123187208Y-93613421D02*
X123187208Y-93330579D01*
%TO.C,D43*%
X104140000Y-94886214D02*
X102867208Y-93613421D01*
X102867208Y-93330579D02*
X104140000Y-92057786D01*
X104140000Y-92057786D02*
X105554214Y-93472000D01*
X105554214Y-93472000D02*
X104140000Y-94886214D01*
X105937056Y-93472000D02*
G75*
G03*
X105937056Y-93472000I-100000J0D01*
G01*
D12*
G36*
X103857157Y-93047736D02*
G01*
X103857157Y-93330579D01*
X103574315Y-93047736D01*
X103857157Y-93047736D01*
G37*
X103857157Y-93047736D02*
X103857157Y-93330579D01*
X103574315Y-93047736D01*
X103857157Y-93047736D01*
D11*
X102867208Y-93613421D02*
X102867208Y-93330579D01*
%TO.C,D42*%
X83820000Y-94886214D02*
X82547208Y-93613421D01*
X82547208Y-93330579D02*
X83820000Y-92057786D01*
X83820000Y-92057786D02*
X85234214Y-93472000D01*
X85234214Y-93472000D02*
X83820000Y-94886214D01*
X85617056Y-93472000D02*
G75*
G03*
X85617056Y-93472000I-100000J0D01*
G01*
D12*
G36*
X83537157Y-93047736D02*
G01*
X83537157Y-93330579D01*
X83254315Y-93047736D01*
X83537157Y-93047736D01*
G37*
X83537157Y-93047736D02*
X83537157Y-93330579D01*
X83254315Y-93047736D01*
X83537157Y-93047736D01*
D11*
X82547208Y-93613421D02*
X82547208Y-93330579D01*
%TO.C,D41*%
X63500000Y-94886214D02*
X62227208Y-93613421D01*
X62227208Y-93330579D02*
X63500000Y-92057786D01*
X63500000Y-92057786D02*
X64914214Y-93472000D01*
X64914214Y-93472000D02*
X63500000Y-94886214D01*
X65297056Y-93472000D02*
G75*
G03*
X65297056Y-93472000I-100000J0D01*
G01*
D12*
G36*
X63217157Y-93047736D02*
G01*
X63217157Y-93330579D01*
X62934315Y-93047736D01*
X63217157Y-93047736D01*
G37*
X63217157Y-93047736D02*
X63217157Y-93330579D01*
X62934315Y-93047736D01*
X63217157Y-93047736D01*
D11*
X62227208Y-93613421D02*
X62227208Y-93330579D01*
%TO.C,D40*%
X63500000Y-71737786D02*
X64772792Y-73010579D01*
X64772792Y-73293421D02*
X63500000Y-74566214D01*
X63500000Y-74566214D02*
X62085786Y-73152000D01*
X62085786Y-73152000D02*
X63500000Y-71737786D01*
X61902944Y-73152000D02*
G75*
G03*
X61902944Y-73152000I-100000J0D01*
G01*
D12*
G36*
X63782843Y-73576264D02*
G01*
X63782843Y-73293421D01*
X64065685Y-73576264D01*
X63782843Y-73576264D01*
G37*
X63782843Y-73576264D02*
X63782843Y-73293421D01*
X64065685Y-73576264D01*
X63782843Y-73576264D01*
D11*
X64772792Y-73010579D02*
X64772792Y-73293421D01*
%TO.C,D39*%
X83820000Y-71737786D02*
X85092792Y-73010579D01*
X85092792Y-73293421D02*
X83820000Y-74566214D01*
X83820000Y-74566214D02*
X82405786Y-73152000D01*
X82405786Y-73152000D02*
X83820000Y-71737786D01*
X82222944Y-73152000D02*
G75*
G03*
X82222944Y-73152000I-100000J0D01*
G01*
D12*
G36*
X84102843Y-73576264D02*
G01*
X84102843Y-73293421D01*
X84385685Y-73576264D01*
X84102843Y-73576264D01*
G37*
X84102843Y-73576264D02*
X84102843Y-73293421D01*
X84385685Y-73576264D01*
X84102843Y-73576264D01*
D11*
X85092792Y-73010579D02*
X85092792Y-73293421D01*
%TO.C,D38*%
X104140000Y-71737786D02*
X105412792Y-73010579D01*
X105412792Y-73293421D02*
X104140000Y-74566214D01*
X104140000Y-74566214D02*
X102725786Y-73152000D01*
X102725786Y-73152000D02*
X104140000Y-71737786D01*
X102542944Y-73152000D02*
G75*
G03*
X102542944Y-73152000I-100000J0D01*
G01*
D12*
G36*
X104422843Y-73576264D02*
G01*
X104422843Y-73293421D01*
X104705685Y-73576264D01*
X104422843Y-73576264D01*
G37*
X104422843Y-73576264D02*
X104422843Y-73293421D01*
X104705685Y-73576264D01*
X104422843Y-73576264D01*
D11*
X105412792Y-73010579D02*
X105412792Y-73293421D01*
%TO.C,D37*%
X124460000Y-71737786D02*
X125732792Y-73010579D01*
X125732792Y-73293421D02*
X124460000Y-74566214D01*
X124460000Y-74566214D02*
X123045786Y-73152000D01*
X123045786Y-73152000D02*
X124460000Y-71737786D01*
X122862944Y-73152000D02*
G75*
G03*
X122862944Y-73152000I-100000J0D01*
G01*
D12*
G36*
X124742843Y-73576264D02*
G01*
X124742843Y-73293421D01*
X125025685Y-73576264D01*
X124742843Y-73576264D01*
G37*
X124742843Y-73576264D02*
X124742843Y-73293421D01*
X125025685Y-73576264D01*
X124742843Y-73576264D01*
D11*
X125732792Y-73010579D02*
X125732792Y-73293421D01*
%TO.C,D36*%
X144780000Y-71737786D02*
X146052792Y-73010579D01*
X146052792Y-73293421D02*
X144780000Y-74566214D01*
X144780000Y-74566214D02*
X143365786Y-73152000D01*
X143365786Y-73152000D02*
X144780000Y-71737786D01*
X143182944Y-73152000D02*
G75*
G03*
X143182944Y-73152000I-100000J0D01*
G01*
D12*
G36*
X145062843Y-73576264D02*
G01*
X145062843Y-73293421D01*
X145345685Y-73576264D01*
X145062843Y-73576264D01*
G37*
X145062843Y-73576264D02*
X145062843Y-73293421D01*
X145345685Y-73576264D01*
X145062843Y-73576264D01*
D11*
X146052792Y-73010579D02*
X146052792Y-73293421D01*
%TO.C,D35*%
X144813000Y-54246214D02*
X143540208Y-52973421D01*
X143540208Y-52690579D02*
X144813000Y-51417786D01*
X144813000Y-51417786D02*
X146227214Y-52832000D01*
X146227214Y-52832000D02*
X144813000Y-54246214D01*
X146610056Y-52832000D02*
G75*
G03*
X146610056Y-52832000I-100000J0D01*
G01*
D12*
G36*
X144530157Y-52407736D02*
G01*
X144530157Y-52690579D01*
X144247315Y-52407736D01*
X144530157Y-52407736D01*
G37*
X144530157Y-52407736D02*
X144530157Y-52690579D01*
X144247315Y-52407736D01*
X144530157Y-52407736D01*
D11*
X143540208Y-52973421D02*
X143540208Y-52690579D01*
%TO.C,D34*%
X124460000Y-54246214D02*
X123187208Y-52973421D01*
X123187208Y-52690579D02*
X124460000Y-51417786D01*
X124460000Y-51417786D02*
X125874214Y-52832000D01*
X125874214Y-52832000D02*
X124460000Y-54246214D01*
X126257056Y-52832000D02*
G75*
G03*
X126257056Y-52832000I-100000J0D01*
G01*
D12*
G36*
X124177157Y-52407736D02*
G01*
X124177157Y-52690579D01*
X123894315Y-52407736D01*
X124177157Y-52407736D01*
G37*
X124177157Y-52407736D02*
X124177157Y-52690579D01*
X123894315Y-52407736D01*
X124177157Y-52407736D01*
D11*
X123187208Y-52973421D02*
X123187208Y-52690579D01*
%TO.C,D33*%
X104140000Y-54246214D02*
X102867208Y-52973421D01*
X102867208Y-52690579D02*
X104140000Y-51417786D01*
X104140000Y-51417786D02*
X105554214Y-52832000D01*
X105554214Y-52832000D02*
X104140000Y-54246214D01*
X105937056Y-52832000D02*
G75*
G03*
X105937056Y-52832000I-100000J0D01*
G01*
D12*
G36*
X103857157Y-52407736D02*
G01*
X103857157Y-52690579D01*
X103574315Y-52407736D01*
X103857157Y-52407736D01*
G37*
X103857157Y-52407736D02*
X103857157Y-52690579D01*
X103574315Y-52407736D01*
X103857157Y-52407736D01*
D11*
X102867208Y-52973421D02*
X102867208Y-52690579D01*
%TO.C,D32*%
X83820000Y-54246214D02*
X82547208Y-52973421D01*
X82547208Y-52690579D02*
X83820000Y-51417786D01*
X83820000Y-51417786D02*
X85234214Y-52832000D01*
X85234214Y-52832000D02*
X83820000Y-54246214D01*
X85617056Y-52832000D02*
G75*
G03*
X85617056Y-52832000I-100000J0D01*
G01*
D12*
G36*
X83537157Y-52407736D02*
G01*
X83537157Y-52690579D01*
X83254315Y-52407736D01*
X83537157Y-52407736D01*
G37*
X83537157Y-52407736D02*
X83537157Y-52690579D01*
X83254315Y-52407736D01*
X83537157Y-52407736D01*
D11*
X82547208Y-52973421D02*
X82547208Y-52690579D01*
%TO.C,D31*%
X63500000Y-54246214D02*
X62227208Y-52973421D01*
X62227208Y-52690579D02*
X63500000Y-51417786D01*
X63500000Y-51417786D02*
X64914214Y-52832000D01*
X64914214Y-52832000D02*
X63500000Y-54246214D01*
X65297056Y-52832000D02*
G75*
G03*
X65297056Y-52832000I-100000J0D01*
G01*
D12*
G36*
X63217157Y-52407736D02*
G01*
X63217157Y-52690579D01*
X62934315Y-52407736D01*
X63217157Y-52407736D01*
G37*
X63217157Y-52407736D02*
X63217157Y-52690579D01*
X62934315Y-52407736D01*
X63217157Y-52407736D01*
D11*
X62227208Y-52973421D02*
X62227208Y-52690579D01*
%TO.C,D30*%
X63754000Y-31097786D02*
X65026792Y-32370579D01*
X65026792Y-32653421D02*
X63754000Y-33926214D01*
X63754000Y-33926214D02*
X62339786Y-32512000D01*
X62339786Y-32512000D02*
X63754000Y-31097786D01*
X62156944Y-32512000D02*
G75*
G03*
X62156944Y-32512000I-100000J0D01*
G01*
D12*
G36*
X64036843Y-32936264D02*
G01*
X64036843Y-32653421D01*
X64319685Y-32936264D01*
X64036843Y-32936264D01*
G37*
X64036843Y-32936264D02*
X64036843Y-32653421D01*
X64319685Y-32936264D01*
X64036843Y-32936264D01*
D11*
X65026792Y-32370579D02*
X65026792Y-32653421D01*
%TO.C,D29*%
X83820000Y-31097786D02*
X85092792Y-32370579D01*
X85092792Y-32653421D02*
X83820000Y-33926214D01*
X83820000Y-33926214D02*
X82405786Y-32512000D01*
X82405786Y-32512000D02*
X83820000Y-31097786D01*
X82222944Y-32512000D02*
G75*
G03*
X82222944Y-32512000I-100000J0D01*
G01*
D12*
G36*
X84102843Y-32936264D02*
G01*
X84102843Y-32653421D01*
X84385685Y-32936264D01*
X84102843Y-32936264D01*
G37*
X84102843Y-32936264D02*
X84102843Y-32653421D01*
X84385685Y-32936264D01*
X84102843Y-32936264D01*
D11*
X85092792Y-32370579D02*
X85092792Y-32653421D01*
%TO.C,D28*%
X104140000Y-31097786D02*
X105412792Y-32370579D01*
X105412792Y-32653421D02*
X104140000Y-33926214D01*
X104140000Y-33926214D02*
X102725786Y-32512000D01*
X102725786Y-32512000D02*
X104140000Y-31097786D01*
X102542944Y-32512000D02*
G75*
G03*
X102542944Y-32512000I-100000J0D01*
G01*
D12*
G36*
X104422843Y-32936264D02*
G01*
X104422843Y-32653421D01*
X104705685Y-32936264D01*
X104422843Y-32936264D01*
G37*
X104422843Y-32936264D02*
X104422843Y-32653421D01*
X104705685Y-32936264D01*
X104422843Y-32936264D01*
D11*
X105412792Y-32370579D02*
X105412792Y-32653421D01*
%TO.C,D27*%
X124460000Y-31097786D02*
X125732792Y-32370579D01*
X125732792Y-32653421D02*
X124460000Y-33926214D01*
X124460000Y-33926214D02*
X123045786Y-32512000D01*
X123045786Y-32512000D02*
X124460000Y-31097786D01*
X122862944Y-32512000D02*
G75*
G03*
X122862944Y-32512000I-100000J0D01*
G01*
D12*
G36*
X124742843Y-32936264D02*
G01*
X124742843Y-32653421D01*
X125025685Y-32936264D01*
X124742843Y-32936264D01*
G37*
X124742843Y-32936264D02*
X124742843Y-32653421D01*
X125025685Y-32936264D01*
X124742843Y-32936264D01*
D11*
X125732792Y-32370579D02*
X125732792Y-32653421D01*
%TO.C,D26*%
X144780000Y-31097786D02*
X146052792Y-32370579D01*
X146052792Y-32653421D02*
X144780000Y-33926214D01*
X144780000Y-33926214D02*
X143365786Y-32512000D01*
X143365786Y-32512000D02*
X144780000Y-31097786D01*
X143182944Y-32512000D02*
G75*
G03*
X143182944Y-32512000I-100000J0D01*
G01*
D12*
G36*
X145062843Y-32936264D02*
G01*
X145062843Y-32653421D01*
X145345685Y-32936264D01*
X145062843Y-32936264D01*
G37*
X145062843Y-32936264D02*
X145062843Y-32653421D01*
X145345685Y-32936264D01*
X145062843Y-32936264D01*
D11*
X146052792Y-32370579D02*
X146052792Y-32653421D01*
%TO.C,C7*%
X38346781Y-53292030D02*
X38147970Y-53093219D01*
X39068030Y-52570781D02*
X38869219Y-52371970D01*
%TO.C,C6*%
X42370030Y-53093219D02*
X42171219Y-53292030D01*
X41648781Y-52371970D02*
X41449970Y-52570781D01*
%TO.C,R11*%
X39384500Y-38845258D02*
X39384500Y-38370742D01*
X38339500Y-38845258D02*
X38339500Y-38370742D01*
%TO.C,SW27*%
X44928000Y-83718000D02*
X47528000Y-83718000D01*
X49678000Y-90018000D02*
X49428000Y-90018000D01*
X49678000Y-83718000D02*
X49678000Y-90018000D01*
X49428000Y-83718000D02*
X49678000Y-83718000D01*
X47528000Y-90018000D02*
X44928000Y-90018000D01*
X42778000Y-83718000D02*
X43028000Y-83718000D01*
X42778000Y-90018000D02*
X42778000Y-83718000D01*
X43028000Y-90018000D02*
X42778000Y-90018000D01*
%TO.C,R10*%
X49917758Y-78471500D02*
X49443242Y-78471500D01*
X49917758Y-79516500D02*
X49443242Y-79516500D01*
%TO.C,R9*%
X42909258Y-57897500D02*
X42434742Y-57897500D01*
X42909258Y-58942500D02*
X42434742Y-58942500D01*
%TO.C,R8*%
X49917758Y-57897500D02*
X49443242Y-57897500D01*
X49917758Y-58942500D02*
X49443242Y-58942500D01*
%TO.C,R7*%
X42909258Y-78471500D02*
X42434742Y-78471500D01*
X42909258Y-79516500D02*
X42434742Y-79516500D01*
%TO.C,R6*%
X46750500Y-57641258D02*
X46750500Y-57166742D01*
X45705500Y-57641258D02*
X45705500Y-57166742D01*
%TO.C,R5*%
X52053258Y-48753500D02*
X51578742Y-48753500D01*
X52053258Y-49798500D02*
X51578742Y-49798500D01*
%TO.C,R4*%
X50052500Y-30717258D02*
X50052500Y-30242742D01*
X49007500Y-30717258D02*
X49007500Y-30242742D01*
%TO.C,R3*%
X47483500Y-30242742D02*
X47483500Y-30717258D01*
X48528500Y-30242742D02*
X48528500Y-30717258D01*
%TO.C,Y1*%
X42288676Y-51230777D02*
X39955223Y-48897324D01*
X40308777Y-53210676D02*
X42288676Y-51230777D01*
%TO.C,C8*%
X47096000Y-33127836D02*
X47096000Y-32912164D01*
X46376000Y-33127836D02*
X46376000Y-32912164D01*
%TO.C,C4*%
X40492000Y-32873836D02*
X40492000Y-32658164D01*
X39772000Y-32873836D02*
X39772000Y-32658164D01*
%TO.C,C3*%
X41508000Y-32873836D02*
X41508000Y-32658164D01*
X40788000Y-32873836D02*
X40788000Y-32658164D01*
%TO.C,C2*%
X42524000Y-32873836D02*
X42524000Y-32658164D01*
X41804000Y-32873836D02*
X41804000Y-32658164D01*
%TO.C,C1*%
X50398000Y-33127836D02*
X50398000Y-32912164D01*
X49678000Y-33127836D02*
X49678000Y-32912164D01*
D13*
%TO.C,U1*%
X51911000Y-35719000D02*
X51336000Y-35719000D01*
X51911000Y-46069000D02*
X51236000Y-46069000D01*
X41561000Y-46069000D02*
X42236000Y-46069000D01*
X41561000Y-35719000D02*
X42236000Y-35719000D01*
X51911000Y-35719000D02*
X51911000Y-36394000D01*
X41561000Y-35719000D02*
X41561000Y-36394000D01*
X41561000Y-46069000D02*
X41561000Y-45394000D01*
X51911000Y-46069000D02*
X51911000Y-45394000D01*
X51336000Y-35719000D02*
X51336000Y-34444000D01*
D11*
%TO.C,SW1*%
X46228000Y-68976000D02*
X46228000Y-69976000D01*
X46728000Y-69476000D02*
X45728000Y-69476000D01*
X42528000Y-76176000D02*
X39928000Y-76176000D01*
X47528000Y-76176000D02*
X44928000Y-76176000D01*
X52528000Y-76176000D02*
X49928000Y-76176000D01*
X50328000Y-62276000D02*
X50028000Y-61976000D01*
X50328000Y-61676000D02*
X50328000Y-62276000D01*
X50028000Y-61976000D02*
X50328000Y-61676000D01*
X52528000Y-62776000D02*
X50028000Y-62776000D01*
X52528000Y-67576000D02*
X52528000Y-62776000D01*
X39928000Y-62776000D02*
X42728000Y-62776000D01*
X39928000Y-67676000D02*
X39928000Y-62776000D01*
X39928000Y-76176000D02*
X39928000Y-71276000D01*
X52528000Y-71276000D02*
X52528000Y-76176000D01*
X49228000Y-69476000D02*
G75*
G03*
X49228000Y-69476000I-3000000J0D01*
G01*
%TO.C,C5*%
X37873000Y-32519252D02*
X37873000Y-31996748D01*
X39343000Y-32519252D02*
X39343000Y-31996748D01*
%TO.C,D51*%
D13*
X43837748Y-99657008D02*
X43130642Y-98949901D01*
X43299000Y-98781542D01*
X43433687Y-98714199D01*
X43568374Y-98714199D01*
X43669390Y-98747871D01*
X43837748Y-98848886D01*
X43938764Y-98949901D01*
X44039779Y-99118260D01*
X44073451Y-99219275D01*
X44073451Y-99353962D01*
X44006107Y-99488649D01*
X43837748Y-99657008D01*
X44174466Y-97906077D02*
X43837748Y-98242794D01*
X44140794Y-98613184D01*
X44140794Y-98545840D01*
X44174466Y-98444825D01*
X44342825Y-98276466D01*
X44443840Y-98242794D01*
X44511184Y-98242794D01*
X44612199Y-98276466D01*
X44780558Y-98444825D01*
X44814229Y-98545840D01*
X44814229Y-98613184D01*
X44780558Y-98714199D01*
X44612199Y-98882558D01*
X44511184Y-98916229D01*
X44443840Y-98916229D01*
X45588680Y-97906077D02*
X45184619Y-98310138D01*
X45386649Y-98108107D02*
X44679542Y-97401000D01*
X44713214Y-97569359D01*
X44713214Y-97704046D01*
X44679542Y-97805061D01*
%TO.C,D52*%
X43837748Y-103721008D02*
X43130642Y-103013901D01*
X43299000Y-102845542D01*
X43433687Y-102778199D01*
X43568374Y-102778199D01*
X43669390Y-102811871D01*
X43837748Y-102912886D01*
X43938764Y-103013901D01*
X44039779Y-103182260D01*
X44073451Y-103283275D01*
X44073451Y-103417962D01*
X44006107Y-103552649D01*
X43837748Y-103721008D01*
X44174466Y-101970077D02*
X43837748Y-102306794D01*
X44140794Y-102677184D01*
X44140794Y-102609840D01*
X44174466Y-102508825D01*
X44342825Y-102340466D01*
X44443840Y-102306794D01*
X44511184Y-102306794D01*
X44612199Y-102340466D01*
X44780558Y-102508825D01*
X44814229Y-102609840D01*
X44814229Y-102677184D01*
X44780558Y-102778199D01*
X44612199Y-102946558D01*
X44511184Y-102980229D01*
X44443840Y-102980229D01*
X44544855Y-101734374D02*
X44544855Y-101667031D01*
X44578527Y-101566016D01*
X44746886Y-101397657D01*
X44847901Y-101363985D01*
X44915245Y-101363985D01*
X45016260Y-101397657D01*
X45083603Y-101465000D01*
X45150947Y-101599687D01*
X45150947Y-102407809D01*
X45588680Y-101970077D01*
%TO.C,D53*%
X43837748Y-107785008D02*
X43130642Y-107077901D01*
X43299000Y-106909542D01*
X43433687Y-106842199D01*
X43568374Y-106842199D01*
X43669390Y-106875871D01*
X43837748Y-106976886D01*
X43938764Y-107077901D01*
X44039779Y-107246260D01*
X44073451Y-107347275D01*
X44073451Y-107481962D01*
X44006107Y-107616649D01*
X43837748Y-107785008D01*
X44174466Y-106034077D02*
X43837748Y-106370794D01*
X44140794Y-106741184D01*
X44140794Y-106673840D01*
X44174466Y-106572825D01*
X44342825Y-106404466D01*
X44443840Y-106370794D01*
X44511184Y-106370794D01*
X44612199Y-106404466D01*
X44780558Y-106572825D01*
X44814229Y-106673840D01*
X44814229Y-106741184D01*
X44780558Y-106842199D01*
X44612199Y-107010558D01*
X44511184Y-107044229D01*
X44443840Y-107044229D01*
X44443840Y-105764703D02*
X44881573Y-105326970D01*
X44915245Y-105832046D01*
X45016260Y-105731031D01*
X45117275Y-105697359D01*
X45184619Y-105697359D01*
X45285634Y-105731031D01*
X45453993Y-105899390D01*
X45487664Y-106000405D01*
X45487664Y-106067748D01*
X45453993Y-106168764D01*
X45251962Y-106370794D01*
X45150947Y-106404466D01*
X45083603Y-106404466D01*
%TO.C,SW26*%
X61690476Y-46378761D02*
X61833333Y-46426380D01*
X62071428Y-46426380D01*
X62166666Y-46378761D01*
X62214285Y-46331142D01*
X62261904Y-46235904D01*
X62261904Y-46140666D01*
X62214285Y-46045428D01*
X62166666Y-45997809D01*
X62071428Y-45950190D01*
X61880952Y-45902571D01*
X61785714Y-45854952D01*
X61738095Y-45807333D01*
X61690476Y-45712095D01*
X61690476Y-45616857D01*
X61738095Y-45521619D01*
X61785714Y-45474000D01*
X61880952Y-45426380D01*
X62119047Y-45426380D01*
X62261904Y-45474000D01*
X62595238Y-45426380D02*
X62833333Y-46426380D01*
X63023809Y-45712095D01*
X63214285Y-46426380D01*
X63452380Y-45426380D01*
X63785714Y-45521619D02*
X63833333Y-45474000D01*
X63928571Y-45426380D01*
X64166666Y-45426380D01*
X64261904Y-45474000D01*
X64309523Y-45521619D01*
X64357142Y-45616857D01*
X64357142Y-45712095D01*
X64309523Y-45854952D01*
X63738095Y-46426380D01*
X64357142Y-46426380D01*
X65214285Y-45426380D02*
X65023809Y-45426380D01*
X64928571Y-45474000D01*
X64880952Y-45521619D01*
X64785714Y-45664476D01*
X64738095Y-45854952D01*
X64738095Y-46235904D01*
X64785714Y-46331142D01*
X64833333Y-46378761D01*
X64928571Y-46426380D01*
X65119047Y-46426380D01*
X65214285Y-46378761D01*
X65261904Y-46331142D01*
X65309523Y-46235904D01*
X65309523Y-45997809D01*
X65261904Y-45902571D01*
X65214285Y-45854952D01*
X65119047Y-45807333D01*
X64928571Y-45807333D01*
X64833333Y-45854952D01*
X64785714Y-45902571D01*
X64738095Y-45997809D01*
%TO.C,SW25*%
X61690476Y-66698761D02*
X61833333Y-66746380D01*
X62071428Y-66746380D01*
X62166666Y-66698761D01*
X62214285Y-66651142D01*
X62261904Y-66555904D01*
X62261904Y-66460666D01*
X62214285Y-66365428D01*
X62166666Y-66317809D01*
X62071428Y-66270190D01*
X61880952Y-66222571D01*
X61785714Y-66174952D01*
X61738095Y-66127333D01*
X61690476Y-66032095D01*
X61690476Y-65936857D01*
X61738095Y-65841619D01*
X61785714Y-65794000D01*
X61880952Y-65746380D01*
X62119047Y-65746380D01*
X62261904Y-65794000D01*
X62595238Y-65746380D02*
X62833333Y-66746380D01*
X63023809Y-66032095D01*
X63214285Y-66746380D01*
X63452380Y-65746380D01*
X63785714Y-65841619D02*
X63833333Y-65794000D01*
X63928571Y-65746380D01*
X64166666Y-65746380D01*
X64261904Y-65794000D01*
X64309523Y-65841619D01*
X64357142Y-65936857D01*
X64357142Y-66032095D01*
X64309523Y-66174952D01*
X63738095Y-66746380D01*
X64357142Y-66746380D01*
X65261904Y-65746380D02*
X64785714Y-65746380D01*
X64738095Y-66222571D01*
X64785714Y-66174952D01*
X64880952Y-66127333D01*
X65119047Y-66127333D01*
X65214285Y-66174952D01*
X65261904Y-66222571D01*
X65309523Y-66317809D01*
X65309523Y-66555904D01*
X65261904Y-66651142D01*
X65214285Y-66698761D01*
X65119047Y-66746380D01*
X64880952Y-66746380D01*
X64785714Y-66698761D01*
X64738095Y-66651142D01*
%TO.C,SW24*%
X61690476Y-87018761D02*
X61833333Y-87066380D01*
X62071428Y-87066380D01*
X62166666Y-87018761D01*
X62214285Y-86971142D01*
X62261904Y-86875904D01*
X62261904Y-86780666D01*
X62214285Y-86685428D01*
X62166666Y-86637809D01*
X62071428Y-86590190D01*
X61880952Y-86542571D01*
X61785714Y-86494952D01*
X61738095Y-86447333D01*
X61690476Y-86352095D01*
X61690476Y-86256857D01*
X61738095Y-86161619D01*
X61785714Y-86114000D01*
X61880952Y-86066380D01*
X62119047Y-86066380D01*
X62261904Y-86114000D01*
X62595238Y-86066380D02*
X62833333Y-87066380D01*
X63023809Y-86352095D01*
X63214285Y-87066380D01*
X63452380Y-86066380D01*
X63785714Y-86161619D02*
X63833333Y-86114000D01*
X63928571Y-86066380D01*
X64166666Y-86066380D01*
X64261904Y-86114000D01*
X64309523Y-86161619D01*
X64357142Y-86256857D01*
X64357142Y-86352095D01*
X64309523Y-86494952D01*
X63738095Y-87066380D01*
X64357142Y-87066380D01*
X65214285Y-86399714D02*
X65214285Y-87066380D01*
X64976190Y-86018761D02*
X64738095Y-86733047D01*
X65357142Y-86733047D01*
%TO.C,SW23*%
X61690476Y-107338761D02*
X61833333Y-107386380D01*
X62071428Y-107386380D01*
X62166666Y-107338761D01*
X62214285Y-107291142D01*
X62261904Y-107195904D01*
X62261904Y-107100666D01*
X62214285Y-107005428D01*
X62166666Y-106957809D01*
X62071428Y-106910190D01*
X61880952Y-106862571D01*
X61785714Y-106814952D01*
X61738095Y-106767333D01*
X61690476Y-106672095D01*
X61690476Y-106576857D01*
X61738095Y-106481619D01*
X61785714Y-106434000D01*
X61880952Y-106386380D01*
X62119047Y-106386380D01*
X62261904Y-106434000D01*
X62595238Y-106386380D02*
X62833333Y-107386380D01*
X63023809Y-106672095D01*
X63214285Y-107386380D01*
X63452380Y-106386380D01*
X63785714Y-106481619D02*
X63833333Y-106434000D01*
X63928571Y-106386380D01*
X64166666Y-106386380D01*
X64261904Y-106434000D01*
X64309523Y-106481619D01*
X64357142Y-106576857D01*
X64357142Y-106672095D01*
X64309523Y-106814952D01*
X63738095Y-107386380D01*
X64357142Y-107386380D01*
X64690476Y-106386380D02*
X65309523Y-106386380D01*
X64976190Y-106767333D01*
X65119047Y-106767333D01*
X65214285Y-106814952D01*
X65261904Y-106862571D01*
X65309523Y-106957809D01*
X65309523Y-107195904D01*
X65261904Y-107291142D01*
X65214285Y-107338761D01*
X65119047Y-107386380D01*
X64833333Y-107386380D01*
X64738095Y-107338761D01*
X64690476Y-107291142D01*
%TO.C,SW22*%
X61690476Y-127658761D02*
X61833333Y-127706380D01*
X62071428Y-127706380D01*
X62166666Y-127658761D01*
X62214285Y-127611142D01*
X62261904Y-127515904D01*
X62261904Y-127420666D01*
X62214285Y-127325428D01*
X62166666Y-127277809D01*
X62071428Y-127230190D01*
X61880952Y-127182571D01*
X61785714Y-127134952D01*
X61738095Y-127087333D01*
X61690476Y-126992095D01*
X61690476Y-126896857D01*
X61738095Y-126801619D01*
X61785714Y-126754000D01*
X61880952Y-126706380D01*
X62119047Y-126706380D01*
X62261904Y-126754000D01*
X62595238Y-126706380D02*
X62833333Y-127706380D01*
X63023809Y-126992095D01*
X63214285Y-127706380D01*
X63452380Y-126706380D01*
X63785714Y-126801619D02*
X63833333Y-126754000D01*
X63928571Y-126706380D01*
X64166666Y-126706380D01*
X64261904Y-126754000D01*
X64309523Y-126801619D01*
X64357142Y-126896857D01*
X64357142Y-126992095D01*
X64309523Y-127134952D01*
X63738095Y-127706380D01*
X64357142Y-127706380D01*
X64738095Y-126801619D02*
X64785714Y-126754000D01*
X64880952Y-126706380D01*
X65119047Y-126706380D01*
X65214285Y-126754000D01*
X65261904Y-126801619D01*
X65309523Y-126896857D01*
X65309523Y-126992095D01*
X65261904Y-127134952D01*
X64690476Y-127706380D01*
X65309523Y-127706380D01*
%TO.C,SW21*%
X82010476Y-46378761D02*
X82153333Y-46426380D01*
X82391428Y-46426380D01*
X82486666Y-46378761D01*
X82534285Y-46331142D01*
X82581904Y-46235904D01*
X82581904Y-46140666D01*
X82534285Y-46045428D01*
X82486666Y-45997809D01*
X82391428Y-45950190D01*
X82200952Y-45902571D01*
X82105714Y-45854952D01*
X82058095Y-45807333D01*
X82010476Y-45712095D01*
X82010476Y-45616857D01*
X82058095Y-45521619D01*
X82105714Y-45474000D01*
X82200952Y-45426380D01*
X82439047Y-45426380D01*
X82581904Y-45474000D01*
X82915238Y-45426380D02*
X83153333Y-46426380D01*
X83343809Y-45712095D01*
X83534285Y-46426380D01*
X83772380Y-45426380D01*
X84105714Y-45521619D02*
X84153333Y-45474000D01*
X84248571Y-45426380D01*
X84486666Y-45426380D01*
X84581904Y-45474000D01*
X84629523Y-45521619D01*
X84677142Y-45616857D01*
X84677142Y-45712095D01*
X84629523Y-45854952D01*
X84058095Y-46426380D01*
X84677142Y-46426380D01*
X85629523Y-46426380D02*
X85058095Y-46426380D01*
X85343809Y-46426380D02*
X85343809Y-45426380D01*
X85248571Y-45569238D01*
X85153333Y-45664476D01*
X85058095Y-45712095D01*
%TO.C,SW20*%
X82010476Y-66698761D02*
X82153333Y-66746380D01*
X82391428Y-66746380D01*
X82486666Y-66698761D01*
X82534285Y-66651142D01*
X82581904Y-66555904D01*
X82581904Y-66460666D01*
X82534285Y-66365428D01*
X82486666Y-66317809D01*
X82391428Y-66270190D01*
X82200952Y-66222571D01*
X82105714Y-66174952D01*
X82058095Y-66127333D01*
X82010476Y-66032095D01*
X82010476Y-65936857D01*
X82058095Y-65841619D01*
X82105714Y-65794000D01*
X82200952Y-65746380D01*
X82439047Y-65746380D01*
X82581904Y-65794000D01*
X82915238Y-65746380D02*
X83153333Y-66746380D01*
X83343809Y-66032095D01*
X83534285Y-66746380D01*
X83772380Y-65746380D01*
X84105714Y-65841619D02*
X84153333Y-65794000D01*
X84248571Y-65746380D01*
X84486666Y-65746380D01*
X84581904Y-65794000D01*
X84629523Y-65841619D01*
X84677142Y-65936857D01*
X84677142Y-66032095D01*
X84629523Y-66174952D01*
X84058095Y-66746380D01*
X84677142Y-66746380D01*
X85296190Y-65746380D02*
X85391428Y-65746380D01*
X85486666Y-65794000D01*
X85534285Y-65841619D01*
X85581904Y-65936857D01*
X85629523Y-66127333D01*
X85629523Y-66365428D01*
X85581904Y-66555904D01*
X85534285Y-66651142D01*
X85486666Y-66698761D01*
X85391428Y-66746380D01*
X85296190Y-66746380D01*
X85200952Y-66698761D01*
X85153333Y-66651142D01*
X85105714Y-66555904D01*
X85058095Y-66365428D01*
X85058095Y-66127333D01*
X85105714Y-65936857D01*
X85153333Y-65841619D01*
X85200952Y-65794000D01*
X85296190Y-65746380D01*
%TO.C,SW19*%
X82010476Y-87018761D02*
X82153333Y-87066380D01*
X82391428Y-87066380D01*
X82486666Y-87018761D01*
X82534285Y-86971142D01*
X82581904Y-86875904D01*
X82581904Y-86780666D01*
X82534285Y-86685428D01*
X82486666Y-86637809D01*
X82391428Y-86590190D01*
X82200952Y-86542571D01*
X82105714Y-86494952D01*
X82058095Y-86447333D01*
X82010476Y-86352095D01*
X82010476Y-86256857D01*
X82058095Y-86161619D01*
X82105714Y-86114000D01*
X82200952Y-86066380D01*
X82439047Y-86066380D01*
X82581904Y-86114000D01*
X82915238Y-86066380D02*
X83153333Y-87066380D01*
X83343809Y-86352095D01*
X83534285Y-87066380D01*
X83772380Y-86066380D01*
X84677142Y-87066380D02*
X84105714Y-87066380D01*
X84391428Y-87066380D02*
X84391428Y-86066380D01*
X84296190Y-86209238D01*
X84200952Y-86304476D01*
X84105714Y-86352095D01*
X85153333Y-87066380D02*
X85343809Y-87066380D01*
X85439047Y-87018761D01*
X85486666Y-86971142D01*
X85581904Y-86828285D01*
X85629523Y-86637809D01*
X85629523Y-86256857D01*
X85581904Y-86161619D01*
X85534285Y-86114000D01*
X85439047Y-86066380D01*
X85248571Y-86066380D01*
X85153333Y-86114000D01*
X85105714Y-86161619D01*
X85058095Y-86256857D01*
X85058095Y-86494952D01*
X85105714Y-86590190D01*
X85153333Y-86637809D01*
X85248571Y-86685428D01*
X85439047Y-86685428D01*
X85534285Y-86637809D01*
X85581904Y-86590190D01*
X85629523Y-86494952D01*
%TO.C,SW18*%
X82010476Y-107338761D02*
X82153333Y-107386380D01*
X82391428Y-107386380D01*
X82486666Y-107338761D01*
X82534285Y-107291142D01*
X82581904Y-107195904D01*
X82581904Y-107100666D01*
X82534285Y-107005428D01*
X82486666Y-106957809D01*
X82391428Y-106910190D01*
X82200952Y-106862571D01*
X82105714Y-106814952D01*
X82058095Y-106767333D01*
X82010476Y-106672095D01*
X82010476Y-106576857D01*
X82058095Y-106481619D01*
X82105714Y-106434000D01*
X82200952Y-106386380D01*
X82439047Y-106386380D01*
X82581904Y-106434000D01*
X82915238Y-106386380D02*
X83153333Y-107386380D01*
X83343809Y-106672095D01*
X83534285Y-107386380D01*
X83772380Y-106386380D01*
X84677142Y-107386380D02*
X84105714Y-107386380D01*
X84391428Y-107386380D02*
X84391428Y-106386380D01*
X84296190Y-106529238D01*
X84200952Y-106624476D01*
X84105714Y-106672095D01*
X85248571Y-106814952D02*
X85153333Y-106767333D01*
X85105714Y-106719714D01*
X85058095Y-106624476D01*
X85058095Y-106576857D01*
X85105714Y-106481619D01*
X85153333Y-106434000D01*
X85248571Y-106386380D01*
X85439047Y-106386380D01*
X85534285Y-106434000D01*
X85581904Y-106481619D01*
X85629523Y-106576857D01*
X85629523Y-106624476D01*
X85581904Y-106719714D01*
X85534285Y-106767333D01*
X85439047Y-106814952D01*
X85248571Y-106814952D01*
X85153333Y-106862571D01*
X85105714Y-106910190D01*
X85058095Y-107005428D01*
X85058095Y-107195904D01*
X85105714Y-107291142D01*
X85153333Y-107338761D01*
X85248571Y-107386380D01*
X85439047Y-107386380D01*
X85534285Y-107338761D01*
X85581904Y-107291142D01*
X85629523Y-107195904D01*
X85629523Y-107005428D01*
X85581904Y-106910190D01*
X85534285Y-106862571D01*
X85439047Y-106814952D01*
%TO.C,SW17*%
X82010476Y-127658761D02*
X82153333Y-127706380D01*
X82391428Y-127706380D01*
X82486666Y-127658761D01*
X82534285Y-127611142D01*
X82581904Y-127515904D01*
X82581904Y-127420666D01*
X82534285Y-127325428D01*
X82486666Y-127277809D01*
X82391428Y-127230190D01*
X82200952Y-127182571D01*
X82105714Y-127134952D01*
X82058095Y-127087333D01*
X82010476Y-126992095D01*
X82010476Y-126896857D01*
X82058095Y-126801619D01*
X82105714Y-126754000D01*
X82200952Y-126706380D01*
X82439047Y-126706380D01*
X82581904Y-126754000D01*
X82915238Y-126706380D02*
X83153333Y-127706380D01*
X83343809Y-126992095D01*
X83534285Y-127706380D01*
X83772380Y-126706380D01*
X84677142Y-127706380D02*
X84105714Y-127706380D01*
X84391428Y-127706380D02*
X84391428Y-126706380D01*
X84296190Y-126849238D01*
X84200952Y-126944476D01*
X84105714Y-126992095D01*
X85010476Y-126706380D02*
X85677142Y-126706380D01*
X85248571Y-127706380D01*
%TO.C,SW16*%
X102330476Y-46378761D02*
X102473333Y-46426380D01*
X102711428Y-46426380D01*
X102806666Y-46378761D01*
X102854285Y-46331142D01*
X102901904Y-46235904D01*
X102901904Y-46140666D01*
X102854285Y-46045428D01*
X102806666Y-45997809D01*
X102711428Y-45950190D01*
X102520952Y-45902571D01*
X102425714Y-45854952D01*
X102378095Y-45807333D01*
X102330476Y-45712095D01*
X102330476Y-45616857D01*
X102378095Y-45521619D01*
X102425714Y-45474000D01*
X102520952Y-45426380D01*
X102759047Y-45426380D01*
X102901904Y-45474000D01*
X103235238Y-45426380D02*
X103473333Y-46426380D01*
X103663809Y-45712095D01*
X103854285Y-46426380D01*
X104092380Y-45426380D01*
X104997142Y-46426380D02*
X104425714Y-46426380D01*
X104711428Y-46426380D02*
X104711428Y-45426380D01*
X104616190Y-45569238D01*
X104520952Y-45664476D01*
X104425714Y-45712095D01*
X105854285Y-45426380D02*
X105663809Y-45426380D01*
X105568571Y-45474000D01*
X105520952Y-45521619D01*
X105425714Y-45664476D01*
X105378095Y-45854952D01*
X105378095Y-46235904D01*
X105425714Y-46331142D01*
X105473333Y-46378761D01*
X105568571Y-46426380D01*
X105759047Y-46426380D01*
X105854285Y-46378761D01*
X105901904Y-46331142D01*
X105949523Y-46235904D01*
X105949523Y-45997809D01*
X105901904Y-45902571D01*
X105854285Y-45854952D01*
X105759047Y-45807333D01*
X105568571Y-45807333D01*
X105473333Y-45854952D01*
X105425714Y-45902571D01*
X105378095Y-45997809D01*
%TO.C,SW15*%
X102330476Y-66698761D02*
X102473333Y-66746380D01*
X102711428Y-66746380D01*
X102806666Y-66698761D01*
X102854285Y-66651142D01*
X102901904Y-66555904D01*
X102901904Y-66460666D01*
X102854285Y-66365428D01*
X102806666Y-66317809D01*
X102711428Y-66270190D01*
X102520952Y-66222571D01*
X102425714Y-66174952D01*
X102378095Y-66127333D01*
X102330476Y-66032095D01*
X102330476Y-65936857D01*
X102378095Y-65841619D01*
X102425714Y-65794000D01*
X102520952Y-65746380D01*
X102759047Y-65746380D01*
X102901904Y-65794000D01*
X103235238Y-65746380D02*
X103473333Y-66746380D01*
X103663809Y-66032095D01*
X103854285Y-66746380D01*
X104092380Y-65746380D01*
X104997142Y-66746380D02*
X104425714Y-66746380D01*
X104711428Y-66746380D02*
X104711428Y-65746380D01*
X104616190Y-65889238D01*
X104520952Y-65984476D01*
X104425714Y-66032095D01*
X105901904Y-65746380D02*
X105425714Y-65746380D01*
X105378095Y-66222571D01*
X105425714Y-66174952D01*
X105520952Y-66127333D01*
X105759047Y-66127333D01*
X105854285Y-66174952D01*
X105901904Y-66222571D01*
X105949523Y-66317809D01*
X105949523Y-66555904D01*
X105901904Y-66651142D01*
X105854285Y-66698761D01*
X105759047Y-66746380D01*
X105520952Y-66746380D01*
X105425714Y-66698761D01*
X105378095Y-66651142D01*
%TO.C,SW14*%
X102330476Y-87018761D02*
X102473333Y-87066380D01*
X102711428Y-87066380D01*
X102806666Y-87018761D01*
X102854285Y-86971142D01*
X102901904Y-86875904D01*
X102901904Y-86780666D01*
X102854285Y-86685428D01*
X102806666Y-86637809D01*
X102711428Y-86590190D01*
X102520952Y-86542571D01*
X102425714Y-86494952D01*
X102378095Y-86447333D01*
X102330476Y-86352095D01*
X102330476Y-86256857D01*
X102378095Y-86161619D01*
X102425714Y-86114000D01*
X102520952Y-86066380D01*
X102759047Y-86066380D01*
X102901904Y-86114000D01*
X103235238Y-86066380D02*
X103473333Y-87066380D01*
X103663809Y-86352095D01*
X103854285Y-87066380D01*
X104092380Y-86066380D01*
X104997142Y-87066380D02*
X104425714Y-87066380D01*
X104711428Y-87066380D02*
X104711428Y-86066380D01*
X104616190Y-86209238D01*
X104520952Y-86304476D01*
X104425714Y-86352095D01*
X105854285Y-86399714D02*
X105854285Y-87066380D01*
X105616190Y-86018761D02*
X105378095Y-86733047D01*
X105997142Y-86733047D01*
%TO.C,SW13*%
X102330476Y-107338761D02*
X102473333Y-107386380D01*
X102711428Y-107386380D01*
X102806666Y-107338761D01*
X102854285Y-107291142D01*
X102901904Y-107195904D01*
X102901904Y-107100666D01*
X102854285Y-107005428D01*
X102806666Y-106957809D01*
X102711428Y-106910190D01*
X102520952Y-106862571D01*
X102425714Y-106814952D01*
X102378095Y-106767333D01*
X102330476Y-106672095D01*
X102330476Y-106576857D01*
X102378095Y-106481619D01*
X102425714Y-106434000D01*
X102520952Y-106386380D01*
X102759047Y-106386380D01*
X102901904Y-106434000D01*
X103235238Y-106386380D02*
X103473333Y-107386380D01*
X103663809Y-106672095D01*
X103854285Y-107386380D01*
X104092380Y-106386380D01*
X104997142Y-107386380D02*
X104425714Y-107386380D01*
X104711428Y-107386380D02*
X104711428Y-106386380D01*
X104616190Y-106529238D01*
X104520952Y-106624476D01*
X104425714Y-106672095D01*
X105330476Y-106386380D02*
X105949523Y-106386380D01*
X105616190Y-106767333D01*
X105759047Y-106767333D01*
X105854285Y-106814952D01*
X105901904Y-106862571D01*
X105949523Y-106957809D01*
X105949523Y-107195904D01*
X105901904Y-107291142D01*
X105854285Y-107338761D01*
X105759047Y-107386380D01*
X105473333Y-107386380D01*
X105378095Y-107338761D01*
X105330476Y-107291142D01*
%TO.C,SW12*%
X102330476Y-127658761D02*
X102473333Y-127706380D01*
X102711428Y-127706380D01*
X102806666Y-127658761D01*
X102854285Y-127611142D01*
X102901904Y-127515904D01*
X102901904Y-127420666D01*
X102854285Y-127325428D01*
X102806666Y-127277809D01*
X102711428Y-127230190D01*
X102520952Y-127182571D01*
X102425714Y-127134952D01*
X102378095Y-127087333D01*
X102330476Y-126992095D01*
X102330476Y-126896857D01*
X102378095Y-126801619D01*
X102425714Y-126754000D01*
X102520952Y-126706380D01*
X102759047Y-126706380D01*
X102901904Y-126754000D01*
X103235238Y-126706380D02*
X103473333Y-127706380D01*
X103663809Y-126992095D01*
X103854285Y-127706380D01*
X104092380Y-126706380D01*
X104997142Y-127706380D02*
X104425714Y-127706380D01*
X104711428Y-127706380D02*
X104711428Y-126706380D01*
X104616190Y-126849238D01*
X104520952Y-126944476D01*
X104425714Y-126992095D01*
X105378095Y-126801619D02*
X105425714Y-126754000D01*
X105520952Y-126706380D01*
X105759047Y-126706380D01*
X105854285Y-126754000D01*
X105901904Y-126801619D01*
X105949523Y-126896857D01*
X105949523Y-126992095D01*
X105901904Y-127134952D01*
X105330476Y-127706380D01*
X105949523Y-127706380D01*
%TO.C,SW11*%
X122650476Y-46378761D02*
X122793333Y-46426380D01*
X123031428Y-46426380D01*
X123126666Y-46378761D01*
X123174285Y-46331142D01*
X123221904Y-46235904D01*
X123221904Y-46140666D01*
X123174285Y-46045428D01*
X123126666Y-45997809D01*
X123031428Y-45950190D01*
X122840952Y-45902571D01*
X122745714Y-45854952D01*
X122698095Y-45807333D01*
X122650476Y-45712095D01*
X122650476Y-45616857D01*
X122698095Y-45521619D01*
X122745714Y-45474000D01*
X122840952Y-45426380D01*
X123079047Y-45426380D01*
X123221904Y-45474000D01*
X123555238Y-45426380D02*
X123793333Y-46426380D01*
X123983809Y-45712095D01*
X124174285Y-46426380D01*
X124412380Y-45426380D01*
X125317142Y-46426380D02*
X124745714Y-46426380D01*
X125031428Y-46426380D02*
X125031428Y-45426380D01*
X124936190Y-45569238D01*
X124840952Y-45664476D01*
X124745714Y-45712095D01*
X126269523Y-46426380D02*
X125698095Y-46426380D01*
X125983809Y-46426380D02*
X125983809Y-45426380D01*
X125888571Y-45569238D01*
X125793333Y-45664476D01*
X125698095Y-45712095D01*
%TO.C,SW10*%
X122650476Y-66698761D02*
X122793333Y-66746380D01*
X123031428Y-66746380D01*
X123126666Y-66698761D01*
X123174285Y-66651142D01*
X123221904Y-66555904D01*
X123221904Y-66460666D01*
X123174285Y-66365428D01*
X123126666Y-66317809D01*
X123031428Y-66270190D01*
X122840952Y-66222571D01*
X122745714Y-66174952D01*
X122698095Y-66127333D01*
X122650476Y-66032095D01*
X122650476Y-65936857D01*
X122698095Y-65841619D01*
X122745714Y-65794000D01*
X122840952Y-65746380D01*
X123079047Y-65746380D01*
X123221904Y-65794000D01*
X123555238Y-65746380D02*
X123793333Y-66746380D01*
X123983809Y-66032095D01*
X124174285Y-66746380D01*
X124412380Y-65746380D01*
X125317142Y-66746380D02*
X124745714Y-66746380D01*
X125031428Y-66746380D02*
X125031428Y-65746380D01*
X124936190Y-65889238D01*
X124840952Y-65984476D01*
X124745714Y-66032095D01*
X125936190Y-65746380D02*
X126031428Y-65746380D01*
X126126666Y-65794000D01*
X126174285Y-65841619D01*
X126221904Y-65936857D01*
X126269523Y-66127333D01*
X126269523Y-66365428D01*
X126221904Y-66555904D01*
X126174285Y-66651142D01*
X126126666Y-66698761D01*
X126031428Y-66746380D01*
X125936190Y-66746380D01*
X125840952Y-66698761D01*
X125793333Y-66651142D01*
X125745714Y-66555904D01*
X125698095Y-66365428D01*
X125698095Y-66127333D01*
X125745714Y-65936857D01*
X125793333Y-65841619D01*
X125840952Y-65794000D01*
X125936190Y-65746380D01*
%TO.C,SW9*%
X123126666Y-87018761D02*
X123269523Y-87066380D01*
X123507619Y-87066380D01*
X123602857Y-87018761D01*
X123650476Y-86971142D01*
X123698095Y-86875904D01*
X123698095Y-86780666D01*
X123650476Y-86685428D01*
X123602857Y-86637809D01*
X123507619Y-86590190D01*
X123317142Y-86542571D01*
X123221904Y-86494952D01*
X123174285Y-86447333D01*
X123126666Y-86352095D01*
X123126666Y-86256857D01*
X123174285Y-86161619D01*
X123221904Y-86114000D01*
X123317142Y-86066380D01*
X123555238Y-86066380D01*
X123698095Y-86114000D01*
X124031428Y-86066380D02*
X124269523Y-87066380D01*
X124460000Y-86352095D01*
X124650476Y-87066380D01*
X124888571Y-86066380D01*
X125317142Y-87066380D02*
X125507619Y-87066380D01*
X125602857Y-87018761D01*
X125650476Y-86971142D01*
X125745714Y-86828285D01*
X125793333Y-86637809D01*
X125793333Y-86256857D01*
X125745714Y-86161619D01*
X125698095Y-86114000D01*
X125602857Y-86066380D01*
X125412380Y-86066380D01*
X125317142Y-86114000D01*
X125269523Y-86161619D01*
X125221904Y-86256857D01*
X125221904Y-86494952D01*
X125269523Y-86590190D01*
X125317142Y-86637809D01*
X125412380Y-86685428D01*
X125602857Y-86685428D01*
X125698095Y-86637809D01*
X125745714Y-86590190D01*
X125793333Y-86494952D01*
%TO.C,SW8*%
X123126666Y-107338761D02*
X123269523Y-107386380D01*
X123507619Y-107386380D01*
X123602857Y-107338761D01*
X123650476Y-107291142D01*
X123698095Y-107195904D01*
X123698095Y-107100666D01*
X123650476Y-107005428D01*
X123602857Y-106957809D01*
X123507619Y-106910190D01*
X123317142Y-106862571D01*
X123221904Y-106814952D01*
X123174285Y-106767333D01*
X123126666Y-106672095D01*
X123126666Y-106576857D01*
X123174285Y-106481619D01*
X123221904Y-106434000D01*
X123317142Y-106386380D01*
X123555238Y-106386380D01*
X123698095Y-106434000D01*
X124031428Y-106386380D02*
X124269523Y-107386380D01*
X124460000Y-106672095D01*
X124650476Y-107386380D01*
X124888571Y-106386380D01*
X125412380Y-106814952D02*
X125317142Y-106767333D01*
X125269523Y-106719714D01*
X125221904Y-106624476D01*
X125221904Y-106576857D01*
X125269523Y-106481619D01*
X125317142Y-106434000D01*
X125412380Y-106386380D01*
X125602857Y-106386380D01*
X125698095Y-106434000D01*
X125745714Y-106481619D01*
X125793333Y-106576857D01*
X125793333Y-106624476D01*
X125745714Y-106719714D01*
X125698095Y-106767333D01*
X125602857Y-106814952D01*
X125412380Y-106814952D01*
X125317142Y-106862571D01*
X125269523Y-106910190D01*
X125221904Y-107005428D01*
X125221904Y-107195904D01*
X125269523Y-107291142D01*
X125317142Y-107338761D01*
X125412380Y-107386380D01*
X125602857Y-107386380D01*
X125698095Y-107338761D01*
X125745714Y-107291142D01*
X125793333Y-107195904D01*
X125793333Y-107005428D01*
X125745714Y-106910190D01*
X125698095Y-106862571D01*
X125602857Y-106814952D01*
%TO.C,SW7*%
X123126666Y-127658761D02*
X123269523Y-127706380D01*
X123507619Y-127706380D01*
X123602857Y-127658761D01*
X123650476Y-127611142D01*
X123698095Y-127515904D01*
X123698095Y-127420666D01*
X123650476Y-127325428D01*
X123602857Y-127277809D01*
X123507619Y-127230190D01*
X123317142Y-127182571D01*
X123221904Y-127134952D01*
X123174285Y-127087333D01*
X123126666Y-126992095D01*
X123126666Y-126896857D01*
X123174285Y-126801619D01*
X123221904Y-126754000D01*
X123317142Y-126706380D01*
X123555238Y-126706380D01*
X123698095Y-126754000D01*
X124031428Y-126706380D02*
X124269523Y-127706380D01*
X124460000Y-126992095D01*
X124650476Y-127706380D01*
X124888571Y-126706380D01*
X125174285Y-126706380D02*
X125840952Y-126706380D01*
X125412380Y-127706380D01*
%TO.C,SW6*%
X143446666Y-46378761D02*
X143589523Y-46426380D01*
X143827619Y-46426380D01*
X143922857Y-46378761D01*
X143970476Y-46331142D01*
X144018095Y-46235904D01*
X144018095Y-46140666D01*
X143970476Y-46045428D01*
X143922857Y-45997809D01*
X143827619Y-45950190D01*
X143637142Y-45902571D01*
X143541904Y-45854952D01*
X143494285Y-45807333D01*
X143446666Y-45712095D01*
X143446666Y-45616857D01*
X143494285Y-45521619D01*
X143541904Y-45474000D01*
X143637142Y-45426380D01*
X143875238Y-45426380D01*
X144018095Y-45474000D01*
X144351428Y-45426380D02*
X144589523Y-46426380D01*
X144780000Y-45712095D01*
X144970476Y-46426380D01*
X145208571Y-45426380D01*
X146018095Y-45426380D02*
X145827619Y-45426380D01*
X145732380Y-45474000D01*
X145684761Y-45521619D01*
X145589523Y-45664476D01*
X145541904Y-45854952D01*
X145541904Y-46235904D01*
X145589523Y-46331142D01*
X145637142Y-46378761D01*
X145732380Y-46426380D01*
X145922857Y-46426380D01*
X146018095Y-46378761D01*
X146065714Y-46331142D01*
X146113333Y-46235904D01*
X146113333Y-45997809D01*
X146065714Y-45902571D01*
X146018095Y-45854952D01*
X145922857Y-45807333D01*
X145732380Y-45807333D01*
X145637142Y-45854952D01*
X145589523Y-45902571D01*
X145541904Y-45997809D01*
%TO.C,SW5*%
X143446666Y-66698761D02*
X143589523Y-66746380D01*
X143827619Y-66746380D01*
X143922857Y-66698761D01*
X143970476Y-66651142D01*
X144018095Y-66555904D01*
X144018095Y-66460666D01*
X143970476Y-66365428D01*
X143922857Y-66317809D01*
X143827619Y-66270190D01*
X143637142Y-66222571D01*
X143541904Y-66174952D01*
X143494285Y-66127333D01*
X143446666Y-66032095D01*
X143446666Y-65936857D01*
X143494285Y-65841619D01*
X143541904Y-65794000D01*
X143637142Y-65746380D01*
X143875238Y-65746380D01*
X144018095Y-65794000D01*
X144351428Y-65746380D02*
X144589523Y-66746380D01*
X144780000Y-66032095D01*
X144970476Y-66746380D01*
X145208571Y-65746380D01*
X146065714Y-65746380D02*
X145589523Y-65746380D01*
X145541904Y-66222571D01*
X145589523Y-66174952D01*
X145684761Y-66127333D01*
X145922857Y-66127333D01*
X146018095Y-66174952D01*
X146065714Y-66222571D01*
X146113333Y-66317809D01*
X146113333Y-66555904D01*
X146065714Y-66651142D01*
X146018095Y-66698761D01*
X145922857Y-66746380D01*
X145684761Y-66746380D01*
X145589523Y-66698761D01*
X145541904Y-66651142D01*
%TO.C,SW4*%
X143446666Y-87018761D02*
X143589523Y-87066380D01*
X143827619Y-87066380D01*
X143922857Y-87018761D01*
X143970476Y-86971142D01*
X144018095Y-86875904D01*
X144018095Y-86780666D01*
X143970476Y-86685428D01*
X143922857Y-86637809D01*
X143827619Y-86590190D01*
X143637142Y-86542571D01*
X143541904Y-86494952D01*
X143494285Y-86447333D01*
X143446666Y-86352095D01*
X143446666Y-86256857D01*
X143494285Y-86161619D01*
X143541904Y-86114000D01*
X143637142Y-86066380D01*
X143875238Y-86066380D01*
X144018095Y-86114000D01*
X144351428Y-86066380D02*
X144589523Y-87066380D01*
X144780000Y-86352095D01*
X144970476Y-87066380D01*
X145208571Y-86066380D01*
X146018095Y-86399714D02*
X146018095Y-87066380D01*
X145780000Y-86018761D02*
X145541904Y-86733047D01*
X146160952Y-86733047D01*
%TO.C,SW3*%
X143446666Y-107338761D02*
X143589523Y-107386380D01*
X143827619Y-107386380D01*
X143922857Y-107338761D01*
X143970476Y-107291142D01*
X144018095Y-107195904D01*
X144018095Y-107100666D01*
X143970476Y-107005428D01*
X143922857Y-106957809D01*
X143827619Y-106910190D01*
X143637142Y-106862571D01*
X143541904Y-106814952D01*
X143494285Y-106767333D01*
X143446666Y-106672095D01*
X143446666Y-106576857D01*
X143494285Y-106481619D01*
X143541904Y-106434000D01*
X143637142Y-106386380D01*
X143875238Y-106386380D01*
X144018095Y-106434000D01*
X144351428Y-106386380D02*
X144589523Y-107386380D01*
X144780000Y-106672095D01*
X144970476Y-107386380D01*
X145208571Y-106386380D01*
X145494285Y-106386380D02*
X146113333Y-106386380D01*
X145780000Y-106767333D01*
X145922857Y-106767333D01*
X146018095Y-106814952D01*
X146065714Y-106862571D01*
X146113333Y-106957809D01*
X146113333Y-107195904D01*
X146065714Y-107291142D01*
X146018095Y-107338761D01*
X145922857Y-107386380D01*
X145637142Y-107386380D01*
X145541904Y-107338761D01*
X145494285Y-107291142D01*
%TO.C,SW2*%
X143446666Y-127658761D02*
X143589523Y-127706380D01*
X143827619Y-127706380D01*
X143922857Y-127658761D01*
X143970476Y-127611142D01*
X144018095Y-127515904D01*
X144018095Y-127420666D01*
X143970476Y-127325428D01*
X143922857Y-127277809D01*
X143827619Y-127230190D01*
X143637142Y-127182571D01*
X143541904Y-127134952D01*
X143494285Y-127087333D01*
X143446666Y-126992095D01*
X143446666Y-126896857D01*
X143494285Y-126801619D01*
X143541904Y-126754000D01*
X143637142Y-126706380D01*
X143875238Y-126706380D01*
X144018095Y-126754000D01*
X144351428Y-126706380D02*
X144589523Y-127706380D01*
X144780000Y-126992095D01*
X144970476Y-127706380D01*
X145208571Y-126706380D01*
X145541904Y-126801619D02*
X145589523Y-126754000D01*
X145684761Y-126706380D01*
X145922857Y-126706380D01*
X146018095Y-126754000D01*
X146065714Y-126801619D01*
X146113333Y-126896857D01*
X146113333Y-126992095D01*
X146065714Y-127134952D01*
X145494285Y-127706380D01*
X146113333Y-127706380D01*
%TO.C,D50*%
X63664991Y-111909748D02*
X64372098Y-111202642D01*
X64540457Y-111371000D01*
X64607800Y-111505687D01*
X64607800Y-111640374D01*
X64574128Y-111741390D01*
X64473113Y-111909748D01*
X64372098Y-112010764D01*
X64203739Y-112111779D01*
X64102724Y-112145451D01*
X63968037Y-112145451D01*
X63833350Y-112078107D01*
X63664991Y-111909748D01*
X65415922Y-112246466D02*
X65079205Y-111909748D01*
X64708815Y-112212794D01*
X64776159Y-112212794D01*
X64877174Y-112246466D01*
X65045533Y-112414825D01*
X65079205Y-112515840D01*
X65079205Y-112583184D01*
X65045533Y-112684199D01*
X64877174Y-112852558D01*
X64776159Y-112886229D01*
X64708815Y-112886229D01*
X64607800Y-112852558D01*
X64439441Y-112684199D01*
X64405770Y-112583184D01*
X64405770Y-112515840D01*
X65887327Y-112717871D02*
X65954670Y-112785214D01*
X65988342Y-112886229D01*
X65988342Y-112953573D01*
X65954670Y-113054588D01*
X65853655Y-113222947D01*
X65685296Y-113391306D01*
X65516938Y-113492321D01*
X65415922Y-113525993D01*
X65348579Y-113525993D01*
X65247564Y-113492321D01*
X65180220Y-113424977D01*
X65146548Y-113323962D01*
X65146548Y-113256619D01*
X65180220Y-113155603D01*
X65281235Y-112987245D01*
X65449594Y-112818886D01*
X65617953Y-112717871D01*
X65718968Y-112684199D01*
X65786312Y-112684199D01*
X65887327Y-112717871D01*
%TO.C,D49*%
X83984991Y-111909748D02*
X84692098Y-111202642D01*
X84860457Y-111371000D01*
X84927800Y-111505687D01*
X84927800Y-111640374D01*
X84894128Y-111741390D01*
X84793113Y-111909748D01*
X84692098Y-112010764D01*
X84523739Y-112111779D01*
X84422724Y-112145451D01*
X84288037Y-112145451D01*
X84153350Y-112078107D01*
X83984991Y-111909748D01*
X85466548Y-112448497D02*
X84995144Y-112919901D01*
X85567564Y-112010764D02*
X84894128Y-112347481D01*
X85331861Y-112785214D01*
X85399205Y-113323962D02*
X85533892Y-113458649D01*
X85634907Y-113492321D01*
X85702251Y-113492321D01*
X85870609Y-113458649D01*
X86038968Y-113357634D01*
X86308342Y-113088260D01*
X86342014Y-112987245D01*
X86342014Y-112919901D01*
X86308342Y-112818886D01*
X86173655Y-112684199D01*
X86072640Y-112650527D01*
X86005296Y-112650527D01*
X85904281Y-112684199D01*
X85735922Y-112852558D01*
X85702251Y-112953573D01*
X85702251Y-113020916D01*
X85735922Y-113121932D01*
X85870609Y-113256619D01*
X85971625Y-113290290D01*
X86038968Y-113290290D01*
X86139983Y-113256619D01*
%TO.C,D48*%
X104304991Y-111909748D02*
X105012098Y-111202642D01*
X105180457Y-111371000D01*
X105247800Y-111505687D01*
X105247800Y-111640374D01*
X105214128Y-111741390D01*
X105113113Y-111909748D01*
X105012098Y-112010764D01*
X104843739Y-112111779D01*
X104742724Y-112145451D01*
X104608037Y-112145451D01*
X104473350Y-112078107D01*
X104304991Y-111909748D01*
X105786548Y-112448497D02*
X105315144Y-112919901D01*
X105887564Y-112010764D02*
X105214128Y-112347481D01*
X105651861Y-112785214D01*
X106190609Y-112987245D02*
X106156938Y-112886229D01*
X106156938Y-112818886D01*
X106190609Y-112717871D01*
X106224281Y-112684199D01*
X106325296Y-112650527D01*
X106392640Y-112650527D01*
X106493655Y-112684199D01*
X106628342Y-112818886D01*
X106662014Y-112919901D01*
X106662014Y-112987245D01*
X106628342Y-113088260D01*
X106594670Y-113121932D01*
X106493655Y-113155603D01*
X106426312Y-113155603D01*
X106325296Y-113121932D01*
X106190609Y-112987245D01*
X106089594Y-112953573D01*
X106022251Y-112953573D01*
X105921235Y-112987245D01*
X105786548Y-113121932D01*
X105752877Y-113222947D01*
X105752877Y-113290290D01*
X105786548Y-113391306D01*
X105921235Y-113525993D01*
X106022251Y-113559664D01*
X106089594Y-113559664D01*
X106190609Y-113525993D01*
X106325296Y-113391306D01*
X106358968Y-113290290D01*
X106358968Y-113222947D01*
X106325296Y-113121932D01*
%TO.C,D47*%
X124624991Y-111909748D02*
X125332098Y-111202642D01*
X125500457Y-111371000D01*
X125567800Y-111505687D01*
X125567800Y-111640374D01*
X125534128Y-111741390D01*
X125433113Y-111909748D01*
X125332098Y-112010764D01*
X125163739Y-112111779D01*
X125062724Y-112145451D01*
X124928037Y-112145451D01*
X124793350Y-112078107D01*
X124624991Y-111909748D01*
X126106548Y-112448497D02*
X125635144Y-112919901D01*
X126207564Y-112010764D02*
X125534128Y-112347481D01*
X125971861Y-112785214D01*
X126645296Y-112515840D02*
X127116701Y-112987245D01*
X126106548Y-113391306D01*
%TO.C,D46*%
X144944991Y-111909748D02*
X145652098Y-111202642D01*
X145820457Y-111371000D01*
X145887800Y-111505687D01*
X145887800Y-111640374D01*
X145854128Y-111741390D01*
X145753113Y-111909748D01*
X145652098Y-112010764D01*
X145483739Y-112111779D01*
X145382724Y-112145451D01*
X145248037Y-112145451D01*
X145113350Y-112078107D01*
X144944991Y-111909748D01*
X146426548Y-112448496D02*
X145955144Y-112919901D01*
X146527564Y-112010764D02*
X145854128Y-112347481D01*
X146291861Y-112785214D01*
X147335686Y-112886229D02*
X147200999Y-112751542D01*
X147099983Y-112717871D01*
X147032640Y-112717871D01*
X146864281Y-112751542D01*
X146695922Y-112852558D01*
X146426548Y-113121932D01*
X146392877Y-113222947D01*
X146392877Y-113290290D01*
X146426548Y-113391306D01*
X146561235Y-113525993D01*
X146662251Y-113559664D01*
X146729594Y-113559664D01*
X146830609Y-113525993D01*
X146998968Y-113357634D01*
X147032640Y-113256619D01*
X147032640Y-113189275D01*
X146998968Y-113088260D01*
X146864281Y-112953573D01*
X146763266Y-112919901D01*
X146695922Y-112919901D01*
X146594907Y-112953573D01*
%TO.C,D45*%
X142257985Y-94276754D02*
X142965092Y-93569648D01*
X143133451Y-93738006D01*
X143200794Y-93872693D01*
X143200794Y-94007380D01*
X143167122Y-94108396D01*
X143066107Y-94276754D01*
X142965092Y-94377770D01*
X142796733Y-94478785D01*
X142695718Y-94512457D01*
X142561031Y-94512457D01*
X142426344Y-94445113D01*
X142257985Y-94276754D01*
X143739542Y-94815502D02*
X143268138Y-95286907D01*
X143840558Y-94377770D02*
X143167122Y-94714487D01*
X143604855Y-95152220D01*
X144682351Y-95286907D02*
X144345634Y-94950190D01*
X143975245Y-95253235D01*
X144042588Y-95253235D01*
X144143603Y-95286907D01*
X144311962Y-95455266D01*
X144345634Y-95556281D01*
X144345634Y-95623625D01*
X144311962Y-95724640D01*
X144143603Y-95892999D01*
X144042588Y-95926670D01*
X143975245Y-95926670D01*
X143874229Y-95892999D01*
X143705871Y-95724640D01*
X143672199Y-95623625D01*
X143672199Y-95556281D01*
%TO.C,D44*%
X121937985Y-94276754D02*
X122645092Y-93569648D01*
X122813451Y-93738006D01*
X122880794Y-93872693D01*
X122880794Y-94007380D01*
X122847122Y-94108396D01*
X122746107Y-94276754D01*
X122645092Y-94377770D01*
X122476733Y-94478785D01*
X122375718Y-94512457D01*
X122241031Y-94512457D01*
X122106344Y-94445113D01*
X121937985Y-94276754D01*
X123419542Y-94815503D02*
X122948138Y-95286907D01*
X123520558Y-94377770D02*
X122847122Y-94714487D01*
X123284855Y-95152220D01*
X124092977Y-95488938D02*
X123621573Y-95960342D01*
X124193993Y-95051205D02*
X123520558Y-95387922D01*
X123958290Y-95825655D01*
%TO.C,D43*%
X101617985Y-94276754D02*
X102325092Y-93569648D01*
X102493451Y-93738006D01*
X102560794Y-93872693D01*
X102560794Y-94007380D01*
X102527122Y-94108396D01*
X102426107Y-94276754D01*
X102325092Y-94377770D01*
X102156733Y-94478785D01*
X102055718Y-94512457D01*
X101921031Y-94512457D01*
X101786344Y-94445113D01*
X101617985Y-94276754D01*
X103099542Y-94815503D02*
X102628138Y-95286907D01*
X103200558Y-94377770D02*
X102527122Y-94714487D01*
X102964855Y-95152220D01*
X103638290Y-94882846D02*
X104076023Y-95320579D01*
X103570947Y-95354251D01*
X103671962Y-95455266D01*
X103705634Y-95556281D01*
X103705634Y-95623625D01*
X103671962Y-95724640D01*
X103503603Y-95892999D01*
X103402588Y-95926670D01*
X103335245Y-95926670D01*
X103234229Y-95892999D01*
X103032199Y-95690968D01*
X102998527Y-95589953D01*
X102998527Y-95522609D01*
%TO.C,D42*%
X81297985Y-94276754D02*
X82005092Y-93569648D01*
X82173451Y-93738006D01*
X82240794Y-93872693D01*
X82240794Y-94007380D01*
X82207122Y-94108396D01*
X82106107Y-94276754D01*
X82005092Y-94377770D01*
X81836733Y-94478785D01*
X81735718Y-94512457D01*
X81601031Y-94512457D01*
X81466344Y-94445113D01*
X81297985Y-94276754D01*
X82779542Y-94815503D02*
X82308138Y-95286907D01*
X82880558Y-94377770D02*
X82207122Y-94714487D01*
X82644855Y-95152220D01*
X83284619Y-94983861D02*
X83351962Y-94983861D01*
X83452977Y-95017533D01*
X83621336Y-95185892D01*
X83655008Y-95286907D01*
X83655008Y-95354251D01*
X83621336Y-95455266D01*
X83553993Y-95522609D01*
X83419306Y-95589953D01*
X82611184Y-95589953D01*
X83048916Y-96027686D01*
%TO.C,D41*%
X60977985Y-94276754D02*
X61685092Y-93569648D01*
X61853451Y-93738006D01*
X61920794Y-93872693D01*
X61920794Y-94007380D01*
X61887122Y-94108396D01*
X61786107Y-94276754D01*
X61685092Y-94377770D01*
X61516733Y-94478785D01*
X61415718Y-94512457D01*
X61281031Y-94512457D01*
X61146344Y-94445113D01*
X60977985Y-94276754D01*
X62459542Y-94815503D02*
X61988138Y-95286907D01*
X62560558Y-94377770D02*
X61887122Y-94714487D01*
X62324855Y-95152220D01*
X62728916Y-96027686D02*
X62324855Y-95623625D01*
X62526886Y-95825655D02*
X63233993Y-95118548D01*
X63065634Y-95152220D01*
X62930947Y-95152220D01*
X62829932Y-95118548D01*
%TO.C,D40*%
X63664991Y-71269748D02*
X64372098Y-70562642D01*
X64540457Y-70731000D01*
X64607800Y-70865687D01*
X64607800Y-71000374D01*
X64574128Y-71101390D01*
X64473113Y-71269748D01*
X64372098Y-71370764D01*
X64203739Y-71471779D01*
X64102724Y-71505451D01*
X63968037Y-71505451D01*
X63833350Y-71438107D01*
X63664991Y-71269748D01*
X65146548Y-71808497D02*
X64675144Y-72279901D01*
X65247564Y-71370764D02*
X64574128Y-71707481D01*
X65011861Y-72145214D01*
X65887327Y-72077871D02*
X65954670Y-72145214D01*
X65988342Y-72246229D01*
X65988342Y-72313573D01*
X65954670Y-72414588D01*
X65853655Y-72582947D01*
X65685296Y-72751306D01*
X65516938Y-72852321D01*
X65415922Y-72885993D01*
X65348579Y-72885993D01*
X65247564Y-72852321D01*
X65180220Y-72784977D01*
X65146548Y-72683962D01*
X65146548Y-72616619D01*
X65180220Y-72515603D01*
X65281235Y-72347245D01*
X65449594Y-72178886D01*
X65617953Y-72077871D01*
X65718968Y-72044199D01*
X65786312Y-72044199D01*
X65887327Y-72077871D01*
%TO.C,D39*%
X83984991Y-71269748D02*
X84692098Y-70562642D01*
X84860457Y-70731000D01*
X84927800Y-70865687D01*
X84927800Y-71000374D01*
X84894128Y-71101390D01*
X84793113Y-71269748D01*
X84692098Y-71370764D01*
X84523739Y-71471779D01*
X84422724Y-71505451D01*
X84288037Y-71505451D01*
X84153350Y-71438107D01*
X83984991Y-71269748D01*
X85331861Y-71202405D02*
X85769594Y-71640138D01*
X85264518Y-71673809D01*
X85365533Y-71774825D01*
X85399205Y-71875840D01*
X85399205Y-71943184D01*
X85365533Y-72044199D01*
X85197174Y-72212558D01*
X85096159Y-72246229D01*
X85028815Y-72246229D01*
X84927800Y-72212558D01*
X84725770Y-72010527D01*
X84692098Y-71909512D01*
X84692098Y-71842168D01*
X85399205Y-72683962D02*
X85533892Y-72818649D01*
X85634907Y-72852321D01*
X85702251Y-72852321D01*
X85870609Y-72818649D01*
X86038968Y-72717634D01*
X86308342Y-72448260D01*
X86342014Y-72347245D01*
X86342014Y-72279901D01*
X86308342Y-72178886D01*
X86173655Y-72044199D01*
X86072640Y-72010527D01*
X86005296Y-72010527D01*
X85904281Y-72044199D01*
X85735922Y-72212558D01*
X85702251Y-72313573D01*
X85702251Y-72380916D01*
X85735922Y-72481932D01*
X85870609Y-72616619D01*
X85971625Y-72650290D01*
X86038968Y-72650290D01*
X86139983Y-72616619D01*
%TO.C,D38*%
X104304991Y-71269748D02*
X105012098Y-70562642D01*
X105180457Y-70731000D01*
X105247800Y-70865687D01*
X105247800Y-71000374D01*
X105214128Y-71101390D01*
X105113113Y-71269748D01*
X105012098Y-71370764D01*
X104843739Y-71471779D01*
X104742724Y-71505451D01*
X104608037Y-71505451D01*
X104473350Y-71438107D01*
X104304991Y-71269748D01*
X105651861Y-71202405D02*
X106089594Y-71640138D01*
X105584518Y-71673809D01*
X105685533Y-71774825D01*
X105719205Y-71875840D01*
X105719205Y-71943184D01*
X105685533Y-72044199D01*
X105517174Y-72212558D01*
X105416159Y-72246229D01*
X105348815Y-72246229D01*
X105247800Y-72212558D01*
X105045770Y-72010527D01*
X105012098Y-71909512D01*
X105012098Y-71842168D01*
X106190609Y-72347245D02*
X106156938Y-72246229D01*
X106156938Y-72178886D01*
X106190609Y-72077871D01*
X106224281Y-72044199D01*
X106325296Y-72010527D01*
X106392640Y-72010527D01*
X106493655Y-72044199D01*
X106628342Y-72178886D01*
X106662014Y-72279901D01*
X106662014Y-72347245D01*
X106628342Y-72448260D01*
X106594670Y-72481932D01*
X106493655Y-72515603D01*
X106426312Y-72515603D01*
X106325296Y-72481932D01*
X106190609Y-72347245D01*
X106089594Y-72313573D01*
X106022251Y-72313573D01*
X105921235Y-72347245D01*
X105786548Y-72481932D01*
X105752877Y-72582947D01*
X105752877Y-72650290D01*
X105786548Y-72751306D01*
X105921235Y-72885993D01*
X106022251Y-72919664D01*
X106089594Y-72919664D01*
X106190609Y-72885993D01*
X106325296Y-72751306D01*
X106358968Y-72650290D01*
X106358968Y-72582947D01*
X106325296Y-72481932D01*
%TO.C,D37*%
X124624991Y-71269748D02*
X125332098Y-70562642D01*
X125500457Y-70731000D01*
X125567800Y-70865687D01*
X125567800Y-71000374D01*
X125534128Y-71101390D01*
X125433113Y-71269748D01*
X125332098Y-71370764D01*
X125163739Y-71471779D01*
X125062724Y-71505451D01*
X124928037Y-71505451D01*
X124793350Y-71438107D01*
X124624991Y-71269748D01*
X125971861Y-71202405D02*
X126409594Y-71640138D01*
X125904518Y-71673809D01*
X126005533Y-71774825D01*
X126039205Y-71875840D01*
X126039205Y-71943184D01*
X126005533Y-72044199D01*
X125837174Y-72212558D01*
X125736159Y-72246229D01*
X125668815Y-72246229D01*
X125567800Y-72212558D01*
X125365770Y-72010527D01*
X125332098Y-71909512D01*
X125332098Y-71842168D01*
X126645296Y-71875840D02*
X127116701Y-72347245D01*
X126106548Y-72751306D01*
%TO.C,D36*%
X144944991Y-71269748D02*
X145652098Y-70562642D01*
X145820457Y-70731000D01*
X145887800Y-70865687D01*
X145887800Y-71000374D01*
X145854128Y-71101390D01*
X145753113Y-71269748D01*
X145652098Y-71370764D01*
X145483739Y-71471779D01*
X145382724Y-71505451D01*
X145248037Y-71505451D01*
X145113350Y-71438107D01*
X144944991Y-71269748D01*
X146291861Y-71202405D02*
X146729594Y-71640138D01*
X146224518Y-71673809D01*
X146325533Y-71774825D01*
X146359205Y-71875840D01*
X146359205Y-71943184D01*
X146325533Y-72044199D01*
X146157174Y-72212558D01*
X146056159Y-72246229D01*
X145988815Y-72246229D01*
X145887800Y-72212558D01*
X145685770Y-72010527D01*
X145652098Y-71909512D01*
X145652098Y-71842168D01*
X147335686Y-72246229D02*
X147200999Y-72111542D01*
X147099983Y-72077871D01*
X147032640Y-72077871D01*
X146864281Y-72111542D01*
X146695922Y-72212558D01*
X146426548Y-72481932D01*
X146392877Y-72582947D01*
X146392877Y-72650290D01*
X146426548Y-72751306D01*
X146561235Y-72885993D01*
X146662251Y-72919664D01*
X146729594Y-72919664D01*
X146830609Y-72885993D01*
X146998968Y-72717634D01*
X147032640Y-72616619D01*
X147032640Y-72549275D01*
X146998968Y-72448260D01*
X146864281Y-72313573D01*
X146763266Y-72279901D01*
X146695922Y-72279901D01*
X146594907Y-72313573D01*
%TO.C,D35*%
X142290985Y-53636754D02*
X142998092Y-52929648D01*
X143166451Y-53098006D01*
X143233794Y-53232693D01*
X143233794Y-53367380D01*
X143200122Y-53468396D01*
X143099107Y-53636754D01*
X142998092Y-53737770D01*
X142829733Y-53838785D01*
X142728718Y-53872457D01*
X142594031Y-53872457D01*
X142459344Y-53805113D01*
X142290985Y-53636754D01*
X143637855Y-53569411D02*
X144075588Y-54007144D01*
X143570512Y-54040815D01*
X143671527Y-54141831D01*
X143705199Y-54242846D01*
X143705199Y-54310190D01*
X143671527Y-54411205D01*
X143503168Y-54579564D01*
X143402153Y-54613235D01*
X143334809Y-54613235D01*
X143233794Y-54579564D01*
X143031764Y-54377533D01*
X142998092Y-54276518D01*
X142998092Y-54209174D01*
X144715351Y-54646907D02*
X144378634Y-54310190D01*
X144008245Y-54613235D01*
X144075588Y-54613235D01*
X144176603Y-54646907D01*
X144344962Y-54815266D01*
X144378634Y-54916281D01*
X144378634Y-54983625D01*
X144344962Y-55084640D01*
X144176603Y-55252999D01*
X144075588Y-55286670D01*
X144008245Y-55286670D01*
X143907229Y-55252999D01*
X143738871Y-55084640D01*
X143705199Y-54983625D01*
X143705199Y-54916281D01*
%TO.C,D34*%
X121937985Y-53636754D02*
X122645092Y-52929648D01*
X122813451Y-53098006D01*
X122880794Y-53232693D01*
X122880794Y-53367380D01*
X122847122Y-53468396D01*
X122746107Y-53636754D01*
X122645092Y-53737770D01*
X122476733Y-53838785D01*
X122375718Y-53872457D01*
X122241031Y-53872457D01*
X122106344Y-53805113D01*
X121937985Y-53636754D01*
X123284855Y-53569411D02*
X123722588Y-54007144D01*
X123217512Y-54040815D01*
X123318527Y-54141831D01*
X123352199Y-54242846D01*
X123352199Y-54310190D01*
X123318527Y-54411205D01*
X123150168Y-54579564D01*
X123049153Y-54613235D01*
X122981809Y-54613235D01*
X122880794Y-54579564D01*
X122678764Y-54377533D01*
X122645092Y-54276518D01*
X122645092Y-54209174D01*
X124092977Y-54848938D02*
X123621573Y-55320342D01*
X124193993Y-54411205D02*
X123520558Y-54747922D01*
X123958290Y-55185655D01*
%TO.C,D33*%
X101617985Y-53636754D02*
X102325092Y-52929648D01*
X102493451Y-53098006D01*
X102560794Y-53232693D01*
X102560794Y-53367380D01*
X102527122Y-53468396D01*
X102426107Y-53636754D01*
X102325092Y-53737770D01*
X102156733Y-53838785D01*
X102055718Y-53872457D01*
X101921031Y-53872457D01*
X101786344Y-53805113D01*
X101617985Y-53636754D01*
X102964855Y-53569411D02*
X103402588Y-54007144D01*
X102897512Y-54040815D01*
X102998527Y-54141831D01*
X103032199Y-54242846D01*
X103032199Y-54310190D01*
X102998527Y-54411205D01*
X102830168Y-54579564D01*
X102729153Y-54613235D01*
X102661809Y-54613235D01*
X102560794Y-54579564D01*
X102358764Y-54377533D01*
X102325092Y-54276518D01*
X102325092Y-54209174D01*
X103638290Y-54242846D02*
X104076023Y-54680579D01*
X103570947Y-54714251D01*
X103671962Y-54815266D01*
X103705634Y-54916281D01*
X103705634Y-54983625D01*
X103671962Y-55084640D01*
X103503603Y-55252999D01*
X103402588Y-55286670D01*
X103335245Y-55286670D01*
X103234229Y-55252999D01*
X103032199Y-55050968D01*
X102998527Y-54949953D01*
X102998527Y-54882609D01*
%TO.C,D32*%
X81297985Y-53636754D02*
X82005092Y-52929648D01*
X82173451Y-53098006D01*
X82240794Y-53232693D01*
X82240794Y-53367380D01*
X82207122Y-53468396D01*
X82106107Y-53636754D01*
X82005092Y-53737770D01*
X81836733Y-53838785D01*
X81735718Y-53872457D01*
X81601031Y-53872457D01*
X81466344Y-53805113D01*
X81297985Y-53636754D01*
X82644855Y-53569411D02*
X83082588Y-54007144D01*
X82577512Y-54040815D01*
X82678527Y-54141831D01*
X82712199Y-54242846D01*
X82712199Y-54310190D01*
X82678527Y-54411205D01*
X82510168Y-54579564D01*
X82409153Y-54613235D01*
X82341809Y-54613235D01*
X82240794Y-54579564D01*
X82038764Y-54377533D01*
X82005092Y-54276518D01*
X82005092Y-54209174D01*
X83284619Y-54343861D02*
X83351962Y-54343861D01*
X83452977Y-54377533D01*
X83621336Y-54545892D01*
X83655008Y-54646907D01*
X83655008Y-54714251D01*
X83621336Y-54815266D01*
X83553993Y-54882609D01*
X83419306Y-54949953D01*
X82611184Y-54949953D01*
X83048916Y-55387686D01*
%TO.C,D31*%
X60977985Y-53636754D02*
X61685092Y-52929648D01*
X61853451Y-53098006D01*
X61920794Y-53232693D01*
X61920794Y-53367380D01*
X61887122Y-53468396D01*
X61786107Y-53636754D01*
X61685092Y-53737770D01*
X61516733Y-53838785D01*
X61415718Y-53872457D01*
X61281031Y-53872457D01*
X61146344Y-53805113D01*
X60977985Y-53636754D01*
X62324855Y-53569411D02*
X62762588Y-54007144D01*
X62257512Y-54040815D01*
X62358527Y-54141831D01*
X62392199Y-54242846D01*
X62392199Y-54310190D01*
X62358527Y-54411205D01*
X62190168Y-54579564D01*
X62089153Y-54613235D01*
X62021809Y-54613235D01*
X61920794Y-54579564D01*
X61718764Y-54377533D01*
X61685092Y-54276518D01*
X61685092Y-54209174D01*
X62728916Y-55387686D02*
X62324855Y-54983625D01*
X62526886Y-55185655D02*
X63233993Y-54478548D01*
X63065634Y-54512220D01*
X62930947Y-54512220D01*
X62829932Y-54478548D01*
%TO.C,D30*%
X63918991Y-30629748D02*
X64626098Y-29922642D01*
X64794457Y-30091000D01*
X64861800Y-30225687D01*
X64861800Y-30360374D01*
X64828128Y-30461390D01*
X64727113Y-30629748D01*
X64626098Y-30730764D01*
X64457739Y-30831779D01*
X64356724Y-30865451D01*
X64222037Y-30865451D01*
X64087350Y-30798107D01*
X63918991Y-30629748D01*
X65265861Y-30562405D02*
X65703594Y-31000138D01*
X65198518Y-31033809D01*
X65299533Y-31134825D01*
X65333205Y-31235840D01*
X65333205Y-31303184D01*
X65299533Y-31404199D01*
X65131174Y-31572558D01*
X65030159Y-31606229D01*
X64962815Y-31606229D01*
X64861800Y-31572558D01*
X64659770Y-31370527D01*
X64626098Y-31269512D01*
X64626098Y-31202168D01*
X66141327Y-31437871D02*
X66208670Y-31505214D01*
X66242342Y-31606229D01*
X66242342Y-31673573D01*
X66208670Y-31774588D01*
X66107655Y-31942947D01*
X65939296Y-32111306D01*
X65770938Y-32212321D01*
X65669922Y-32245993D01*
X65602579Y-32245993D01*
X65501564Y-32212321D01*
X65434220Y-32144977D01*
X65400548Y-32043962D01*
X65400548Y-31976619D01*
X65434220Y-31875603D01*
X65535235Y-31707245D01*
X65703594Y-31538886D01*
X65871953Y-31437871D01*
X65972968Y-31404199D01*
X66040312Y-31404199D01*
X66141327Y-31437871D01*
%TO.C,D29*%
X83984991Y-30629748D02*
X84692098Y-29922642D01*
X84860457Y-30091000D01*
X84927800Y-30225687D01*
X84927800Y-30360374D01*
X84894128Y-30461390D01*
X84793113Y-30629748D01*
X84692098Y-30730764D01*
X84523739Y-30831779D01*
X84422724Y-30865451D01*
X84288037Y-30865451D01*
X84153350Y-30798107D01*
X83984991Y-30629748D01*
X85298190Y-30663420D02*
X85365533Y-30663420D01*
X85466548Y-30697092D01*
X85634907Y-30865451D01*
X85668579Y-30966466D01*
X85668579Y-31033809D01*
X85634907Y-31134825D01*
X85567564Y-31202168D01*
X85432877Y-31269512D01*
X84624754Y-31269512D01*
X85062487Y-31707245D01*
X85399205Y-32043962D02*
X85533892Y-32178649D01*
X85634907Y-32212321D01*
X85702251Y-32212321D01*
X85870609Y-32178649D01*
X86038968Y-32077634D01*
X86308342Y-31808260D01*
X86342014Y-31707245D01*
X86342014Y-31639901D01*
X86308342Y-31538886D01*
X86173655Y-31404199D01*
X86072640Y-31370527D01*
X86005296Y-31370527D01*
X85904281Y-31404199D01*
X85735922Y-31572558D01*
X85702251Y-31673573D01*
X85702251Y-31740916D01*
X85735922Y-31841932D01*
X85870609Y-31976619D01*
X85971625Y-32010290D01*
X86038968Y-32010290D01*
X86139983Y-31976619D01*
%TO.C,D28*%
X104304991Y-30629748D02*
X105012098Y-29922642D01*
X105180457Y-30091000D01*
X105247800Y-30225687D01*
X105247800Y-30360374D01*
X105214128Y-30461390D01*
X105113113Y-30629748D01*
X105012098Y-30730764D01*
X104843739Y-30831779D01*
X104742724Y-30865451D01*
X104608037Y-30865451D01*
X104473350Y-30798107D01*
X104304991Y-30629748D01*
X105618190Y-30663420D02*
X105685533Y-30663420D01*
X105786548Y-30697092D01*
X105954907Y-30865451D01*
X105988579Y-30966466D01*
X105988579Y-31033809D01*
X105954907Y-31134825D01*
X105887564Y-31202168D01*
X105752877Y-31269512D01*
X104944754Y-31269512D01*
X105382487Y-31707245D01*
X106190609Y-31707245D02*
X106156938Y-31606229D01*
X106156938Y-31538886D01*
X106190609Y-31437871D01*
X106224281Y-31404199D01*
X106325296Y-31370527D01*
X106392640Y-31370527D01*
X106493655Y-31404199D01*
X106628342Y-31538886D01*
X106662014Y-31639901D01*
X106662014Y-31707245D01*
X106628342Y-31808260D01*
X106594670Y-31841932D01*
X106493655Y-31875603D01*
X106426312Y-31875603D01*
X106325296Y-31841932D01*
X106190609Y-31707245D01*
X106089594Y-31673573D01*
X106022251Y-31673573D01*
X105921235Y-31707245D01*
X105786548Y-31841932D01*
X105752877Y-31942947D01*
X105752877Y-32010290D01*
X105786548Y-32111306D01*
X105921235Y-32245993D01*
X106022251Y-32279664D01*
X106089594Y-32279664D01*
X106190609Y-32245993D01*
X106325296Y-32111306D01*
X106358968Y-32010290D01*
X106358968Y-31942947D01*
X106325296Y-31841932D01*
%TO.C,D27*%
X124624991Y-30629748D02*
X125332098Y-29922642D01*
X125500457Y-30091000D01*
X125567800Y-30225687D01*
X125567800Y-30360374D01*
X125534128Y-30461390D01*
X125433113Y-30629748D01*
X125332098Y-30730764D01*
X125163739Y-30831779D01*
X125062724Y-30865451D01*
X124928037Y-30865451D01*
X124793350Y-30798107D01*
X124624991Y-30629748D01*
X125938190Y-30663420D02*
X126005533Y-30663420D01*
X126106548Y-30697092D01*
X126274907Y-30865451D01*
X126308579Y-30966466D01*
X126308579Y-31033809D01*
X126274907Y-31134825D01*
X126207564Y-31202168D01*
X126072877Y-31269512D01*
X125264754Y-31269512D01*
X125702487Y-31707245D01*
X126645296Y-31235840D02*
X127116701Y-31707245D01*
X126106548Y-32111306D01*
%TO.C,D26*%
X144944991Y-30629748D02*
X145652098Y-29922642D01*
X145820457Y-30091000D01*
X145887800Y-30225687D01*
X145887800Y-30360374D01*
X145854128Y-30461390D01*
X145753113Y-30629748D01*
X145652098Y-30730764D01*
X145483739Y-30831779D01*
X145382724Y-30865451D01*
X145248037Y-30865451D01*
X145113350Y-30798107D01*
X144944991Y-30629748D01*
X146258190Y-30663420D02*
X146325533Y-30663420D01*
X146426548Y-30697092D01*
X146594907Y-30865451D01*
X146628579Y-30966466D01*
X146628579Y-31033809D01*
X146594907Y-31134825D01*
X146527564Y-31202168D01*
X146392877Y-31269512D01*
X145584754Y-31269512D01*
X146022487Y-31707245D01*
X147335686Y-31606229D02*
X147200999Y-31471542D01*
X147099983Y-31437871D01*
X147032640Y-31437871D01*
X146864281Y-31471542D01*
X146695922Y-31572558D01*
X146426548Y-31841932D01*
X146392877Y-31942947D01*
X146392877Y-32010290D01*
X146426548Y-32111306D01*
X146561235Y-32245993D01*
X146662251Y-32279664D01*
X146729594Y-32279664D01*
X146830609Y-32245993D01*
X146998968Y-32077634D01*
X147032640Y-31976619D01*
X147032640Y-31909275D01*
X146998968Y-31808260D01*
X146864281Y-31673573D01*
X146763266Y-31639901D01*
X146695922Y-31639901D01*
X146594907Y-31673573D01*
%TO.C,C7*%
X37226447Y-53977850D02*
X37159104Y-53977850D01*
X37024417Y-53910506D01*
X36957073Y-53843163D01*
X36889730Y-53708475D01*
X36889730Y-53573788D01*
X36923401Y-53472773D01*
X37024417Y-53304414D01*
X37125432Y-53203399D01*
X37293791Y-53102384D01*
X37394806Y-53068712D01*
X37529493Y-53068712D01*
X37664180Y-53136056D01*
X37731524Y-53203399D01*
X37798867Y-53338086D01*
X37798867Y-53405430D01*
X38101913Y-53573788D02*
X38573317Y-54045193D01*
X37563165Y-54449254D01*
%TO.C,C6*%
X43055850Y-54213552D02*
X43055850Y-54280895D01*
X42988506Y-54415582D01*
X42921163Y-54482926D01*
X42786475Y-54550269D01*
X42651788Y-54550269D01*
X42550773Y-54516598D01*
X42382414Y-54415582D01*
X42281399Y-54314567D01*
X42180384Y-54146208D01*
X42146712Y-54045193D01*
X42146712Y-53910506D01*
X42214056Y-53775819D01*
X42281399Y-53708475D01*
X42416086Y-53641132D01*
X42483430Y-53641132D01*
X43022178Y-52967697D02*
X42887491Y-53102384D01*
X42853819Y-53203399D01*
X42853819Y-53270743D01*
X42887491Y-53439101D01*
X42988506Y-53607460D01*
X43257880Y-53876834D01*
X43358895Y-53910506D01*
X43426239Y-53910506D01*
X43527254Y-53876834D01*
X43661941Y-53742147D01*
X43695613Y-53641132D01*
X43695613Y-53573788D01*
X43661941Y-53472773D01*
X43493582Y-53304414D01*
X43392567Y-53270743D01*
X43325224Y-53270743D01*
X43224208Y-53304414D01*
X43089521Y-53439101D01*
X43055850Y-53540117D01*
X43055850Y-53607460D01*
X43089521Y-53708475D01*
%TO.C,REF\u002A\u002A*%
X44894666Y-116332380D02*
X44561333Y-115856190D01*
X44323238Y-116332380D02*
X44323238Y-115332380D01*
X44704190Y-115332380D01*
X44799428Y-115380000D01*
X44847047Y-115427619D01*
X44894666Y-115522857D01*
X44894666Y-115665714D01*
X44847047Y-115760952D01*
X44799428Y-115808571D01*
X44704190Y-115856190D01*
X44323238Y-115856190D01*
X45323238Y-115808571D02*
X45656571Y-115808571D01*
X45799428Y-116332380D02*
X45323238Y-116332380D01*
X45323238Y-115332380D01*
X45799428Y-115332380D01*
X46561333Y-115808571D02*
X46228000Y-115808571D01*
X46228000Y-116332380D02*
X46228000Y-115332380D01*
X46704190Y-115332380D01*
X47228000Y-115332380D02*
X47228000Y-115570476D01*
X46989904Y-115475238D02*
X47228000Y-115570476D01*
X47466095Y-115475238D01*
X47085142Y-115760952D02*
X47228000Y-115570476D01*
X47370857Y-115760952D01*
X47989904Y-115332380D02*
X47989904Y-115570476D01*
X47751809Y-115475238D02*
X47989904Y-115570476D01*
X48228000Y-115475238D01*
X47847047Y-115760952D02*
X47989904Y-115570476D01*
X48132761Y-115760952D01*
X112966666Y-75184380D02*
X112633333Y-74708190D01*
X112395238Y-75184380D02*
X112395238Y-74184380D01*
X112776190Y-74184380D01*
X112871428Y-74232000D01*
X112919047Y-74279619D01*
X112966666Y-74374857D01*
X112966666Y-74517714D01*
X112919047Y-74612952D01*
X112871428Y-74660571D01*
X112776190Y-74708190D01*
X112395238Y-74708190D01*
X113395238Y-74660571D02*
X113728571Y-74660571D01*
X113871428Y-75184380D02*
X113395238Y-75184380D01*
X113395238Y-74184380D01*
X113871428Y-74184380D01*
X114633333Y-74660571D02*
X114300000Y-74660571D01*
X114300000Y-75184380D02*
X114300000Y-74184380D01*
X114776190Y-74184380D01*
X115300000Y-74184380D02*
X115300000Y-74422476D01*
X115061904Y-74327238D02*
X115300000Y-74422476D01*
X115538095Y-74327238D01*
X115157142Y-74612952D02*
X115300000Y-74422476D01*
X115442857Y-74612952D01*
X116061904Y-74184380D02*
X116061904Y-74422476D01*
X115823809Y-74327238D02*
X116061904Y-74422476D01*
X116300000Y-74327238D01*
X115919047Y-74612952D02*
X116061904Y-74422476D01*
X116204761Y-74612952D01*
X72326666Y-115824380D02*
X71993333Y-115348190D01*
X71755238Y-115824380D02*
X71755238Y-114824380D01*
X72136190Y-114824380D01*
X72231428Y-114872000D01*
X72279047Y-114919619D01*
X72326666Y-115014857D01*
X72326666Y-115157714D01*
X72279047Y-115252952D01*
X72231428Y-115300571D01*
X72136190Y-115348190D01*
X71755238Y-115348190D01*
X72755238Y-115300571D02*
X73088571Y-115300571D01*
X73231428Y-115824380D02*
X72755238Y-115824380D01*
X72755238Y-114824380D01*
X73231428Y-114824380D01*
X73993333Y-115300571D02*
X73660000Y-115300571D01*
X73660000Y-115824380D02*
X73660000Y-114824380D01*
X74136190Y-114824380D01*
X74660000Y-114824380D02*
X74660000Y-115062476D01*
X74421904Y-114967238D02*
X74660000Y-115062476D01*
X74898095Y-114967238D01*
X74517142Y-115252952D02*
X74660000Y-115062476D01*
X74802857Y-115252952D01*
X75421904Y-114824380D02*
X75421904Y-115062476D01*
X75183809Y-114967238D02*
X75421904Y-115062476D01*
X75660000Y-114967238D01*
X75279047Y-115252952D02*
X75421904Y-115062476D01*
X75564761Y-115252952D01*
X133286666Y-115824380D02*
X132953333Y-115348190D01*
X132715238Y-115824380D02*
X132715238Y-114824380D01*
X133096190Y-114824380D01*
X133191428Y-114872000D01*
X133239047Y-114919619D01*
X133286666Y-115014857D01*
X133286666Y-115157714D01*
X133239047Y-115252952D01*
X133191428Y-115300571D01*
X133096190Y-115348190D01*
X132715238Y-115348190D01*
X133715238Y-115300571D02*
X134048571Y-115300571D01*
X134191428Y-115824380D02*
X133715238Y-115824380D01*
X133715238Y-114824380D01*
X134191428Y-114824380D01*
X134953333Y-115300571D02*
X134620000Y-115300571D01*
X134620000Y-115824380D02*
X134620000Y-114824380D01*
X135096190Y-114824380D01*
X135620000Y-114824380D02*
X135620000Y-115062476D01*
X135381904Y-114967238D02*
X135620000Y-115062476D01*
X135858095Y-114967238D01*
X135477142Y-115252952D02*
X135620000Y-115062476D01*
X135762857Y-115252952D01*
X136381904Y-114824380D02*
X136381904Y-115062476D01*
X136143809Y-114967238D02*
X136381904Y-115062476D01*
X136620000Y-114967238D01*
X136239047Y-115252952D02*
X136381904Y-115062476D01*
X136524761Y-115252952D01*
X133286666Y-54610380D02*
X132953333Y-54134190D01*
X132715238Y-54610380D02*
X132715238Y-53610380D01*
X133096190Y-53610380D01*
X133191428Y-53658000D01*
X133239047Y-53705619D01*
X133286666Y-53800857D01*
X133286666Y-53943714D01*
X133239047Y-54038952D01*
X133191428Y-54086571D01*
X133096190Y-54134190D01*
X132715238Y-54134190D01*
X133715238Y-54086571D02*
X134048571Y-54086571D01*
X134191428Y-54610380D02*
X133715238Y-54610380D01*
X133715238Y-53610380D01*
X134191428Y-53610380D01*
X134953333Y-54086571D02*
X134620000Y-54086571D01*
X134620000Y-54610380D02*
X134620000Y-53610380D01*
X135096190Y-53610380D01*
X135620000Y-53610380D02*
X135620000Y-53848476D01*
X135381904Y-53753238D02*
X135620000Y-53848476D01*
X135858095Y-53753238D01*
X135477142Y-54038952D02*
X135620000Y-53848476D01*
X135762857Y-54038952D01*
X136381904Y-53610380D02*
X136381904Y-53848476D01*
X136143809Y-53753238D02*
X136381904Y-53848476D01*
X136620000Y-53753238D01*
X136239047Y-54038952D02*
X136381904Y-53848476D01*
X136524761Y-54038952D01*
X72326666Y-54610380D02*
X71993333Y-54134190D01*
X71755238Y-54610380D02*
X71755238Y-53610380D01*
X72136190Y-53610380D01*
X72231428Y-53658000D01*
X72279047Y-53705619D01*
X72326666Y-53800857D01*
X72326666Y-53943714D01*
X72279047Y-54038952D01*
X72231428Y-54086571D01*
X72136190Y-54134190D01*
X71755238Y-54134190D01*
X72755238Y-54086571D02*
X73088571Y-54086571D01*
X73231428Y-54610380D02*
X72755238Y-54610380D01*
X72755238Y-53610380D01*
X73231428Y-53610380D01*
X73993333Y-54086571D02*
X73660000Y-54086571D01*
X73660000Y-54610380D02*
X73660000Y-53610380D01*
X74136190Y-53610380D01*
X74660000Y-53610380D02*
X74660000Y-53848476D01*
X74421904Y-53753238D02*
X74660000Y-53848476D01*
X74898095Y-53753238D01*
X74517142Y-54038952D02*
X74660000Y-53848476D01*
X74802857Y-54038952D01*
X75421904Y-53610380D02*
X75421904Y-53848476D01*
X75183809Y-53753238D02*
X75421904Y-53848476D01*
X75660000Y-53753238D01*
X75279047Y-54038952D02*
X75421904Y-53848476D01*
X75564761Y-54038952D01*
%TO.C,R11*%
X37884380Y-39250857D02*
X37408190Y-39584190D01*
X37884380Y-39822285D02*
X36884380Y-39822285D01*
X36884380Y-39441333D01*
X36932000Y-39346095D01*
X36979619Y-39298476D01*
X37074857Y-39250857D01*
X37217714Y-39250857D01*
X37312952Y-39298476D01*
X37360571Y-39346095D01*
X37408190Y-39441333D01*
X37408190Y-39822285D01*
X37884380Y-38298476D02*
X37884380Y-38869904D01*
X37884380Y-38584190D02*
X36884380Y-38584190D01*
X37027238Y-38679428D01*
X37122476Y-38774666D01*
X37170095Y-38869904D01*
X37884380Y-37346095D02*
X37884380Y-37917523D01*
X37884380Y-37631809D02*
X36884380Y-37631809D01*
X37027238Y-37727047D01*
X37122476Y-37822285D01*
X37170095Y-37917523D01*
%TO.C,SW27*%
X42132761Y-88677523D02*
X42180380Y-88534666D01*
X42180380Y-88296571D01*
X42132761Y-88201333D01*
X42085142Y-88153714D01*
X41989904Y-88106095D01*
X41894666Y-88106095D01*
X41799428Y-88153714D01*
X41751809Y-88201333D01*
X41704190Y-88296571D01*
X41656571Y-88487047D01*
X41608952Y-88582285D01*
X41561333Y-88629904D01*
X41466095Y-88677523D01*
X41370857Y-88677523D01*
X41275619Y-88629904D01*
X41228000Y-88582285D01*
X41180380Y-88487047D01*
X41180380Y-88248952D01*
X41228000Y-88106095D01*
X41180380Y-87772761D02*
X42180380Y-87534666D01*
X41466095Y-87344190D01*
X42180380Y-87153714D01*
X41180380Y-86915619D01*
X41275619Y-86582285D02*
X41228000Y-86534666D01*
X41180380Y-86439428D01*
X41180380Y-86201333D01*
X41228000Y-86106095D01*
X41275619Y-86058476D01*
X41370857Y-86010857D01*
X41466095Y-86010857D01*
X41608952Y-86058476D01*
X42180380Y-86629904D01*
X42180380Y-86010857D01*
X41180380Y-85677523D02*
X41180380Y-85010857D01*
X42180380Y-85439428D01*
%TO.C,R10*%
X49037642Y-80876380D02*
X48704309Y-80400190D01*
X48466214Y-80876380D02*
X48466214Y-79876380D01*
X48847166Y-79876380D01*
X48942404Y-79924000D01*
X48990023Y-79971619D01*
X49037642Y-80066857D01*
X49037642Y-80209714D01*
X48990023Y-80304952D01*
X48942404Y-80352571D01*
X48847166Y-80400190D01*
X48466214Y-80400190D01*
X49990023Y-80876380D02*
X49418595Y-80876380D01*
X49704309Y-80876380D02*
X49704309Y-79876380D01*
X49609071Y-80019238D01*
X49513833Y-80114476D01*
X49418595Y-80162095D01*
X50609071Y-79876380D02*
X50704309Y-79876380D01*
X50799547Y-79924000D01*
X50847166Y-79971619D01*
X50894785Y-80066857D01*
X50942404Y-80257333D01*
X50942404Y-80495428D01*
X50894785Y-80685904D01*
X50847166Y-80781142D01*
X50799547Y-80828761D01*
X50704309Y-80876380D01*
X50609071Y-80876380D01*
X50513833Y-80828761D01*
X50466214Y-80781142D01*
X50418595Y-80685904D01*
X50370976Y-80495428D01*
X50370976Y-80257333D01*
X50418595Y-80066857D01*
X50466214Y-79971619D01*
X50513833Y-79924000D01*
X50609071Y-79876380D01*
%TO.C,R9*%
X42505333Y-60302380D02*
X42172000Y-59826190D01*
X41933904Y-60302380D02*
X41933904Y-59302380D01*
X42314857Y-59302380D01*
X42410095Y-59350000D01*
X42457714Y-59397619D01*
X42505333Y-59492857D01*
X42505333Y-59635714D01*
X42457714Y-59730952D01*
X42410095Y-59778571D01*
X42314857Y-59826190D01*
X41933904Y-59826190D01*
X42981523Y-60302380D02*
X43172000Y-60302380D01*
X43267238Y-60254761D01*
X43314857Y-60207142D01*
X43410095Y-60064285D01*
X43457714Y-59873809D01*
X43457714Y-59492857D01*
X43410095Y-59397619D01*
X43362476Y-59350000D01*
X43267238Y-59302380D01*
X43076761Y-59302380D01*
X42981523Y-59350000D01*
X42933904Y-59397619D01*
X42886285Y-59492857D01*
X42886285Y-59730952D01*
X42933904Y-59826190D01*
X42981523Y-59873809D01*
X43076761Y-59921428D01*
X43267238Y-59921428D01*
X43362476Y-59873809D01*
X43410095Y-59826190D01*
X43457714Y-59730952D01*
%TO.C,R8*%
X49513833Y-60302380D02*
X49180500Y-59826190D01*
X48942404Y-60302380D02*
X48942404Y-59302380D01*
X49323357Y-59302380D01*
X49418595Y-59350000D01*
X49466214Y-59397619D01*
X49513833Y-59492857D01*
X49513833Y-59635714D01*
X49466214Y-59730952D01*
X49418595Y-59778571D01*
X49323357Y-59826190D01*
X48942404Y-59826190D01*
X50085261Y-59730952D02*
X49990023Y-59683333D01*
X49942404Y-59635714D01*
X49894785Y-59540476D01*
X49894785Y-59492857D01*
X49942404Y-59397619D01*
X49990023Y-59350000D01*
X50085261Y-59302380D01*
X50275738Y-59302380D01*
X50370976Y-59350000D01*
X50418595Y-59397619D01*
X50466214Y-59492857D01*
X50466214Y-59540476D01*
X50418595Y-59635714D01*
X50370976Y-59683333D01*
X50275738Y-59730952D01*
X50085261Y-59730952D01*
X49990023Y-59778571D01*
X49942404Y-59826190D01*
X49894785Y-59921428D01*
X49894785Y-60111904D01*
X49942404Y-60207142D01*
X49990023Y-60254761D01*
X50085261Y-60302380D01*
X50275738Y-60302380D01*
X50370976Y-60254761D01*
X50418595Y-60207142D01*
X50466214Y-60111904D01*
X50466214Y-59921428D01*
X50418595Y-59826190D01*
X50370976Y-59778571D01*
X50275738Y-59730952D01*
%TO.C,R7*%
X42505333Y-80876380D02*
X42172000Y-80400190D01*
X41933904Y-80876380D02*
X41933904Y-79876380D01*
X42314857Y-79876380D01*
X42410095Y-79924000D01*
X42457714Y-79971619D01*
X42505333Y-80066857D01*
X42505333Y-80209714D01*
X42457714Y-80304952D01*
X42410095Y-80352571D01*
X42314857Y-80400190D01*
X41933904Y-80400190D01*
X42838666Y-79876380D02*
X43505333Y-79876380D01*
X43076761Y-80876380D01*
%TO.C,R6*%
X45250380Y-57570666D02*
X44774190Y-57904000D01*
X45250380Y-58142095D02*
X44250380Y-58142095D01*
X44250380Y-57761142D01*
X44298000Y-57665904D01*
X44345619Y-57618285D01*
X44440857Y-57570666D01*
X44583714Y-57570666D01*
X44678952Y-57618285D01*
X44726571Y-57665904D01*
X44774190Y-57761142D01*
X44774190Y-58142095D01*
X44250380Y-56713523D02*
X44250380Y-56904000D01*
X44298000Y-56999238D01*
X44345619Y-57046857D01*
X44488476Y-57142095D01*
X44678952Y-57189714D01*
X45059904Y-57189714D01*
X45155142Y-57142095D01*
X45202761Y-57094476D01*
X45250380Y-56999238D01*
X45250380Y-56808761D01*
X45202761Y-56713523D01*
X45155142Y-56665904D01*
X45059904Y-56618285D01*
X44821809Y-56618285D01*
X44726571Y-56665904D01*
X44678952Y-56713523D01*
X44631333Y-56808761D01*
X44631333Y-56999238D01*
X44678952Y-57094476D01*
X44726571Y-57142095D01*
X44821809Y-57189714D01*
%TO.C,R5*%
X51649333Y-51158380D02*
X51316000Y-50682190D01*
X51077904Y-51158380D02*
X51077904Y-50158380D01*
X51458857Y-50158380D01*
X51554095Y-50206000D01*
X51601714Y-50253619D01*
X51649333Y-50348857D01*
X51649333Y-50491714D01*
X51601714Y-50586952D01*
X51554095Y-50634571D01*
X51458857Y-50682190D01*
X51077904Y-50682190D01*
X52554095Y-50158380D02*
X52077904Y-50158380D01*
X52030285Y-50634571D01*
X52077904Y-50586952D01*
X52173142Y-50539333D01*
X52411238Y-50539333D01*
X52506476Y-50586952D01*
X52554095Y-50634571D01*
X52601714Y-50729809D01*
X52601714Y-50967904D01*
X52554095Y-51063142D01*
X52506476Y-51110761D01*
X52411238Y-51158380D01*
X52173142Y-51158380D01*
X52077904Y-51110761D01*
X52030285Y-51063142D01*
%TO.C,R4*%
X51506380Y-30646666D02*
X51030190Y-30980000D01*
X51506380Y-31218095D02*
X50506380Y-31218095D01*
X50506380Y-30837142D01*
X50554000Y-30741904D01*
X50601619Y-30694285D01*
X50696857Y-30646666D01*
X50839714Y-30646666D01*
X50934952Y-30694285D01*
X50982571Y-30741904D01*
X51030190Y-30837142D01*
X51030190Y-31218095D01*
X50839714Y-29789523D02*
X51506380Y-29789523D01*
X50458761Y-30027619D02*
X51173047Y-30265714D01*
X51173047Y-29646666D01*
%TO.C,R3*%
X46934380Y-30646666D02*
X46458190Y-30980000D01*
X46934380Y-31218095D02*
X45934380Y-31218095D01*
X45934380Y-30837142D01*
X45982000Y-30741904D01*
X46029619Y-30694285D01*
X46124857Y-30646666D01*
X46267714Y-30646666D01*
X46362952Y-30694285D01*
X46410571Y-30741904D01*
X46458190Y-30837142D01*
X46458190Y-31218095D01*
X45934380Y-30313333D02*
X45934380Y-29694285D01*
X46315333Y-30027619D01*
X46315333Y-29884761D01*
X46362952Y-29789523D01*
X46410571Y-29741904D01*
X46505809Y-29694285D01*
X46743904Y-29694285D01*
X46839142Y-29741904D01*
X46886761Y-29789523D01*
X46934380Y-29884761D01*
X46934380Y-30170476D01*
X46886761Y-30265714D01*
X46839142Y-30313333D01*
%TO.C,Y1*%
X41336118Y-49176446D02*
X40999400Y-49513164D01*
X41470805Y-48570355D02*
X41336118Y-49176446D01*
X41942209Y-49041759D01*
X41841194Y-50354957D02*
X41437133Y-49950896D01*
X41639164Y-50152927D02*
X42346270Y-49445820D01*
X42177912Y-49479492D01*
X42043225Y-49479492D01*
X41942209Y-49445820D01*
%TO.C,C8*%
X45933142Y-33186666D02*
X45980761Y-33234285D01*
X46028380Y-33377142D01*
X46028380Y-33472380D01*
X45980761Y-33615238D01*
X45885523Y-33710476D01*
X45790285Y-33758095D01*
X45599809Y-33805714D01*
X45456952Y-33805714D01*
X45266476Y-33758095D01*
X45171238Y-33710476D01*
X45076000Y-33615238D01*
X45028380Y-33472380D01*
X45028380Y-33377142D01*
X45076000Y-33234285D01*
X45123619Y-33186666D01*
X45456952Y-32615238D02*
X45409333Y-32710476D01*
X45361714Y-32758095D01*
X45266476Y-32805714D01*
X45218857Y-32805714D01*
X45123619Y-32758095D01*
X45076000Y-32710476D01*
X45028380Y-32615238D01*
X45028380Y-32424761D01*
X45076000Y-32329523D01*
X45123619Y-32281904D01*
X45218857Y-32234285D01*
X45266476Y-32234285D01*
X45361714Y-32281904D01*
X45409333Y-32329523D01*
X45456952Y-32424761D01*
X45456952Y-32615238D01*
X45504571Y-32710476D01*
X45552190Y-32758095D01*
X45647428Y-32805714D01*
X45837904Y-32805714D01*
X45933142Y-32758095D01*
X45980761Y-32710476D01*
X46028380Y-32615238D01*
X46028380Y-32424761D01*
X45980761Y-32329523D01*
X45933142Y-32281904D01*
X45837904Y-32234285D01*
X45647428Y-32234285D01*
X45552190Y-32281904D01*
X45504571Y-32329523D01*
X45456952Y-32424761D01*
%TO.C,C4*%
X40489142Y-30900666D02*
X40536761Y-30948285D01*
X40584380Y-31091142D01*
X40584380Y-31186380D01*
X40536761Y-31329238D01*
X40441523Y-31424476D01*
X40346285Y-31472095D01*
X40155809Y-31519714D01*
X40012952Y-31519714D01*
X39822476Y-31472095D01*
X39727238Y-31424476D01*
X39632000Y-31329238D01*
X39584380Y-31186380D01*
X39584380Y-31091142D01*
X39632000Y-30948285D01*
X39679619Y-30900666D01*
X39917714Y-30043523D02*
X40584380Y-30043523D01*
X39536761Y-30281619D02*
X40251047Y-30519714D01*
X40251047Y-29900666D01*
%TO.C,C3*%
X41505142Y-30900666D02*
X41552761Y-30948285D01*
X41600380Y-31091142D01*
X41600380Y-31186380D01*
X41552761Y-31329238D01*
X41457523Y-31424476D01*
X41362285Y-31472095D01*
X41171809Y-31519714D01*
X41028952Y-31519714D01*
X40838476Y-31472095D01*
X40743238Y-31424476D01*
X40648000Y-31329238D01*
X40600380Y-31186380D01*
X40600380Y-31091142D01*
X40648000Y-30948285D01*
X40695619Y-30900666D01*
X40600380Y-30567333D02*
X40600380Y-29948285D01*
X40981333Y-30281619D01*
X40981333Y-30138761D01*
X41028952Y-30043523D01*
X41076571Y-29995904D01*
X41171809Y-29948285D01*
X41409904Y-29948285D01*
X41505142Y-29995904D01*
X41552761Y-30043523D01*
X41600380Y-30138761D01*
X41600380Y-30424476D01*
X41552761Y-30519714D01*
X41505142Y-30567333D01*
%TO.C,C2*%
X42521142Y-30900666D02*
X42568761Y-30948285D01*
X42616380Y-31091142D01*
X42616380Y-31186380D01*
X42568761Y-31329238D01*
X42473523Y-31424476D01*
X42378285Y-31472095D01*
X42187809Y-31519714D01*
X42044952Y-31519714D01*
X41854476Y-31472095D01*
X41759238Y-31424476D01*
X41664000Y-31329238D01*
X41616380Y-31186380D01*
X41616380Y-31091142D01*
X41664000Y-30948285D01*
X41711619Y-30900666D01*
X41711619Y-30519714D02*
X41664000Y-30472095D01*
X41616380Y-30376857D01*
X41616380Y-30138761D01*
X41664000Y-30043523D01*
X41711619Y-29995904D01*
X41806857Y-29948285D01*
X41902095Y-29948285D01*
X42044952Y-29995904D01*
X42616380Y-30567333D01*
X42616380Y-29948285D01*
%TO.C,C1*%
X49235142Y-33186666D02*
X49282761Y-33234285D01*
X49330380Y-33377142D01*
X49330380Y-33472380D01*
X49282761Y-33615238D01*
X49187523Y-33710476D01*
X49092285Y-33758095D01*
X48901809Y-33805714D01*
X48758952Y-33805714D01*
X48568476Y-33758095D01*
X48473238Y-33710476D01*
X48378000Y-33615238D01*
X48330380Y-33472380D01*
X48330380Y-33377142D01*
X48378000Y-33234285D01*
X48425619Y-33186666D01*
X49330380Y-32234285D02*
X49330380Y-32805714D01*
X49330380Y-32520000D02*
X48330380Y-32520000D01*
X48473238Y-32615238D01*
X48568476Y-32710476D01*
X48616095Y-32805714D01*
%TO.C,U1*%
X53638380Y-41655904D02*
X54447904Y-41655904D01*
X54543142Y-41608285D01*
X54590761Y-41560666D01*
X54638380Y-41465428D01*
X54638380Y-41274952D01*
X54590761Y-41179714D01*
X54543142Y-41132095D01*
X54447904Y-41084476D01*
X53638380Y-41084476D01*
X54638380Y-40084476D02*
X54638380Y-40655904D01*
X54638380Y-40370190D02*
X53638380Y-40370190D01*
X53781238Y-40465428D01*
X53876476Y-40560666D01*
X53924095Y-40655904D01*
%TO.C,SW1*%
X53832761Y-66109333D02*
X53880380Y-65966476D01*
X53880380Y-65728380D01*
X53832761Y-65633142D01*
X53785142Y-65585523D01*
X53689904Y-65537904D01*
X53594666Y-65537904D01*
X53499428Y-65585523D01*
X53451809Y-65633142D01*
X53404190Y-65728380D01*
X53356571Y-65918857D01*
X53308952Y-66014095D01*
X53261333Y-66061714D01*
X53166095Y-66109333D01*
X53070857Y-66109333D01*
X52975619Y-66061714D01*
X52928000Y-66014095D01*
X52880380Y-65918857D01*
X52880380Y-65680761D01*
X52928000Y-65537904D01*
X52880380Y-65204571D02*
X53880380Y-64966476D01*
X53166095Y-64776000D01*
X53880380Y-64585523D01*
X52880380Y-64347428D01*
X53880380Y-63442666D02*
X53880380Y-64014095D01*
X53880380Y-63728380D02*
X52880380Y-63728380D01*
X53023238Y-63823619D01*
X53118476Y-63918857D01*
X53166095Y-64014095D01*
%TO.C,C5*%
X38965142Y-29630666D02*
X39012761Y-29678285D01*
X39060380Y-29821142D01*
X39060380Y-29916380D01*
X39012761Y-30059238D01*
X38917523Y-30154476D01*
X38822285Y-30202095D01*
X38631809Y-30249714D01*
X38488952Y-30249714D01*
X38298476Y-30202095D01*
X38203238Y-30154476D01*
X38108000Y-30059238D01*
X38060380Y-29916380D01*
X38060380Y-29821142D01*
X38108000Y-29678285D01*
X38155619Y-29630666D01*
X38060380Y-28725904D02*
X38060380Y-29202095D01*
X38536571Y-29249714D01*
X38488952Y-29202095D01*
X38441333Y-29106857D01*
X38441333Y-28868761D01*
X38488952Y-28773523D01*
X38536571Y-28725904D01*
X38631809Y-28678285D01*
X38869904Y-28678285D01*
X38965142Y-28725904D01*
X39012761Y-28773523D01*
X39060380Y-28868761D01*
X39060380Y-29106857D01*
X39012761Y-29202095D01*
X38965142Y-29249714D01*
%TD*%
M02*
