G04 #@! TF.GenerationSoftware,KiCad,Pcbnew,(5.1.8)-1*
G04 #@! TF.CreationDate,2021-03-16T20:17:20-07:00*
G04 #@! TF.ProjectId,DeskTopVolKnob_Keypad,4465736b-546f-4705-966f-6c4b6e6f625f,rev?*
G04 #@! TF.SameCoordinates,Original*
G04 #@! TF.FileFunction,Legend,Bot*
G04 #@! TF.FilePolarity,Positive*
%FSLAX46Y46*%
G04 Gerber Fmt 4.6, Leading zero omitted, Abs format (unit mm)*
G04 Created by KiCad (PCBNEW (5.1.8)-1) date 2021-03-16 20:17:20*
%MOMM*%
%LPD*%
G01*
G04 APERTURE LIST*
%ADD10C,0.300000*%
%ADD11C,0.120000*%
%ADD12C,0.200000*%
%ADD13C,0.127000*%
%ADD14C,0.150000*%
%ADD15C,0.015000*%
G04 APERTURE END LIST*
D10*
X42728000Y-114637428D02*
X42799428Y-114566000D01*
X42942285Y-114494571D01*
X43299428Y-114494571D01*
X43442285Y-114566000D01*
X43513714Y-114637428D01*
X43585142Y-114780285D01*
X43585142Y-114923142D01*
X43513714Y-115137428D01*
X42656571Y-115994571D01*
X43585142Y-115994571D01*
X44228000Y-115851714D02*
X44299428Y-115923142D01*
X44228000Y-115994571D01*
X44156571Y-115923142D01*
X44228000Y-115851714D01*
X44228000Y-115994571D01*
X45656571Y-114494571D02*
X44942285Y-114494571D01*
X44870857Y-115208857D01*
X44942285Y-115137428D01*
X45085142Y-115066000D01*
X45442285Y-115066000D01*
X45585142Y-115137428D01*
X45656571Y-115208857D01*
X45728000Y-115351714D01*
X45728000Y-115708857D01*
X45656571Y-115851714D01*
X45585142Y-115923142D01*
X45442285Y-115994571D01*
X45085142Y-115994571D01*
X44942285Y-115923142D01*
X44870857Y-115851714D01*
X46370857Y-115994571D02*
X46370857Y-114994571D01*
X46370857Y-115137428D02*
X46442285Y-115066000D01*
X46585142Y-114994571D01*
X46799428Y-114994571D01*
X46942285Y-115066000D01*
X47013714Y-115208857D01*
X47013714Y-115994571D01*
X47013714Y-115208857D02*
X47085142Y-115066000D01*
X47228000Y-114994571D01*
X47442285Y-114994571D01*
X47585142Y-115066000D01*
X47656571Y-115208857D01*
X47656571Y-115994571D01*
X48370857Y-115994571D02*
X48370857Y-114994571D01*
X48370857Y-115137428D02*
X48442285Y-115066000D01*
X48585142Y-114994571D01*
X48799428Y-114994571D01*
X48942285Y-115066000D01*
X49013714Y-115208857D01*
X49013714Y-115994571D01*
X49013714Y-115208857D02*
X49085142Y-115066000D01*
X49228000Y-114994571D01*
X49442285Y-114994571D01*
X49585142Y-115066000D01*
X49656571Y-115208857D01*
X49656571Y-115994571D01*
D11*
X46356000Y-100260000D02*
X46806000Y-100260000D01*
X41586000Y-105480000D02*
X41586000Y-105030000D01*
X42036000Y-105480000D02*
X41586000Y-105480000D01*
X46806000Y-105480000D02*
X46806000Y-105030000D01*
X46356000Y-105480000D02*
X46806000Y-105480000D01*
X41586000Y-100260000D02*
X41586000Y-100710000D01*
X42036000Y-100260000D02*
X41586000Y-100260000D01*
X40654500Y-100854742D02*
X40654500Y-101329258D01*
X39609500Y-100854742D02*
X39609500Y-101329258D01*
X43673500Y-97773258D02*
X43673500Y-97298742D01*
X44718500Y-97773258D02*
X44718500Y-97298742D01*
X42149500Y-97773258D02*
X42149500Y-97298742D01*
X43194500Y-97773258D02*
X43194500Y-97298742D01*
X47766500Y-97298742D02*
X47766500Y-97773258D01*
X46721500Y-97298742D02*
X46721500Y-97773258D01*
X46242500Y-97298742D02*
X46242500Y-97773258D01*
X45197500Y-97298742D02*
X45197500Y-97773258D01*
X40625500Y-97773258D02*
X40625500Y-97298742D01*
X41670500Y-97773258D02*
X41670500Y-97298742D01*
X41400000Y-127394580D02*
X41400000Y-127113420D01*
X42420000Y-127394580D02*
X42420000Y-127113420D01*
X45360000Y-127361836D02*
X45360000Y-127146164D01*
X46080000Y-127361836D02*
X46080000Y-127146164D01*
X46480000Y-127394580D02*
X46480000Y-127113420D01*
X47500000Y-127394580D02*
X47500000Y-127113420D01*
X40280001Y-127361836D02*
X40280001Y-127146164D01*
X41000001Y-127361836D02*
X41000001Y-127146164D01*
X43940000Y-127394579D02*
X43940000Y-127113419D01*
X44960000Y-127394579D02*
X44960000Y-127113419D01*
X42820000Y-127361836D02*
X42820000Y-127146164D01*
X43540000Y-127361836D02*
X43540000Y-127146164D01*
X38860000Y-127394580D02*
X38860000Y-127113420D01*
X39880000Y-127394580D02*
X39880000Y-127113420D01*
D12*
X131620000Y-35012000D02*
G75*
G03*
X131620000Y-35012000I-100000J0D01*
G01*
D13*
X130150000Y-31707000D02*
X130150000Y-30942000D01*
X130150000Y-27462000D02*
X130150000Y-27882000D01*
X139090000Y-27462000D02*
X130150000Y-27462000D01*
X139090000Y-27882000D02*
X139090000Y-27462000D01*
X139090000Y-31707000D02*
X139090000Y-30942000D01*
D11*
X132319500Y-36813258D02*
X132319500Y-36338742D01*
X133364500Y-36813258D02*
X133364500Y-36338742D01*
X135875500Y-36813258D02*
X135875500Y-36338742D01*
X136920500Y-36813258D02*
X136920500Y-36338742D01*
X57215000Y-45755000D02*
X55365000Y-45755000D01*
X57215000Y-46955000D02*
X55365000Y-46955000D01*
X55365000Y-46955000D02*
X55365000Y-45755000D01*
X57215000Y-66075000D02*
X55365000Y-66075000D01*
X57215000Y-67275000D02*
X55365000Y-67275000D01*
X55365000Y-67275000D02*
X55365000Y-66075000D01*
X57215000Y-86395000D02*
X55365000Y-86395000D01*
X57215000Y-87595000D02*
X55365000Y-87595000D01*
X55365000Y-87595000D02*
X55365000Y-86395000D01*
X57215000Y-106715000D02*
X55365000Y-106715000D01*
X57215000Y-107915000D02*
X55365000Y-107915000D01*
X55365000Y-107915000D02*
X55365000Y-106715000D01*
X57215000Y-127035000D02*
X55365000Y-127035000D01*
X57215000Y-128235000D02*
X55365000Y-128235000D01*
X55365000Y-128235000D02*
X55365000Y-127035000D01*
X77535000Y-45755000D02*
X75685000Y-45755000D01*
X77535000Y-46955000D02*
X75685000Y-46955000D01*
X75685000Y-46955000D02*
X75685000Y-45755000D01*
X77535000Y-66075000D02*
X75685000Y-66075000D01*
X77535000Y-67275000D02*
X75685000Y-67275000D01*
X75685000Y-67275000D02*
X75685000Y-66075000D01*
X77535000Y-86395000D02*
X75685000Y-86395000D01*
X77535000Y-87595000D02*
X75685000Y-87595000D01*
X75685000Y-87595000D02*
X75685000Y-86395000D01*
X77535000Y-106715000D02*
X75685000Y-106715000D01*
X77535000Y-107915000D02*
X75685000Y-107915000D01*
X75685000Y-107915000D02*
X75685000Y-106715000D01*
X77535000Y-127035000D02*
X75685000Y-127035000D01*
X77535000Y-128235000D02*
X75685000Y-128235000D01*
X75685000Y-128235000D02*
X75685000Y-127035000D01*
X97855000Y-45755000D02*
X96005000Y-45755000D01*
X97855000Y-46955000D02*
X96005000Y-46955000D01*
X96005000Y-46955000D02*
X96005000Y-45755000D01*
X97855000Y-66075000D02*
X96005000Y-66075000D01*
X97855000Y-67275000D02*
X96005000Y-67275000D01*
X96005000Y-67275000D02*
X96005000Y-66075000D01*
X97855000Y-86395000D02*
X96005000Y-86395000D01*
X97855000Y-87595000D02*
X96005000Y-87595000D01*
X96005000Y-87595000D02*
X96005000Y-86395000D01*
X97855000Y-106715000D02*
X96005000Y-106715000D01*
X97855000Y-107915000D02*
X96005000Y-107915000D01*
X96005000Y-107915000D02*
X96005000Y-106715000D01*
X97855000Y-127035000D02*
X96005000Y-127035000D01*
X97855000Y-128235000D02*
X96005000Y-128235000D01*
X96005000Y-128235000D02*
X96005000Y-127035000D01*
X118175000Y-45755000D02*
X116325000Y-45755000D01*
X118175000Y-46955000D02*
X116325000Y-46955000D01*
X116325000Y-46955000D02*
X116325000Y-45755000D01*
X118175000Y-66075000D02*
X116325000Y-66075000D01*
X118175000Y-67275000D02*
X116325000Y-67275000D01*
X116325000Y-67275000D02*
X116325000Y-66075000D01*
X118175000Y-86395000D02*
X116325000Y-86395000D01*
X118175000Y-87595000D02*
X116325000Y-87595000D01*
X116325000Y-87595000D02*
X116325000Y-86395000D01*
X118175000Y-106715000D02*
X116325000Y-106715000D01*
X118175000Y-107915000D02*
X116325000Y-107915000D01*
X116325000Y-107915000D02*
X116325000Y-106715000D01*
X118175000Y-127035000D02*
X116325000Y-127035000D01*
X118175000Y-128235000D02*
X116325000Y-128235000D01*
X116325000Y-128235000D02*
X116325000Y-127035000D01*
X138495000Y-45755000D02*
X136645000Y-45755000D01*
X138495000Y-46955000D02*
X136645000Y-46955000D01*
X136645000Y-46955000D02*
X136645000Y-45755000D01*
X138495000Y-66075000D02*
X136645000Y-66075000D01*
X138495000Y-67275000D02*
X136645000Y-67275000D01*
X136645000Y-67275000D02*
X136645000Y-66075000D01*
X138495000Y-86395000D02*
X136645000Y-86395000D01*
X138495000Y-87595000D02*
X136645000Y-87595000D01*
X136645000Y-87595000D02*
X136645000Y-86395000D01*
X138495000Y-106715000D02*
X136645000Y-106715000D01*
X138495000Y-107915000D02*
X136645000Y-107915000D01*
X136645000Y-107915000D02*
X136645000Y-106715000D01*
X138495000Y-127035000D02*
X136645000Y-127035000D01*
X138495000Y-128235000D02*
X136645000Y-128235000D01*
X136645000Y-128235000D02*
X136645000Y-127035000D01*
D14*
X49021904Y-102322380D02*
X49021904Y-103131904D01*
X48974285Y-103227142D01*
X48926666Y-103274761D01*
X48831428Y-103322380D01*
X48640952Y-103322380D01*
X48545714Y-103274761D01*
X48498095Y-103227142D01*
X48450476Y-103131904D01*
X48450476Y-102322380D01*
X48021904Y-102417619D02*
X47974285Y-102370000D01*
X47879047Y-102322380D01*
X47640952Y-102322380D01*
X47545714Y-102370000D01*
X47498095Y-102417619D01*
X47450476Y-102512857D01*
X47450476Y-102608095D01*
X47498095Y-102750952D01*
X48069523Y-103322380D01*
X47450476Y-103322380D01*
X40584380Y-103497142D02*
X40108190Y-103163809D01*
X40584380Y-102925714D02*
X39584380Y-102925714D01*
X39584380Y-103306666D01*
X39632000Y-103401904D01*
X39679619Y-103449523D01*
X39774857Y-103497142D01*
X39917714Y-103497142D01*
X40012952Y-103449523D01*
X40060571Y-103401904D01*
X40108190Y-103306666D01*
X40108190Y-102925714D01*
X40584380Y-104449523D02*
X40584380Y-103878095D01*
X40584380Y-104163809D02*
X39584380Y-104163809D01*
X39727238Y-104068571D01*
X39822476Y-103973333D01*
X39870095Y-103878095D01*
X39584380Y-104782857D02*
X39584380Y-105449523D01*
X40584380Y-105020952D01*
X44648380Y-93845142D02*
X44172190Y-93511809D01*
X44648380Y-93273714D02*
X43648380Y-93273714D01*
X43648380Y-93654666D01*
X43696000Y-93749904D01*
X43743619Y-93797523D01*
X43838857Y-93845142D01*
X43981714Y-93845142D01*
X44076952Y-93797523D01*
X44124571Y-93749904D01*
X44172190Y-93654666D01*
X44172190Y-93273714D01*
X44648380Y-94797523D02*
X44648380Y-94226095D01*
X44648380Y-94511809D02*
X43648380Y-94511809D01*
X43791238Y-94416571D01*
X43886476Y-94321333D01*
X43934095Y-94226095D01*
X43648380Y-95654666D02*
X43648380Y-95464190D01*
X43696000Y-95368952D01*
X43743619Y-95321333D01*
X43886476Y-95226095D01*
X44076952Y-95178476D01*
X44457904Y-95178476D01*
X44553142Y-95226095D01*
X44600761Y-95273714D01*
X44648380Y-95368952D01*
X44648380Y-95559428D01*
X44600761Y-95654666D01*
X44553142Y-95702285D01*
X44457904Y-95749904D01*
X44219809Y-95749904D01*
X44124571Y-95702285D01*
X44076952Y-95654666D01*
X44029333Y-95559428D01*
X44029333Y-95368952D01*
X44076952Y-95273714D01*
X44124571Y-95226095D01*
X44219809Y-95178476D01*
X43124380Y-93845142D02*
X42648190Y-93511809D01*
X43124380Y-93273714D02*
X42124380Y-93273714D01*
X42124380Y-93654666D01*
X42172000Y-93749904D01*
X42219619Y-93797523D01*
X42314857Y-93845142D01*
X42457714Y-93845142D01*
X42552952Y-93797523D01*
X42600571Y-93749904D01*
X42648190Y-93654666D01*
X42648190Y-93273714D01*
X43124380Y-94797523D02*
X43124380Y-94226095D01*
X43124380Y-94511809D02*
X42124380Y-94511809D01*
X42267238Y-94416571D01*
X42362476Y-94321333D01*
X42410095Y-94226095D01*
X42124380Y-95702285D02*
X42124380Y-95226095D01*
X42600571Y-95178476D01*
X42552952Y-95226095D01*
X42505333Y-95321333D01*
X42505333Y-95559428D01*
X42552952Y-95654666D01*
X42600571Y-95702285D01*
X42695809Y-95749904D01*
X42933904Y-95749904D01*
X43029142Y-95702285D01*
X43076761Y-95654666D01*
X43124380Y-95559428D01*
X43124380Y-95321333D01*
X43076761Y-95226095D01*
X43029142Y-95178476D01*
X47696380Y-93845142D02*
X47220190Y-93511809D01*
X47696380Y-93273714D02*
X46696380Y-93273714D01*
X46696380Y-93654666D01*
X46744000Y-93749904D01*
X46791619Y-93797523D01*
X46886857Y-93845142D01*
X47029714Y-93845142D01*
X47124952Y-93797523D01*
X47172571Y-93749904D01*
X47220190Y-93654666D01*
X47220190Y-93273714D01*
X47696380Y-94797523D02*
X47696380Y-94226095D01*
X47696380Y-94511809D02*
X46696380Y-94511809D01*
X46839238Y-94416571D01*
X46934476Y-94321333D01*
X46982095Y-94226095D01*
X47029714Y-95654666D02*
X47696380Y-95654666D01*
X46648761Y-95416571D02*
X47363047Y-95178476D01*
X47363047Y-95797523D01*
X46172380Y-93845142D02*
X45696190Y-93511809D01*
X46172380Y-93273714D02*
X45172380Y-93273714D01*
X45172380Y-93654666D01*
X45220000Y-93749904D01*
X45267619Y-93797523D01*
X45362857Y-93845142D01*
X45505714Y-93845142D01*
X45600952Y-93797523D01*
X45648571Y-93749904D01*
X45696190Y-93654666D01*
X45696190Y-93273714D01*
X46172380Y-94797523D02*
X46172380Y-94226095D01*
X46172380Y-94511809D02*
X45172380Y-94511809D01*
X45315238Y-94416571D01*
X45410476Y-94321333D01*
X45458095Y-94226095D01*
X45172380Y-95130857D02*
X45172380Y-95749904D01*
X45553333Y-95416571D01*
X45553333Y-95559428D01*
X45600952Y-95654666D01*
X45648571Y-95702285D01*
X45743809Y-95749904D01*
X45981904Y-95749904D01*
X46077142Y-95702285D01*
X46124761Y-95654666D01*
X46172380Y-95559428D01*
X46172380Y-95273714D01*
X46124761Y-95178476D01*
X46077142Y-95130857D01*
X41600380Y-93845142D02*
X41124190Y-93511809D01*
X41600380Y-93273714D02*
X40600380Y-93273714D01*
X40600380Y-93654666D01*
X40648000Y-93749904D01*
X40695619Y-93797523D01*
X40790857Y-93845142D01*
X40933714Y-93845142D01*
X41028952Y-93797523D01*
X41076571Y-93749904D01*
X41124190Y-93654666D01*
X41124190Y-93273714D01*
X41600380Y-94797523D02*
X41600380Y-94226095D01*
X41600380Y-94511809D02*
X40600380Y-94511809D01*
X40743238Y-94416571D01*
X40838476Y-94321333D01*
X40886095Y-94226095D01*
X40695619Y-95178476D02*
X40648000Y-95226095D01*
X40600380Y-95321333D01*
X40600380Y-95559428D01*
X40648000Y-95654666D01*
X40695619Y-95702285D01*
X40790857Y-95749904D01*
X40886095Y-95749904D01*
X41028952Y-95702285D01*
X41600380Y-95130857D01*
X41600380Y-95749904D01*
X42313142Y-123487142D02*
X42360761Y-123439523D01*
X42408380Y-123296666D01*
X42408380Y-123201428D01*
X42360761Y-123058571D01*
X42265523Y-122963333D01*
X42170285Y-122915714D01*
X41979809Y-122868095D01*
X41836952Y-122868095D01*
X41646476Y-122915714D01*
X41551238Y-122963333D01*
X41456000Y-123058571D01*
X41408380Y-123201428D01*
X41408380Y-123296666D01*
X41456000Y-123439523D01*
X41503619Y-123487142D01*
X42408380Y-124439523D02*
X42408380Y-123868095D01*
X42408380Y-124153809D02*
X41408380Y-124153809D01*
X41551238Y-124058571D01*
X41646476Y-123963333D01*
X41694095Y-123868095D01*
X41408380Y-125344285D02*
X41408380Y-124868095D01*
X41884571Y-124820476D01*
X41836952Y-124868095D01*
X41789333Y-124963333D01*
X41789333Y-125201428D01*
X41836952Y-125296666D01*
X41884571Y-125344285D01*
X41979809Y-125391904D01*
X42217904Y-125391904D01*
X42313142Y-125344285D01*
X42360761Y-125296666D01*
X42408380Y-125201428D01*
X42408380Y-124963333D01*
X42360761Y-124868095D01*
X42313142Y-124820476D01*
X46077142Y-123563142D02*
X46124761Y-123515523D01*
X46172380Y-123372666D01*
X46172380Y-123277428D01*
X46124761Y-123134571D01*
X46029523Y-123039333D01*
X45934285Y-122991714D01*
X45743809Y-122944095D01*
X45600952Y-122944095D01*
X45410476Y-122991714D01*
X45315238Y-123039333D01*
X45220000Y-123134571D01*
X45172380Y-123277428D01*
X45172380Y-123372666D01*
X45220000Y-123515523D01*
X45267619Y-123563142D01*
X46172380Y-124515523D02*
X46172380Y-123944095D01*
X46172380Y-124229809D02*
X45172380Y-124229809D01*
X45315238Y-124134571D01*
X45410476Y-124039333D01*
X45458095Y-123944095D01*
X45505714Y-125372666D02*
X46172380Y-125372666D01*
X45124761Y-125134571D02*
X45839047Y-124896476D01*
X45839047Y-125515523D01*
X47347142Y-123563142D02*
X47394761Y-123515523D01*
X47442380Y-123372666D01*
X47442380Y-123277428D01*
X47394761Y-123134571D01*
X47299523Y-123039333D01*
X47204285Y-122991714D01*
X47013809Y-122944095D01*
X46870952Y-122944095D01*
X46680476Y-122991714D01*
X46585238Y-123039333D01*
X46490000Y-123134571D01*
X46442380Y-123277428D01*
X46442380Y-123372666D01*
X46490000Y-123515523D01*
X46537619Y-123563142D01*
X47442380Y-124515523D02*
X47442380Y-123944095D01*
X47442380Y-124229809D02*
X46442380Y-124229809D01*
X46585238Y-124134571D01*
X46680476Y-124039333D01*
X46728095Y-123944095D01*
X46442380Y-124848857D02*
X46442380Y-125467904D01*
X46823333Y-125134571D01*
X46823333Y-125277428D01*
X46870952Y-125372666D01*
X46918571Y-125420285D01*
X47013809Y-125467904D01*
X47251904Y-125467904D01*
X47347142Y-125420285D01*
X47394761Y-125372666D01*
X47442380Y-125277428D01*
X47442380Y-124991714D01*
X47394761Y-124896476D01*
X47347142Y-124848857D01*
X40997143Y-123563142D02*
X41044762Y-123515523D01*
X41092381Y-123372666D01*
X41092381Y-123277428D01*
X41044762Y-123134571D01*
X40949524Y-123039333D01*
X40854286Y-122991714D01*
X40663810Y-122944095D01*
X40520953Y-122944095D01*
X40330477Y-122991714D01*
X40235239Y-123039333D01*
X40140001Y-123134571D01*
X40092381Y-123277428D01*
X40092381Y-123372666D01*
X40140001Y-123515523D01*
X40187620Y-123563142D01*
X41092381Y-124515523D02*
X41092381Y-123944095D01*
X41092381Y-124229809D02*
X40092381Y-124229809D01*
X40235239Y-124134571D01*
X40330477Y-124039333D01*
X40378096Y-123944095D01*
X40187620Y-124896476D02*
X40140001Y-124944095D01*
X40092381Y-125039333D01*
X40092381Y-125277428D01*
X40140001Y-125372666D01*
X40187620Y-125420285D01*
X40282858Y-125467904D01*
X40378096Y-125467904D01*
X40520953Y-125420285D01*
X41092381Y-124848857D01*
X41092381Y-125467904D01*
X44807142Y-123563141D02*
X44854761Y-123515522D01*
X44902380Y-123372665D01*
X44902380Y-123277427D01*
X44854761Y-123134570D01*
X44759523Y-123039332D01*
X44664285Y-122991713D01*
X44473809Y-122944094D01*
X44330952Y-122944094D01*
X44140476Y-122991713D01*
X44045238Y-123039332D01*
X43950000Y-123134570D01*
X43902380Y-123277427D01*
X43902380Y-123372665D01*
X43950000Y-123515522D01*
X43997619Y-123563141D01*
X44902380Y-124515522D02*
X44902380Y-123944094D01*
X44902380Y-124229808D02*
X43902380Y-124229808D01*
X44045238Y-124134570D01*
X44140476Y-124039332D01*
X44188095Y-123944094D01*
X44902380Y-125467903D02*
X44902380Y-124896475D01*
X44902380Y-125182189D02*
X43902380Y-125182189D01*
X44045238Y-125086951D01*
X44140476Y-124991713D01*
X44188095Y-124896475D01*
X43537142Y-123563142D02*
X43584761Y-123515523D01*
X43632380Y-123372666D01*
X43632380Y-123277428D01*
X43584761Y-123134571D01*
X43489523Y-123039333D01*
X43394285Y-122991714D01*
X43203809Y-122944095D01*
X43060952Y-122944095D01*
X42870476Y-122991714D01*
X42775238Y-123039333D01*
X42680000Y-123134571D01*
X42632380Y-123277428D01*
X42632380Y-123372666D01*
X42680000Y-123515523D01*
X42727619Y-123563142D01*
X43632380Y-124515523D02*
X43632380Y-123944095D01*
X43632380Y-124229809D02*
X42632380Y-124229809D01*
X42775238Y-124134571D01*
X42870476Y-124039333D01*
X42918095Y-123944095D01*
X42632380Y-125134571D02*
X42632380Y-125229809D01*
X42680000Y-125325047D01*
X42727619Y-125372666D01*
X42822857Y-125420285D01*
X43013333Y-125467904D01*
X43251428Y-125467904D01*
X43441904Y-125420285D01*
X43537142Y-125372666D01*
X43584761Y-125325047D01*
X43632380Y-125229809D01*
X43632380Y-125134571D01*
X43584761Y-125039333D01*
X43537142Y-124991714D01*
X43441904Y-124944095D01*
X43251428Y-124896476D01*
X43013333Y-124896476D01*
X42822857Y-124944095D01*
X42727619Y-124991714D01*
X42680000Y-125039333D01*
X42632380Y-125134571D01*
X39727142Y-124547333D02*
X39774761Y-124499714D01*
X39822380Y-124356857D01*
X39822380Y-124261619D01*
X39774761Y-124118761D01*
X39679523Y-124023523D01*
X39584285Y-123975904D01*
X39393809Y-123928285D01*
X39250952Y-123928285D01*
X39060476Y-123975904D01*
X38965238Y-124023523D01*
X38870000Y-124118761D01*
X38822380Y-124261619D01*
X38822380Y-124356857D01*
X38870000Y-124499714D01*
X38917619Y-124547333D01*
X39822380Y-125023523D02*
X39822380Y-125214000D01*
X39774761Y-125309238D01*
X39727142Y-125356857D01*
X39584285Y-125452095D01*
X39393809Y-125499714D01*
X39012857Y-125499714D01*
X38917619Y-125452095D01*
X38870000Y-125404476D01*
X38822380Y-125309238D01*
X38822380Y-125118761D01*
X38870000Y-125023523D01*
X38917619Y-124975904D01*
X39012857Y-124928285D01*
X39250952Y-124928285D01*
X39346190Y-124975904D01*
X39393809Y-125023523D01*
X39441428Y-125118761D01*
X39441428Y-125309238D01*
X39393809Y-125404476D01*
X39346190Y-125452095D01*
X39250952Y-125499714D01*
D15*
X133628333Y-35349380D02*
X133628333Y-36063666D01*
X133675952Y-36206523D01*
X133771190Y-36301761D01*
X133914047Y-36349380D01*
X134009285Y-36349380D01*
X132628333Y-36349380D02*
X133199761Y-36349380D01*
X132914047Y-36349380D02*
X132914047Y-35349380D01*
X133009285Y-35492238D01*
X133104523Y-35587476D01*
X133199761Y-35635095D01*
D14*
X131770380Y-36409333D02*
X131294190Y-36076000D01*
X131770380Y-35837904D02*
X130770380Y-35837904D01*
X130770380Y-36218857D01*
X130818000Y-36314095D01*
X130865619Y-36361714D01*
X130960857Y-36409333D01*
X131103714Y-36409333D01*
X131198952Y-36361714D01*
X131246571Y-36314095D01*
X131294190Y-36218857D01*
X131294190Y-35837904D01*
X130865619Y-36790285D02*
X130818000Y-36837904D01*
X130770380Y-36933142D01*
X130770380Y-37171238D01*
X130818000Y-37266476D01*
X130865619Y-37314095D01*
X130960857Y-37361714D01*
X131056095Y-37361714D01*
X131198952Y-37314095D01*
X131770380Y-36742666D01*
X131770380Y-37361714D01*
X138374380Y-36409333D02*
X137898190Y-36076000D01*
X138374380Y-35837904D02*
X137374380Y-35837904D01*
X137374380Y-36218857D01*
X137422000Y-36314095D01*
X137469619Y-36361714D01*
X137564857Y-36409333D01*
X137707714Y-36409333D01*
X137802952Y-36361714D01*
X137850571Y-36314095D01*
X137898190Y-36218857D01*
X137898190Y-35837904D01*
X138374380Y-37361714D02*
X138374380Y-36790285D01*
X138374380Y-37076000D02*
X137374380Y-37076000D01*
X137517238Y-36980761D01*
X137612476Y-36885523D01*
X137660095Y-36790285D01*
X57729285Y-48107380D02*
X57729285Y-47107380D01*
X57491190Y-47107380D01*
X57348333Y-47155000D01*
X57253095Y-47250238D01*
X57205476Y-47345476D01*
X57157857Y-47535952D01*
X57157857Y-47678809D01*
X57205476Y-47869285D01*
X57253095Y-47964523D01*
X57348333Y-48059761D01*
X57491190Y-48107380D01*
X57729285Y-48107380D01*
X56776904Y-47202619D02*
X56729285Y-47155000D01*
X56634047Y-47107380D01*
X56395952Y-47107380D01*
X56300714Y-47155000D01*
X56253095Y-47202619D01*
X56205476Y-47297857D01*
X56205476Y-47393095D01*
X56253095Y-47535952D01*
X56824523Y-48107380D01*
X56205476Y-48107380D01*
X55300714Y-47107380D02*
X55776904Y-47107380D01*
X55824523Y-47583571D01*
X55776904Y-47535952D01*
X55681666Y-47488333D01*
X55443571Y-47488333D01*
X55348333Y-47535952D01*
X55300714Y-47583571D01*
X55253095Y-47678809D01*
X55253095Y-47916904D01*
X55300714Y-48012142D01*
X55348333Y-48059761D01*
X55443571Y-48107380D01*
X55681666Y-48107380D01*
X55776904Y-48059761D01*
X55824523Y-48012142D01*
X57729285Y-68427380D02*
X57729285Y-67427380D01*
X57491190Y-67427380D01*
X57348333Y-67475000D01*
X57253095Y-67570238D01*
X57205476Y-67665476D01*
X57157857Y-67855952D01*
X57157857Y-67998809D01*
X57205476Y-68189285D01*
X57253095Y-68284523D01*
X57348333Y-68379761D01*
X57491190Y-68427380D01*
X57729285Y-68427380D01*
X56776904Y-67522619D02*
X56729285Y-67475000D01*
X56634047Y-67427380D01*
X56395952Y-67427380D01*
X56300714Y-67475000D01*
X56253095Y-67522619D01*
X56205476Y-67617857D01*
X56205476Y-67713095D01*
X56253095Y-67855952D01*
X56824523Y-68427380D01*
X56205476Y-68427380D01*
X55348333Y-67760714D02*
X55348333Y-68427380D01*
X55586428Y-67379761D02*
X55824523Y-68094047D01*
X55205476Y-68094047D01*
X57729285Y-88747380D02*
X57729285Y-87747380D01*
X57491190Y-87747380D01*
X57348333Y-87795000D01*
X57253095Y-87890238D01*
X57205476Y-87985476D01*
X57157857Y-88175952D01*
X57157857Y-88318809D01*
X57205476Y-88509285D01*
X57253095Y-88604523D01*
X57348333Y-88699761D01*
X57491190Y-88747380D01*
X57729285Y-88747380D01*
X56776904Y-87842619D02*
X56729285Y-87795000D01*
X56634047Y-87747380D01*
X56395952Y-87747380D01*
X56300714Y-87795000D01*
X56253095Y-87842619D01*
X56205476Y-87937857D01*
X56205476Y-88033095D01*
X56253095Y-88175952D01*
X56824523Y-88747380D01*
X56205476Y-88747380D01*
X55872142Y-87747380D02*
X55253095Y-87747380D01*
X55586428Y-88128333D01*
X55443571Y-88128333D01*
X55348333Y-88175952D01*
X55300714Y-88223571D01*
X55253095Y-88318809D01*
X55253095Y-88556904D01*
X55300714Y-88652142D01*
X55348333Y-88699761D01*
X55443571Y-88747380D01*
X55729285Y-88747380D01*
X55824523Y-88699761D01*
X55872142Y-88652142D01*
X57729285Y-109067380D02*
X57729285Y-108067380D01*
X57491190Y-108067380D01*
X57348333Y-108115000D01*
X57253095Y-108210238D01*
X57205476Y-108305476D01*
X57157857Y-108495952D01*
X57157857Y-108638809D01*
X57205476Y-108829285D01*
X57253095Y-108924523D01*
X57348333Y-109019761D01*
X57491190Y-109067380D01*
X57729285Y-109067380D01*
X56776904Y-108162619D02*
X56729285Y-108115000D01*
X56634047Y-108067380D01*
X56395952Y-108067380D01*
X56300714Y-108115000D01*
X56253095Y-108162619D01*
X56205476Y-108257857D01*
X56205476Y-108353095D01*
X56253095Y-108495952D01*
X56824523Y-109067380D01*
X56205476Y-109067380D01*
X55824523Y-108162619D02*
X55776904Y-108115000D01*
X55681666Y-108067380D01*
X55443571Y-108067380D01*
X55348333Y-108115000D01*
X55300714Y-108162619D01*
X55253095Y-108257857D01*
X55253095Y-108353095D01*
X55300714Y-108495952D01*
X55872142Y-109067380D01*
X55253095Y-109067380D01*
X57729285Y-129387380D02*
X57729285Y-128387380D01*
X57491190Y-128387380D01*
X57348333Y-128435000D01*
X57253095Y-128530238D01*
X57205476Y-128625476D01*
X57157857Y-128815952D01*
X57157857Y-128958809D01*
X57205476Y-129149285D01*
X57253095Y-129244523D01*
X57348333Y-129339761D01*
X57491190Y-129387380D01*
X57729285Y-129387380D01*
X56776904Y-128482619D02*
X56729285Y-128435000D01*
X56634047Y-128387380D01*
X56395952Y-128387380D01*
X56300714Y-128435000D01*
X56253095Y-128482619D01*
X56205476Y-128577857D01*
X56205476Y-128673095D01*
X56253095Y-128815952D01*
X56824523Y-129387380D01*
X56205476Y-129387380D01*
X55253095Y-129387380D02*
X55824523Y-129387380D01*
X55538809Y-129387380D02*
X55538809Y-128387380D01*
X55634047Y-128530238D01*
X55729285Y-128625476D01*
X55824523Y-128673095D01*
X78049285Y-48107380D02*
X78049285Y-47107380D01*
X77811190Y-47107380D01*
X77668333Y-47155000D01*
X77573095Y-47250238D01*
X77525476Y-47345476D01*
X77477857Y-47535952D01*
X77477857Y-47678809D01*
X77525476Y-47869285D01*
X77573095Y-47964523D01*
X77668333Y-48059761D01*
X77811190Y-48107380D01*
X78049285Y-48107380D01*
X77096904Y-47202619D02*
X77049285Y-47155000D01*
X76954047Y-47107380D01*
X76715952Y-47107380D01*
X76620714Y-47155000D01*
X76573095Y-47202619D01*
X76525476Y-47297857D01*
X76525476Y-47393095D01*
X76573095Y-47535952D01*
X77144523Y-48107380D01*
X76525476Y-48107380D01*
X75906428Y-47107380D02*
X75811190Y-47107380D01*
X75715952Y-47155000D01*
X75668333Y-47202619D01*
X75620714Y-47297857D01*
X75573095Y-47488333D01*
X75573095Y-47726428D01*
X75620714Y-47916904D01*
X75668333Y-48012142D01*
X75715952Y-48059761D01*
X75811190Y-48107380D01*
X75906428Y-48107380D01*
X76001666Y-48059761D01*
X76049285Y-48012142D01*
X76096904Y-47916904D01*
X76144523Y-47726428D01*
X76144523Y-47488333D01*
X76096904Y-47297857D01*
X76049285Y-47202619D01*
X76001666Y-47155000D01*
X75906428Y-47107380D01*
X78049285Y-68427380D02*
X78049285Y-67427380D01*
X77811190Y-67427380D01*
X77668333Y-67475000D01*
X77573095Y-67570238D01*
X77525476Y-67665476D01*
X77477857Y-67855952D01*
X77477857Y-67998809D01*
X77525476Y-68189285D01*
X77573095Y-68284523D01*
X77668333Y-68379761D01*
X77811190Y-68427380D01*
X78049285Y-68427380D01*
X76525476Y-68427380D02*
X77096904Y-68427380D01*
X76811190Y-68427380D02*
X76811190Y-67427380D01*
X76906428Y-67570238D01*
X77001666Y-67665476D01*
X77096904Y-67713095D01*
X76049285Y-68427380D02*
X75858809Y-68427380D01*
X75763571Y-68379761D01*
X75715952Y-68332142D01*
X75620714Y-68189285D01*
X75573095Y-67998809D01*
X75573095Y-67617857D01*
X75620714Y-67522619D01*
X75668333Y-67475000D01*
X75763571Y-67427380D01*
X75954047Y-67427380D01*
X76049285Y-67475000D01*
X76096904Y-67522619D01*
X76144523Y-67617857D01*
X76144523Y-67855952D01*
X76096904Y-67951190D01*
X76049285Y-67998809D01*
X75954047Y-68046428D01*
X75763571Y-68046428D01*
X75668333Y-67998809D01*
X75620714Y-67951190D01*
X75573095Y-67855952D01*
X78049285Y-88747380D02*
X78049285Y-87747380D01*
X77811190Y-87747380D01*
X77668333Y-87795000D01*
X77573095Y-87890238D01*
X77525476Y-87985476D01*
X77477857Y-88175952D01*
X77477857Y-88318809D01*
X77525476Y-88509285D01*
X77573095Y-88604523D01*
X77668333Y-88699761D01*
X77811190Y-88747380D01*
X78049285Y-88747380D01*
X76525476Y-88747380D02*
X77096904Y-88747380D01*
X76811190Y-88747380D02*
X76811190Y-87747380D01*
X76906428Y-87890238D01*
X77001666Y-87985476D01*
X77096904Y-88033095D01*
X75954047Y-88175952D02*
X76049285Y-88128333D01*
X76096904Y-88080714D01*
X76144523Y-87985476D01*
X76144523Y-87937857D01*
X76096904Y-87842619D01*
X76049285Y-87795000D01*
X75954047Y-87747380D01*
X75763571Y-87747380D01*
X75668333Y-87795000D01*
X75620714Y-87842619D01*
X75573095Y-87937857D01*
X75573095Y-87985476D01*
X75620714Y-88080714D01*
X75668333Y-88128333D01*
X75763571Y-88175952D01*
X75954047Y-88175952D01*
X76049285Y-88223571D01*
X76096904Y-88271190D01*
X76144523Y-88366428D01*
X76144523Y-88556904D01*
X76096904Y-88652142D01*
X76049285Y-88699761D01*
X75954047Y-88747380D01*
X75763571Y-88747380D01*
X75668333Y-88699761D01*
X75620714Y-88652142D01*
X75573095Y-88556904D01*
X75573095Y-88366428D01*
X75620714Y-88271190D01*
X75668333Y-88223571D01*
X75763571Y-88175952D01*
X78049285Y-109067380D02*
X78049285Y-108067380D01*
X77811190Y-108067380D01*
X77668333Y-108115000D01*
X77573095Y-108210238D01*
X77525476Y-108305476D01*
X77477857Y-108495952D01*
X77477857Y-108638809D01*
X77525476Y-108829285D01*
X77573095Y-108924523D01*
X77668333Y-109019761D01*
X77811190Y-109067380D01*
X78049285Y-109067380D01*
X76525476Y-109067380D02*
X77096904Y-109067380D01*
X76811190Y-109067380D02*
X76811190Y-108067380D01*
X76906428Y-108210238D01*
X77001666Y-108305476D01*
X77096904Y-108353095D01*
X76192142Y-108067380D02*
X75525476Y-108067380D01*
X75954047Y-109067380D01*
X78049285Y-129387380D02*
X78049285Y-128387380D01*
X77811190Y-128387380D01*
X77668333Y-128435000D01*
X77573095Y-128530238D01*
X77525476Y-128625476D01*
X77477857Y-128815952D01*
X77477857Y-128958809D01*
X77525476Y-129149285D01*
X77573095Y-129244523D01*
X77668333Y-129339761D01*
X77811190Y-129387380D01*
X78049285Y-129387380D01*
X76525476Y-129387380D02*
X77096904Y-129387380D01*
X76811190Y-129387380D02*
X76811190Y-128387380D01*
X76906428Y-128530238D01*
X77001666Y-128625476D01*
X77096904Y-128673095D01*
X75668333Y-128387380D02*
X75858809Y-128387380D01*
X75954047Y-128435000D01*
X76001666Y-128482619D01*
X76096904Y-128625476D01*
X76144523Y-128815952D01*
X76144523Y-129196904D01*
X76096904Y-129292142D01*
X76049285Y-129339761D01*
X75954047Y-129387380D01*
X75763571Y-129387380D01*
X75668333Y-129339761D01*
X75620714Y-129292142D01*
X75573095Y-129196904D01*
X75573095Y-128958809D01*
X75620714Y-128863571D01*
X75668333Y-128815952D01*
X75763571Y-128768333D01*
X75954047Y-128768333D01*
X76049285Y-128815952D01*
X76096904Y-128863571D01*
X76144523Y-128958809D01*
X98369285Y-48107380D02*
X98369285Y-47107380D01*
X98131190Y-47107380D01*
X97988333Y-47155000D01*
X97893095Y-47250238D01*
X97845476Y-47345476D01*
X97797857Y-47535952D01*
X97797857Y-47678809D01*
X97845476Y-47869285D01*
X97893095Y-47964523D01*
X97988333Y-48059761D01*
X98131190Y-48107380D01*
X98369285Y-48107380D01*
X96845476Y-48107380D02*
X97416904Y-48107380D01*
X97131190Y-48107380D02*
X97131190Y-47107380D01*
X97226428Y-47250238D01*
X97321666Y-47345476D01*
X97416904Y-47393095D01*
X95940714Y-47107380D02*
X96416904Y-47107380D01*
X96464523Y-47583571D01*
X96416904Y-47535952D01*
X96321666Y-47488333D01*
X96083571Y-47488333D01*
X95988333Y-47535952D01*
X95940714Y-47583571D01*
X95893095Y-47678809D01*
X95893095Y-47916904D01*
X95940714Y-48012142D01*
X95988333Y-48059761D01*
X96083571Y-48107380D01*
X96321666Y-48107380D01*
X96416904Y-48059761D01*
X96464523Y-48012142D01*
X98369285Y-68427380D02*
X98369285Y-67427380D01*
X98131190Y-67427380D01*
X97988333Y-67475000D01*
X97893095Y-67570238D01*
X97845476Y-67665476D01*
X97797857Y-67855952D01*
X97797857Y-67998809D01*
X97845476Y-68189285D01*
X97893095Y-68284523D01*
X97988333Y-68379761D01*
X98131190Y-68427380D01*
X98369285Y-68427380D01*
X96845476Y-68427380D02*
X97416904Y-68427380D01*
X97131190Y-68427380D02*
X97131190Y-67427380D01*
X97226428Y-67570238D01*
X97321666Y-67665476D01*
X97416904Y-67713095D01*
X95988333Y-67760714D02*
X95988333Y-68427380D01*
X96226428Y-67379761D02*
X96464523Y-68094047D01*
X95845476Y-68094047D01*
X98369285Y-88747380D02*
X98369285Y-87747380D01*
X98131190Y-87747380D01*
X97988333Y-87795000D01*
X97893095Y-87890238D01*
X97845476Y-87985476D01*
X97797857Y-88175952D01*
X97797857Y-88318809D01*
X97845476Y-88509285D01*
X97893095Y-88604523D01*
X97988333Y-88699761D01*
X98131190Y-88747380D01*
X98369285Y-88747380D01*
X96845476Y-88747380D02*
X97416904Y-88747380D01*
X97131190Y-88747380D02*
X97131190Y-87747380D01*
X97226428Y-87890238D01*
X97321666Y-87985476D01*
X97416904Y-88033095D01*
X96512142Y-87747380D02*
X95893095Y-87747380D01*
X96226428Y-88128333D01*
X96083571Y-88128333D01*
X95988333Y-88175952D01*
X95940714Y-88223571D01*
X95893095Y-88318809D01*
X95893095Y-88556904D01*
X95940714Y-88652142D01*
X95988333Y-88699761D01*
X96083571Y-88747380D01*
X96369285Y-88747380D01*
X96464523Y-88699761D01*
X96512142Y-88652142D01*
X98369285Y-109067380D02*
X98369285Y-108067380D01*
X98131190Y-108067380D01*
X97988333Y-108115000D01*
X97893095Y-108210238D01*
X97845476Y-108305476D01*
X97797857Y-108495952D01*
X97797857Y-108638809D01*
X97845476Y-108829285D01*
X97893095Y-108924523D01*
X97988333Y-109019761D01*
X98131190Y-109067380D01*
X98369285Y-109067380D01*
X96845476Y-109067380D02*
X97416904Y-109067380D01*
X97131190Y-109067380D02*
X97131190Y-108067380D01*
X97226428Y-108210238D01*
X97321666Y-108305476D01*
X97416904Y-108353095D01*
X96464523Y-108162619D02*
X96416904Y-108115000D01*
X96321666Y-108067380D01*
X96083571Y-108067380D01*
X95988333Y-108115000D01*
X95940714Y-108162619D01*
X95893095Y-108257857D01*
X95893095Y-108353095D01*
X95940714Y-108495952D01*
X96512142Y-109067380D01*
X95893095Y-109067380D01*
X98369285Y-129387380D02*
X98369285Y-128387380D01*
X98131190Y-128387380D01*
X97988333Y-128435000D01*
X97893095Y-128530238D01*
X97845476Y-128625476D01*
X97797857Y-128815952D01*
X97797857Y-128958809D01*
X97845476Y-129149285D01*
X97893095Y-129244523D01*
X97988333Y-129339761D01*
X98131190Y-129387380D01*
X98369285Y-129387380D01*
X96845476Y-129387380D02*
X97416904Y-129387380D01*
X97131190Y-129387380D02*
X97131190Y-128387380D01*
X97226428Y-128530238D01*
X97321666Y-128625476D01*
X97416904Y-128673095D01*
X95893095Y-129387380D02*
X96464523Y-129387380D01*
X96178809Y-129387380D02*
X96178809Y-128387380D01*
X96274047Y-128530238D01*
X96369285Y-128625476D01*
X96464523Y-128673095D01*
X118689285Y-48107380D02*
X118689285Y-47107380D01*
X118451190Y-47107380D01*
X118308333Y-47155000D01*
X118213095Y-47250238D01*
X118165476Y-47345476D01*
X118117857Y-47535952D01*
X118117857Y-47678809D01*
X118165476Y-47869285D01*
X118213095Y-47964523D01*
X118308333Y-48059761D01*
X118451190Y-48107380D01*
X118689285Y-48107380D01*
X117165476Y-48107380D02*
X117736904Y-48107380D01*
X117451190Y-48107380D02*
X117451190Y-47107380D01*
X117546428Y-47250238D01*
X117641666Y-47345476D01*
X117736904Y-47393095D01*
X116546428Y-47107380D02*
X116451190Y-47107380D01*
X116355952Y-47155000D01*
X116308333Y-47202619D01*
X116260714Y-47297857D01*
X116213095Y-47488333D01*
X116213095Y-47726428D01*
X116260714Y-47916904D01*
X116308333Y-48012142D01*
X116355952Y-48059761D01*
X116451190Y-48107380D01*
X116546428Y-48107380D01*
X116641666Y-48059761D01*
X116689285Y-48012142D01*
X116736904Y-47916904D01*
X116784523Y-47726428D01*
X116784523Y-47488333D01*
X116736904Y-47297857D01*
X116689285Y-47202619D01*
X116641666Y-47155000D01*
X116546428Y-47107380D01*
X118213095Y-68427380D02*
X118213095Y-67427380D01*
X117975000Y-67427380D01*
X117832142Y-67475000D01*
X117736904Y-67570238D01*
X117689285Y-67665476D01*
X117641666Y-67855952D01*
X117641666Y-67998809D01*
X117689285Y-68189285D01*
X117736904Y-68284523D01*
X117832142Y-68379761D01*
X117975000Y-68427380D01*
X118213095Y-68427380D01*
X117165476Y-68427380D02*
X116975000Y-68427380D01*
X116879761Y-68379761D01*
X116832142Y-68332142D01*
X116736904Y-68189285D01*
X116689285Y-67998809D01*
X116689285Y-67617857D01*
X116736904Y-67522619D01*
X116784523Y-67475000D01*
X116879761Y-67427380D01*
X117070238Y-67427380D01*
X117165476Y-67475000D01*
X117213095Y-67522619D01*
X117260714Y-67617857D01*
X117260714Y-67855952D01*
X117213095Y-67951190D01*
X117165476Y-67998809D01*
X117070238Y-68046428D01*
X116879761Y-68046428D01*
X116784523Y-67998809D01*
X116736904Y-67951190D01*
X116689285Y-67855952D01*
X118213095Y-88747380D02*
X118213095Y-87747380D01*
X117975000Y-87747380D01*
X117832142Y-87795000D01*
X117736904Y-87890238D01*
X117689285Y-87985476D01*
X117641666Y-88175952D01*
X117641666Y-88318809D01*
X117689285Y-88509285D01*
X117736904Y-88604523D01*
X117832142Y-88699761D01*
X117975000Y-88747380D01*
X118213095Y-88747380D01*
X117070238Y-88175952D02*
X117165476Y-88128333D01*
X117213095Y-88080714D01*
X117260714Y-87985476D01*
X117260714Y-87937857D01*
X117213095Y-87842619D01*
X117165476Y-87795000D01*
X117070238Y-87747380D01*
X116879761Y-87747380D01*
X116784523Y-87795000D01*
X116736904Y-87842619D01*
X116689285Y-87937857D01*
X116689285Y-87985476D01*
X116736904Y-88080714D01*
X116784523Y-88128333D01*
X116879761Y-88175952D01*
X117070238Y-88175952D01*
X117165476Y-88223571D01*
X117213095Y-88271190D01*
X117260714Y-88366428D01*
X117260714Y-88556904D01*
X117213095Y-88652142D01*
X117165476Y-88699761D01*
X117070238Y-88747380D01*
X116879761Y-88747380D01*
X116784523Y-88699761D01*
X116736904Y-88652142D01*
X116689285Y-88556904D01*
X116689285Y-88366428D01*
X116736904Y-88271190D01*
X116784523Y-88223571D01*
X116879761Y-88175952D01*
X118213095Y-109067380D02*
X118213095Y-108067380D01*
X117975000Y-108067380D01*
X117832142Y-108115000D01*
X117736904Y-108210238D01*
X117689285Y-108305476D01*
X117641666Y-108495952D01*
X117641666Y-108638809D01*
X117689285Y-108829285D01*
X117736904Y-108924523D01*
X117832142Y-109019761D01*
X117975000Y-109067380D01*
X118213095Y-109067380D01*
X117308333Y-108067380D02*
X116641666Y-108067380D01*
X117070238Y-109067380D01*
X118213095Y-129387380D02*
X118213095Y-128387380D01*
X117975000Y-128387380D01*
X117832142Y-128435000D01*
X117736904Y-128530238D01*
X117689285Y-128625476D01*
X117641666Y-128815952D01*
X117641666Y-128958809D01*
X117689285Y-129149285D01*
X117736904Y-129244523D01*
X117832142Y-129339761D01*
X117975000Y-129387380D01*
X118213095Y-129387380D01*
X116784523Y-128387380D02*
X116975000Y-128387380D01*
X117070238Y-128435000D01*
X117117857Y-128482619D01*
X117213095Y-128625476D01*
X117260714Y-128815952D01*
X117260714Y-129196904D01*
X117213095Y-129292142D01*
X117165476Y-129339761D01*
X117070238Y-129387380D01*
X116879761Y-129387380D01*
X116784523Y-129339761D01*
X116736904Y-129292142D01*
X116689285Y-129196904D01*
X116689285Y-128958809D01*
X116736904Y-128863571D01*
X116784523Y-128815952D01*
X116879761Y-128768333D01*
X117070238Y-128768333D01*
X117165476Y-128815952D01*
X117213095Y-128863571D01*
X117260714Y-128958809D01*
X138533095Y-48107380D02*
X138533095Y-47107380D01*
X138295000Y-47107380D01*
X138152142Y-47155000D01*
X138056904Y-47250238D01*
X138009285Y-47345476D01*
X137961666Y-47535952D01*
X137961666Y-47678809D01*
X138009285Y-47869285D01*
X138056904Y-47964523D01*
X138152142Y-48059761D01*
X138295000Y-48107380D01*
X138533095Y-48107380D01*
X137056904Y-47107380D02*
X137533095Y-47107380D01*
X137580714Y-47583571D01*
X137533095Y-47535952D01*
X137437857Y-47488333D01*
X137199761Y-47488333D01*
X137104523Y-47535952D01*
X137056904Y-47583571D01*
X137009285Y-47678809D01*
X137009285Y-47916904D01*
X137056904Y-48012142D01*
X137104523Y-48059761D01*
X137199761Y-48107380D01*
X137437857Y-48107380D01*
X137533095Y-48059761D01*
X137580714Y-48012142D01*
X138533095Y-68427380D02*
X138533095Y-67427380D01*
X138295000Y-67427380D01*
X138152142Y-67475000D01*
X138056904Y-67570238D01*
X138009285Y-67665476D01*
X137961666Y-67855952D01*
X137961666Y-67998809D01*
X138009285Y-68189285D01*
X138056904Y-68284523D01*
X138152142Y-68379761D01*
X138295000Y-68427380D01*
X138533095Y-68427380D01*
X137104523Y-67760714D02*
X137104523Y-68427380D01*
X137342619Y-67379761D02*
X137580714Y-68094047D01*
X136961666Y-68094047D01*
X138533095Y-88747380D02*
X138533095Y-87747380D01*
X138295000Y-87747380D01*
X138152142Y-87795000D01*
X138056904Y-87890238D01*
X138009285Y-87985476D01*
X137961666Y-88175952D01*
X137961666Y-88318809D01*
X138009285Y-88509285D01*
X138056904Y-88604523D01*
X138152142Y-88699761D01*
X138295000Y-88747380D01*
X138533095Y-88747380D01*
X137628333Y-87747380D02*
X137009285Y-87747380D01*
X137342619Y-88128333D01*
X137199761Y-88128333D01*
X137104523Y-88175952D01*
X137056904Y-88223571D01*
X137009285Y-88318809D01*
X137009285Y-88556904D01*
X137056904Y-88652142D01*
X137104523Y-88699761D01*
X137199761Y-88747380D01*
X137485476Y-88747380D01*
X137580714Y-88699761D01*
X137628333Y-88652142D01*
X138533095Y-109067380D02*
X138533095Y-108067380D01*
X138295000Y-108067380D01*
X138152142Y-108115000D01*
X138056904Y-108210238D01*
X138009285Y-108305476D01*
X137961666Y-108495952D01*
X137961666Y-108638809D01*
X138009285Y-108829285D01*
X138056904Y-108924523D01*
X138152142Y-109019761D01*
X138295000Y-109067380D01*
X138533095Y-109067380D01*
X137580714Y-108162619D02*
X137533095Y-108115000D01*
X137437857Y-108067380D01*
X137199761Y-108067380D01*
X137104523Y-108115000D01*
X137056904Y-108162619D01*
X137009285Y-108257857D01*
X137009285Y-108353095D01*
X137056904Y-108495952D01*
X137628333Y-109067380D01*
X137009285Y-109067380D01*
X138533095Y-129387380D02*
X138533095Y-128387380D01*
X138295000Y-128387380D01*
X138152142Y-128435000D01*
X138056904Y-128530238D01*
X138009285Y-128625476D01*
X137961666Y-128815952D01*
X137961666Y-128958809D01*
X138009285Y-129149285D01*
X138056904Y-129244523D01*
X138152142Y-129339761D01*
X138295000Y-129387380D01*
X138533095Y-129387380D01*
X137009285Y-129387380D02*
X137580714Y-129387380D01*
X137295000Y-129387380D02*
X137295000Y-128387380D01*
X137390238Y-128530238D01*
X137485476Y-128625476D01*
X137580714Y-128673095D01*
M02*
